<?xml version="1.0" encoding="utf-8"?>
<!-- Generator: Adobe Illustrator 25.4.1, SVG Export Plug-In . SVG Version: 6.00 Build 0)  -->
<svg version="1.1" id="Layer_1" xmlns="http://www.w3.org/2000/svg" xmlns:xlink="http://www.w3.org/1999/xlink" x="0px" y="0px"
	 width="200px" height="200px" viewBox="0 0 200 200" style="enable-background:new 0 0 200 200;" xml:space="preserve">
<style type="text/css">
	.st0{fill:#3FD1CD;}
	.st1{fill:none;stroke:#3FD1CD;stroke-width:7;stroke-miterlimit:10;}
</style>
<g>
	
		<ellipse transform="matrix(0.1601825 -0.9870874 0.9870874 0.1601825 37.5992661 92.0663376)" class="st0" cx="72.9051514" cy="23.936842" rx="9.1471024" ry="9.1470547"/>
	<path class="st1" d="M93.7011566,182.2909088H52.1092339"/>
	<path class="st1" d="M75.182251,111.8675537l4.7912598,35.8034058c1.1030273,8.2421265,8.6787109,14.029541,16.9208374,12.9266357
		c5.3096924-0.7105713,9.0380249-5.5909424,8.3274536-10.9006348l-4.7324219-35.3638916"/>
	<path class="st1" d="M188.7855225,89.1672974l-5.2124023-38.9498291
		c-1.9700317-14.7219238-16.6879883-24.1513062-30.8856812-19.7878418L75.0168457,54.0621338L46.205265,70.9916382
		c-6.5043335,3.8217773-10.0836792,11.1704102-9.0830688,18.6477661s6.3862305,13.6261597,13.6665039,15.6033936
		l32.2491417,8.7581787l81.1515503,2.3787231C179.0349121,116.8566284,190.7556152,103.8892822,188.7855225,89.1672974z"/>
	<path class="st1" d="M134.8126831,35.8682861V24.2920532c0-11.3412476-9.1939697-20.5352173-20.5352173-20.5352173H31.5330238
		c-11.3413086,0-20.5352783,9.1939697-20.5352783,20.5352173v151.4158936c0,11.3413086,9.1939707,20.5352173,20.5352783,20.5352173
		h82.7443848c11.3413086,0,20.5352173-9.1939087,20.5352173-20.5352173v-60.1893311"/>
	<line class="st1" x1="75.0168228" y1="54.0621643" x2="83.0378647" y2="114.0009918"/>
	<line class="st1" x1="152.6874237" y1="30.4296513" x2="164.1893768" y2="116.379715"/>
</g>
</svg>
