<?xml version="1.0" encoding="utf-8"?>
<!-- Generator: Adobe Illustrator 25.4.1, SVG Export Plug-In . SVG Version: 6.00 Build 0)  -->
<svg version="1.1" id="Layer_1" xmlns="http://www.w3.org/2000/svg" xmlns:xlink="http://www.w3.org/1999/xlink" x="0px" y="0px"
	 width="200px" height="200px" viewBox="0 0 200 200" style="enable-background:new 0 0 200 200;" xml:space="preserve">
<style type="text/css">
	.st0{fill:none;stroke:#6500E7;stroke-width:7;stroke-miterlimit:10;}
</style>
<g>
	<path class="st0" d="M88.2912598,14.0939846H28.0752583c-13.5269489,0-24.4927063,10.9657574-24.4927063,24.4927044v61.0524406
		c0,13.5268936,10.9657116,24.4926071,24.4926033,24.4926071h4.0025043v24.3859024
		c0,3.1720886,3.5655556,5.0360107,6.1702385,3.2255554l39.724041-27.6114578h10.3194275
		c13.526886,0,24.4925995-10.9657135,24.4925995-24.4926071V38.586689
		C112.7839661,25.059742,101.8182068,14.0939846,88.2912598,14.0939846z"/>
	<path class="st0" d="M171.9247437,47.5473747h-59.1407776v52.0917549c0,13.5269394-10.9656601,24.4926071-24.4925995,24.4926071
		h-1.0753326v8.9607925c0,13.5269318,10.9657669,24.4925995,24.4925995,24.4925995h10.3194275l39.7240601,27.6114044
		c2.6046753,1.8104858,6.1702271-0.0533905,6.1702271-3.2254944v-24.38591h4.0025024
		c13.5269318,0,24.4925995-10.9656677,24.4925995-24.4925995V72.0400848
		C196.41745,58.5131416,185.4516754,47.5473747,171.9247437,47.5473747z"/>
	<circle class="st0" cx="58.3923378" cy="67.8882523" r="26.0757236"/>
	<line class="st0" x1="65.9492188" y1="79.6865463" x2="85.4238739" y2="99.1611938"/>
	<path class="st0" d="M117.8019791,133.9885712l25.0541-57.1107025c0.2633667-0.6003265,1.1160431-0.5974045,1.3752747,0.004715
		l24.5870514,57.1059875"/>
	<line class="st0" x1="127.5505829" y1="111.7666702" x2="159.2507477" y2="111.7666702"/>
</g>
</svg>
