<?xml version="1.0" encoding="utf-8"?>
<!-- Generator: Adobe Illustrator 25.4.1, SVG Export Plug-In . SVG Version: 6.00 Build 0)  -->
<svg version="1.1" id="Layer_1" xmlns="http://www.w3.org/2000/svg" xmlns:xlink="http://www.w3.org/1999/xlink" x="0px" y="0px"
	 width="200px" height="200px" viewBox="0 0 200 200" style="enable-background:new 0 0 200 200;" xml:space="preserve">
<style type="text/css">
	.st0{fill:none;stroke:#09B778;stroke-width:7;stroke-miterlimit:10;}
	.st1{fill:#09B778;}
</style>
<g>
	<circle class="st0" cx="58.4366188" cy="182.7901306" r="13.4990349"/>
	<circle class="st0" cx="182.7901306" cy="58.4366188" r="13.4990349"/>
	<circle class="st0" cx="57.508606" cy="57.508606" r="13.4990034"/>
	<g>
		<circle class="st1" cx="11.1080408" cy="103.9091644" r="11.1080513"/>
		<circle class="st1" cx="103.9091644" cy="11.1080408" r="11.1080513"/>
	</g>
	<path class="st0" d="M173.9592743,48.245575c-31.6400757-22.2146244-74.3335724-21.7648144-105.5090866,1.3817253"/>
	<path class="st0" d="M49.6273651,68.4501266c-23.1465397,31.1755753-23.5964146,73.869072-1.3817902,105.5091476"/>
	<line class="st0" x1="15.8806725" y1="99.1365433" x2="47.9633484" y2="67.0538712"/>
	<line class="st0" x1="99.1365433" y1="15.8806725" x2="67.0538712" y2="47.9633484"/>
	<path class="st0" d="M186.1840363,144.4997864l-12.4702759-4.9225616l-9.4830475-28.9231567
		c-1.5372314-4.6883621-5.2378998-8.3496857-9.9424438-9.8365631L76.107399,76.107399l24.7101059,78.1808701
		c1.4868774,4.7045441,5.148201,8.4052124,9.8365631,9.9424438l28.9231567,9.4830475l4.9225616,12.4702759
		c1.9017487,4.8176575,8.117691,6.1082611,11.7801208,2.4458313l32.3499603-32.3499603
		C192.2922974,152.6174774,191.0016937,146.401535,186.1840363,144.4997864z"/>
	<line class="st0" x1="139.5772552" y1="173.7137299" x2="173.7137299" y2="139.5772552"/>
	<line class="st0" x1="76.1073761" y1="76.1073761" x2="118.571991" y2="118.571991"/>
	<circle class="st0" cx="132.2520905" cy="132.2520905" r="19.3465672"/>
</g>
</svg>
