<?xml version="1.0" encoding="utf-8"?>
<!-- Generator: Adobe Illustrator 25.4.1, SVG Export Plug-In . SVG Version: 6.00 Build 0)  -->
<svg version="1.1" id="Layer_1" xmlns="http://www.w3.org/2000/svg" xmlns:xlink="http://www.w3.org/1999/xlink" x="0px" y="0px"
	 width="200px" height="200px" viewBox="0 0 200 200" style="enable-background:new 0 0 200 200;" xml:space="preserve">
<style type="text/css">
	.st0{fill:none;stroke:#055FE0;stroke-width:7;stroke-miterlimit:10;}
	.st1{fill:#055FE0;}
</style>
<g>
	<path class="st0" d="M71.5951004,128.2492371l-0.000061-0.000061c-14.7087708-14.7087708-14.7087746-38.5564041,0-53.2651749
		l38.5662231-38.5662308c19.8444138-19.8444195,46.3999863-31.539299,74.4367294-32.781395l0.1367035-0.0060561
		c6.6632843-0.2951994,12.1316223,5.2142134,11.7865601,11.875103v0.0000563
		c-1.4448395,27.8909492-13.1742401,54.2569885-32.9225464,74.0053101l-38.7384262,38.7384338
		C110.1515045,142.9580078,86.3038712,142.9580078,71.5951004,128.2492371z"/>
	<path class="st1" d="M61.6999931,138.1442261c-3.6951103-3.6951141-6.4603271-7.9674683-8.2988548-12.5263443
		c-15.1777115,3.4861984-26.501236,17.0680008-26.501236,33.3036423v14.0228424h14.02285
		c16.2356415,0,29.8174362-11.3235779,33.3036423-26.501236c-4.5588684-1.8385162-8.8312302-4.6037445-12.5263405-8.2988434
		L61.6999931,138.1442261z"/>
	<path class="st0" d="M71.5950089,74.9840088l26.7993469-26.7992821H54.046936
		c-10.2795448,0-20.1380234,4.0835075-27.4067898,11.352272L5.7284684,80.4486771
		C1.4912585,84.6858902,3.4901316,91.9252396,9.301219,93.3879929l51.5716133,12.9813538
		C59.4616547,95.2145004,63.0290337,83.5499878,71.5950089,74.9840088z"/>
	<path class="st0" d="M93.4749298,138.9714355l12.9813538,51.5716248c1.4627457,5.8110809,8.7021027,7.8099518,12.9393158,3.5727386
		l20.9116669-20.9116669c7.2687683-7.2687683,11.3522797-17.127243,11.3522797-27.4067993v-44.3473511L124.86026,128.2492065
		C116.294281,136.8151855,104.629776,140.3826141,93.4749298,138.9714355z"/>
</g>
</svg>
