<?xml version="1.0" encoding="utf-8"?>
<!-- Generator: Adobe Illustrator 25.4.1, SVG Export Plug-In . SVG Version: 6.00 Build 0)  -->
<svg version="1.1" id="Layer_1" xmlns="http://www.w3.org/2000/svg" xmlns:xlink="http://www.w3.org/1999/xlink" x="0px" y="0px"
	 width="200px" height="200px" viewBox="0 0 200 200" style="enable-background:new 0 0 200 200;" xml:space="preserve">
<style type="text/css">
	.st0{fill:none;stroke:#F73665;stroke-width:7;stroke-linecap:round;stroke-linejoin:round;}
	.st1{fill:#F73665;}
</style>
<g>
	<path class="st0" d="M86.238533,148.1651306l-68.4822006,0.0000305c-2.1310253,0-4.2655516-0.3854065-6.1886415-1.3035583
		c-4.9583607-2.3672791-7.8979683-7.2608337-7.8979683-12.4579315L3.6697059,72.7993774
		c-0.0000005-2.1311417,0.3858638-4.2657394,1.3046193-6.1886673c2.3682795-4.9567375,7.2611198-7.8951149,12.4568672-7.8951149
		H86.238533"/>
	<path class="st0" d="M86.238533,175.6880798H44.9541283"/>
	<path class="st0" d="M168.8073425,51.8348618h-27.522934"/>
	<path class="st0" d="M168.8073425,79.3577957h-27.522934"/>
	<path class="st0" d="M181.9996796,24.3119259h-53.907608c-7.9145737,0-14.3306046,6.4160309-14.3306046,14.3306026v122.7149353
		c0,7.9145813,6.4160309,14.3306122,14.3306046,14.3306122h53.907608c7.914566,0,14.3305969-6.4160309,14.3305969-14.3306122
		V38.6425285C196.3302765,30.7279568,189.9142456,24.3119259,181.9996796,24.3119259z"/>
	<path class="st0" d="M65.5963287,148.1651306v27.5229492"/>
	<path class="st1" d="M155.0458679,158.2709656c7.4813538,0,13.5462036-6.0648499,13.5462036-13.5461884
		c0-7.4813538-6.0648499-13.5462036-13.5462036-13.5462036s-13.5461884,6.0648499-13.5461884,13.5462036
		C141.4996796,152.2061157,147.5645142,158.2709656,155.0458679,158.2709656z"/>
</g>
</svg>
