<?xml version="1.0" encoding="utf-8"?>
<!-- Generator: Adobe Illustrator 25.4.1, SVG Export Plug-In . SVG Version: 6.00 Build 0)  -->
<svg version="1.1" id="Layer_1" xmlns="http://www.w3.org/2000/svg" xmlns:xlink="http://www.w3.org/1999/xlink" x="0px" y="0px"
	 width="200px" height="200px" viewBox="0 0 200 200" style="enable-background:new 0 0 200 200;" xml:space="preserve">
<style type="text/css">
	.st0{fill:#07DDC8;}
	.st1{fill:none;stroke:#07DDC8;stroke-width:7;stroke-miterlimit:10;}
</style>
<g>
	<path class="st0" d="M110.212471,115.9499588c17.617691,0,31.8999252-14.2822342,31.8999252-31.8999176
		S127.830162,52.1501198,110.212471,52.1501198s-31.8999176,14.282238-31.8999176,31.8999214
		S92.5947876,115.9499588,110.212471,115.9499588z"/>
	<path class="st1" d="M6.5377312,80.0625534h23.9249401"/>
	<path class="st1" d="M6.5377312,40.1876526h23.9249401"/>
	<path class="st1" d="M6.5377312,119.9374466h23.9249401"/>
	<path class="st1" d="M6.5377312,159.8123474h23.9249401"/>
	<path class="st1" d="M62.3625908,139.8748932c5.5714302-7.428421,12.7956963-13.4579315,21.1011543-17.6104507
		c8.3050461-4.1525192,17.463295-6.3144836,26.7487259-6.3144836s18.4436874,2.1619644,26.7487106,6.3144836
		c8.3054657,4.1525192,15.5297546,10.1820297,21.1011658,17.6104507"/>
	<path class="st1" d="M189.962265,187.7247772V12.2752209c0-4.4044433-3.5706635-7.9749794-7.9749756-7.9749794H38.4376526
		c-4.4043159,0-7.9749813,3.5705361-7.9749813,7.9749794v175.4495544c0,4.4043121,3.5706654,7.9749756,7.9749813,7.9749756
		h143.5496368C186.3916016,195.6997528,189.962265,192.1290894,189.962265,187.7247772z"/>
</g>
</svg>
