<?xml version="1.0" encoding="utf-8"?>
<!-- Generator: Adobe Illustrator 25.4.1, SVG Export Plug-In . SVG Version: 6.00 Build 0)  -->
<svg version="1.1" id="Layer_1" xmlns="http://www.w3.org/2000/svg" xmlns:xlink="http://www.w3.org/1999/xlink" x="0px" y="0px"
	 width="200px" height="200px" viewBox="0 0 200 200" style="enable-background:new 0 0 200 200;" xml:space="preserve">
<style type="text/css">
	.st0{fill:none;stroke:#5215E8;stroke-width:7;stroke-miterlimit:10;}
	.st1{fill:#5215E8;}
</style>
<g>
	<path class="st0" d="M100,52.2464828C31.4924507,52.2464828,4.0894299,100,4.0894299,100S31.4924507,147.7535095,100,147.7535095
		S195.9105682,100,195.9105682,100S168.5075531,52.2464828,100,52.2464828z"/>
	<path class="st1" d="M100,124.75c13.6691284,0,24.75-11.0808716,24.75-24.75S113.6691284,75.25,100,75.25
		S75.25,86.3308716,75.25,100S86.3308716,124.75,100,124.75z"/>
	<g>
		<g>
			<line class="st0" x1="100" y1="38.7197266" x2="100" y2="11.0768681"/>
			<line class="st0" x1="45.7491455" y1="47.4672775" x2="34.2508545" y2="22.329319"/>
			<line class="st0" x1="154.2508545" y1="47.4672775" x2="165.7491455" y2="22.329319"/>
		</g>
		<g>
			<line class="st0" x1="100" y1="161.2802734" x2="100" y2="188.9231262"/>
			<line class="st0" x1="154.2508545" y1="152.5327301" x2="165.7491455" y2="177.6706848"/>
			<line class="st0" x1="45.7491455" y1="152.5327301" x2="34.2508545" y2="177.6706848"/>
		</g>
	</g>
</g>
</svg>
