<svg width="20" height="21" viewBox="0 0 20 21" fill="none" xmlns="http://www.w3.org/2000/svg">
<path d="M18.3087 15.4599C18.3087 15.7599 18.242 16.0682 18.1003 16.3682C17.9587 16.6682 17.7753 16.9516 17.5337 17.2182C17.1253 17.6682 16.6753 17.9932 16.167 18.2016C15.667 18.4099 15.1253 18.5182 14.542 18.5182C13.692 18.5182 12.7837 18.3182 11.8253 17.9099C10.867 17.5016 9.90866 16.9516 8.95866 16.2599C8.00033 15.5599 7.09199 14.7849 6.22533 13.9266C5.36699 13.0599 4.59199 12.1516 3.90033 11.2016C3.21699 10.2516 2.66699 9.30156 2.26699 8.3599C1.86699 7.4099 1.66699 6.50156 1.66699 5.6349C1.66699 5.06823 1.76699 4.52656 1.96699 4.02656C2.16699 3.51823 2.48366 3.05156 2.92533 2.6349C3.45866 2.1099 4.04199 1.85156 4.65866 1.85156C4.89199 1.85156 5.12533 1.90156 5.33366 2.00156C5.55033 2.10156 5.74199 2.25156 5.89199 2.46823L7.82533 5.19323C7.97533 5.40156 8.08366 5.59323 8.15866 5.77656C8.23366 5.95156 8.27533 6.12656 8.27533 6.2849C8.27533 6.4849 8.21699 6.6849 8.10033 6.87656C7.99199 7.06823 7.83366 7.26823 7.63366 7.46823L7.00033 8.12656C6.90866 8.21823 6.86699 8.32656 6.86699 8.4599C6.86699 8.52656 6.87533 8.5849 6.89199 8.65156C6.91699 8.71823 6.94199 8.76823 6.95866 8.81823C7.10866 9.09323 7.36699 9.45156 7.73366 9.8849C8.10866 10.3182 8.50866 10.7599 8.94199 11.2016C9.39199 11.6432 9.82533 12.0516 10.267 12.4266C10.7003 12.7932 11.0587 13.0432 11.342 13.1932C11.3837 13.2099 11.4337 13.2349 11.492 13.2599C11.5587 13.2849 11.6253 13.2932 11.7003 13.2932C11.842 13.2932 11.9503 13.2432 12.042 13.1516L12.6753 12.5266C12.8837 12.3182 13.0837 12.1599 13.2753 12.0599C13.467 11.9432 13.6587 11.8849 13.867 11.8849C14.0253 11.8849 14.192 11.9182 14.3753 11.9932C14.5587 12.0682 14.7503 12.1766 14.9587 12.3182L17.717 14.2766C17.9337 14.4266 18.0837 14.6016 18.1753 14.8099C18.2587 15.0182 18.3087 15.2266 18.3087 15.4599Z" stroke="#1B17EC" stroke-width="2" stroke-miterlimit="10"/>
<path d="M17.5 6.68359H13.5V2.68359" stroke="#1B17EC" stroke-width="2" stroke-linecap="round" stroke-linejoin="round"/>
</svg>
