<svg width="512" height="512" viewBox="0 0 512 512" fill="none" xmlns="http://www.w3.org/2000/svg">
<g clip-path="url(#clip0_93_67)">
<path d="M256 512C114.837 512 0 397.163 0 256C0 114.837 114.837 0 256 0C397.163 0 512 114.837 512 256C512 397.163 397.163 512 256 512ZM256 42.6667C138.368 42.6667 42.6667 138.368 42.6667 256C42.6667 373.632 138.368 469.333 256 469.333C373.632 469.333 469.333 373.632 469.333 256C469.333 138.368 373.632 42.6667 256 42.6667ZM309.333 348.373C319.552 342.485 323.051 329.429 317.141 319.232L277.333 250.283V128C277.333 116.224 267.797 106.667 256 106.667C244.203 106.667 234.667 116.224 234.667 128V256C234.667 259.755 235.648 263.424 237.525 266.667L280.192 340.565C284.16 347.413 291.307 351.232 298.688 351.232C302.315 351.232 305.984 350.315 309.333 348.373Z" fill="#0F6FFF"/>
</g>
<defs>
<clipPath id="clip0_93_67">
<rect width="512" height="512" fill="white"/>
</clipPath>
</defs>
</svg>
