<svg width="44" height="44" viewBox="0 0 44 44" fill="none" xmlns="http://www.w3.org/2000/svg">
<path d="M13.75 7.79167V16.5C13.8264 16.4236 14.0708 16.225 14.4375 16.0417C14.8042 15.8583 16.1181 14.5903 16.7292 13.9792C17.0347 13.6736 17.7833 13.0167 18.3333 12.8333C18.8833 12.65 19.3264 12.9097 19.4792 13.0625C19.7083 13.2153 20.1667 13.7958 20.1667 14.8958C20.1667 16.2708 17.875 18.1042 16.9583 19.0208C16.225 19.7542 15.7361 21.9236 15.5833 22.9167H22C22.5063 22.9167 22.9167 22.5063 22.9167 22V7.79167C22.9167 7.28541 22.5063 6.875 22 6.875H14.6667C14.1604 6.875 13.75 7.28541 13.75 7.79167Z" fill="#EE2524"/>
<path d="M36.4375 16.7292C36.4375 18.5011 37.8739 19.9375 39.6458 19.9375C41.4177 19.9375 42.8542 18.5011 42.8542 16.7292C42.8542 14.9573 41.4177 13.5208 39.6458 13.5208C37.8739 13.5208 36.4375 14.9573 36.4375 16.7292Z" fill="#EE2524"/>
<path d="M30.4792 22.2292C30.4792 23.2417 31.3 24.0625 32.3125 24.0625C33.325 24.0625 34.1458 23.2417 34.1458 22.2292C34.1458 21.2166 33.325 20.3958 32.3125 20.3958C31.3 20.3958 30.4792 21.2166 30.4792 22.2292Z" fill="#EE2524"/>
<path d="M30.0208 5.04167C30.0208 6.43388 31.1494 7.5625 32.5417 7.5625C33.9339 7.5625 35.0625 6.43388 35.0625 5.04167C35.0625 3.64945 33.9339 2.52083 32.5417 2.52083C31.1494 2.52083 30.0208 3.64945 30.0208 5.04167Z" fill="#EE2524"/>
<path d="M29.5625 13.9792C29.5625 14.9917 30.3833 15.8125 31.3958 15.8125C32.4083 15.8125 33.2292 14.9917 33.2292 13.9792C33.2292 12.9666 32.4083 12.1458 31.3958 12.1458C30.3833 12.1458 29.5625 12.9666 29.5625 13.9792Z" fill="#EE2524"/>
<path d="M38.2708 9.39583C38.2708 9.90209 38.6812 10.3125 39.1875 10.3125C39.6937 10.3125 40.1042 9.90209 40.1042 9.39583C40.1042 8.88957 39.6937 8.47917 39.1875 8.47917C38.6812 8.47917 38.2708 8.88957 38.2708 9.39583Z" fill="#EE2524"/>
<path d="M37.8125 24.5208C37.8125 25.0271 38.2229 25.4375 38.7292 25.4375C39.2354 25.4375 39.6458 25.0271 39.6458 24.5208C39.6458 24.0146 39.2354 23.6042 38.7292 23.6042C38.2229 23.6042 37.8125 24.0146 37.8125 24.5208Z" fill="#EE2524"/>
<path d="M27.2708 9.39583C27.2708 9.90209 27.6812 10.3125 28.1875 10.3125C28.6937 10.3125 29.1042 9.90209 29.1042 9.39583C29.1042 8.88957 28.6937 8.47917 28.1875 8.47917C27.6812 8.47917 27.2708 8.88957 27.2708 9.39583Z" fill="#EE2524"/>
<path d="M38.7292 2.52083C38.7292 3.53336 39.55 4.35417 40.5625 4.35417C41.575 4.35417 42.3958 3.53336 42.3958 2.52083C42.3958 1.50831 41.575 0.6875 40.5625 0.6875C39.55 0.6875 38.7292 1.50831 38.7292 2.52083Z" fill="#EE2524"/>
<path d="M11.1115 31.9833C12.4068 31.2714 13.4764 30.1471 14.124 28.8215C15.6695 25.6549 14.8649 21.5161 17.0973 18.7864C17.7645 17.9714 18.6526 17.3626 19.3247 16.5526C19.9969 15.7425 20.4385 14.5936 19.9969 13.6412C19.6338 12.8557 18.7016 12.6838 17.9117 13.0324C17.1169 13.381 16.6115 14.1469 16.0081 14.7704C14.9875 15.8358 13.6432 16.5231 12.397 17.3086C11.1459 18.0942 9.91931 19.0564 9.33546 20.4115C8.97239 21.2608 8.85464 22.2722 8.17266 22.9006M12.2547 14.5494C12.2547 14.5494 9.23243 16.8619 8.25607 18.0991C7.87828 18.5802 7.68203 19.1743 7.50049 19.7585C6.77926 22.0758 5.9206 24.4668 5.38581 26.8332C4.9884 28.581 4.64495 30.3583 3.93354 32.003C3.36023 33.3323 1.30529 36.1697 0.529047 37.2213C0.342684 37.4737 0.295776 37.8038 0.409516 38.0962C1.61917 41.2065 2.7264 42.8099 6.0786 43.6024C6.53699 43.7107 6.99047 43.4291 7.12607 42.978C7.73047 40.9674 9.36155 35.788 10.2922 35.204C11.4305 34.4921 12.5884 34.4135 13.7364 33.7114C15.5959 32.5822 15.8482 29.8012 15.8924 27.6214M24.4666 17.198C25.2123 17.4484 27.2386 18.0107 27.484 18.7471C27.7293 19.4836 27.1209 20.1218 26.5027 20.2985C25.8845 20.4753 25.1044 20.382 24.4666 20.2985M24.4666 21.6682C24.4666 21.6682 27.7293 22.4293 27.7293 23.1658C27.7293 23.9022 27.0179 24.3686 26.4929 24.452C25.9679 24.5355 24.9817 24.2752 24.4666 24.123M19.6927 27.6285C19.6927 27.6285 21.3805 29.553 21.7681 30.2453C21.9006 30.481 22.0232 30.7706 21.9153 31.021C21.7828 31.3401 21.3658 31.4236 21.0272 31.3892C20.0999 31.2959 19.3002 30.6822 18.682 29.9802C18.0638 29.2781 17.3939 28.2962 16.7463 27.6285M14.5929 27.6285L23.4901 27.5842C24.0302 27.5815 24.4666 27.1427 24.4666 26.6023V3.50291C24.4666 2.96061 24.0272 2.52099 23.4853 2.521L22.3323 2.52101M12.2547 17.3988V3.50305C12.2547 2.96076 12.694 2.52114 13.236 2.52114L14.4822 2.52113M22.3323 2.52101V3.32267C22.3323 3.82893 21.9219 4.23934 21.4156 4.23934H15.3988C14.8926 4.23934 14.4822 3.82893 14.4822 3.32267V2.52113M22.3323 2.52101L14.4822 2.52113M14.8959 12.146L17.6647 9.19265C18.0268 8.80636 18.64 8.80636 19.0022 9.19265L21.7709 12.146M14.8959 13.7502L17.6647 10.7968C18.0268 10.4105 18.64 10.4105 19.0022 10.7968L21.7709 13.7502M18.5626 20.396C17.6339 32.3027 32.5998 30.324 33.9168 25.6668" stroke="black" stroke-width="0.458333" stroke-linecap="round" stroke-linejoin="round"/>
<path d="M32.3125 21.083C32.9453 21.083 33.458 21.5967 33.458 22.2295C33.4578 22.8622 32.9452 23.375 32.3125 23.375C31.6798 23.375 31.1672 22.8622 31.167 22.2295C31.167 21.5967 31.6797 21.083 32.3125 21.083ZM39.6455 14.667C40.7846 14.667 41.708 15.5904 41.708 16.7295C41.7078 17.8684 40.7845 18.792 39.6455 18.792C38.5067 18.7918 37.5832 17.8683 37.583 16.7295C37.583 15.5905 38.5066 14.6672 39.6455 14.667ZM32.542 3.66699C33.3012 3.66717 33.917 4.28271 33.917 5.04199C33.9168 5.80113 33.3011 6.41682 32.542 6.41699C31.7827 6.41699 31.1672 5.80123 31.167 5.04199C31.167 4.2826 31.7826 3.66699 32.542 3.66699Z" stroke="black" stroke-width="0.458333"/>
</svg>
