<svg width="44" height="44" viewBox="0 0 44 44" fill="none" xmlns="http://www.w3.org/2000/svg">
<path d="M7.95728 9.41162H23.8088" stroke="#EE2524" stroke-width="0.990718" stroke-linecap="round" stroke-linejoin="round"/>
<path d="M7.95728 13.3748H23.8088" stroke="#EE2524" stroke-width="0.990718" stroke-linecap="round" stroke-linejoin="round"/>
<path d="M7.95728 17.3376H23.8088" stroke="#EE2524" stroke-width="0.990718" stroke-linecap="round" stroke-linejoin="round"/>
<path d="M7.95728 11.3933H23.8088" stroke="#EE2524" stroke-width="0.990718" stroke-linecap="round" stroke-linejoin="round"/>
<path d="M7.95728 15.3562H23.8088" stroke="#EE2524" stroke-width="0.990718" stroke-linecap="round" stroke-linejoin="round"/>
<path d="M7.95728 19.3191H23.8088" stroke="#EE2524" stroke-width="0.990718" stroke-linecap="round" stroke-linejoin="round"/>
<path d="M33.3423 10.3478C34.4385 9.028 34.6053 8.25319 34.6699 5.8916C34.7346 8.25319 34.9014 9.028 35.9976 10.3478C36.1428 10.5227 36.1428 10.7777 35.9976 10.9526C34.9014 12.2724 34.7346 13.0472 34.6699 15.4088C34.6053 13.0472 34.4385 12.2724 33.3423 10.9526C33.197 10.7777 33.197 10.5227 33.3423 10.3478Z" fill="#EE2524" stroke="#EE2524" stroke-width="0.453201" stroke-linecap="round" stroke-linejoin="round"/>
<path d="M4.98517 3.94175H7.70964C8.2568 3.94175 8.70036 3.49819 8.70036 2.95104V0.226562M4.98517 3.94175V27.9876C4.98517 28.5348 5.42873 28.9783 5.97589 28.9783H24.0196M4.98517 3.94175L7.56736 1.35956M8.70036 0.226562H25.2949C25.842 0.226562 26.2856 0.670121 26.2856 1.21728V21.8432M8.70036 0.226562L7.56736 1.35956M26.2856 21.8432C27.4179 21.1 28.9309 20.515 30.1634 20.6585C30.9722 20.7526 31.9809 21.0367 32.9909 21.3884M26.2856 21.8432C25.0763 22.637 24.3012 23.6111 24.7658 24.0709M24.7658 24.0709C25.0442 23.9332 25.484 23.9233 25.9503 24.0709M24.7658 24.0709C24.53 24.1876 24.3637 24.3732 24.3764 24.7449M25.9503 24.0709C26.3489 24.197 26.7668 24.4381 27.12 24.8128M25.9503 24.0709L32.9909 21.3884M27.12 24.8128C27.244 24.9444 27.3601 25.0925 27.4646 25.2579C27.5802 25.4409 27.7348 25.6416 27.9144 25.8505M27.12 24.8128L30.1634 23.6912M30.1634 23.6912C30.4071 23.8029 30.7547 23.9894 31.0897 24.2193M30.1634 23.6912L34.6731 22.0292M27.9144 25.8505C28.482 25.2079 29.9116 23.9819 31.0897 24.2193M27.9144 25.8505C28.2557 26.2476 28.6875 26.6746 29.1138 27.0674M31.0897 24.2193C31.579 24.5551 32.0413 24.9834 32.1125 25.4062C32.1339 25.5334 32.1142 25.6844 32.064 25.8505M29.1138 27.0674C29.3565 27.2909 29.5974 27.5034 29.8189 27.693C30.1777 27.9999 30.7132 27.9605 31.0083 27.5919C31.4424 27.0497 31.9055 26.3752 32.064 25.8505M29.1138 27.0674C29.4814 26.3647 30.5859 25.1377 32.064 25.8505M34.6731 22.0292L40.2108 19.9885C40.54 19.8672 40.7071 19.5006 40.5827 19.1726C40.4591 18.8462 40.0939 18.6821 39.7678 18.8064L32.9909 21.3884M34.6731 22.0292C35.5774 22.4005 36.3806 22.7703 36.9103 23.0324C39.1592 23.9226 39.1592 29.5606 40.0588 31.7861C40.6749 33.3103 42.1408 34.9433 43.083 35.8472C43.3371 36.0909 43.4448 36.4534 43.3471 36.7918L42.0046 41.4417C41.7821 42.2123 40.6686 42.3807 40.1626 41.7585C39.4134 40.8372 38.3711 39.7138 37.0602 38.6111C34.0616 36.0888 33.162 35.7921 30.913 34.3084C28.6984 32.8474 28.2284 31.3864 26.2104 28.367M24.3764 24.7449L23.5664 25.4062H24.5249M24.3764 24.7449C24.3824 24.92 24.4281 25.1363 24.5249 25.4062M24.5249 25.4062C24.7453 26.0204 25.2305 26.912 26.1152 28.2252C26.1473 28.2729 26.179 28.3201 26.2104 28.367M21.3004 30.3381H3.70988C3.16273 30.3381 2.71917 29.8945 2.71917 29.3473V2.94577M21.3004 30.3381H23.0289C23.576 30.3381 24.0196 29.8945 24.0196 29.3473V28.9783M21.3004 30.3381V30.7069C21.3004 31.2541 20.8568 31.6977 20.3097 31.6977H1.21728C0.670122 31.6977 0.226562 31.2541 0.226562 30.7069V3.93648C0.226562 3.38933 0.670121 2.94577 1.21728 2.94577H2.71917M24.0196 28.9783H25.2949C25.7076 28.9783 26.0614 28.7259 26.2104 28.367M2.71917 2.94577V2.35028C2.71917 1.80312 3.16273 1.35956 3.70988 1.35956H7.56736M16.5681 24.7629L16.977 25.9898C16.9891 26.0259 17.0355 26.0355 17.0609 26.0072L19.0503 23.7893C19.0806 23.7555 19.1367 23.7769 19.1367 23.8224V26.5208C19.1367 26.5679 19.1964 26.5884 19.2253 26.5512L20.6423 24.7294C20.661 24.7054 20.6966 24.7037 20.7175 24.7258L21.7165 25.7872C21.7385 25.8105 21.7765 25.8071 21.7941 25.7803L22.8493 24.1685M22.8493 25.6058L23.793 25.3792M37.8422 3.17236C37.8175 4.07373 37.7581 4.43572 37.4136 4.90368C37.2788 5.0868 37.2788 5.33674 37.4136 5.51985C37.7581 5.98781 37.8175 6.34981 37.8422 7.25117C37.8669 6.34981 37.9263 5.98781 38.2708 5.51985C38.4056 5.33674 38.4056 5.0868 38.2708 4.90368C37.9263 4.43572 37.8669 4.07373 37.8422 3.17236Z" stroke="black" stroke-width="0.453201" stroke-linecap="round" stroke-linejoin="round"/>
</svg>
