<svg width="42" height="42" viewBox="0 0 42 42" fill="none" xmlns="http://www.w3.org/2000/svg">
<path d="M18.175 18.6278L18.4055 11.488C18.4055 11.488 18.1593 6.8103 23.0832 6.8103C28.0072 6.8103 27.7608 11.488 27.7608 11.488V18.3816C26.32 17.7652 25.5787 17.3179 25.2989 16.412C25.988 15.7084 26.4269 15.2725 26.5299 14.4424C27.6766 14.3477 27.7792 13.7468 27.5146 12.2266L27.0223 11.9804L26.9201 11.2657C26.2189 10.7315 25.0527 9.51858 25.0527 9.51858C23.4404 10.4818 22.4838 10.6063 20.6211 9.76478C20.6211 9.76478 20.2386 10.8155 19.1439 11.2879V11.9804C18.0669 11.7392 18.1592 15.181 19.6363 14.4424C19.5798 15.1984 19.8568 15.8754 20.8673 16.6582L20.3908 17.1506L18.175 18.6278Z" fill="#EE2524" stroke="#EE2524" stroke-width="0.4375" stroke-linecap="round" stroke-linejoin="round"/>
<path d="M22.0986 12.4731C22.0986 12.745 21.8781 12.9655 21.6062 12.9655C21.3342 12.9655 21.1138 12.745 21.1138 12.4731C21.1138 12.2011 21.3342 11.9807 21.6062 11.9807C21.8781 11.9807 22.0986 12.2011 22.0986 12.4731Z" fill="black"/>
<path d="M25.0529 12.4731C25.0529 12.745 24.8324 12.9655 24.5605 12.9655C24.2885 12.9655 24.0681 12.745 24.0681 12.4731C24.0681 12.2011 24.2885 11.9807 24.5605 11.9807C24.8324 11.9807 25.0529 12.2011 25.0529 12.4731Z" fill="black"/>
<path d="M21.6765 3.4537C21.6765 3.56808 21.5837 3.66081 21.4694 3.66081C21.355 3.66081 21.2622 3.56808 21.2622 3.4537C21.2622 3.33931 21.355 3.24658 21.4694 3.24658C21.5837 3.24658 21.6765 3.33931 21.6765 3.4537Z" fill="black"/>
<path d="M19.7754 14.4145L19.9844 14.35C19.9561 14.2583 19.8713 14.1957 19.7754 14.1957V14.4145ZM19.4527 12.0603V12.2791C19.5162 12.2791 19.5765 12.2515 19.6181 12.2034C19.6596 12.1554 19.6783 12.0917 19.6691 12.0288L19.4527 12.0603ZM26.391 14.4145V14.1957C26.295 14.1957 26.2103 14.2583 26.182 14.35L26.391 14.4145ZM26.7137 12.0603L26.4973 12.0288C26.4881 12.0917 26.5068 12.1554 26.5483 12.2034C26.5899 12.2515 26.6502 12.2791 26.7137 12.2791V12.0603ZM17.5679 18.6789C17.4602 18.7336 17.4172 18.8653 17.4718 18.973C17.5265 19.0807 17.6582 19.1237 17.7659 19.0691L17.5679 18.6789ZM21.2359 16.3365C21.2698 16.2205 21.2032 16.0991 21.0872 16.0653C20.9712 16.0314 20.8498 16.098 20.8159 16.214L21.2359 16.3365ZM29.627 19.8053C29.7334 19.8625 29.8661 19.8226 29.9232 19.7161C29.9804 19.6097 29.9405 19.4771 29.8341 19.4199L29.627 19.8053ZM19.607 11.2342C19.6028 11.1135 19.5015 11.019 19.3808 11.0233C19.26 11.0275 19.1656 11.1288 19.1698 11.2495L19.607 11.2342ZM26.9966 11.2495C27.0008 11.1288 26.9063 11.0275 26.7856 11.0233C26.6649 11.019 26.5636 11.1135 26.5593 11.2342L26.9966 11.2495ZM29.9169 15.1041C29.8631 14.9959 29.7318 14.9519 29.6237 15.0057C29.5155 15.0595 29.4714 15.1908 29.5252 15.299L29.9169 15.1041ZM30.9616 17.6947L30.7657 17.7922C30.8003 17.8617 30.8692 17.9077 30.9467 17.913C31.0242 17.9182 31.0987 17.882 31.1424 17.8179L30.9616 17.6947ZM36.7427 20.5507L36.5247 20.5692L36.5248 20.5695L36.7427 20.5507ZM36.8651 27.1348L37.0742 27.0706L36.8651 27.1348ZM16.2558 7.02978C16.3344 7.1215 16.4725 7.13211 16.5643 7.05348C16.656 6.97485 16.6666 6.83675 16.588 6.74503L16.2558 7.02978ZM16.2755 10.7799C16.3653 10.8607 16.5037 10.8534 16.5845 10.7636C16.6653 10.6738 16.658 10.5355 16.5682 10.4547L16.2755 10.7799ZM16.4175 16.4785L16.6363 16.4785C16.6363 16.4192 16.6122 16.3625 16.5697 16.3213C16.5271 16.2801 16.4696 16.2579 16.4104 16.2598L16.4175 16.4785ZM15.2374 20.6977L15.4134 20.5679V20.5679L15.2374 20.6977ZM16.4175 17.6947L16.1987 17.6947C16.1987 17.7629 16.2306 17.8272 16.2848 17.8686L16.4175 17.6947ZM16.4175 21.5402L16.6363 21.5402C16.6363 21.4809 16.6122 21.4242 16.5697 21.383C16.5271 21.3418 16.4696 21.3196 16.4104 21.3215L16.4175 21.5402ZM15.2374 26.0259L15.4134 25.8961V25.8961L15.2374 26.0259ZM16.4175 23.0229L16.1987 23.0229C16.1987 23.0911 16.2306 23.1554 16.2848 23.1968L16.4175 23.0229ZM16.4175 11.6831L16.6363 11.6831C16.6363 11.6238 16.6122 11.5671 16.5697 11.5259C16.5271 11.4847 16.4696 11.4625 16.4104 11.4644L16.4175 11.6831ZM15.2374 15.9023L15.4134 15.7725V15.7725L15.2374 15.9023ZM16.4175 12.8993L16.1987 12.8993C16.1987 12.9675 16.2306 13.0318 16.2848 13.0732L16.4175 12.8993ZM27.4246 2.6251H27.6434C27.6434 2.56708 27.6203 2.51144 27.5793 2.47042C27.5383 2.4294 27.4827 2.40635 27.4246 2.40635L27.4246 2.6251ZM18.8995 2.62523L18.8995 2.40648C18.7787 2.40648 18.6807 2.50442 18.6807 2.62523H18.8995ZM28.6555 33.2623L28.6362 33.4802V33.4802L28.6555 33.2623ZM33.1134 41.1702L33.0654 41.3836L33.1134 41.1702ZM32.3117 40.1924L32.5298 40.1753L32.3117 40.1924ZM41.4023 37.2637L41.5989 37.1678V37.1678L41.4023 37.2637ZM41.3101 38.2673L41.1358 38.1351L41.3101 38.2673ZM21.489 0.875L21.7076 0.868663C21.7042 0.750368 21.6073 0.65625 21.489 0.65625C21.3706 0.65625 21.2737 0.750368 21.2703 0.868663L21.489 0.875ZM20.7542 3.2865L20.5885 3.14365V3.14365L20.7542 3.2865ZM22.2237 3.2865L22.3894 3.14365V3.14365L22.2237 3.2865ZM21.489 6.125L21.2703 6.13134C21.2737 6.24963 21.3706 6.34375 21.489 6.34375C21.6073 6.34375 21.7042 6.24963 21.7076 6.13134L21.489 6.125ZM20.7542 3.7135L20.5885 3.85635V3.85635L20.7542 3.7135ZM22.2237 3.7135L22.3894 3.85635V3.85635L22.2237 3.7135ZM11.6611 16.3956C11.776 16.3584 11.8391 16.2351 11.8019 16.1202C11.7647 16.0052 11.6413 15.9422 11.5264 15.9794L11.6611 16.3956ZM5.47323 26.0754C5.4976 26.1937 5.61327 26.2699 5.7316 26.2455C5.84993 26.2211 5.92611 26.1055 5.90175 25.9871L5.47323 26.0754ZM0.21875 29.9687V29.75C0.0979377 29.75 2.98023e-08 29.8479 2.98023e-08 29.9687H0.21875ZM15.0937 29.9687H15.3125C15.3125 29.8479 15.2146 29.75 15.0937 29.75V29.9687ZM7.08842 35.8282L6.94646 35.9946V35.9946L7.08842 35.8282ZM8.22408 35.8282L8.36603 35.9946V35.9946L8.22408 35.8282ZM19.7754 14.4145L19.5663 14.479C19.7099 14.9445 20.0536 15.6306 20.6249 16.2038C21.1999 16.7806 22.0127 17.249 23.0832 17.249V17.0303V16.8115C22.1529 16.8115 21.4462 16.408 20.9347 15.8949C20.4196 15.3781 20.1097 14.7564 19.9844 14.35L19.7754 14.4145ZM19.7754 14.4145V14.1957C19.5544 14.1957 19.3834 14.0921 19.2544 13.9169C19.1213 13.7363 19.0378 13.4834 19.0151 13.2187C18.9923 12.9532 19.0329 12.7014 19.1204 12.5255C19.2054 12.3543 19.3182 12.2791 19.4527 12.2791V12.0603V11.8416C19.103 11.8416 18.8628 12.0606 18.7286 12.3308C18.5966 12.5963 18.5515 12.933 18.5792 13.2561C18.6069 13.5799 18.71 13.9156 18.9021 14.1764C19.0983 14.4426 19.3913 14.6332 19.7754 14.6332V14.4145ZM26.391 14.4145L26.182 14.35C26.0382 14.8161 25.6537 15.5601 25 16.1075L25.1404 16.2753L25.2809 16.443C26.0113 15.8313 26.4365 15.0093 26.6001 14.479L26.391 14.4145ZM25.1404 16.2753L25 16.1075C24.514 16.5146 23.8817 16.8115 23.0832 16.8115V17.0303V17.249C23.9997 17.249 24.7288 16.9053 25.2809 16.443L25.1404 16.2753ZM26.391 14.4145V14.6332C26.7751 14.6332 27.0681 14.4426 27.2642 14.1764C27.4564 13.9156 27.5594 13.5799 27.5872 13.2561C27.6149 12.933 27.5697 12.5963 27.4378 12.3308C27.3035 12.0606 27.0634 11.8416 26.7137 11.8416V12.0603V12.2791C26.8482 12.2791 26.961 12.3543 27.046 12.5255C27.1334 12.7014 27.174 12.9532 27.1513 13.2187C27.1286 13.4834 27.0451 13.7363 26.912 13.9169C26.7829 14.0921 26.612 14.1957 26.391 14.1957V14.4145ZM20.2502 17.5628L20.1512 17.3677L17.5679 18.6789L17.6669 18.874L17.7659 19.0691L20.3492 17.7578L20.2502 17.5628ZM21.0259 16.2753C20.8159 16.214 20.816 16.214 20.816 16.2139C20.816 16.2139 20.816 16.2139 20.816 16.2139C20.816 16.2138 20.816 16.2138 20.816 16.2138C20.816 16.2139 20.816 16.2139 20.8159 16.214C20.8158 16.2143 20.8157 16.2148 20.8155 16.2155C20.8151 16.2169 20.8144 16.2191 20.8135 16.2222C20.8116 16.2284 20.8086 16.2379 20.8046 16.2504C20.7966 16.2753 20.7845 16.3118 20.7684 16.3569C20.736 16.4474 20.6881 16.571 20.6258 16.7037C20.4959 16.9803 20.3232 17.2528 20.1299 17.3801L20.2502 17.5628L20.3705 17.7455C20.6725 17.5466 20.8877 17.1753 21.0218 16.8897C21.0915 16.7412 21.1446 16.6041 21.1804 16.5042C21.1983 16.4541 21.2119 16.413 21.2212 16.384C21.2259 16.3695 21.2294 16.3581 21.2319 16.35C21.2331 16.346 21.2341 16.3428 21.2347 16.3406C21.2351 16.3394 21.2353 16.3385 21.2355 16.3379C21.2356 16.3375 21.2357 16.3372 21.2358 16.337C21.2358 16.3369 21.2358 16.3368 21.2359 16.3367C21.2359 16.3367 21.2359 16.3366 21.2359 16.3366C21.2359 16.3366 21.2359 16.3365 21.0259 16.2753ZM25.9162 17.5628L25.8126 17.7555L29.627 19.8053L29.7306 19.6126L29.8341 19.4199L26.0197 17.3701L25.9162 17.5628ZM25.1404 16.2753C24.9305 16.3365 24.9305 16.3366 24.9305 16.3366C24.9305 16.3366 24.9305 16.3367 24.9305 16.3367C24.9305 16.3368 24.9306 16.3369 24.9306 16.337C24.9307 16.3372 24.9307 16.3375 24.9308 16.3379C24.931 16.3385 24.9313 16.3394 24.9317 16.3406C24.9323 16.3428 24.9333 16.346 24.9345 16.35C24.937 16.3581 24.9405 16.3695 24.9452 16.384C24.9545 16.413 24.9681 16.4541 24.986 16.5042C25.0217 16.6041 25.0749 16.7412 25.1446 16.8897C25.2787 17.1753 25.4939 17.5466 25.7958 17.7455L25.9162 17.5628L26.0365 17.3801C25.8432 17.2528 25.6705 16.9803 25.5406 16.7037C25.4783 16.571 25.4303 16.4474 25.398 16.3569C25.3819 16.3118 25.3698 16.2753 25.3618 16.2504C25.3578 16.2379 25.3548 16.2284 25.3529 16.2222C25.352 16.2191 25.3513 16.2169 25.3509 16.2155C25.3507 16.2148 25.3505 16.2143 25.3505 16.214C25.3504 16.2139 25.3504 16.2139 25.3504 16.2138C25.3504 16.2138 25.3504 16.2138 25.3504 16.2139C25.3504 16.2139 25.3504 16.2139 25.3504 16.2139C25.3504 16.214 25.3504 16.214 25.1404 16.2753ZM19.4527 12.0603C19.6691 12.0288 19.6691 12.0288 19.6691 12.0289C19.6691 12.0289 19.6691 12.0289 19.6691 12.0289C19.6691 12.0289 19.6691 12.0289 19.6691 12.0289C19.6691 12.0289 19.6691 12.0289 19.6691 12.0289C19.6691 12.0288 19.6691 12.0287 19.6691 12.0285C19.669 12.028 19.6689 12.0273 19.6688 12.0262C19.6685 12.0241 19.668 12.0208 19.6674 12.0163C19.6662 12.0074 19.6644 11.9937 19.6622 11.9755C19.6577 11.9393 19.6515 11.8853 19.6448 11.816C19.6313 11.6773 19.6156 11.4772 19.607 11.2342L19.3884 11.2419L19.1698 11.2495C19.1787 11.5028 19.1951 11.712 19.2093 11.8584C19.2165 11.9316 19.2231 11.9892 19.2279 12.0289C19.2304 12.0487 19.2324 12.0641 19.2338 12.0746C19.2345 12.0799 19.2351 12.084 19.2355 12.0869C19.2357 12.0883 19.2358 12.0895 19.236 12.0903C19.236 12.0907 19.2361 12.091 19.2361 12.0913C19.2361 12.0914 19.2361 12.0915 19.2361 12.0916C19.2362 12.0916 19.2362 12.0917 19.2362 12.0917C19.2362 12.0917 19.2362 12.0917 19.2362 12.0917C19.2362 12.0918 19.2362 12.0918 19.4527 12.0603ZM26.7137 12.0603C26.9302 12.0918 26.9302 12.0918 26.9302 12.0917C26.9302 12.0917 26.9302 12.0917 26.9302 12.0917C26.9302 12.0917 26.9302 12.0916 26.9302 12.0916C26.9303 12.0915 26.9303 12.0914 26.9303 12.0913C26.9303 12.091 26.9304 12.0907 26.9304 12.0903C26.9305 12.0895 26.9307 12.0883 26.9309 12.0869C26.9313 12.084 26.9319 12.0799 26.9326 12.0746C26.934 12.0641 26.936 12.0487 26.9384 12.0289C26.9433 11.9892 26.9499 11.9316 26.957 11.8584C26.9713 11.712 26.9877 11.5028 26.9966 11.2495L26.7779 11.2419L26.5593 11.2342C26.5508 11.4772 26.5351 11.6773 26.5216 11.816C26.5149 11.8853 26.5087 11.9393 26.5042 11.9755C26.502 11.9937 26.5002 12.0074 26.499 12.0163C26.4984 12.0208 26.4979 12.0241 26.4976 12.0262C26.4975 12.0273 26.4974 12.028 26.4973 12.0285C26.4973 12.0287 26.4973 12.0288 26.4973 12.0289C26.4972 12.0289 26.4972 12.0289 26.4972 12.0289C26.4972 12.0289 26.4973 12.0289 26.4973 12.0289C26.4973 12.0289 26.4973 12.0289 26.4973 12.0289C26.4973 12.0288 26.4973 12.0288 26.7137 12.0603ZM20.2502 17.5628L20.1125 17.7327C21.1746 18.5934 22.0602 19.0762 23.0007 19.0843C23.9396 19.0923 24.8791 18.6268 26.0486 17.7369L25.9162 17.5628L25.7837 17.3887C24.6315 18.2654 23.7914 18.6535 23.0045 18.6468C22.2192 18.64 21.4327 18.2394 20.3879 17.3928L20.2502 17.5628ZM24.5604 27.2448H24.3417C24.3417 27.9398 23.7783 28.5032 23.0833 28.5032V28.722V28.9407C24.0199 28.9407 24.7792 28.1814 24.7792 27.2448H24.5604ZM23.0833 28.722V28.5032C22.3882 28.5032 21.8248 27.9398 21.8248 27.2448H21.6061H21.3873C21.3873 28.1814 22.1466 28.9407 23.0833 28.9407V28.722ZM21.6061 27.2448H21.8248C21.8248 26.5498 22.3882 25.9864 23.0833 25.9864V25.7676V25.5489C22.1466 25.5489 21.3873 26.3081 21.3873 27.2448H21.6061ZM23.0833 25.7676V25.9864C23.7783 25.9864 24.3417 26.5498 24.3417 27.2448H24.5604H24.7792C24.7792 26.3081 24.0199 25.5489 23.0833 25.5489V25.7676ZM29.7211 15.2016L29.5252 15.299L30.7657 17.7922L30.9616 17.6947L31.1574 17.5973L29.9169 15.1041L29.7211 15.2016ZM30.9616 17.6947L31.1424 17.8179C31.4824 17.3186 31.539 16.6111 31.4635 15.9429C31.387 15.267 31.1699 14.5826 30.9083 14.0932L30.7154 14.1963L30.5225 14.2994C30.7564 14.737 30.9581 15.3676 31.0287 15.9921C31.1002 16.6242 31.0322 17.2023 30.7808 17.5716L30.9616 17.6947ZM30.7154 14.1963L30.9083 14.0932C30.4298 13.1978 29.9398 11.4522 29.9398 10.0109H29.7211H29.5023C29.5023 11.524 30.01 13.3405 30.5225 14.2994L30.7154 14.1963ZM29.7211 10.0109H29.9398C29.9398 9.30782 30.117 8.84543 30.3866 8.5512C30.6558 8.2574 31.045 8.10072 31.5322 8.0661L31.5167 7.8479L31.5012 7.6297C30.9387 7.66967 30.4302 7.85591 30.064 8.25567C29.6981 8.65501 29.5023 9.23682 29.5023 10.0109H29.7211ZM31.5167 7.8479L31.5322 8.0661C31.6586 8.05712 31.8006 8.13858 31.9575 8.42791C32.1094 8.70811 32.2327 9.11079 32.3434 9.56836C32.4542 10.0265 32.5452 10.5065 32.6441 10.9559C32.7401 11.3915 32.8446 11.804 32.9817 12.0783L33.1774 11.9805L33.373 11.8827C33.264 11.6646 33.169 11.305 33.0714 10.8618C32.9768 10.4323 32.8802 9.92676 32.7686 9.46549C32.6569 9.00369 32.523 8.55321 32.3421 8.21941C32.1661 7.89474 31.8997 7.60138 31.5012 7.6297L31.5167 7.8479ZM33.1774 11.9805L32.9817 12.0783C33.232 12.5788 34.0701 14.1434 34.8743 15.8758C35.2759 16.7409 35.6667 17.6428 35.9685 18.4677C36.272 19.297 36.4794 20.0321 36.5247 20.5692L36.7427 20.5507L36.9607 20.5323C36.9102 19.9344 36.6855 19.1539 36.3794 18.3174C36.0717 17.4765 35.6754 16.5623 35.2712 15.6916C34.4638 13.9525 33.6152 12.367 33.373 11.8827L33.1774 11.9805ZM36.7427 20.5507L36.5248 20.5695C36.5591 20.9689 36.5392 21.4221 36.499 21.9246C36.4598 22.4152 36.3986 22.9779 36.3584 23.5392C36.2766 24.6795 36.269 25.9396 36.656 27.1991L36.8651 27.1348L37.0742 27.0706C36.7111 25.8891 36.7142 24.6937 36.7948 23.5705C36.8357 23 36.8936 22.4789 36.9351 21.9595C36.9757 21.4521 36.9982 20.9691 36.9607 20.532L36.7427 20.5507ZM36.8651 27.1348L36.656 27.1991C36.9788 28.2496 37.8944 30.3331 38.8345 32.3713C39.7774 34.4156 40.7537 36.4326 41.2057 37.3596L41.4023 37.2637L41.5989 37.1678C41.1475 36.242 40.1728 34.2282 39.2318 32.188C38.2879 30.1418 37.3866 28.0872 37.0742 27.0706L36.8651 27.1348ZM16.4219 6.88741C16.588 6.74503 16.5879 6.74498 16.5879 6.74491C16.5878 6.74488 16.5878 6.74481 16.5877 6.74475C16.5876 6.74463 16.5875 6.74448 16.5873 6.74431C16.587 6.74395 16.5866 6.74349 16.5861 6.74291C16.5851 6.74176 16.5837 6.74016 16.582 6.73815C16.5785 6.73413 16.5735 6.72843 16.567 6.72122C16.5541 6.70679 16.5356 6.68628 16.5119 6.66102C16.4648 6.61055 16.3971 6.54073 16.3142 6.46223C16.1502 6.30685 15.9192 6.1105 15.6646 5.96499C15.4165 5.82328 15.1065 5.70705 14.8009 5.77495C14.4745 5.84751 14.2305 6.10983 14.0831 6.55198L14.2906 6.62116L14.4981 6.69035C14.6171 6.33336 14.7727 6.2294 14.8959 6.20203C15.0399 6.17002 15.2294 6.22024 15.4475 6.34487C15.6591 6.46572 15.8611 6.6356 16.0134 6.77987C16.0887 6.8512 16.1501 6.91456 16.1924 6.95981C16.2135 6.9824 16.2298 7.00039 16.2406 7.0125C16.246 7.01855 16.25 7.02313 16.2526 7.02606C16.2539 7.02753 16.2548 7.02859 16.2553 7.02921C16.2556 7.02953 16.2558 7.02973 16.2558 7.02983C16.2559 7.02988 16.2559 7.0299 16.2559 7.02989C16.2559 7.02989 16.2559 7.02986 16.2559 7.02986C16.2558 7.02982 16.2558 7.02978 16.4219 6.88741ZM14.2906 6.62116L14.0831 6.55198C13.9271 7.01973 14.0109 7.52596 14.1949 7.99912C14.3798 8.4745 14.6756 8.94204 14.9814 9.34983C15.2883 9.75894 15.6111 10.1157 15.8567 10.3697C15.9796 10.4969 16.0837 10.5988 16.1572 10.6692C16.194 10.7044 16.2233 10.7318 16.2434 10.7505C16.2535 10.7598 16.2614 10.767 16.2668 10.7719C16.2695 10.7744 16.2716 10.7763 16.2731 10.7776C16.2738 10.7783 16.2744 10.7788 16.2748 10.7792C16.275 10.7794 16.2752 10.7795 16.2753 10.7797C16.2753 10.7797 16.2754 10.7798 16.2754 10.7798C16.2755 10.7799 16.2755 10.7799 16.4219 10.6173C16.5682 10.4547 16.5682 10.4547 16.5683 10.4547C16.5683 10.4547 16.5683 10.4547 16.5682 10.4547C16.5682 10.4547 16.5681 10.4546 16.568 10.4545C16.5678 10.4543 16.5674 10.454 16.5668 10.4535C16.5658 10.4525 16.564 10.4509 16.5617 10.4488C16.5571 10.4446 16.55 10.4381 16.5407 10.4295C16.5222 10.4123 16.4947 10.3866 16.4597 10.3531C16.3896 10.2861 16.2897 10.1882 16.1712 10.0656C15.9339 9.82008 15.624 9.47748 15.3314 9.08734C15.0378 8.69588 14.7675 8.26428 14.6027 7.84054C14.437 7.41459 14.3876 7.02174 14.4981 6.69035L14.2906 6.62116ZM16.4175 16.4785L16.4104 16.2598C15.6877 16.2835 15.1478 16.4768 14.7745 16.8044C14.3997 17.1334 14.2177 17.576 14.1701 18.0482C14.0764 18.9789 14.4982 20.0643 15.0614 20.8276L15.2374 20.6977L15.4134 20.5679C14.8909 19.8596 14.526 18.8805 14.6054 18.092C14.6444 17.7046 14.7889 17.3739 15.0631 17.1332C15.3389 16.8912 15.7706 16.7185 16.4247 16.6971L16.4175 16.4785ZM15.2374 20.6977L15.0614 20.8276C15.3828 21.2632 15.9089 21.4659 16.4227 21.4901C16.9358 21.5142 17.4764 21.363 17.8522 21.0401C18.2407 20.7063 18.4388 20.1985 18.255 19.5758C18.0772 18.9734 17.5487 18.2831 16.5502 17.5209L16.4175 17.6947L16.2848 17.8686C17.2531 18.6079 17.6961 19.2276 17.8354 19.6997C17.9688 20.1515 17.8296 20.4827 17.5671 20.7082C17.2919 20.9447 16.8677 21.0731 16.4432 21.0531C16.0193 21.0331 15.6348 20.868 15.4134 20.5679L15.2374 20.6977ZM16.4175 17.6947L16.6362 17.6947L16.6363 16.4785L16.4175 16.4785L16.1988 16.4785L16.1987 17.6947L16.4175 17.6947ZM16.4175 21.5402L16.4104 21.3215C15.6828 21.3454 15.1406 21.558 14.7678 21.9139C14.3957 22.2691 14.2168 22.7436 14.17 23.2447C14.0773 24.2363 14.4945 25.3875 15.0614 26.1558L15.2374 26.0259L15.4134 25.8961C14.8946 25.1929 14.5251 24.1463 14.6056 23.2854C14.6453 22.8602 14.7929 22.4948 15.0699 22.2304C15.3461 21.9667 15.7755 21.7801 16.4247 21.7588L16.4175 21.5402ZM15.2374 26.0259L15.0614 26.1558C15.3828 26.5914 15.9089 26.7942 16.4227 26.8183C16.9358 26.8425 17.4764 26.6912 17.8522 26.3683C18.2407 26.0345 18.4388 25.5267 18.255 24.9041C18.0772 24.3016 17.5487 23.6113 16.5502 22.8491L16.4175 23.0229L16.2848 23.1968C17.2531 23.9361 17.6961 24.5558 17.8354 25.0279C17.9688 25.4798 17.8296 25.8109 17.5671 26.0365C17.2919 26.2729 16.8677 26.4013 16.4432 26.3813C16.0193 26.3614 15.6348 26.1962 15.4134 25.8961L15.2374 26.0259ZM16.4175 23.0229L16.6362 23.0229L16.6363 21.5402L16.4175 21.5402L16.1988 21.5402L16.1987 23.0229L16.4175 23.0229ZM16.4175 11.6831L16.4104 11.4644C15.6877 11.4881 15.1478 11.6814 14.7745 12.009C14.3997 12.338 14.2177 12.7806 14.1701 13.2528C14.0764 14.1835 14.4982 15.2689 15.0614 16.0322L15.2374 15.9023L15.4134 15.7725C14.8909 15.0642 14.526 14.0851 14.6054 13.2966C14.6444 12.9092 14.7889 12.5785 15.0631 12.3378C15.3389 12.0958 15.7706 11.9231 16.4247 11.9017L16.4175 11.6831ZM15.2374 15.9023L15.0614 16.0322C15.3828 16.4678 15.9089 16.6705 16.4227 16.6947C16.9358 16.7189 17.4764 16.5676 17.8522 16.2447C18.2407 15.9109 18.4388 15.4031 18.255 14.7804C18.0772 14.178 17.5487 13.4877 16.5502 12.7255L16.4175 12.8993L16.2848 13.0732C17.2531 13.8125 17.6961 14.4322 17.8354 14.9043C17.9688 15.3561 17.8296 15.6873 17.5671 15.9128C17.2919 16.1493 16.8677 16.2777 16.4432 16.2577C16.0193 16.2378 15.6348 16.0726 15.4134 15.7725L15.2374 15.9023ZM16.4175 12.8993L16.6362 12.8993L16.6363 11.6831L16.4175 11.6831L16.1988 11.6831L16.1987 12.8993L16.4175 12.8993ZM17.4875 2.625V2.84375H28.6555V2.625V2.40625H17.4875V2.625ZM16.4219 11.683H16.6406V3.69064H16.4219H16.2031V11.683H16.4219ZM17.4875 30.0387V29.82C17.0198 29.82 16.6406 29.4408 16.6406 28.9731H16.4219H16.2031C16.2031 29.6824 16.7782 30.2575 17.4875 30.2575V30.0387ZM29.7211 28.9731H29.5023C29.5023 29.4408 29.1232 29.82 28.6555 29.82V30.0387V30.2575C29.3648 30.2575 29.9398 29.6824 29.9398 28.9731H29.7211ZM28.6555 2.625V2.84375C28.6656 2.84375 28.6911 2.84751 28.7349 2.88203C28.7796 2.91715 28.8315 2.97534 28.8879 3.06038C29.0006 3.2305 29.1083 3.47334 29.2021 3.74669C29.3908 4.29673 29.5023 4.90692 29.5023 5.16783H29.7211H29.9398C29.9398 4.84019 29.8129 4.17897 29.6159 3.60473C29.5168 3.31594 29.3949 3.03343 29.2526 2.81873C29.1815 2.71136 29.0996 2.61227 29.0055 2.53821C28.9106 2.46356 28.7925 2.40625 28.6555 2.40625V2.625ZM17.4875 2.625V2.40625C16.7782 2.40625 16.2031 2.98129 16.2031 3.69064H16.4219H16.6406C16.6406 3.22292 17.0198 2.84375 17.4875 2.84375V2.625ZM27.4246 2.6251H27.2059V2.8915H27.4246H27.6434V2.6251H27.4246ZM27.4246 2.6251L27.4246 2.40635L18.8995 2.40648L18.8995 2.62523L18.8995 2.84398L27.4246 2.84385L27.4246 2.6251ZM18.8995 2.62523H18.6807V2.8915H18.8995H19.1182V2.62523H18.8995ZM20.498 4.48997V4.70872H25.8262V4.48997V4.27122H20.498V4.48997ZM18.8995 2.8915H18.6807C18.6807 3.89512 19.4943 4.70872 20.498 4.70872V4.48997V4.27122C19.736 4.27122 19.1182 3.6535 19.1182 2.8915H18.8995ZM27.4246 2.8915H27.2059C27.2059 3.6535 26.5882 4.27122 25.8262 4.27122V4.48997V4.70872C26.8298 4.70872 27.6434 3.89512 27.6434 2.8915H27.4246ZM41.3101 38.2673L41.1358 38.1351C39.7777 39.9249 38.6091 40.7999 37.389 41.1502C36.1627 41.5022 34.8475 41.3361 33.1615 40.9568L33.1134 41.1702L33.0654 41.3836C34.758 41.7644 36.1686 41.9557 37.5097 41.5707C38.857 41.1839 40.0974 40.2274 41.4844 38.3995L41.3101 38.2673ZM22.5141 30.0387L22.3899 30.2188C22.8887 30.5626 23.852 31.3357 24.9571 32.0258C26.0679 32.7195 27.3787 33.3689 28.6362 33.4802L28.6555 33.2623L28.6747 33.0444C27.5239 32.9425 26.2858 32.3398 25.1889 31.6548C24.0863 30.9662 23.1831 30.2341 22.6382 29.8586L22.5141 30.0387ZM28.6555 33.2623L28.6362 33.4802C29.1045 33.5216 29.544 33.7819 29.9502 34.2188C30.3566 34.6558 30.7158 35.2554 31.0197 35.9389C31.6277 37.3059 31.9964 38.9659 32.0936 40.2094L32.3117 40.1924L32.5298 40.1753C32.4291 38.888 32.05 37.1786 31.4195 35.7611C31.1042 35.0522 30.7215 34.4058 30.2706 33.9209C29.8197 33.436 29.2868 33.0985 28.6747 33.0444L28.6555 33.2623ZM33.1134 41.1702L33.1615 40.9568C32.8145 40.8788 32.5597 40.5576 32.5298 40.1753L32.3117 40.1924L32.0936 40.2094C32.1363 40.7546 32.5048 41.2575 33.0654 41.3836L33.1134 41.1702ZM41.4023 37.2637L41.2057 37.3596C41.3298 37.6142 41.3035 37.9142 41.1358 38.1351L41.3101 38.2673L41.4844 38.3995C41.7553 38.0424 41.7928 37.5654 41.5989 37.1678L41.4023 37.2637ZM28.6555 30.0387V29.82H22.5141V30.0387V30.2575H28.6555V30.0387ZM16.4219 28.9731H16.6406V26.602H16.4219H16.2031V28.9731H16.4219ZM29.7211 5.16783H29.5023V28.9731H29.7211H29.9398V5.16783H29.7211ZM22.5141 30.0387V29.82H17.4875V30.0387V30.2575H22.5141V30.0387ZM22.5048 3.45354H22.286C22.286 3.68874 22.4767 3.87941 22.7119 3.87941V3.66066V3.44191C22.7183 3.44191 22.7235 3.44712 22.7235 3.45354H22.5048ZM22.7119 3.66066V3.87941H25.6115V3.66066V3.44191H22.7119V3.66066ZM25.6115 3.66066V3.87941C25.8467 3.87941 26.0373 3.68874 26.0373 3.45354H25.8186H25.5998C25.5998 3.44712 25.605 3.44191 25.6115 3.44191V3.66066ZM25.8186 3.45354H26.0373C26.0373 3.21835 25.8467 3.02768 25.6115 3.02768V3.24643V3.46518C25.605 3.46518 25.5998 3.45997 25.5998 3.45354H25.8186ZM25.6115 3.24643V3.02768H22.7119V3.24643V3.46518H25.6115V3.24643ZM22.7119 3.24643V3.02768C22.4767 3.02768 22.286 3.21835 22.286 3.45354H22.5048H22.7235C22.7235 3.45997 22.7183 3.46518 22.7119 3.46518V3.24643ZM21.489 0.875L21.2703 0.868663C21.2518 1.50705 21.219 1.90902 21.1241 2.23504C21.0321 2.55124 20.8778 2.80821 20.5885 3.14365L20.7542 3.2865L20.9199 3.42934C21.2344 3.06459 21.429 2.75313 21.5442 2.35729C21.6565 1.97127 21.6892 1.51759 21.7076 0.881337L21.489 0.875ZM21.489 0.875L21.2703 0.881337C21.2887 1.51759 21.3214 1.97127 21.4338 2.35729C21.549 2.75313 21.7436 3.06459 22.0581 3.42934L22.2237 3.2865L22.3894 3.14365C22.1002 2.80821 21.9459 2.55124 21.8538 2.23504C21.759 1.90902 21.7261 1.50705 21.7076 0.868663L21.489 0.875ZM21.489 6.125L21.7076 6.11866C21.6892 5.48241 21.6565 5.02873 21.5442 4.64271C21.429 4.24687 21.2344 3.93541 20.9199 3.57065L20.7542 3.7135L20.5885 3.85635C20.8778 4.19179 21.0321 4.44876 21.1241 4.76496C21.219 5.09098 21.2518 5.49295 21.2703 6.13134L21.489 6.125ZM21.489 6.125L21.7076 6.13134C21.7261 5.49295 21.759 5.09098 21.8538 4.76496C21.9459 4.44876 22.1002 4.19179 22.3894 3.85635L22.2237 3.7135L22.0581 3.57065C21.7436 3.93541 21.549 4.24687 21.4338 4.64271C21.3214 5.02873 21.2887 5.48241 21.2703 6.11866L21.489 6.125ZM22.2237 3.2865L22.0581 3.42934C22.0929 3.4697 22.0929 3.5303 22.0581 3.57065L22.2237 3.7135L22.3894 3.85635C22.5658 3.65183 22.5658 3.34817 22.3894 3.14365L22.2237 3.2865ZM20.7542 3.2865L20.5885 3.14365C20.4122 3.34817 20.4122 3.65183 20.5885 3.85635L20.7542 3.7135L20.9199 3.57065C20.8851 3.5303 20.8851 3.4697 20.9199 3.42934L20.7542 3.2865ZM11.5937 16.1875L11.5264 15.9794C10.2543 16.3909 8.43311 17.3854 7.08209 19.0406C5.72462 20.7037 4.84626 23.03 5.47323 26.0754L5.68749 26.0312L5.90175 25.9871C5.30372 23.0824 6.1389 20.888 7.42102 19.3172C8.70957 17.7386 10.454 16.7862 11.6611 16.3956L11.5937 16.1875ZM0.21875 29.9687H2.98023e-08V40.0312H0.21875H0.4375V29.9687H0.21875ZM1.09375 40.9062V41.125H14.2187V40.9062V40.6875H1.09375V40.9062ZM15.0937 40.0312H15.3125V29.9687H15.0937H14.875V40.0312H15.0937ZM7.08842 35.8282L7.23038 35.6617L0.360707 29.8023L0.21875 29.9687L0.0767929 30.1352L6.94646 35.9946L7.08842 35.8282ZM8.22408 35.8282L8.36603 35.9946L15.2357 30.1352L15.0937 29.9687L14.9518 29.8023L8.08212 35.6617L8.22408 35.8282ZM7.08842 35.8282L6.94646 35.9946C7.35538 36.3434 7.95712 36.3434 8.36603 35.9946L8.22408 35.8282L8.08212 35.6617C7.83677 35.871 7.47573 35.871 7.23038 35.6617L7.08842 35.8282ZM14.2187 40.9062V41.125C14.8228 41.125 15.3125 40.6353 15.3125 40.0312H15.0937H14.875C14.875 40.3937 14.5812 40.6875 14.2187 40.6875V40.9062ZM0.21875 40.0312H2.98023e-08C2.98023e-08 40.6353 0.489689 41.125 1.09375 41.125V40.9062V40.6875C0.731313 40.6875 0.4375 40.3937 0.4375 40.0312H0.21875ZM15.0937 29.9687V29.75H0.21875V29.9687V30.1875H15.0937V29.9687Z" fill="black"/>
<path d="M5.19585 7.20719C5.28175 6.93094 5.65575 6.93094 5.74165 7.20719L6.11297 8.40143C6.15139 8.52498 6.26156 8.60863 6.38587 8.60863H7.58751C7.86548 8.60863 7.98105 8.98033 7.75617 9.15106L6.78402 9.88914C6.68345 9.9655 6.64137 10.1008 6.67979 10.2244L7.05111 11.4186C7.13701 11.6949 6.83443 11.9246 6.60955 11.7539L5.63741 11.0158C5.53684 10.9394 5.40066 10.9394 5.30009 11.0158L4.32794 11.7539C4.10307 11.9246 3.80049 11.6949 3.88639 11.4186L4.25771 10.2244C4.29613 10.1008 4.25405 9.9655 4.15348 9.88914L3.18133 9.15106C2.95645 8.98033 3.07202 8.60863 3.34999 8.60863H4.55163C4.67594 8.60863 4.78611 8.52498 4.82453 8.40143L5.19585 7.20719Z" fill="#EE2524"/>
<path d="M25.2261 35.113C25.273 34.9623 25.477 34.9623 25.5239 35.113L25.7264 35.7644C25.7473 35.8318 25.8074 35.8774 25.8752 35.8774H26.5307C26.6823 35.8774 26.7453 36.0802 26.6227 36.1733L26.0924 36.5759C26.0376 36.6175 26.0146 36.6914 26.0356 36.7588L26.2381 37.4102C26.285 37.5608 26.1199 37.6861 25.9973 37.593L25.467 37.1904C25.4121 37.1488 25.3379 37.1488 25.283 37.1904L24.7527 37.593C24.6301 37.6861 24.465 37.5608 24.5119 37.4102L24.7144 36.7588C24.7354 36.6914 24.7124 36.6175 24.6576 36.5759L24.1273 36.1733C24.0047 36.0802 24.0677 35.8774 24.2193 35.8774H24.8748C24.9426 35.8774 25.0027 35.8318 25.0236 35.7644L25.2261 35.113Z" fill="#EE2524"/>
<path d="M38.3511 8.86301C38.398 8.71233 38.602 8.71233 38.6489 8.86301L38.8514 9.51442C38.8723 9.58181 38.9324 9.62743 39.0002 9.62743H39.6557C39.8073 9.62743 39.8703 9.83018 39.7477 9.92331L39.2174 10.3259C39.1626 10.3675 39.1396 10.4414 39.1606 10.5088L39.3631 11.1602C39.41 11.3108 39.2449 11.4362 39.1223 11.343L38.592 10.9404C38.5371 10.8988 38.4629 10.8988 38.408 10.9404L37.8777 11.343C37.7551 11.4362 37.59 11.3108 37.6369 11.1602L37.8394 10.5088C37.8604 10.4414 37.8374 10.3675 37.7826 10.3259L37.2523 9.92331C37.1297 9.83018 37.1927 9.62743 37.3443 9.62743H37.9998C38.0676 9.62743 38.1277 9.58181 38.1486 9.51442L38.3511 8.86301Z" fill="#EE2524"/>
</svg>
