<svg width="42" height="42" viewBox="0 0 42 42" fill="none" xmlns="http://www.w3.org/2000/svg">
<path d="M28.4011 9.396C28.8729 9.396 29.2553 9.77842 29.2553 10.2502V20.2866C29.2553 20.4042 29.2315 20.5163 29.1885 20.6183C28.9972 19.9383 28.5292 18.3647 28.1876 17.5106C27.8459 16.6564 26.9063 15.1616 26.4792 14.521C26.3369 14.521 26.0095 14.6064 25.8386 14.9481C25.6678 15.2897 26.4792 18.9342 26.9063 20.7137L26.2657 21.1408H12.599C12.1273 21.1408 11.7449 20.7584 11.7449 20.2866V10.2502C11.7449 9.77842 12.1273 9.396 12.599 9.396H28.4011Z" fill="#EE2524"/>
<path d="M26.0522 13.6671V11.9587M25.198 14.5212H23.9167M26.9063 14.5212H28.1876" stroke="white" stroke-width="0.427083" stroke-linecap="round" stroke-linejoin="round"/>
<path d="M3.01176 27.9921V5.55216C3.01176 5.08042 3.39418 4.698 3.86592 4.698H37.1342C37.606 4.698 37.9884 5.08042 37.9884 5.55217V27.9921M3.01176 27.9921H0.427165C0.309227 27.9921 0.213623 28.0877 0.213623 28.2056V28.6147C0.213623 29.0864 0.596047 29.4688 1.06779 29.4688H6.61987M3.01176 27.9921H7.2605M37.9884 27.9921H40.573C40.6909 27.9921 40.7865 28.0877 40.7865 28.2056V28.6147C40.7865 29.0864 40.4041 29.4688 39.9324 29.4688H34.5584M37.9884 27.9921H34.2012M18.0299 29.4688H25.6284M14.0938 29.4688H15.5886M16.2292 26.9063H16.0157M17.724 26.9063H23.6935M7.90112 26.9063H5.12508C4.65334 26.9063 4.27091 26.5239 4.27091 26.0522V7.04696C4.27091 6.57521 4.65334 6.19279 5.12508 6.19279H35.8751C36.3468 6.19279 36.7292 6.57521 36.7292 7.04696V26.0522C36.7292 26.5239 36.3468 26.9063 35.8751 26.9063H33.8633M15.1615 27.9921H24.4877M9.44767 25.7154C8.2479 26.0153 8.14792 26.5152 7.24809 28.3149C6.52822 29.7546 5.55216 34.2138 0.854248 34.3803C-0.00299216 36.9176 2.24879 40.9157 3.55374 40.9125C3.58556 40.3883 7.04812 37.9131 8.94776 37.2132C10.8474 36.5133 14.4467 35.4136 15.1466 34.2138C15.8465 33.014 18.0461 29.8146 18.146 29.0148C18.246 28.2149 16.8463 28.2149 16.1464 29.0148C15.4465 29.8146 13.7469 31.7143 13.5469 31.5143C13.3469 31.3143 13.6469 30.3145 14.1468 29.3147C14.5467 28.5149 15.6465 27.2484 16.1464 26.7152C16.2131 26.7819 16.4263 26.9752 16.7463 27.2151C17.1463 27.5151 17.8461 27.3151 17.7461 26.5152C17.6635 25.8547 16.6945 25.0578 16.0217 24.8002M8.94776 26.6152C9.38101 25.8154 10.3675 24.1557 10.8474 23.9157C11.3273 23.6758 11.9877 23.587 12.2543 23.6203M12.2543 23.6203C11.8853 24.0734 11.5163 24.6989 11.1473 25.2155C10.7474 25.7753 10.4636 26.4792 10.4636 26.4792M12.2543 23.6203C12.3852 23.4596 12.5161 23.3206 12.6471 23.2158C13.147 22.8159 15.5465 23.2158 16.3464 24.2156C16.6869 24.6413 16.4475 24.777 16.0217 24.8002M16.0217 24.8002C15.8797 24.7459 15.751 24.7156 15.6465 24.7156C15.5715 24.7156 15.4742 24.7384 15.3612 24.7787M15.3612 24.7787C14.9019 24.7408 14.4369 24.6776 14.2468 24.7156C13.8468 24.7956 13.3469 25.6821 13.147 26.1153C13.6812 25.7217 14.7514 24.9961 15.3612 24.7787ZM10.0365 24.8244V7.68758H30.9636V22.5599M12.172 20.5001L13.8093 17.7522C13.9549 17.5193 14.2792 17.4824 14.4735 17.6766L15.4338 18.6369C15.6244 18.8275 15.9416 18.7961 16.0911 18.5718L17.5294 16.4145C17.7113 16.1417 18.12 16.1671 18.2667 16.4604L18.8582 17.6434C19.0115 17.95 19.4453 17.9602 19.6128 17.6611L21.8781 13.616C22.0252 13.3533 22.4013 13.3476 22.5562 13.6058C22.6975 13.8413 23.0309 13.8623 23.2006 13.6464L25.0697 11.2675C25.1507 11.1644 25.2745 11.1042 25.4056 11.1042H26.983C27.072 11.1042 27.1588 11.0764 27.2312 11.0247L28.6147 10.0365M12.172 21.9949H21.5678M13.4532 23.0626H22.5562M16.2292 24.1303H20.5001M24.6991 24.7648C24.1196 23.299 22.5771 23.6107 22.8906 24.7082C23.2042 25.8056 23.2967 26.3673 23.8285 27.104C24.3604 27.8407 25.6632 29.556 26.8136 30.9328C27.9641 32.3095 30.3265 33.5857 31.5368 34.7393L32.3623 37.4536C32.4304 37.6774 32.6248 37.842 32.8594 37.8705C35.2076 38.1562 37.0999 38.0894 38.8504 36.8561C39.1262 36.6617 39.1514 36.2741 38.927 36.0232C37.8319 34.7987 34.9164 31.4957 34.8338 30.9476C34.7057 30.0983 34.1571 27.1488 33.3783 25.8103C33.3408 25.7458 33.3183 25.6745 33.3079 25.6007C33.2579 25.2453 33.0665 24.6491 32.594 24.2851C32.4786 24.1961 32.3903 24.0705 32.319 23.944C31.9398 23.271 30.3519 22.0665 29.501 21.3638C29.4361 21.3103 29.3889 21.2412 29.3625 21.1617C28.6185 18.9238 27.0607 14.649 26.4688 14.5406C25.7821 14.4148 25.2318 14.722 27.0189 20.6563M24.6991 24.7648C24.6603 24.456 24.6337 23.6489 24.8372 22.8902C25.0407 22.1315 26.3764 21.0848 27.0189 20.6563M24.6991 24.7648C24.7641 24.9291 24.838 25.0882 24.919 25.2405M27.0189 20.6563C27.1918 21.2305 27.3866 21.8575 27.6053 22.5418M27.6053 22.5418C27.3034 22.7612 26.6108 23.4393 26.2566 24.3973C26.1075 24.8006 25.8997 25.0347 25.6868 25.1618M27.6053 22.5418C27.742 23.0333 27.7938 23.6951 27.7685 24.3514M24.919 25.2405C25.5605 26.4464 26.642 27.2179 27.1677 26.6666C27.522 26.2951 27.7309 25.3293 27.7685 24.3514M24.919 25.2405C25.0917 25.3089 25.3941 25.3365 25.6868 25.1618M25.6868 25.1618C25.5617 25.4015 25.4168 25.8966 25.8377 25.9593C26.1351 26.0036 26.4564 25.9587 26.738 25.7756M27.7685 24.3514C27.716 24.3458 27.5462 24.4849 27.2877 25.0859C27.1473 25.4123 26.9544 25.6348 26.738 25.7756M26.738 25.7756C26.8118 25.9536 27.0629 26.2414 27.4763 25.9694M1.92196 14.0938L1.00678 13.2397M1.92196 15.3751H0.64071M1.92196 16.6563L1.00678 17.5105M39.0782 14.0938L39.9934 13.2397M39.0782 15.3751H40.3595M39.0782 16.6563L39.9934 17.5105" stroke="black" stroke-width="0.427083" stroke-linecap="round" stroke-linejoin="round"/>
<path d="M16.4429 18.5784C16.4429 18.9322 16.1561 19.219 15.8022 19.219C15.4484 19.219 15.1616 18.9322 15.1616 18.5784C15.1616 18.2246 15.4484 17.9377 15.8022 17.9377C16.1561 17.9377 16.4429 18.2246 16.4429 18.5784Z" fill="white"/>
<path d="M22.8491 13.4534C22.8491 13.8072 22.5623 14.094 22.2085 14.094C21.8547 14.094 21.5679 13.8072 21.5679 13.4534C21.5679 13.0996 21.8547 12.8127 22.2085 12.8127C22.5623 12.8127 22.8491 13.0996 22.8491 13.4534Z" fill="white"/>
</svg>
