<svg width="45" height="45" viewBox="0 0 45 45" fill="none" xmlns="http://www.w3.org/2000/svg">
<path d="M0.229248 2.06258C0.229248 3.0751 1.05006 3.89591 2.06258 3.89591C2.52371 3.89591 2.94507 3.72567 3.26724 3.44461C3.65249 3.10852 3.89591 2.61398 3.89591 2.06258C3.89591 1.05006 3.0751 0.229248 2.06258 0.229248C1.05006 0.229248 0.229248 1.05006 0.229248 2.06258Z" fill="white"/>
<path d="M42.8542 44.2292C43.6136 44.2292 44.2292 43.6136 44.2292 42.8542C44.2292 42.0949 43.6136 41.4792 42.8542 41.4792C42.2795 41.4792 41.7871 41.8319 41.5817 42.3325C41.5156 42.4934 41.4792 42.6696 41.4792 42.8542C41.4792 43.6136 42.0949 44.2292 42.8542 44.2292Z" fill="white"/>
<path d="M36.8959 11.2292C39.4272 11.2292 41.4792 9.17722 41.4792 6.64591C41.4792 4.11461 39.4272 2.06258 36.8959 2.06258C34.3646 2.06258 32.3126 4.11461 32.3126 6.64591C32.3126 7.38383 32.487 8.08102 32.7968 8.69851C33.3788 9.85862 34.4389 10.7374 35.7185 11.0766C36.0942 11.1762 36.4889 11.2292 36.8959 11.2292Z" fill="white"/>
<path d="M9.85425 11.2292L3.26724 3.44461M22.6876 13.4926L32.7968 8.69851M32.5417 21.0834L35.7185 11.0766M30.723 26.8126L27.9584 35.5209L41.5817 42.3325M32.7968 8.69851C32.487 8.08102 32.3126 7.38383 32.3126 6.64591C32.3126 4.11461 34.3646 2.06258 36.8959 2.06258C39.4272 2.06258 41.4792 4.11461 41.4792 6.64591C41.4792 9.17722 39.4272 11.2292 36.8959 11.2292C36.4889 11.2292 36.0942 11.1762 35.7185 11.0766M32.7968 8.69851C33.3788 9.85862 34.4389 10.7374 35.7185 11.0766M3.26724 3.44461C3.65249 3.10852 3.89591 2.61398 3.89591 2.06258C3.89591 1.05006 3.0751 0.229248 2.06258 0.229248C1.05006 0.229248 0.229248 1.05006 0.229248 2.06258C0.229248 3.0751 1.05006 3.89591 2.06258 3.89591C2.52371 3.89591 2.94507 3.72567 3.26724 3.44461ZM41.5817 42.3325C41.5156 42.4934 41.4792 42.6696 41.4792 42.8542C41.4792 43.6136 42.0949 44.2292 42.8542 44.2292C43.6136 44.2292 44.2292 43.6136 44.2292 42.8542C44.2292 42.0949 43.6136 41.4792 42.8542 41.4792C42.2795 41.4792 41.7871 41.8319 41.5817 42.3325Z" stroke="black" stroke-width="0.458333"/>
<path d="M15.3542 8.02075C10.2916 8.02075 6.1875 12.1248 6.1875 17.1874C6.1875 19.5122 7.05292 21.6348 8.47917 23.2508L9.85417 13.0624C9.85417 12.9096 9.99167 12.6041 10.5417 12.6041C11.0917 12.6041 19.7603 13.6735 24.0258 14.2083C22.7893 10.6081 19.3739 8.02075 15.3542 8.02075Z" fill="#EE2524"/>
<path d="M30.4792 35.2916C30.4792 36.6838 29.3505 37.8124 27.9583 37.8124C26.5661 37.8124 25.4375 36.6838 25.4375 35.2916C25.4375 33.8994 26.5661 32.7708 27.9583 32.7708C29.3505 32.7708 30.4792 33.8994 30.4792 35.2916Z" fill="#EE2524"/>
<path d="M30.0188 16.5215L9.60509 14.0132L9.26743 16.7612L29.6811 19.2695L30.0188 16.5215Z" fill="#EE2524"/>
<path d="M12.518 22.7395C12.5712 22.3059 12.2629 21.9112 11.8293 21.8579C11.3957 21.8046 11.001 22.1129 10.9477 22.5466C10.8944 22.9802 11.2027 23.3749 11.6363 23.4282C12.07 23.4815 12.4647 23.1731 12.518 22.7395Z" fill="#EE2524"/>
<path d="M11.3402 22.5948C11.3935 22.1611 11.0852 21.7664 10.6516 21.7131C10.218 21.6599 9.82324 21.9682 9.76996 22.4018C9.71668 22.8354 10.025 23.2301 10.4586 23.2834C10.8922 23.3367 11.287 23.0284 11.3402 22.5948Z" fill="#EE2524"/>
<path d="M20.187 30.8408L20.199 31.0697H20.199L20.187 30.8408ZM27.7208 26.1287L27.5578 25.9676L27.5579 25.9675L27.7208 26.1287ZM30.2703 22.9936L30.0799 22.8661V22.8661L30.2703 22.9936ZM31.5417 19.4242L31.3635 19.5683L31.3634 19.5683L31.5417 19.4242ZM30.0576 19.239L30.1202 19.4595L30.1201 19.4595L30.0576 19.239ZM28.7243 20.3842L28.5192 20.2819L28.5217 20.2771L28.7243 20.3842ZM22.1856 26.3664L22.246 26.5875L22.2412 26.5887L22.1856 26.3664ZM16.3025 24.4447L16.1567 24.6215V24.6215L16.3025 24.4447ZM16.1172 24.3166L16.2282 24.1161V24.1161L16.1172 24.3166ZM13.6169 23.7001L13.6243 23.9291L13.6238 23.9291L13.6169 23.7001ZM10.2835 25.5014C10.198 25.5947 10.053 25.6011 9.95969 25.5156C9.86634 25.4302 9.85996 25.2852 9.94543 25.1918L10.2835 25.5014ZM2.06717 29.8033L1.83904 29.825V29.825L2.06717 29.8033ZM2.81952 32.0211L2.62645 32.1445L2.62644 32.1445L2.81952 32.0211ZM5.72725 34.1405L5.79355 33.9212V33.9212L5.72725 34.1405ZM7.15622 33.403L6.95225 33.2985V33.2985L7.15622 33.403ZM9.06544 31.0696L8.92686 30.8871L8.92704 30.887L9.06544 31.0696ZM21.8985 30.6366L21.8561 30.4114L21.8563 30.4114L21.8985 30.6366ZM35.0669 20.746L35.2712 20.6421L35.272 20.6437L35.0669 20.746ZM34.7571 20.4754L34.6544 20.6803V20.6803L34.7571 20.4754ZM26.1325 23.8681C26.2583 23.8545 26.3714 23.9454 26.385 24.0713C26.3986 24.1971 26.3077 24.3102 26.1818 24.3238L26.1325 23.8681ZM28.4145 28.3233C28.3029 28.383 28.1641 28.3409 28.1044 28.2293C28.0447 28.1177 28.0868 27.9788 28.1984 27.9191L28.4145 28.3233ZM37.0144 22.9936L37.1581 23.1721L37.1576 23.1725L37.0144 22.9936ZM37.8047 21.7715L37.5785 21.808L37.5783 21.807L37.8047 21.7715ZM37.0144 21.0166L36.9389 21.233L36.9373 21.2324L37.0144 21.0166ZM35.1416 21.8016C35.0494 21.8884 34.9044 21.884 34.8176 21.7918C34.7309 21.6997 34.7353 21.5546 34.8274 21.4679L35.1416 21.8016ZM36.8894 20.8806C36.9141 21.0047 36.8336 21.1254 36.7095 21.1501C36.5854 21.1749 36.4647 21.0944 36.4399 20.9703L36.8894 20.8806ZM36.0619 20.0765L35.9578 20.2807L35.9573 20.2804L36.0619 20.0765ZM34.7593 20.5663C34.6744 20.6602 34.5295 20.6675 34.4356 20.5826C34.3417 20.4977 34.3344 20.3528 34.4193 20.2589L34.7593 20.5663ZM2.37667 28.9252L2.20647 28.7717V28.7717L2.37667 28.9252ZM8.40295 23.8747C8.50952 23.8064 8.65126 23.8375 8.71954 23.944C8.78782 24.0506 8.75678 24.1923 8.65022 24.2606L8.40295 23.8747ZM29.4265 14.8546L29.4544 14.6271L29.4265 14.8546ZM10.583 12.5392L10.611 12.3117V12.3117L10.583 12.5392ZM9.70142 13.2279L9.92888 13.2558V13.2558L9.70142 13.2279ZM8.44725 23.4347L8.21979 23.4068V23.4068L8.44725 23.4347ZM30.1151 15.7362L29.8877 15.7083V15.7083L30.1151 15.7362ZM9.13592 24.3163L9.16386 24.0889V24.0889L9.13592 24.3163ZM26.2028 21.6315L26.1749 21.859V21.859L26.2028 21.6315ZM21.8845 21.1009L21.9125 20.8735V20.8735L21.8845 21.1009ZM22.0775 19.5306L22.1054 19.3032V19.3032L22.0775 19.5306ZM26.3958 20.0612L26.3678 20.2887V20.2887L26.3958 20.0612ZM19.1366 20.7633L19.1086 20.9907V20.9907L19.1366 20.7633ZM10.8926 19.7503L10.9205 19.5228V19.5228L10.8926 19.7503ZM11.0855 18.18L11.1135 17.9525L11.0855 18.18ZM19.3295 19.193L19.3016 19.4204L19.3295 19.193ZM20.187 30.8408L20.0969 30.6301C24.7631 28.6348 26.1562 27.386 27.5578 25.9676L27.7208 26.1287L27.8838 26.2898C26.4367 27.7543 24.9926 29.0351 20.2771 31.0515L20.187 30.8408ZM27.7208 26.1287L27.5579 25.9675C28.433 25.0836 29.3528 23.9522 30.0799 22.8661L30.2703 22.9936L30.4607 23.1211C29.7183 24.2301 28.7803 25.3843 27.8836 26.2899L27.7208 26.1287ZM30.2703 22.9936L30.0799 22.8661C30.5992 22.0903 31.014 21.3469 31.2459 20.7393C31.362 20.4349 31.428 20.1754 31.443 19.9692C31.4581 19.7602 31.419 19.637 31.3635 19.5683L31.5417 19.4242L31.7198 19.2801C31.879 19.4768 31.9193 19.7369 31.9001 20.0023C31.8807 20.2705 31.7984 20.5768 31.6741 20.9027C31.4248 21.5558 30.9892 22.3316 30.4607 23.1211L30.2703 22.9936ZM31.5417 19.4242L31.3634 19.5683C31.2863 19.4728 31.1117 19.401 30.849 19.3829C30.5981 19.3657 30.3232 19.4019 30.1202 19.4595L30.0576 19.239L29.9951 19.0186C30.2441 18.948 30.5719 18.9044 30.8804 18.9257C31.177 18.946 31.5184 19.0309 31.7199 19.2801L31.5417 19.4242ZM30.0576 19.239L30.1201 19.4595C29.393 19.6655 29.0251 20.3055 28.9269 20.4913L28.7243 20.3842L28.5217 20.2771C28.6282 20.0755 29.0733 19.2797 29.9952 19.0185L30.0576 19.239ZM28.7243 20.3842L28.9294 20.4865C28.2162 21.9158 27.3568 23.2126 26.2782 24.2642L26.1182 24.1002L25.9582 23.9361C26.9897 22.9304 27.8215 21.6803 28.5192 20.2819L28.7243 20.3842ZM26.1182 24.1002L26.2782 24.2642C25.1819 25.3331 23.8617 26.146 22.246 26.5875L22.1856 26.3664L22.1251 26.1454C23.6598 25.726 24.9129 24.9552 25.9582 23.9361L26.1182 24.1002ZM22.1856 26.3664L22.2412 26.5887C19.8939 27.1768 17.8556 26.0221 16.1567 24.6215L16.3025 24.4447L16.4483 24.2678C18.122 25.6477 20.0057 26.6762 22.1299 26.1441L22.1856 26.3664ZM16.1172 24.3166L16.0062 24.517C15.5679 24.2743 14.7234 23.8939 13.6243 23.9291L13.6169 23.7001L13.6096 23.471C14.8226 23.4322 15.751 23.8518 16.2282 24.1161L16.1172 24.3166ZM13.6169 23.7001L13.6238 23.9291C11.7255 23.986 10.5272 25.2352 10.2835 25.5014L10.1144 25.3466L9.94543 25.1918C10.2077 24.9054 11.5169 23.5337 13.6101 23.471L13.6169 23.7001ZM2.06717 29.8033L2.29531 29.7817C2.34834 30.3396 2.51596 31.1208 3.01259 31.8976L2.81952 32.0211L2.62644 32.1445C2.07951 31.2891 1.89669 30.4317 1.83904 29.825L2.06717 29.8033ZM2.81952 32.0211L3.01258 31.8976C3.7878 33.11 4.95189 33.6668 5.79355 33.9212L5.72725 34.1405L5.66094 34.3599C4.76127 34.088 3.4824 33.4831 2.62645 32.1445L2.81952 32.0211ZM7.15622 33.403L6.95225 33.2985C7.36658 32.4896 7.98687 31.6008 8.92686 30.8871L9.06544 31.0696L9.20402 31.2521C8.33323 31.9133 7.75266 32.7413 7.36018 33.5075L7.15622 33.403ZM9.06544 31.0696L8.92704 30.887C10.5478 29.6589 12.2255 29.6738 14.047 29.9429C15.8799 30.2137 17.843 30.734 20.175 30.612L20.187 30.8408L20.199 31.0697C17.806 31.1949 15.7539 30.6584 13.98 30.3963C12.1948 30.1325 10.6742 30.1382 9.20384 31.2523L9.06544 31.0696ZM20.187 30.8408L20.175 30.612C20.716 30.5837 21.2757 30.5206 21.8561 30.4114L21.8985 30.6366L21.9408 30.8618C21.3392 30.975 20.7591 31.0404 20.199 31.0697L20.187 30.8408ZM21.8985 30.6366L21.8563 30.4114C25.0804 29.8087 28.0856 28.1771 30.404 26.3933C31.5623 25.5022 32.5452 24.576 33.2949 23.7267C34.048 22.8737 34.5544 22.1111 34.7745 21.5481L34.9879 21.6316L35.2013 21.715C34.9527 22.3511 34.4059 23.1609 33.6385 24.0301C32.8678 24.9031 31.863 25.849 30.6835 26.7566C28.3263 28.5702 25.2555 30.2422 21.9406 30.8619L21.8985 30.6366ZM34.9879 21.6316L34.7745 21.5481C34.9185 21.1798 34.9162 20.9573 34.8619 20.8483L35.0669 20.746L35.272 20.6437C35.4188 20.9378 35.354 21.3246 35.2013 21.715L34.9879 21.6316ZM35.0669 20.746L34.8626 20.8499C34.8233 20.7725 34.7466 20.7265 34.6544 20.6803L34.7571 20.4754L34.8597 20.2705C34.9494 20.3154 35.157 20.4175 35.2712 20.6421L35.0669 20.746ZM34.7571 20.4754L34.6544 20.6803C34.6133 20.6597 34.5706 20.6429 34.5262 20.6296L34.5917 20.41L34.6572 20.1904C34.7264 20.2111 34.7941 20.2376 34.8597 20.2705L34.7571 20.4754ZM34.5917 20.41L34.5262 20.6296C34.2199 20.5383 33.8203 20.614 33.3592 20.8269C32.9049 21.0366 32.4294 21.3616 31.9927 21.7081C31.5575 22.0535 31.1686 22.4139 30.8881 22.6887C30.748 22.8259 30.6354 22.9413 30.558 23.0221C30.5193 23.0625 30.4895 23.0943 30.4694 23.1158C30.4594 23.1265 30.4519 23.1347 30.4469 23.1401C30.4444 23.1428 30.4425 23.1448 30.4413 23.1461C30.4407 23.1468 30.4403 23.1473 30.44 23.1476C30.4399 23.1477 30.4398 23.1478 30.4398 23.1479C30.4397 23.1479 30.4397 23.1479 30.4397 23.1479C30.4397 23.1479 30.4397 23.1479 30.2703 22.9936C30.1008 22.8393 30.1009 22.8393 30.1009 22.8392C30.101 22.8392 30.101 22.8391 30.1011 22.8391C30.1012 22.8389 30.1014 22.8387 30.1016 22.8385C30.102 22.8381 30.1025 22.8374 30.1033 22.8366C30.1048 22.835 30.1069 22.8327 30.1097 22.8296C30.1153 22.8236 30.1235 22.8147 30.1342 22.8032C30.1555 22.7804 30.1867 22.7471 30.2269 22.7052C30.3072 22.6213 30.4233 22.5023 30.5674 22.3612C30.8551 22.0794 31.2562 21.7074 31.7078 21.3491C32.1579 20.9919 32.6659 20.6422 33.1671 20.4108C33.6614 20.1825 34.1891 20.0508 34.6572 20.1904L34.5917 20.41ZM26.1182 24.1002L26.0935 23.8723L26.1325 23.8681L26.1572 24.0959L26.1818 24.3238L26.1429 24.328L26.1182 24.1002ZM28.3065 28.1212L28.1984 27.9191C28.6826 27.6602 30.4233 26.7269 32.2595 25.685C34.1027 24.6391 36.0198 23.496 36.8712 22.8147L37.0144 22.9936L37.1576 23.1725C36.2719 23.8813 34.3198 25.0429 32.4857 26.0836C30.6445 27.1284 28.8997 28.0638 28.4145 28.3233L28.3065 28.1212ZM37.0144 22.9936L36.8707 22.8151C37.1305 22.6059 37.3239 22.4138 37.4441 22.2375C37.5636 22.0621 37.5971 21.9233 37.5785 21.808L37.8047 21.7715L38.0309 21.735C38.0749 22.0071 37.9805 22.2643 37.8228 22.4956C37.6658 22.726 37.4327 22.9511 37.1581 23.1721L37.0144 22.9936ZM37.8047 21.7715L37.5783 21.807C37.5545 21.6549 37.4362 21.5192 37.2747 21.4072C37.1187 21.2991 36.9618 21.241 36.9389 21.233L37.0144 21.0166L37.0898 20.8002C37.1323 20.815 37.3322 20.8894 37.5358 21.0305C37.7339 21.1678 37.9782 21.3982 38.0311 21.736L37.8047 21.7715ZM37.0144 21.0166L36.9373 21.2324C36.5357 21.089 36.1189 21.1953 35.7694 21.3703C35.4228 21.5438 35.1779 21.7676 35.1445 21.7989L34.9879 21.6316L34.8312 21.4643C34.879 21.4196 35.1611 21.1623 35.5642 20.9604C35.9645 20.7601 36.5204 20.5969 37.0914 20.8008L37.0144 21.0166ZM34.9879 21.6316L35.145 21.7985L35.1416 21.8016L34.9845 21.6348L34.8274 21.4679L34.8308 21.4647L34.9879 21.6316ZM36.6646 20.9254L36.4399 20.9703C36.4259 20.9002 36.3331 20.472 35.9578 20.2807L36.0619 20.0765L36.166 19.8723C36.7517 20.171 36.8749 20.8082 36.8894 20.8806L36.6646 20.9254ZM36.0619 20.0765L35.9573 20.2804C35.6025 20.0983 35.1028 20.1874 34.7615 20.5639L34.5917 20.41L34.4219 20.2561C34.8824 19.7481 35.602 19.5828 36.1666 19.8726L36.0619 20.0765ZM34.5917 20.41L34.7616 20.5637L34.7593 20.5663L34.5893 20.4126L34.4193 20.2589L34.4217 20.2563L34.5917 20.41ZM2.37667 28.9252L2.54688 29.0786C2.36589 29.2794 2.27154 29.5315 2.29531 29.7817L2.06717 29.8033L1.83904 29.825C1.80137 29.4287 1.95263 29.0533 2.20647 28.7717L2.37667 28.9252ZM5.72725 34.1405L5.79355 33.9212C6.23444 34.0544 6.7042 33.7828 6.95225 33.2985L7.15622 33.403L7.36018 33.5075C7.05161 34.1099 6.38875 34.5799 5.66094 34.3599L5.72725 34.1405ZM16.3025 24.4447L16.1567 24.6215C16.1068 24.5803 16.0571 24.5453 16.0062 24.517L16.1172 24.3166L16.2282 24.1161C16.3091 24.1609 16.382 24.2132 16.4483 24.2678L16.3025 24.4447ZM8.52658 24.0677L8.65022 24.2606C5.89478 26.0261 3.82638 27.6594 2.54688 29.0786L2.37667 28.9252L2.20647 28.7717C3.52598 27.3082 5.63373 25.649 8.40295 23.8747L8.52658 24.0677ZM29.4265 14.8546L29.3985 15.082L10.5551 12.7666L10.583 12.5392L10.611 12.3117L29.4544 14.6271L29.4265 14.8546ZM9.70142 13.2279L9.92888 13.2558L8.6747 23.4627L8.44725 23.4347L8.21979 23.4068L9.47397 13.1999L9.70142 13.2279ZM29.6683 19.373L29.4408 19.345L29.8877 15.7083L30.1151 15.7362L30.3426 15.7642L29.8957 19.4009L29.6683 19.373ZM17.4689 25.3402L17.4968 25.1128L23.3093 25.827L23.2813 26.0545L23.2534 26.2819L17.4409 25.5677L17.4689 25.3402ZM9.13592 24.3163L9.16386 24.0889L11.0137 24.3162L10.9857 24.5436L10.9578 24.7711L9.10797 24.5438L9.13592 24.3163ZM8.44725 23.4347L8.6747 23.4627C8.63686 23.7707 8.85586 24.051 9.16386 24.0889L9.13592 24.3163L9.10797 24.5438C8.54872 24.4751 8.15108 23.966 8.21979 23.4068L8.44725 23.4347ZM10.583 12.5392L10.5551 12.7666C10.2471 12.7288 9.96673 12.9478 9.92888 13.2558L9.70142 13.2279L9.47397 13.1999C9.54268 12.6407 10.0517 12.243 10.611 12.3117L10.583 12.5392ZM29.4265 14.8546L29.4544 14.6271C30.0137 14.6959 30.4113 15.2049 30.3426 15.7642L30.1151 15.7362L29.8877 15.7083C29.9255 15.4003 29.7065 15.1199 29.3985 15.082L29.4265 14.8546ZM26.3958 20.0612L26.3678 20.2887L22.0495 19.7581L22.0775 19.5306L22.1054 19.3032L26.4237 19.8338L26.3958 20.0612ZM21.8845 21.1009L21.9125 20.8735L26.2308 21.4041L26.2028 21.6315L26.1749 21.859L21.8566 21.3284L21.8845 21.1009ZM26.2028 21.6315L26.2308 21.4041C26.5388 21.4419 26.8191 21.2229 26.857 20.9149L27.0844 20.9429L27.3119 20.9708C27.2432 21.53 26.7341 21.9277 26.1749 21.859L26.2028 21.6315ZM21.1959 20.2193L21.4233 20.2472C21.3855 20.5552 21.6045 20.8356 21.9125 20.8735L21.8845 21.1009L21.8566 21.3284C21.2974 21.2597 20.8997 20.7506 20.9684 20.1913L21.1959 20.2193ZM22.0775 19.5306L22.0495 19.7581C21.7415 19.7202 21.4612 19.9392 21.4233 20.2472L21.1959 20.2193L20.9684 20.1913C21.0371 19.6321 21.5462 19.2345 22.1054 19.3032L22.0775 19.5306ZM26.3958 20.0612L26.4237 19.8338C26.983 19.9025 27.3806 20.4116 27.3119 20.9708L27.0844 20.9429L26.857 20.9149C26.8948 20.6069 26.6758 20.3265 26.3678 20.2887L26.3958 20.0612ZM19.3295 19.193L19.3016 19.4204L11.0576 18.4075L11.0855 18.18L11.1135 17.9525L19.3575 18.9655L19.3295 19.193ZM10.8926 19.7503L10.9205 19.5228L19.1645 20.5358L19.1366 20.7633L19.1086 20.9907L10.8646 19.9777L10.8926 19.7503ZM19.1366 20.7633L19.1645 20.5358C19.4725 20.5737 19.7529 20.3547 19.7907 20.0467L20.0182 20.0746L20.2456 20.1026C20.1769 20.6618 19.6678 21.0594 19.1086 20.9907L19.1366 20.7633ZM10.2039 18.8687L10.4313 18.8966C10.3935 19.2046 10.6125 19.485 10.9205 19.5228L10.8926 19.7503L10.8646 19.9777C10.3054 19.909 9.90772 19.4 9.97643 18.8407L10.2039 18.8687ZM11.0855 18.18L11.0576 18.4075C10.7496 18.3696 10.4692 18.5886 10.4313 18.8966L10.2039 18.8687L9.97643 18.8407C10.0452 18.2815 10.5542 17.8838 11.1135 17.9525L11.0855 18.18ZM19.3295 19.193L19.3575 18.9655C19.9167 19.0343 20.3143 19.5433 20.2456 20.1026L20.0182 20.0746L19.7907 20.0467C19.8286 19.7387 19.6096 19.4583 19.3016 19.4204L19.3295 19.193Z" fill="black"/>
</svg>
