<?xml version="1.0" encoding="utf-8"?>
<!-- Generator: Adobe Illustrator 19.0.0, SVG Export Plug-In . SVG Version: 6.00 Build 0)  -->
<svg version="1.1" id="Layer_1" xmlns="http://www.w3.org/2000/svg" xmlns:xlink="http://www.w3.org/1999/xlink" x="0px" y="0px"
	 width="454.2821045px" height="336.5923157px" viewBox="0 0 454.2821045 336.5923157"
	 style="enable-background:new 0 0 454.2821045 336.5923157;" xml:space="preserve">
<style type="text/css">
	.st0{fill:#000000;}
</style>
<path class="st0" d="M266.6578369,293.3059692c13.7068176-4.2234802,40.2814636-14.2622375,63.3835754-36.8449402
	c6.9225769-6.7669678,20.1046753-19.907959,29.1151733-41.2250977c2.2356873-5.2893066,3.7020874-9.8695068,4.6378479-13.1404724
	c-10.1278992,1.2946167-33.4402466,2.8475952-58.2304077-9.2756653
	c-47.1401062-23.0530396-55.5395966-73.9996338-55.9115601-76.5240784
	c-0.5789185-3.9289246-6.9788971-53.3386841,30.9188232-88.8916016c3.8616943-3.622757,33.7790527-30.7798538,77.2970581-27.0539703
	c45.453064,3.8915558,76.3925476,38.9610443,87.7321472,67.6349335c7.0966797,17.9448853,7.9959717,37.1210022,8.5026855,47.9241638
	c0.2458801,5.2435455,0.8695984,23.2525635-3.478363,46.3782349c-1.0954895,5.8264465-4.603302,23.1299133-13.6557922,44.7034607
	c-6.1325378,14.6147156-19.8280334,47.0419312-48.954834,75.2358093
	c-41.6355591,40.302002-90.24646,51.0485535-111.3077393,54.3655701
	C273.3569031,322.1635132,270.0073547,307.7347717,266.6578369,293.3059692z M17.7613087,293.3059692
	c13.7068329-4.2234802,40.2814789-14.2622375,63.3835907-36.8449402
	c6.9225769-6.7669678,20.1046906-19.907959,29.1151886-41.2250977c2.2356873-5.2893066,3.7020874-9.8695068,4.6378326-13.1404724
	c-10.1278839,1.2946167-33.4402313,2.8475952-58.2303925-9.2756653
	C9.5274067,169.7667542,1.1279163,118.8201599,0.755968,116.2957153
	c-0.5789337-3.9289246-6.9789276-53.3386841,30.918808-88.8916016c3.8616924-3.622757,33.779068-30.7798538,77.2970581-27.0539703
	c45.453064,3.8915558,76.3925476,38.9610443,87.7321625,67.6349335c7.0966644,17.9448853,7.9959717,37.1210022,8.5026703,47.9241638
	c0.2458954,5.2435455,0.8695984,23.2525635-3.478363,46.3782349c-1.0954895,5.8264465-4.6032867,23.1299133-13.655777,44.7034607
	c-6.1325378,14.6147156-19.8280487,47.0419312-48.954834,75.2358093
	c-41.6355743,40.302002-90.2464752,51.0485535-111.3077545,54.3655701
	C24.4604053,322.1635132,21.1108418,307.7347717,17.7613087,293.3059692z"/>
</svg>
