<svg width="28" height="28" viewBox="0 0 28 28" fill="none" xmlns="http://www.w3.org/2000/svg">
<path d="M10.1172 13.6499C11.0176 15.5093 12.5211 17.009 14.3828 17.9046C14.5201 17.9696 14.672 17.9978 14.8235 17.9863C14.975 17.9748 15.1209 17.924 15.2469 17.839L17.9812 16.0124C18.1021 15.9305 18.2417 15.8805 18.387 15.8671C18.5324 15.8537 18.6788 15.8774 18.8125 15.9359L23.9313 18.1343C24.1062 18.2071 24.2524 18.3354 24.3472 18.4994C24.4421 18.6635 24.4804 18.8542 24.4563 19.0421C24.294 20.3084 23.6759 21.4722 22.7177 22.3157C21.7594 23.1592 20.5266 23.6246 19.25 23.6249C15.3049 23.6249 11.5214 22.0577 8.73179 19.2681C5.94218 16.4785 4.375 12.695 4.375 8.74991C4.37529 7.47329 4.84073 6.2405 5.68425 5.28224C6.52776 4.32398 7.69154 3.7059 8.95781 3.54366C9.14576 3.51952 9.33643 3.55783 9.50047 3.6527C9.66451 3.74756 9.79281 3.89372 9.86562 4.06866L12.0641 9.19835C12.1212 9.32998 12.1451 9.47365 12.1337 9.6167C12.1223 9.75976 12.0758 9.8978 11.9984 10.0187L10.1719 12.7968C10.0906 12.9224 10.0428 13.0669 10.0333 13.2162C10.0237 13.3656 10.0526 13.5149 10.1172 13.6499V13.6499Z" stroke="white" stroke-width="2" stroke-linecap="round" stroke-linejoin="round"/>
</svg>
