<svg width="380" height="344" viewBox="0 0 380 344" fill="none" xmlns="http://www.w3.org/2000/svg">
<path d="M177.326 0.943469C283.25 -8.08263 283.455 49.2988 331.198 102.791C378.941 156.283 389.175 180.53 371.168 242.211C353.161 303.892 292.527 352.223 217.475 324.833C142.422 297.443 99.4713 323.75 52.1469 299.396C4.82256 275.042 -12.7233 228.122 21.9157 172.718C56.5547 117.315 46.6884 12.1194 177.326 0.943469Z" fill="#FDE4E4"/>
<path opacity="0.7" d="M177.326 0.943469C283.25 -8.08263 283.455 49.2988 331.198 102.791C378.941 156.283 389.175 180.53 371.168 242.211C353.161 303.892 292.527 352.223 217.475 324.833C142.422 297.443 99.4713 323.75 52.1469 299.396C4.82256 275.042 -12.7233 228.122 21.9157 172.718C56.5547 117.315 46.6884 12.1194 177.326 0.943469Z" fill="#FDE4E4"/>
<path opacity="0.2" d="M110.269 217.529C110.269 217.529 92.9876 238.133 91.7831 239.43C90.5787 240.726 90.9289 261.585 87.9733 270.98C85.0176 280.375 74.8181 290.025 52.0187 337.584L48.9435 244.927L65.7462 180.391L110.269 217.529Z" fill="black" fill-opacity="0.7"/>
<path d="M122.954 216.634C122.954 216.634 111.542 166.285 102.521 160.016C97.293 156.389 89.4084 155.093 82.5233 155.725C77.5432 156.176 73.0755 157.645 70.5641 159.983C64.5161 165.555 55.7603 168.812 51.5062 172.431C47.2522 176.05 47.9868 188.022 45.7402 198.262C43.4935 208.503 39.3676 209.077 39.0345 219.227C38.7013 229.378 36.7707 260.526 30.3726 269.495C23.9744 278.463 24.2221 285.2 21.8901 294.111C19.558 303.022 0.534302 335.763 0.534302 335.763L52.2579 343C52.2579 343 56.0251 322.683 60.4329 306.075C62.5173 298.189 64.7041 291.124 66.7115 287.448C70.528 280.353 73.7584 272.981 76.3729 265.4C81.8058 259.254 84.172 246.174 84.4368 234.834L97.6688 226.719C108.014 223.355 122.954 216.634 122.954 216.634Z" fill="white"/>
<path opacity="0.4" d="M122.954 216.634C122.954 216.634 111.542 166.285 102.521 160.016C97.293 156.389 89.4085 155.093 82.5234 155.725C66.4126 160.59 62.5515 169.592 60.4671 171.832C57.6909 174.827 54.8719 192.256 57.614 202.193C60.3561 212.13 59.0577 215.879 57.614 220.868C54.385 231.93 66.6176 237.091 68.0954 241.12C69.5732 245.149 70.5385 268.116 65.6779 275.878C63.1153 279.981 57.0331 300.889 60.4415 306.116C62.5258 298.23 64.7127 291.165 66.7201 287.489C70.5366 280.394 73.7669 273.022 76.3814 265.441C81.8144 259.295 84.1806 246.215 84.4454 234.875L97.6774 226.76C108.014 223.355 122.954 216.634 122.954 216.634Z" fill="#EE2524"/>
<path d="M60.7148 223.782C60.7148 223.782 57.6311 220.688 55.0854 220.828" stroke="#263238" stroke-linecap="round" stroke-linejoin="round"/>
<path d="M66.3185 212.417C66.3185 212.417 62.8247 206.263 57.7762 205.163" stroke="#263238" stroke-linecap="round" stroke-linejoin="round"/>
<path d="M58.5878 175.607C58.5878 175.607 65.7718 178.118 67.1899 182.992" stroke="#263238" stroke-linecap="round" stroke-linejoin="round"/>
<path d="M97.6688 226.711C97.6688 226.711 95.781 224.668 95.6785 222.986" stroke="#263238" stroke-linecap="round" stroke-linejoin="round"/>
<path d="M52.2579 343C52.2579 343 60.5269 298.911 66.7115 287.489C70.528 280.394 73.7583 273.022 76.3728 265.441C81.8057 259.295 84.172 246.207 84.4368 234.867L97.6688 226.752C108.014 223.396 122.954 216.708 122.954 216.708C122.954 216.708 111.541 166.359 102.521 160.09C93.5002 153.821 76.5949 154.494 70.5299 160.09C64.4649 165.686 55.7261 168.87 51.472 172.489C47.218 176.107 47.9526 188.079 45.706 198.32C43.4594 208.56 39.3334 209.135 39.0003 219.285C38.6671 229.435 36.7366 260.583 30.3384 269.552C23.9402 278.521 24.1879 285.257 21.8559 294.169C19.5238 303.08 0.500122 335.82 0.500122 335.82" stroke="#263238" stroke-linecap="round" stroke-linejoin="round"/>
<path d="M42.9567 62.3832L41.4238 49.172C41.3987 48.9557 41.464 48.7387 41.6055 48.5687C41.747 48.3988 41.953 48.2897 42.1781 48.2656L47.9936 47.643L49.7149 62.477L43.8994 63.0997C43.6757 63.1236 43.4512 63.0618 43.2747 62.9276C43.0982 62.7935 42.9839 62.5978 42.9567 62.3832Z" fill="#EE2524" stroke="#263238" stroke-linecap="round" stroke-linejoin="round"/>
<path d="M69.3668 27.3173L83.1202 25.8448C83.3453 25.8207 83.5712 25.8835 83.7482 26.0194C83.9251 26.1552 84.0387 26.3531 84.0638 26.5694L84.712 32.1556L69.2606 33.8099L68.6115 28.2156C68.5888 28.0004 68.6554 27.7854 68.7968 27.6172C68.9383 27.449 69.1431 27.3412 69.3668 27.3173Z" fill="#EE2524" stroke="#263238" stroke-linecap="round" stroke-linejoin="round"/>
<path d="M87.7371 25.3751L101.49 23.9026C101.716 23.8785 101.942 23.9413 102.118 24.0771C102.295 24.213 102.409 24.4109 102.434 24.6272L103.082 30.2134L87.6394 31.8668L86.9912 26.2806C86.9661 26.0643 87.0315 25.8473 87.173 25.6773C87.3144 25.5073 87.5204 25.3983 87.7456 25.3742L87.7371 25.3751Z" fill="#EE2524" stroke="#263238" stroke-linecap="round" stroke-linejoin="round"/>
<path d="M63.3629 224.783L42.9554 48.7817C42.4344 44.2951 43.7878 39.7933 46.7186 36.2642C49.6494 32.7351 53.9181 30.4672 58.5878 29.9582L325.108 1.43568C327.427 1.18234 329.776 1.37108 332.02 1.99108C334.264 2.61109 336.358 3.65018 338.183 5.04885C340.008 6.44752 341.528 8.17829 342.656 10.142C343.784 12.1058 344.497 14.2639 344.755 16.4929L365.162 192.494C365.683 196.988 364.324 201.496 361.385 205.028C358.445 208.559 354.166 210.824 349.487 211.325L82.9675 239.84C80.6509 240.088 78.3059 239.896 76.0667 239.274C73.8274 238.652 71.7377 237.612 69.9171 236.213C68.0964 234.815 66.5805 233.086 65.4559 231.124C64.3313 229.163 63.6201 227.008 63.3629 224.783Z" fill="#EE2524" stroke="#263238" stroke-linecap="round" stroke-linejoin="round"/>
<path d="M349.487 209.094L82.455 237.665C78.4532 238.092 74.4389 236.974 71.2945 234.558C68.1501 232.143 66.133 228.626 65.6865 224.783L45.185 48.2977C44.7388 44.4523 45.9011 40.5941 48.4162 37.5718C50.9313 34.5496 54.5932 32.6108 58.5964 32.182L325.663 3.61846C329.664 3.18984 333.678 4.30544 336.823 6.71986C339.968 9.13428 341.985 12.6497 342.431 16.493L362.933 192.978C363.153 194.884 362.979 196.813 362.422 198.655C361.865 200.497 360.935 202.216 359.687 203.712C358.438 205.209 356.895 206.454 355.145 207.378C353.394 208.301 351.472 208.884 349.487 209.094Z" fill="#757575" stroke="#263238" stroke-linecap="round" stroke-linejoin="round"/>
<path d="M59.852 136.064C59.8763 136.195 59.8724 136.33 59.8405 136.46C59.8085 136.59 59.7493 136.712 59.6663 136.819C59.5834 136.926 59.4785 137.015 59.3582 137.082C59.2379 137.148 59.1047 137.19 58.9668 137.205C58.8288 137.221 58.6892 137.208 58.5563 137.17C58.4235 137.131 58.3003 137.067 58.1943 136.98C58.0884 136.894 58.0019 136.788 57.9403 136.669C57.8787 136.549 57.8432 136.419 57.836 136.286C57.8117 136.154 57.8156 136.02 57.8476 135.89C57.8795 135.76 57.9388 135.638 58.0217 135.531C58.1047 135.424 58.2095 135.335 58.3298 135.268C58.4502 135.202 58.5834 135.16 58.7213 135.145C58.8592 135.129 58.9989 135.141 59.1317 135.18C59.2646 135.219 59.3878 135.283 59.4937 135.369C59.5997 135.456 59.6861 135.562 59.7477 135.681C59.8094 135.801 59.8449 135.931 59.852 136.064Z" fill="#999999" stroke="#263238" stroke-linecap="round" stroke-linejoin="round"/>
<path d="M61.7997 144.787C61.8429 145.153 61.7721 145.523 61.5963 145.85C61.4204 146.178 61.1474 146.448 60.8118 146.626C60.4762 146.805 60.0931 146.883 59.7109 146.853C59.3286 146.822 58.9645 146.683 58.6645 146.453C58.3646 146.224 58.1422 145.914 58.0256 145.563C57.909 145.212 57.9034 144.835 58.0095 144.481C58.1156 144.127 58.3286 143.811 58.6216 143.574C58.9146 143.336 59.2744 143.187 59.6556 143.146C60.1664 143.09 60.6793 143.232 61.0813 143.54C61.4834 143.847 61.7418 144.296 61.7997 144.787Z" fill="#263238"/>
<path d="M59.2968 123.231C59.34 123.597 59.2692 123.967 59.0933 124.294C58.9175 124.622 58.6445 124.892 58.3089 125.07C57.9733 125.249 57.5902 125.327 57.2079 125.297C56.8257 125.266 56.4616 125.127 56.1616 124.897C55.8616 124.668 55.6393 124.358 55.5227 124.007C55.4061 123.656 55.4005 123.279 55.5066 122.925C55.6126 122.571 55.8257 122.255 56.1187 122.018C56.4117 121.78 56.7715 121.631 57.1527 121.59C57.6631 121.536 58.1747 121.679 58.5762 121.986C58.9777 122.294 59.2367 122.741 59.2968 123.231Z" fill="#263238"/>
<path d="M62.0047 150.99C62.0455 151.348 61.9366 151.707 61.7019 151.988C61.4672 152.269 61.126 152.448 60.7533 152.488C60.3806 152.527 60.007 152.422 59.7146 152.197C59.4222 151.971 59.2351 151.643 59.1943 151.285C59.1741 151.108 59.1905 150.929 59.2424 150.758C59.2944 150.586 59.3809 150.427 59.4972 150.288C59.7318 150.007 60.0731 149.827 60.4458 149.788C60.8184 149.749 61.1921 149.853 61.4844 150.079C61.7768 150.304 61.9639 150.632 62.0047 150.99Z" fill="#263238"/>
<path d="M75.6724 225.661L54.9915 47.7397C54.7731 45.8422 55.3477 43.9391 56.589 42.4483C57.8303 40.9575 59.6368 40.0009 61.6117 39.7885L330.156 11.0691C332.132 10.8593 334.114 11.4109 335.668 12.6031C337.221 13.7953 338.219 15.5306 338.442 17.4284L359.072 195.374C359.181 196.314 359.096 197.265 358.823 198.173C358.549 199.081 358.092 199.929 357.477 200.667C356.862 201.406 356.102 202.021 355.24 202.477C354.377 202.933 353.43 203.221 352.451 203.325L83.9072 232.045C81.9339 232.247 79.9578 231.688 78.4135 230.491C76.8692 229.293 75.8832 227.556 75.6724 225.661Z" fill="white"/>
<path opacity="0.3" d="M330.609 11.0116L61.1505 39.8376C60.2304 39.9346 59.3394 40.2051 58.5285 40.6336C57.7176 41.0621 57.0027 41.6402 56.4249 42.3347C55.8471 43.0292 55.4178 43.8265 55.1616 44.6808C54.9053 45.5351 54.8272 46.4295 54.9317 47.3129L75.6724 226.112C75.7733 226.996 76.0549 227.851 76.501 228.63C76.9471 229.409 77.5489 230.096 78.2719 230.651C78.9949 231.206 79.8249 231.618 80.7143 231.865C81.6036 232.111 82.5348 232.186 83.4544 232.085L352.896 203.259C353.816 203.161 354.706 202.89 355.517 202.462C356.328 202.033 357.043 201.455 357.621 200.761C358.199 200.067 358.63 199.27 358.887 198.416C359.145 197.562 359.225 196.668 359.123 195.784L338.391 16.9852C338.183 15.2021 337.246 13.5714 335.787 12.4513C334.328 11.3312 332.465 10.8133 330.609 11.0116Z" fill="#EE2524"/>
<path d="M158.771 53.6724C158.462 53.2378 158.055 52.9286 157.548 52.7447C157.054 52.546 156.488 52.4828 155.853 52.5552C154.753 52.6803 153.917 53.1444 153.344 53.9476C152.77 54.7376 152.557 55.7347 152.705 56.9389C152.864 58.2225 153.332 59.189 154.111 59.8385C154.901 60.4732 155.906 60.7212 157.124 60.5825C157.959 60.4876 158.635 60.1959 159.153 59.7077C159.683 59.2179 160.032 58.5609 160.199 57.7368L155.887 58.2274L155.579 55.7264L162.971 54.8853L163.36 58.0414C163.213 58.9169 162.879 59.7533 162.36 60.5505C161.853 61.3461 161.164 62.0217 160.292 62.5771C159.42 63.1325 158.401 63.4766 157.236 63.6092C155.858 63.766 154.589 63.6084 153.429 63.1365C152.281 62.6499 151.336 61.9053 150.595 60.9027C149.866 59.8987 149.417 58.7085 149.248 57.3323C149.078 55.956 149.225 54.6981 149.689 53.5584C150.165 52.4039 150.902 51.4679 151.902 50.7503C152.9 50.0195 154.088 49.5757 155.466 49.419C157.135 49.229 158.589 49.4729 159.828 50.1505C161.08 50.8265 161.98 51.8581 162.527 53.2451L158.771 53.6724ZM175.57 55.6257C175.609 55.9432 175.63 56.2763 175.633 56.6249L167.942 57.4999C168.08 58.182 168.364 58.6864 168.794 59.0133C169.235 59.3253 169.741 59.449 170.311 59.3842C171.159 59.2877 171.704 58.8633 171.947 58.1111L175.564 57.6996C175.468 58.4485 175.211 59.142 174.793 59.78C174.387 60.4165 173.841 60.9416 173.153 61.3554C172.465 61.7691 171.671 62.0272 170.77 62.1297C169.684 62.2533 168.688 62.1317 167.783 61.7651C166.878 61.3984 166.134 60.8121 165.551 60.0062C164.968 59.2003 164.606 58.2217 164.464 57.0704C164.322 55.9191 164.43 54.887 164.787 53.9741C165.158 53.0597 165.739 52.3227 166.53 51.7631C167.32 51.2035 168.266 50.8611 169.365 50.736C170.438 50.6139 171.42 50.7303 172.31 51.0853C173.2 51.4403 173.928 52.0082 174.495 52.7891C175.075 53.5686 175.433 54.5141 175.57 55.6257ZM171.982 55.1281C171.91 54.5458 171.655 54.1053 171.215 53.8064C170.775 53.5076 170.257 53.3921 169.661 53.4599C169.091 53.5247 168.628 53.7452 168.271 54.1212C167.928 54.4957 167.747 54.9926 167.73 55.6119L171.982 55.1281ZM183.893 57.557L184.248 60.4352L182.519 60.6319C181.287 60.7721 180.29 60.5837 179.527 60.0665C178.763 59.5362 178.297 58.5895 178.129 57.2265L177.586 52.8199L176.235 52.9736L175.887 50.155L177.238 50.0012L176.905 47.3017L180.304 46.9151L180.636 49.6146L182.862 49.3614L183.21 52.18L180.984 52.4333L181.532 56.8796C181.573 57.2104 181.682 57.4396 181.859 57.5671C182.036 57.6945 182.31 57.7372 182.681 57.695L183.893 57.557ZM196.966 59.1291C195.655 59.2783 194.412 59.1111 193.237 58.6275C192.076 58.1424 191.103 57.3942 190.32 56.3829C189.549 55.3569 189.079 54.1624 188.911 52.7994C188.743 51.4364 188.91 50.1762 189.412 49.0187C189.928 47.8597 190.691 46.9141 191.702 46.1818C192.727 45.4479 193.895 45.0064 195.206 44.8572C196.518 44.708 197.754 44.8759 198.916 45.361C200.09 45.8447 201.056 46.5936 201.812 47.6079C202.582 48.6206 203.051 49.8085 203.219 51.1715C203.387 52.5345 203.221 53.8014 202.72 54.9721C202.218 56.1296 201.462 57.0745 200.45 57.8068C199.439 58.5391 198.278 58.9799 196.966 59.1291ZM196.584 56.0325C197.697 55.9059 198.539 55.4344 199.11 54.618C199.694 53.8001 199.911 52.7824 199.761 51.5649C199.61 50.3343 199.151 49.3934 198.386 48.7425C197.632 48.0768 196.699 47.8073 195.586 47.9339C194.46 48.062 193.604 48.5284 193.018 49.3331C192.445 50.1363 192.235 51.1598 192.389 52.4037C192.541 53.6344 192.993 54.5826 193.747 55.2483C194.513 55.8992 195.458 56.1607 196.584 56.0325ZM210.519 49.0729L208.691 49.2809L209.709 57.5383L206.311 57.9249L205.293 49.6675L204.061 49.8077L203.713 46.989L204.946 46.8488L204.906 46.5312C204.738 45.1682 205.002 44.0916 205.697 43.3013C206.39 42.4978 207.492 42.0101 209.003 41.8383C209.254 41.8096 209.441 41.7951 209.561 41.7948L209.916 44.673C209.262 44.7072 208.817 44.8518 208.579 45.1069C208.342 45.362 208.26 45.7807 208.331 46.363L208.344 46.4622L210.172 46.2542L210.519 49.0729ZM217.68 48.2581L215.852 48.4661L216.87 56.7236L213.472 57.1102L212.454 48.8527L211.222 48.9929L210.874 46.1743L212.106 46.0341L212.067 45.7165C211.899 44.3535 212.163 43.2768 212.858 42.4866C213.551 41.683 214.653 41.1954 216.163 41.0235C216.415 40.9949 216.601 40.9804 216.722 40.9801L217.077 43.8583C216.423 43.8924 215.978 44.0371 215.74 44.2922C215.503 44.5473 215.42 44.966 215.492 45.5482L215.504 45.6475L217.333 45.4395L217.68 48.2581ZM230.043 49.428C230.082 49.7456 230.103 50.0786 230.106 50.4272L222.415 51.3022C222.553 51.9843 222.837 52.4888 223.267 52.8156C223.708 53.1276 224.214 53.2513 224.783 53.1865C225.631 53.09 226.177 52.6656 226.42 51.9134L230.037 51.5019C229.941 52.2508 229.684 52.9443 229.265 53.5823C228.86 54.2188 228.314 54.7439 227.626 55.1577C226.938 55.5714 226.144 55.8295 225.243 55.932C224.157 56.0556 223.161 55.9341 222.256 55.5674C221.351 55.2007 220.607 54.6144 220.024 53.8085C219.441 53.0026 219.079 52.024 218.937 50.8727C218.795 49.7215 218.902 48.6894 219.26 47.7764C219.631 46.862 220.212 46.125 221.002 45.5654C221.793 45.0058 222.738 44.6634 223.838 44.5383C224.911 44.4162 225.893 44.5326 226.783 44.8876C227.673 45.2426 228.401 45.8105 228.968 46.5915C229.547 47.3709 229.906 48.3164 230.043 49.428ZM226.455 48.9304C226.383 48.3481 226.127 47.9076 225.688 47.6087C225.248 47.3099 224.73 47.1944 224.134 47.2622C223.564 47.327 223.101 47.5475 222.744 47.9235C222.401 48.298 222.22 48.795 222.203 49.4142L226.455 48.9304ZM234.8 45.324C235.123 44.67 235.561 44.1371 236.114 43.7252C236.667 43.3001 237.307 43.0461 238.036 42.9632L238.479 46.556L237.545 46.6623C236.697 46.7587 236.084 47.0163 235.705 47.4351C235.326 47.8406 235.192 48.4999 235.304 49.413L235.938 54.5541L232.54 54.9407L231.175 43.8646L234.573 43.478L234.8 45.324ZM245.571 53.6192C244.604 53.7292 243.722 53.6618 242.926 53.4169C242.13 53.172 241.479 52.7899 240.971 52.2706C240.462 51.7381 240.137 51.1175 239.996 50.409L243.354 50.0269C243.442 50.4061 243.659 50.6967 244.006 50.8988C244.353 51.1008 244.759 51.1754 245.223 51.1227C245.646 51.0744 245.961 50.9581 246.167 50.7737C246.384 50.5745 246.476 50.3426 246.444 50.0779C246.405 49.7603 246.21 49.5476 245.861 49.4397C245.511 49.3186 244.953 49.2076 244.188 49.1068C243.37 49.0119 242.684 48.8954 242.13 48.7572C241.574 48.6058 241.077 48.3336 240.639 47.9406C240.199 47.5344 239.933 46.9541 239.84 46.1998C239.761 45.5647 239.863 44.9694 240.144 44.4141C240.436 43.8441 240.901 43.3685 241.539 42.9873C242.191 42.6045 242.987 42.3596 243.927 42.2526C245.318 42.0944 246.454 42.3141 247.333 42.9117C248.226 43.5079 248.803 44.3683 249.062 45.4927L245.922 45.85C245.822 45.4722 245.612 45.1875 245.293 44.9957C244.987 44.8024 244.602 44.7321 244.139 44.7848C243.741 44.83 243.446 44.9441 243.254 45.127C243.06 45.2967 242.979 45.5139 243.012 45.7785C243.051 46.0961 243.246 46.3155 243.597 46.4366C243.961 46.5562 244.51 46.6547 245.245 46.7321C246.093 46.8504 246.788 46.986 247.331 47.139C247.872 47.2787 248.363 47.5583 248.804 47.9777C249.257 48.3824 249.538 48.9678 249.646 49.7338C249.726 50.3822 249.612 50.9856 249.305 51.5439C249.009 52.0874 248.535 52.5439 247.882 52.9135C247.242 53.2815 246.472 53.5167 245.571 53.6192Z" fill="black"/>
<path d="M236.635 199.854L190.421 204.777C188.604 204.973 186.765 204.822 185.009 204.334C183.253 203.846 181.614 203.03 180.186 201.934C178.758 200.837 177.569 199.481 176.687 197.943C175.805 196.405 175.247 194.715 175.045 192.97C174.842 191.225 174.998 189.459 175.506 187.773C176.013 186.086 176.861 184.512 178.002 183.141C179.143 181.769 180.554 180.627 182.154 179.779C183.754 178.931 185.513 178.395 187.329 178.2L233.551 173.276C235.368 173.08 237.208 173.23 238.964 173.718C240.721 174.205 242.36 175.02 243.788 176.117C245.217 177.214 246.406 178.57 247.287 180.109C248.169 181.648 248.727 183.338 248.927 185.084C249.132 186.83 248.976 188.596 248.468 190.284C247.961 191.971 247.112 193.546 245.97 194.918C244.828 196.29 243.416 197.432 241.814 198.279C240.212 199.126 238.452 199.661 236.635 199.854Z" fill="#EE2524" stroke="#263238" stroke-linecap="round" stroke-linejoin="round"/>
<path d="M202.953 196.121L200.877 196.342L200.262 194.102L197.742 194.373L197.648 196.687L195.76 196.892L196.401 184.108L199.408 183.779L202.953 196.121ZM197.827 192.641L199.809 192.428L198.101 186.175L197.827 192.641Z" fill="#263238"/>
<path d="M208.932 185.896L209.12 187.538C209.359 189.548 208.471 190.746 206.421 190.968L205.447 191.066L205.994 195.792L203.944 196.014L202.483 183.451L205.515 183.123C207.531 182.893 208.667 183.886 208.932 185.896ZM204.746 185.018L205.242 189.269L206.216 189.162C206.865 189.097 207.19 188.768 207.07 187.874L206.856 185.987C206.754 185.092 206.361 184.838 205.712 184.912L204.746 185.018Z" fill="#263238"/>
<path d="M215.946 185.142L216.133 186.783C216.364 188.793 215.484 189.991 213.426 190.213L212.46 190.319L213.007 195.037L210.948 195.259L209.496 182.696L212.52 182.368C214.579 182.171 215.706 183.131 215.946 185.142ZM211.76 184.264L212.247 188.514L213.221 188.407C213.878 188.342 214.194 188.014 214.075 187.119L213.861 185.232C213.75 184.337 213.366 184.091 212.708 184.157L211.76 184.264Z" fill="#263238"/>
<path d="M216.535 181.933L218.594 181.712L219.841 192.477L223.258 192.116L223.463 193.913L218.03 194.496L216.535 181.933Z" fill="#263238"/>
<path d="M224.607 189.556L221.037 181.433L223.189 181.203L225.402 186.766L226.256 180.875L228.221 180.67L226.598 189.343L227.076 193.511L225.026 193.725L224.607 189.556Z" fill="#263238"/>
<path d="M242.737 211.538L187.181 217.486L187.372 219.134L242.929 213.185L242.737 211.538Z" fill="#999999" stroke="#263238" stroke-linecap="round" stroke-linejoin="round"/>
<path d="M322.665 154.633L101.65 178.273C101.65 178.273 92.048 158.449 97.8568 145.583C103.666 132.716 121.254 140.052 128.703 128.113C136.152 116.174 127.524 108.264 135.725 91.9101C143.925 75.5564 167.425 66.8339 184.971 74.0056C202.517 81.1772 208.454 91.9921 219.61 88.9643C230.766 85.9364 237.122 72.0198 259.229 73.0373C281.337 74.0548 286.086 103.792 284.805 118.463C283.524 133.135 327.602 120.039 322.665 154.633Z" fill="white"/>
<path d="M90.5531 179.463L333.923 153.427" stroke="#263238" stroke-linecap="round" stroke-linejoin="round"/>
<path d="M92.3214 176.173C91.2315 175.694 90.0388 175.472 88.8417 175.523C87.6446 175.574 86.4774 175.898 85.4363 176.468C83.6361 177.509 82.227 179.072 81.4128 180.932C78.5683 186.627 70.735 199.665 69.3682 203.407C68.0014 207.149 65.097 217.496 61.8766 221.976C58.6561 226.457 57.11 233.046 57.11 233.046L59.6727 295.572C61.0309 286.431 65.6523 275.879 65.6523 275.879C70.0923 273.338 73.778 269.744 76.3558 265.441C77.1315 264.554 77.818 263.597 78.4059 262.586C83.1384 254.552 84.8041 240.48 84.3856 229.657C83.9499 217.389 87.7512 211.604 93.7821 200.552C99.813 189.499 96.8146 178.306 92.3214 176.173Z" fill="white"/>
<path opacity="0.4" d="M92.3213 176.173C91.2278 175.709 90.0372 175.494 88.8427 175.545C87.6482 175.596 86.4823 175.912 85.4362 176.468C89.1521 177.215 94.064 178.749 93.1243 181.498C91.655 185.839 86.1965 179.857 83.779 182.032C81.3616 184.206 72.8363 196.514 79.021 201.356C85.2056 206.197 83.8815 214.993 80.029 217.66C76.1764 220.327 79.1235 226.013 80.9601 235.113C82.0791 240.619 80.1058 253.346 78.3974 262.545C83.1298 254.511 84.7956 240.439 84.377 229.616C83.9413 217.348 87.7427 211.563 93.7735 200.511C99.8044 189.458 96.8061 178.159 92.3213 176.173Z" fill="#EE2524"/>
<path d="M59.6812 295.531C61.0394 286.398 65.6608 275.838 65.6608 275.838C70.1021 273.296 73.7903 269.702 76.3729 265.4C82.6515 258.286 84.8383 241.875 84.4026 229.616C83.967 217.357 87.8196 211.604 93.7992 200.502C99.7788 189.4 97.293 178.438 92.3043 176.173C88.8276 174.597 84.2489 175.237 81.3957 180.932C78.5426 186.627 70.7179 199.665 69.3511 203.399C67.9843 207.132 65.08 217.496 61.8595 221.984C58.6391 226.473 57.11 233.046 57.11 233.046" stroke="#263238" stroke-linecap="round" stroke-linejoin="round"/>
<path d="M74.8181 204.195C74.8181 204.195 80.0545 204.351 82.5062 206.099" stroke="#263238" stroke-linecap="round" stroke-linejoin="round"/>
<path d="M55.1196 231.848C55.1196 231.848 53.9664 229.55 59.143 226.974" stroke="#263238" stroke-linecap="round" stroke-linejoin="round"/>
<path d="M147.369 121.283C147.369 121.283 139.866 117.339 141.038 116.978C142.209 116.617 160.85 115.257 162.48 115.29C164.111 115.322 169.505 115.377 170.245 115.625C170.985 115.873 178.446 117.812 183.013 117.732C187.579 117.651 192.252 116.779 193.102 117.127C193.952 117.475 197.394 120.554 196.842 121.839C196.289 123.124 194.43 123.686 194.43 123.686L179.82 127.161C179.82 127.161 177.031 124.349 175.014 123.685C172.996 123.02 159.65 120.313 156.043 120.729C152.437 121.145 147.369 121.283 147.369 121.283Z" fill="#263238" stroke="#263238" stroke-miterlimit="10"/>
<path d="M146.772 130.301C146.772 130.301 141.957 144.723 135.785 150.578C135.785 150.578 134.738 151.15 136.742 150.919C138.745 150.688 144.037 142.58 145.71 139.705C147.383 136.83 149.28 134.929 151.885 134.629L155.694 134.19L146.772 130.301Z" fill="#263238" stroke="#263238" stroke-miterlimit="10"/>
<path d="M154.646 141.249C151.911 141.563 149.348 142.763 147.282 144.697C145.216 146.631 143.74 149.212 143.04 152.113C142.34 155.015 142.448 158.106 143.351 160.997C144.253 163.887 145.91 166.447 148.11 168.352C150.31 170.258 152.956 171.423 155.712 171.7C158.469 171.978 161.212 171.355 163.595 169.912C165.978 168.468 167.894 166.268 169.1 163.589C170.307 160.911 170.75 157.875 170.372 154.865C169.868 150.831 167.928 147.13 164.979 144.576C162.03 142.023 158.313 140.826 154.646 141.249ZM157.637 165.175C156.073 165.355 154.48 165.021 153.06 164.215C151.641 163.409 150.457 162.167 149.66 160.646C148.863 159.126 148.488 157.394 148.582 155.671C148.676 153.949 149.235 152.311 150.189 150.967C151.143 149.623 152.448 148.632 153.94 148.119C155.432 147.606 157.044 147.595 158.571 148.087C160.098 148.579 161.472 149.552 162.52 150.882C163.568 152.213 164.242 153.842 164.457 155.562C164.745 157.87 164.189 160.179 162.91 161.982C161.631 163.784 159.734 164.933 157.637 165.175Z" fill="#263238" stroke="#263238" stroke-miterlimit="10"/>
<path d="M155.762 150.176C154.633 150.307 153.575 150.802 152.722 151.601C151.869 152.4 151.26 153.466 150.971 154.664C150.682 155.862 150.727 157.138 151.1 158.332C151.472 159.525 152.156 160.582 153.065 161.369C153.973 162.156 155.066 162.637 156.204 162.751C157.342 162.866 158.475 162.609 159.459 162.013C160.443 161.417 161.234 160.509 161.732 159.403C162.231 158.298 162.414 157.044 162.259 155.801C162.05 154.135 161.249 152.606 160.03 151.551C158.812 150.496 157.277 150.002 155.762 150.176ZM156.998 160.061C156.35 160.137 155.691 159.999 155.103 159.666C154.515 159.333 154.024 158.82 153.693 158.19C153.363 157.561 153.207 156.845 153.245 156.131C153.284 155.418 153.515 154.74 153.909 154.183C154.304 153.626 154.844 153.215 155.462 153.003C156.079 152.79 156.746 152.785 157.379 152.989C158.011 153.192 158.58 153.595 159.014 154.146C159.448 154.696 159.727 155.371 159.816 156.083C159.935 157.037 159.705 157.992 159.177 158.738C158.649 159.484 157.865 159.96 156.998 160.061Z" fill="#263238" stroke="#263238" stroke-miterlimit="10"/>
<path d="M155.183 145.546C153.221 145.769 151.381 146.628 149.898 148.014C148.415 149.4 147.354 151.25 146.85 153.331C146.347 155.412 146.423 157.63 147.069 159.704C147.715 161.778 148.902 163.615 150.48 164.983C152.057 166.351 153.955 167.188 155.932 167.389C157.91 167.589 159.878 167.144 161.588 166.109C163.298 165.074 164.673 163.496 165.539 161.575C166.405 159.654 166.724 157.477 166.454 155.317C166.093 152.425 164.704 149.77 162.59 147.938C160.477 146.106 157.813 145.245 155.183 145.546ZM157.637 165.175C156.073 165.355 154.48 165.021 153.06 164.215C151.641 163.409 150.457 162.167 149.66 160.646C148.863 159.126 148.488 157.394 148.582 155.672C148.676 153.949 149.235 152.311 150.189 150.967C151.143 149.623 152.448 148.632 153.94 148.119C155.432 147.606 157.044 147.595 158.571 148.087C160.098 148.579 161.472 149.552 162.52 150.882C163.568 152.213 164.242 153.842 164.457 155.562C164.745 157.87 164.189 160.179 162.91 161.982C161.631 163.784 159.734 164.933 157.637 165.175Z" fill="white" stroke="#263238" stroke-miterlimit="10"/>
<path d="M160.114 134.577L157.665 146.716L159.566 147.276L162.112 135.126L160.114 134.577Z" fill="#263238" stroke="#263238" stroke-miterlimit="10"/>
<path d="M157.665 146.716C157.665 146.716 153.309 145.203 150.346 148.34C147.382 151.476 147.408 154.925 147.408 154.925C147.408 154.925 153.141 158.51 160.035 158.372C166.93 158.234 173.709 156.349 176.975 154.854C178.976 153.932 180.876 152.776 182.641 151.406L172.955 142.226C172.955 142.226 171.521 140.489 168.935 142.577C166.348 144.665 166.536 146.992 166.536 146.992L157.665 146.716Z" fill="#263238" stroke="#263238" stroke-miterlimit="10"/>
<path d="M162.112 135.126L160.683 147.26L169.624 150.48C169.365 149.143 169.475 147.764 169.94 146.521C170.721 144.641 172.039 144.597 172.364 144.77C172.689 144.944 174.62 145.741 174.62 145.741L172.952 138.887L162.112 135.126Z" fill="#263238" stroke="#263238" stroke-miterlimit="10"/>
<path d="M237.82 131.656C235.084 131.971 232.521 133.171 230.455 135.105C228.389 137.039 226.913 139.62 226.213 142.521C225.514 145.422 225.622 148.514 226.524 151.404C227.427 154.295 229.083 156.855 231.283 158.76C233.484 160.665 236.129 161.83 238.886 162.108C241.642 162.385 244.385 161.763 246.768 160.319C249.151 158.875 251.067 156.675 252.274 153.997C253.48 151.319 253.923 148.283 253.546 145.273C253.296 143.275 252.691 141.339 251.766 139.573C250.84 137.808 249.612 136.248 248.152 134.984C246.692 133.72 245.028 132.775 243.255 132.204C241.482 131.633 239.635 131.447 237.82 131.656ZM240.81 155.582C239.246 155.763 237.654 155.429 236.234 154.623C234.814 153.817 233.631 152.575 232.833 151.054C232.036 149.533 231.661 147.802 231.755 146.079C231.849 144.356 232.409 142.719 233.362 141.375C234.316 140.03 235.622 139.039 237.113 138.527C238.605 138.014 240.217 138.003 241.744 138.495C243.271 138.987 244.646 139.959 245.693 141.29C246.741 142.62 247.415 144.249 247.63 145.97C247.919 148.277 247.362 150.586 246.083 152.389C244.804 154.192 242.907 155.34 240.81 155.582Z" fill="#263238" stroke="#263238" stroke-miterlimit="10"/>
<path d="M238.936 140.584C237.806 140.714 236.748 141.21 235.895 142.009C235.042 142.807 234.433 143.873 234.144 145.071C233.855 146.269 233.9 147.546 234.273 148.739C234.646 149.933 235.33 150.99 236.238 151.776C237.147 152.563 238.239 153.044 239.377 153.159C240.515 153.273 241.648 153.016 242.632 152.421C243.616 151.825 244.407 150.916 244.906 149.811C245.404 148.705 245.587 147.451 245.432 146.209C245.224 144.542 244.422 143.013 243.204 141.958C241.986 140.903 240.45 140.409 238.936 140.584ZM240.171 150.468C239.524 150.544 238.864 150.407 238.276 150.074C237.688 149.741 237.197 149.227 236.867 148.598C236.536 147.969 236.38 147.252 236.419 146.539C236.457 145.825 236.688 145.147 237.083 144.59C237.477 144.033 238.017 143.623 238.635 143.41C239.253 143.198 239.92 143.193 240.552 143.396C241.184 143.6 241.754 144.002 242.187 144.553C242.621 145.104 242.9 145.778 242.989 146.49C243.109 147.445 242.879 148.399 242.35 149.145C241.822 149.891 241.038 150.367 240.171 150.468Z" fill="#263238" stroke="#263238" stroke-miterlimit="10"/>
<path d="M238.357 135.953C236.395 136.179 234.557 137.041 233.076 138.428C231.594 139.815 230.536 141.667 230.034 143.748C229.533 145.828 229.611 148.046 230.258 150.119C230.905 152.192 232.093 154.027 233.671 155.394C235.249 156.76 237.147 157.596 239.124 157.795C241.1 157.994 243.068 157.548 244.777 156.513C246.486 155.478 247.861 153.9 248.726 151.98C249.592 150.059 249.91 147.882 249.64 145.723C249.278 142.829 247.886 140.173 245.77 138.341C243.654 136.509 240.987 135.65 238.357 135.953ZM240.81 155.582C239.246 155.763 237.654 155.429 236.234 154.623C234.814 153.817 233.63 152.575 232.833 151.054C232.036 149.533 231.661 147.802 231.755 146.079C231.849 144.356 232.408 142.719 233.362 141.375C234.316 140.03 235.621 139.039 237.113 138.526C238.605 138.014 240.217 138.003 241.744 138.495C243.271 138.987 244.646 139.959 245.693 141.29C246.741 142.62 247.415 144.249 247.63 145.97C247.918 148.277 247.362 150.586 246.083 152.389C244.804 154.192 242.907 155.34 240.81 155.582Z" fill="white" stroke="#263238" stroke-miterlimit="10"/>
<path d="M225.265 134.178L236.634 136.613C236.634 136.613 241.897 131.053 248.82 131.996C248.82 131.996 245.486 124.756 230.218 125.178L225.265 134.178Z" fill="#EE2524" stroke="#263238" stroke-miterlimit="10"/>
<path d="M238.258 147.036L226.605 130.101L228.329 128.706L239.984 145.655C240.121 145.862 240.181 146.117 240.151 146.365C240.121 146.614 240.005 146.837 239.825 146.988L239.477 147.268C239.291 147.409 239.06 147.464 238.833 147.42C238.605 147.377 238.399 147.239 238.258 147.036Z" fill="#6E6E6E" stroke="#263238" stroke-miterlimit="10"/>
<path d="M211.485 102.371C211.485 102.371 220.881 105.985 223.536 107.689C226.191 109.393 231.636 113.129 232.587 114.25C233.538 115.371 236.34 119.073 235.706 120.49C235.073 121.907 234.65 122.735 234.203 123.115C233.756 123.495 231.496 124.207 230.573 125.77C229.65 127.332 222.441 144.492 222.441 144.492C222.441 144.492 219.868 150.716 219.362 150.775C218.857 150.833 213.339 153.818 205.886 154.339C198.434 154.86 189.237 153.69 187.619 153.764C186.002 153.838 184.072 153.055 183.314 152.691C182.555 152.328 180.378 151.132 177.056 148.157C173.734 145.181 171.695 144.303 171.373 140.089C171.373 140.089 147.151 131.699 145.893 130.613C144.634 129.528 141.331 124.206 142.31 123.088C143.288 121.97 147.758 120.332 153.667 120.435C159.576 120.538 172.702 122.265 175.44 123.852C177.018 124.744 178.489 125.853 179.819 127.151L194.429 123.677L195.551 125.347C195.551 125.347 191.19 133.563 191.259 134.114C191.328 134.665 198.606 144.902 198.606 144.902C198.606 144.902 195.555 145.7 193.364 146.065C191.172 146.431 189.311 146.979 189.311 146.979C189.311 146.979 209.104 145.927 212.182 145.346C215.26 144.766 216.808 140.89 217.13 139.406C217.453 137.923 215.28 131.123 215.858 126.805C216.437 122.487 217.499 119.57 215.638 116.877C213.777 114.184 207.763 108.39 207.531 106.534C207.299 104.678 211.485 102.371 211.485 102.371Z" fill="#EE2524" stroke="#263238" stroke-miterlimit="10"/>
<path d="M211.485 102.371C211.485 102.371 206.141 106.787 206.224 107.45C206.307 108.112 212.514 117.909 213.488 120.032C214.462 122.156 214.167 136.841 213.86 138.445C213.552 140.05 211.055 143.672 211.055 143.672L198.604 144.887L196.326 145.738L193.362 146.051C193.362 146.051 189.737 144.679 189.121 144.637C188.505 144.596 177.396 142.744 176.018 143.913C174.64 145.082 175.292 146.232 175.92 146.376C176.549 146.519 199.145 148.394 199.646 148.337C200.147 148.279 211.416 148.989 215.032 147.008C218.648 145.027 221.607 138.645 222.163 136.566L222.715 134.492L219.011 131.673C219.011 131.673 218.722 128.573 219.117 126.851C219.512 125.128 220.896 119.938 220.078 118.242C219.26 116.547 209.541 107.852 209.449 106.406C209.358 104.96 211.485 102.371 211.485 102.371Z" fill="#263238" stroke="#263238" stroke-miterlimit="10"/>
<path d="M216.782 134.975C215.738 135.434 214.77 136.492 213.943 137.685C213.916 138.036 213.885 138.295 213.86 138.445C213.552 140.045 211.055 143.672 211.055 143.672L198.604 144.887L196.326 145.738L193.362 146.051C192.258 146.481 191.192 147.011 190.173 147.634C195.087 148.048 199.432 148.371 199.647 148.346C200.148 148.288 211.418 148.999 215.034 147.018C218.65 145.037 221.609 138.655 222.164 136.575L222.716 134.501C220.721 133.993 218.651 134.158 216.782 134.975Z" fill="#263238" stroke="#263238" stroke-miterlimit="10"/>
<path d="M210.975 92.5842C210.975 92.5842 205.499 91.0927 203.706 92.1918C201.914 93.2909 199.153 96.4091 198.984 98.3311C198.814 100.253 199.732 101.04 201.198 102.214C202.664 103.388 206.697 107.17 206.697 107.17L211.485 102.371L212.064 101.294C212.064 101.294 214.471 100.237 214.504 99.6743C214.364 97.993 213.986 96.3375 213.382 94.768C213.175 94.217 212.845 93.7279 212.425 93.3462C212.004 92.9644 211.505 92.7023 210.975 92.5842Z" fill="#EE2524" stroke="#263238" stroke-miterlimit="10"/>
<path d="M210.811 93.0544C210.811 93.0544 210.166 95.0263 211.008 96.2726C211.85 97.519 213.824 100.979 214.096 99.839C214.368 98.6995 213.32 95.2313 212.515 94.3189C212.028 93.7769 211.448 93.3465 210.811 93.0544Z" fill="white" stroke="#263238" stroke-miterlimit="10"/>
<path d="M202.972 103.75C204.678 105.274 206.697 107.17 206.697 107.17L211.485 102.371L212.064 101.294C212.76 100.988 213.431 100.618 214.069 100.19C211.889 99.363 207.015 97.6598 206.036 98.6357C205.057 99.6115 203.648 102.383 202.972 103.75Z" fill="#6E6E6E" stroke="#263238" stroke-miterlimit="10"/>
<path d="M203.321 94.8105C203.321 94.8105 202.246 86.9961 200.997 86.9146C199.748 86.8331 197.685 88.0811 197.685 88.0811C197.108 87.381 196.671 86.5572 196.406 85.6661C196.141 84.775 196.053 83.8378 196.148 82.9187C196.16 82.7996 196.176 82.6753 196.195 82.5455C196.683 79.1355 201.865 84.7993 202.389 85.7537C202.736 86.4994 202.94 87.3104 202.99 88.1361L204.364 94.2439C204.364 94.2439 206.206 95.1494 205.421 95.3528C204.635 95.5562 201.41 95.8154 202.103 94.8381C202.797 93.8609 203.321 94.8105 203.321 94.8105Z" fill="#263238" stroke="#263238" stroke-miterlimit="10"/>
<path d="M210.281 103.579L199.038 99.4819C199.269 100.617 200.067 101.295 201.193 102.175C202.677 103.348 206.692 107.131 206.692 107.131L210.281 103.579Z" fill="#263238" stroke="#263238" stroke-miterlimit="10"/>
<path d="M160.492 114.215L132.68 117.422L132.778 118.205L160.59 114.998L160.492 114.215Z" fill="#263238" stroke="#263238" stroke-miterlimit="10"/>
<path d="M197.194 145.261C198.029 145.061 198.607 144.911 198.607 144.911C198.607 144.911 191.328 134.66 191.259 134.113C191.191 133.567 195.551 125.347 195.551 125.347L194.43 123.686L179.82 127.161C179.82 127.161 189.702 137.093 192.849 140.309C194.376 141.875 195.826 143.528 197.194 145.261Z" fill="#6E6E6E" stroke="#263238" stroke-miterlimit="10"/>
<path d="M233.408 120.034L235.205 120.332" stroke="#263238" stroke-miterlimit="10"/>
<path d="M220.93 117.968L231.902 119.786" stroke="#263238" stroke-miterlimit="10"/>
<path d="M227.262 118.036L219.759 112.483L223.861 113.212L231.606 118.742L227.262 118.036Z" fill="white" stroke="#263238" stroke-miterlimit="10"/>
<path d="M184.33 136.609C185.975 136.581 187.15 136.573 187.15 136.573" stroke="#263238" stroke-miterlimit="10"/>
<path opacity="0.2" d="M238.489 185.01C248.927 185.092 261.989 230.288 266.055 235.491C266.055 235.491 324.356 237.419 331.702 245.231C339.049 253.042 335.41 259.64 340.245 267.049C345.079 274.459 346.463 286.948 346.463 286.948L359.277 307.716L304.358 332.989C304.358 332.989 275.016 316.841 267.857 313.197C260.699 309.554 239.488 301.595 233.85 291.305C228.212 281.015 227.93 271.357 226.717 267.082C225.504 262.807 249.081 250.006 249.081 250.006L238.489 185.01Z" fill="black" fill-opacity="0.7"/>
<path d="M366.589 311.819C361.857 307.618 356.885 303.154 352.793 299.461C347.574 294.751 343.79 291.313 343.79 291.313C340.68 285.044 337.947 282.935 334.504 277.987C331.062 273.039 331.591 267.821 330.78 260.912C329.968 254.003 327.055 248.054 325.27 243.984C323.485 239.914 323.339 235.704 322.981 234.793C322.622 233.883 317.215 229.87 314.712 226.588C313.589 225.125 312.217 223.854 310.654 222.83C308.905 221.638 306.894 220.849 304.777 220.524C303.899 220.411 303.011 220.394 302.129 220.475C300.389 220.741 298.675 221.145 297.003 221.681C294.8 222.19 289.23 219.605 286.018 219.728C285.42 219.728 284.831 219.81 284.233 219.892C281.468 220.388 278.749 221.094 276.1 222.001C273.205 222.822 269.07 221 266.08 220.787H266.021C265.355 220.717 264.682 220.798 264.056 221.025C261.228 222.165 255.821 223.905 255.821 223.905C255.821 223.905 254.429 220.368 252.942 215.469C252.686 214.649 252.421 213.828 252.139 213.008C251.097 210.021 249.961 207.387 249.261 204.909C249.075 204.274 248.924 203.63 248.808 202.98C248.176 199.395 247.373 196.662 245.912 191.296L245.758 190.721C245.297 189.08 244.904 187.439 244.468 185.995C243.383 182.516 241.906 180.103 238.138 180.399C234.824 180.661 233.013 182.696 232.919 188.079C232.825 193.462 231.757 193.323 233.235 200.831C234.713 208.339 234.166 213.459 235.354 217.168C236.541 220.877 237.498 228.385 237.498 228.385C235.849 228.016 234.645 228.918 234.542 229.566C234.44 230.215 234.781 236.238 234.952 240.562C235.097 244.402 232.466 248.587 231.809 251.41C231.809 251.41 231.809 251.459 231.809 251.475C231.735 251.78 231.692 252.09 231.68 252.403C231.587 255.16 233.338 260.608 235.097 267.689C236.857 274.771 236.806 282.459 239.847 286.776C240.476 287.646 241.246 288.413 242.128 289.049C245.784 291.748 251.695 293.447 257.752 297.738C265.312 303.113 270.719 307.101 275.195 308.405C278.407 309.357 279.962 310.375 280.91 311.975C281.288 312.677 281.575 313.421 281.764 314.19C282.191 315.676 283.327 316.652 285.232 318.211C288.212 320.604 290.96 323.251 293.441 326.121C295.765 328.78 299.609 333.982 303.692 339.767L366.589 311.819Z" fill="white"/>
<path opacity="0.4" d="M248.774 202.956C248.89 203.606 249.041 204.249 249.226 204.884C244.323 205.114 235.824 209.414 236.345 212.097C236.994 215.379 238.489 223.133 240.616 224.52C242.743 225.907 246.741 226.21 246.741 226.21C246.476 226.291 246.216 226.387 245.963 226.498L245.878 226.539C244.765 227.051 243.839 227.875 243.221 228.902C240.522 233.259 242.316 241.128 244.434 244.624C253.241 259.164 248.372 273.392 245.186 272.522C242 271.653 238.403 258.253 238.472 254.897C238.528 252.933 238.307 250.97 237.814 249.063C236.464 248.948 233.978 250.138 231.74 251.41C231.74 251.41 231.74 251.369 231.74 251.344C232.398 248.521 235.029 244.336 234.884 240.496C234.713 236.172 234.363 230.149 234.474 229.501C234.585 228.853 235.781 227.95 237.43 228.319C237.43 228.319 236.464 220.819 235.285 217.102C234.107 213.385 234.645 208.281 233.167 200.765C231.689 193.249 232.757 193.38 232.851 188.014C232.945 182.647 234.756 180.629 238.07 180.333C241.854 180.038 243.315 182.45 244.4 185.929C243.888 185.652 243.357 185.408 242.811 185.199C241.442 184.603 239.89 184.524 238.463 184.978C236.823 185.593 235.747 187.562 235.243 189.507C234.508 192.305 234.961 195.062 236.635 193.708C238.531 192.182 243.059 191.501 245.852 191.247C247.373 196.638 248.142 199.403 248.774 202.956Z" fill="#EE2524"/>
<path opacity="0.4" d="M281.756 314.207C281.568 313.439 281.281 312.698 280.901 311.999C279.953 310.399 278.398 309.382 275.187 308.43C270.71 307.093 265.303 303.105 257.743 297.763C251.687 293.471 245.784 291.773 242.119 289.073C246.134 290.107 250.73 288.047 252.977 290.624C256.24 294.341 268.225 298.354 268.225 298.354C280.688 305.632 281.756 314.207 281.756 314.207Z" fill="#EE2524"/>
<path opacity="0.4" d="M265.995 220.737C264.748 220.737 263.432 229.181 263.782 231.979C264.731 239.208 273.905 260.083 268.908 260.698C266.849 260.961 261.98 251.344 260.656 246.65C256.65 232.373 255.761 226.26 255.761 226.26C255.761 226.26 252.712 218.546 252.079 212.958C252.361 213.779 252.626 214.6 252.882 215.42C254.369 220.343 255.761 223.855 255.761 223.855C255.761 223.855 261.168 222.116 263.996 220.975C264.633 220.744 265.318 220.662 265.995 220.737Z" fill="#EE2524"/>
<path opacity="0.4" d="M284.207 219.917C281.645 220.737 279.637 223.798 277.613 224.725C275.135 225.866 268.942 221.32 266.055 220.811C269.045 221.024 273.179 222.879 276.075 222.026C278.724 221.118 281.443 220.413 284.207 219.917Z" fill="#EE2524"/>
<path opacity="0.4" d="M302.112 220.45C301.207 222.302 300.599 224.274 300.309 226.301C299.831 233.308 307.997 257.547 303.573 254.282C297.849 250.039 297.918 230.765 292.98 224.545C291.4 222.551 286.881 219.827 286.018 219.703C289.23 219.58 294.8 222.165 297.003 221.656C298.669 221.121 300.378 220.718 302.112 220.45Z" fill="#EE2524"/>
<path opacity="0.4" d="M352.776 299.428C348.411 296.491 343.901 293.767 341.235 292.946C334.692 291.026 332.215 288.023 330.327 282.55C328.439 277.077 329.951 276.855 330.327 270.922C330.703 264.99 325.765 258.877 326.38 260.304C326.995 261.732 326.842 272.613 324.979 273.556C323.117 274.5 320.708 267.771 319.068 262.192C317.428 256.612 314.088 229.673 311.918 224.75C311.616 224.03 311.195 223.363 310.671 222.772C312.234 223.796 313.606 225.067 314.729 226.53C317.232 229.813 322.639 233.809 322.998 234.736C323.356 235.663 323.493 239.856 325.287 243.926C327.081 247.996 329.985 253.937 330.797 260.854C331.608 267.771 331.096 272.99 334.521 277.93C337.947 282.87 340.697 284.987 343.807 291.256C343.773 291.305 347.557 294.718 352.776 299.428Z" fill="#EE2524"/>
<path opacity="0.4" d="M282.029 235.122C283.66 236.139 288.777 253.174 290.571 257.277C292.365 261.379 292.604 272.047 290.528 269.257C288.453 266.467 275.374 230.978 282.029 235.122Z" fill="#EE2524"/>
<path d="M302.137 337.584C298.635 332.702 295.457 328.452 293.433 326.138C290.951 323.268 288.204 320.62 285.224 318.227C283.319 316.652 282.183 315.692 281.755 314.207C281.568 313.439 281.281 312.698 280.901 311.999C279.953 310.399 278.398 309.382 275.186 308.43C270.71 307.093 265.303 303.105 257.743 297.763C251.687 293.471 245.784 291.773 242.119 289.073C241.237 288.438 240.467 287.67 239.838 286.8C236.823 282.517 236.849 274.779 235.089 267.714C233.329 260.649 231.578 255.184 231.672 252.427C231.684 252.115 231.727 251.804 231.8 251.5C231.8 251.5 231.8 251.459 231.8 251.434C232.458 248.612 235.089 244.427 234.944 240.587C234.773 236.262 234.423 230.239 234.534 229.591C234.645 228.943 235.841 228.04 237.489 228.41C237.489 228.41 236.524 220.91 235.345 217.193C234.166 213.475 234.704 208.372 233.227 200.855C231.749 193.339 232.817 193.47 232.911 188.104C233.005 182.737 234.816 180.719 238.13 180.423C241.914 180.128 243.375 182.541 244.46 186.02C244.913 187.456 245.314 189.072 245.75 190.746L245.903 191.32C247.364 196.687 248.167 199.419 248.799 203.005C248.915 203.655 249.066 204.299 249.252 204.933C249.952 207.395 251.089 210.046 252.131 213.032C252.413 213.853 252.677 214.673 252.934 215.494C254.42 220.417 255.813 223.929 255.813 223.929C255.813 223.929 261.22 222.19 264.047 221.049C264.674 220.823 265.347 220.742 266.012 220.811H266.072C269.062 221.025 273.196 222.879 276.092 222.026C278.741 221.118 281.46 220.413 284.224 219.917C284.822 219.835 285.412 219.777 286.01 219.753C289.221 219.63 294.791 222.214 296.995 221.706C298.666 221.169 300.38 220.766 302.12 220.499C303.002 220.419 303.891 220.435 304.768 220.549C306.886 220.874 308.897 221.663 310.646 222.854C312.209 223.879 313.581 225.149 314.703 226.613C317.206 229.895 322.613 233.891 322.972 234.818C323.331 235.745 323.468 239.938 325.261 244.008C327.055 248.078 329.96 254.019 330.771 260.936C331.583 267.854 331.07 273.072 334.496 278.012C337.921 282.952 340.672 285.069 343.781 291.338C343.781 291.338 347.565 294.776 352.785 299.486C356.415 302.768 360.738 306.641 364.966 310.408" stroke="#263238" stroke-linecap="round" stroke-linejoin="round"/>
<path d="M237.455 228.352C238.745 233.538 239.856 240.094 239.702 242.958C239.548 245.822 242.333 254.643 241.769 258.762" stroke="#263238" stroke-linecap="round" stroke-linejoin="round"/>
<path d="M241.256 231.798C241.256 231.798 243.999 226.875 246.783 226.21C249.568 225.546 252.763 226.662 255.795 226.301C258.828 225.94 261.365 223.15 264.064 222.001" stroke="#263238" stroke-linecap="round" stroke-linejoin="round"/>
<path d="M238.677 212.409C238.677 212.409 243.298 209.463 246.365 210.636" stroke="#263238" stroke-linecap="round" stroke-linejoin="round"/>
<path d="M241.948 209.249C243.22 208.744 244.631 208.666 245.955 209.028" stroke="#263238" stroke-linecap="round" stroke-linejoin="round"/>
<path d="M237.464 196.941C239.083 196.182 240.856 195.776 242.657 195.751" stroke="#263238" stroke-linecap="round" stroke-linejoin="round"/>
<path d="M231.774 251.377C233.062 250.332 234.456 249.413 235.935 248.636" stroke="#263238" stroke-linecap="round" stroke-linejoin="round"/>
<path d="M241.564 254.224C240.976 255.801 240.558 257.431 240.317 259.09" stroke="#263238" stroke-linecap="round" stroke-linejoin="round"/>
<path d="M234.294 184.231C234.294 184.231 235.003 190.41 235.917 190.795C236.831 191.181 243.016 190.262 243.247 189.113C243.477 187.964 242.478 183.55 242.478 183.55C242.478 183.55 237.37 178.372 234.294 184.231Z" stroke="#263238" stroke-linecap="round" stroke-linejoin="round"/>
<path d="M234.909 240.529C234.909 240.529 239.317 236.943 238.574 233.44C237.831 229.936 236.362 230.305 234.491 230.715" stroke="#263238" stroke-linecap="round" stroke-linejoin="round"/>
<path d="M315.105 230.461C316.642 235.918 318.991 252.32 319.376 254.716C319.76 257.112 321.46 263.102 321.46 263.102" stroke="#263238" stroke-linecap="round" stroke-linejoin="round"/>
<path d="M276.152 226.104C283.43 232.414 277.313 230.789 289.717 266.024" stroke="#263238" stroke-linecap="round" stroke-linejoin="round"/>
<path d="M343.773 291.305C343.773 291.305 338.1 288.843 336.776 286.981" stroke="#263238" stroke-linecap="round" stroke-linejoin="round"/>
<path d="M276.57 304.918C278.569 306.879 280.73 311.679 280.841 311.975" stroke="#263238" stroke-linecap="round" stroke-linejoin="round"/>
</svg>
