<svg width="494" height="358" viewBox="0 0 494 358" fill="none" xmlns="http://www.w3.org/2000/svg">
<path d="M485.958 216.486C481.001 203.621 472.906 191.718 462.165 181.5C425.417 146.948 371.325 129.446 316.68 125.138C179.12 114.336 142.645 183.656 117.353 196.41C67.9822 221.317 -23.1374 254.434 12.6069 315.274C32.3311 348.826 90.2641 351.812 129.39 352.018C243.529 352.605 258.89 338.812 319.618 350.213C380.345 361.615 441.875 358.582 473.657 318.988C496.283 290.802 498.353 247.928 485.958 216.486Z" fill="#EE2524" fill-opacity="0.12"/>
<path d="M44.6433 210.155C44.6433 210.155 24.7468 197.996 28.1999 197.426C31.6531 196.856 85.0435 198.852 89.6603 199.409C94.2771 199.967 109.569 201.677 111.581 202.52C113.592 203.363 134.083 210.44 147.073 211.567C160.063 212.695 173.635 211.852 175.925 212.98C178.214 214.108 186.891 222.895 184.867 225.981C182.844 229.067 177.367 229.947 177.367 229.947L134.665 234.471C134.665 234.471 127.746 226.551 122.256 224.283C116.767 222.015 79.8448 211.282 69.4602 211.282C59.0756 211.282 44.6433 210.155 44.6433 210.155Z" fill="#263238" stroke="#263238" stroke-miterlimit="10"/>
<path d="M39.7481 232.773C39.7481 232.773 20.9647 267.822 1.37177 280.822C1.37177 280.822 -1.80308 281.963 3.96475 281.963C9.73258 281.963 27.6306 263.013 33.3984 256.234C39.1662 249.454 45.225 245.203 52.7257 245.203H63.6922L39.7481 232.773Z" fill="#263238" stroke="#263238" stroke-miterlimit="10"/>
<path d="M58.2153 262.74C50.3389 262.738 42.6386 265.024 36.0886 269.31C29.5386 273.596 24.433 279.689 21.4177 286.819C18.4024 293.949 17.6128 301.794 19.1488 309.363C20.6848 316.933 24.4773 323.886 30.0468 329.343C35.6162 334.8 42.7123 338.516 50.4375 340.021C58.1627 341.526 66.1699 340.752 73.4462 337.798C80.7226 334.843 86.9412 329.841 91.3156 323.423C95.6899 317.005 98.0234 309.46 98.0209 301.743C98.0209 291.399 93.8271 281.478 86.3621 274.164C78.8971 266.849 68.7724 262.74 58.2153 262.74ZM58.2153 324.088C53.7122 324.088 49.3103 322.78 45.5661 320.329C41.822 317.877 38.9038 314.393 37.1806 310.317C35.4573 306.241 35.0065 301.755 35.885 297.428C36.7635 293.1 38.9319 289.125 42.116 286.005C45.3001 282.886 49.357 280.761 53.7735 279.9C58.19 279.039 62.7678 279.481 66.9281 281.17C71.0883 282.858 74.6442 285.717 77.1459 289.386C79.6477 293.055 80.983 297.368 80.983 301.78C80.983 307.696 78.5843 313.371 74.3145 317.554C70.0447 321.738 64.2536 324.088 58.2153 324.088Z" fill="#263238" stroke="#263238" stroke-miterlimit="10"/>
<path d="M58.2153 285.631C54.9631 285.631 51.7839 286.576 49.0798 288.346C46.3757 290.117 44.2681 292.633 43.0235 295.577C41.779 298.521 41.4533 301.761 42.0878 304.886C42.7223 308.011 44.2883 310.882 46.588 313.135C48.8876 315.389 51.8176 316.923 55.0073 317.545C58.197 318.166 61.5032 317.847 64.5079 316.628C67.5125 315.408 70.0806 313.343 71.8874 310.694C73.6942 308.044 74.6586 304.929 74.6586 301.743C74.6586 297.47 72.9262 293.372 69.8425 290.35C66.7587 287.329 62.5763 285.631 58.2153 285.631ZM58.2153 310.976C56.351 310.978 54.5278 310.439 52.9765 309.426C51.4252 308.413 50.2154 306.972 49.5002 305.285C48.785 303.598 48.5966 301.741 48.9588 299.949C49.321 298.157 50.2174 296.511 51.5348 295.218C52.8522 293.926 54.5313 293.045 56.3595 292.688C58.1878 292.331 60.0832 292.513 61.8058 293.211C63.5284 293.91 65.0009 295.093 66.0369 296.612C67.0729 298.13 67.6259 299.916 67.6259 301.743C67.6259 304.189 66.6348 306.536 64.8704 308.267C63.1059 309.998 60.7123 310.973 58.2153 310.976Z" fill="#263238" stroke="#263238" stroke-miterlimit="10"/>
<path d="M58.2152 273.758C52.5648 273.751 47.0391 275.386 42.3373 278.456C37.6355 281.527 33.9689 285.895 31.8013 291.008C29.6338 296.12 29.0628 301.748 30.1605 307.179C31.2583 312.61 33.9755 317.6 37.9683 321.518C41.9611 325.435 47.05 328.104 52.5913 329.187C58.1326 330.27 63.8772 329.718 69.0983 327.601C74.3193 325.484 78.7822 321.897 81.9221 317.294C85.0621 312.691 86.7382 307.279 86.7382 301.743C86.7415 294.326 83.7387 287.212 78.39 281.964C73.0412 276.716 65.7845 273.765 58.2152 273.758ZM58.2152 324.088C53.7122 324.088 49.3103 322.78 45.5661 320.329C41.822 317.877 38.9038 314.393 37.1805 310.317C35.4573 306.241 35.0064 301.755 35.8849 297.428C36.7634 293.1 38.9318 289.125 42.116 286.005C45.3001 282.886 49.3569 280.761 53.7734 279.9C58.19 279.039 62.7678 279.481 66.928 281.17C71.0883 282.858 74.6441 285.717 77.1459 289.386C79.6477 293.055 80.983 297.368 80.983 301.78C80.983 307.696 78.5842 313.371 74.3144 317.554C70.0447 321.738 64.2536 324.088 58.2152 324.088Z" fill="white" stroke="#263238" stroke-miterlimit="10"/>
<path d="M76.1005 247.471L64.8431 277.439L70.0418 279.41L81.5775 249.442L76.1005 247.471Z" fill="#263238" stroke="#263238" stroke-miterlimit="10"/>
<path d="M64.8433 277.439C64.8433 277.439 53.0167 272.345 43.4922 279.41C33.9677 286.474 32.8167 295.199 32.8167 295.199C32.8167 295.199 47.8181 305.932 67.4363 307.592C87.0545 309.253 106.964 306.465 116.766 303.639C122.773 301.891 128.574 299.523 134.07 296.575L109.835 270.548C109.835 270.548 106.382 265.74 98.2993 270.263C90.2167 274.787 89.9258 280.723 89.9258 280.723L64.8433 277.439Z" fill="#263238" stroke="#263238" stroke-miterlimit="10"/>
<path d="M81.5775 249.442L73.2167 279.695L97.4517 290.44C97.1913 286.984 97.9931 283.53 99.7538 280.525C102.638 276.001 106.394 276.274 107.254 276.807C108.115 277.34 113.313 279.918 113.313 279.918L111.011 262.108L81.5775 249.442Z" fill="#263238" stroke="#263238" stroke-miterlimit="10"/>
<path d="M297.694 262.74C289.818 262.738 282.118 265.024 275.568 269.31C269.018 273.596 263.912 279.689 260.897 286.819C257.881 293.949 257.092 301.794 258.628 309.363C260.164 316.933 263.956 323.886 269.526 329.343C275.095 334.8 282.191 338.516 289.916 340.021C297.642 341.526 305.649 340.752 312.925 337.798C320.202 334.843 326.42 329.841 330.795 323.423C335.169 317.005 337.502 309.46 337.5 301.743C337.5 296.621 336.47 291.549 334.47 286.817C332.469 282.085 329.537 277.785 325.841 274.164C322.145 270.542 317.757 267.669 312.927 265.709C308.098 263.749 302.922 262.74 297.694 262.74ZM297.694 324.088C293.191 324.088 288.789 322.78 285.045 320.329C281.301 317.877 278.383 314.393 276.66 310.317C274.936 306.241 274.485 301.755 275.364 297.428C276.242 293.1 278.411 289.125 281.595 286.005C284.779 282.886 288.836 280.761 293.252 279.9C297.669 279.039 302.247 279.481 306.407 281.17C310.567 282.858 314.123 285.717 316.625 289.386C319.127 293.055 320.462 297.368 320.462 301.78C320.462 307.696 318.063 313.371 313.793 317.554C309.524 321.738 303.733 324.088 297.694 324.088Z" fill="#263238" stroke="#263238" stroke-miterlimit="10"/>
<path d="M297.694 285.631C294.442 285.631 291.263 286.576 288.559 288.346C285.855 290.117 283.747 292.633 282.503 295.577C281.258 298.521 280.932 301.761 281.567 304.886C282.201 308.011 283.767 310.882 286.067 313.135C288.367 315.389 291.297 316.923 294.486 317.545C297.676 318.166 300.982 317.847 303.987 316.628C306.992 315.408 309.56 313.343 311.367 310.694C313.173 308.044 314.138 304.929 314.138 301.743C314.138 297.47 312.405 293.372 309.322 290.35C306.238 287.329 302.055 285.631 297.694 285.631ZM297.694 310.976C295.83 310.978 294.007 310.439 292.456 309.426C290.904 308.413 289.694 306.972 288.979 305.285C288.264 303.598 288.076 301.741 288.438 299.949C288.8 298.157 289.697 296.511 291.014 295.218C292.331 293.926 294.01 293.045 295.839 292.688C297.667 292.331 299.562 292.513 301.285 293.211C303.008 293.91 304.48 295.093 305.516 296.612C306.552 298.13 307.105 299.916 307.105 301.743C307.105 304.189 306.114 306.536 304.35 308.267C302.585 309.998 300.191 310.973 297.694 310.976Z" fill="#263238" stroke="#263238" stroke-miterlimit="10"/>
<path d="M297.694 273.758C292.045 273.758 286.523 275.399 281.827 278.474C277.13 281.549 273.469 285.92 271.307 291.033C269.146 296.147 268.58 301.774 269.682 307.202C270.784 312.631 273.504 317.617 277.499 321.531C281.493 325.444 286.582 328.11 292.122 329.189C297.663 330.269 303.405 329.715 308.624 327.597C313.843 325.479 318.303 321.892 321.442 317.29C324.58 312.688 326.255 307.277 326.255 301.743C326.255 294.321 323.246 287.203 317.89 281.955C312.534 276.706 305.269 273.758 297.694 273.758ZM297.694 324.088C293.191 324.088 288.789 322.78 285.045 320.329C281.301 317.877 278.383 314.393 276.66 310.317C274.936 306.241 274.485 301.755 275.364 297.428C276.242 293.1 278.411 289.125 281.595 286.005C284.779 282.886 288.836 280.761 293.252 279.9C297.669 279.039 302.247 279.481 306.407 281.17C310.567 282.858 314.123 285.717 316.625 289.386C319.127 293.055 320.462 297.368 320.462 301.78C320.462 307.696 318.063 313.371 313.793 317.554C309.524 321.738 303.733 324.088 297.694 324.088Z" fill="white" stroke="#263238" stroke-miterlimit="10"/>
<path d="M261.164 265.454L292.571 274.923C292.571 274.923 309.483 262.406 328.797 266.805C328.797 266.805 321.904 247.533 278.417 244.15L261.164 265.454Z" fill="#EE2524" stroke="#263238" stroke-miterlimit="10"/>
<path d="M293.482 301.743L266.414 255.54L271.802 252.516L298.871 298.756C299.186 299.319 299.266 299.98 299.093 300.599C298.921 301.219 298.51 301.749 297.947 302.077L296.86 302.685C296.282 302.986 295.607 303.057 294.977 302.881C294.347 302.706 293.811 302.298 293.482 301.743Z" fill="#6E6E6E" stroke="#263238" stroke-miterlimit="10"/>
<path d="M233.338 181.042C233.338 181.042 258.724 192.915 265.655 197.997C272.587 203.078 286.715 214.108 289.017 217.219C291.319 220.33 297.96 230.505 295.658 233.901C293.356 237.296 291.863 239.267 290.459 240.097C289.055 240.928 282.389 242.068 279.215 245.749C276.04 249.43 249.49 290.7 249.49 290.7C249.49 290.7 239.978 305.684 238.524 305.684C237.069 305.684 220.347 311.62 199.009 310.765C177.67 309.91 151.981 304.271 147.364 303.986C142.747 303.701 137.548 301.16 135.525 300.02C133.501 298.88 127.746 295.224 119.372 286.734C110.999 278.245 105.522 275.431 106.104 264.686C106.104 264.686 40.3301 236.417 37.1426 233.306C33.9552 230.195 26.4671 215.781 29.6419 213.241C32.8167 210.7 46.0853 207.862 62.8196 209.845C79.5539 211.828 116.197 220.02 123.407 224.829C127.568 227.544 131.352 230.777 134.665 234.446L177.367 229.922L179.96 234.471C179.96 234.471 164.667 253.966 164.667 255.379C164.667 256.791 181.693 284.788 181.693 284.788C181.693 284.788 172.75 285.916 166.4 286.201C160.051 286.486 154.574 287.329 154.574 287.329C154.574 287.329 211.126 290.44 220.069 289.87C229.012 289.3 234.779 279.955 236.221 276.299C237.663 272.643 233.907 254.821 237.082 244.076C240.256 233.331 244.304 226.266 239.978 218.917C235.652 211.568 220.638 195.171 220.638 190.412C220.638 185.653 233.338 181.042 233.338 181.042Z" fill="#EE2524" stroke="#263238" stroke-miterlimit="10"/>
<path d="M233.337 181.042C233.337 181.042 216.603 190.647 216.603 192.345C216.603 194.043 230.744 220.615 232.756 226.266C234.767 231.918 228.721 268.95 227.279 272.915C225.837 276.881 217.463 285.309 217.463 285.309L181.693 284.751L174.925 286.239L166.4 286.164C166.4 286.164 156.597 281.641 154.865 281.355C153.132 281.07 122.256 273.151 117.93 275.704C113.604 278.257 115.046 281.355 116.779 281.901C118.512 282.446 181.983 293.774 183.425 293.774C184.867 293.774 216.603 298.855 227.57 294.902C238.536 290.948 249.199 275.679 251.514 270.586L253.816 265.504L244.304 257.3C244.304 257.3 244.582 249.38 246.315 245.142C248.048 240.903 253.816 228.187 252.096 223.664C250.375 219.14 225.875 194.328 226.128 190.647C226.381 186.966 233.337 181.042 233.337 181.042Z" fill="#263238" stroke="#263238" stroke-miterlimit="10"/>
<path d="M236.803 264.996C233.679 265.851 230.555 268.243 227.785 271.019C227.582 271.899 227.405 272.543 227.279 272.915C225.837 276.869 217.463 285.309 217.463 285.309L181.693 284.751L174.925 286.238L166.4 286.164C163.116 286.93 159.9 287.958 156.787 289.238C170.587 291.716 182.806 293.798 183.425 293.798C184.867 293.798 216.603 298.88 227.57 294.926C238.536 290.973 249.199 275.704 251.514 270.61L253.816 265.529C248.332 263.663 242.398 263.477 236.803 264.996Z" fill="#263238" stroke="#263238" stroke-miterlimit="10"/>
<path d="M235.361 156.156C235.361 156.156 220.347 150.789 214.87 153.045C209.393 155.301 200.45 162.377 199.287 167.186C198.123 171.995 200.45 174.25 204.194 177.646C207.938 181.042 218.045 191.775 218.045 191.775L233.337 181.042L235.361 178.489C235.361 178.489 242.571 176.518 242.862 175.106C243.062 170.815 242.576 166.52 241.42 162.377C241.026 160.924 240.265 159.592 239.206 158.504C238.146 157.417 236.824 156.609 235.361 156.156Z" fill="#EE2524" stroke="#263238" stroke-miterlimit="10"/>
<path d="M234.728 157.296C234.728 157.296 232.199 162.092 234.147 165.488C236.095 168.884 240.471 178.204 241.647 175.403C242.824 172.602 241.078 163.53 239.118 160.989C237.928 159.477 236.434 158.22 234.728 157.296Z" fill="white" stroke="#263238" stroke-miterlimit="10"/>
<path d="M208.685 182.046C212.985 186.396 218.045 191.775 218.045 191.775L233.337 181.042L235.361 178.489C237.447 177.917 239.482 177.179 241.445 176.283C235.551 173.556 222.32 167.831 219.196 170.012C216.072 172.193 211.088 178.787 208.685 182.046Z" fill="#6E6E6E" stroke="#263238" stroke-miterlimit="10"/>
<path d="M212.846 159.552C212.846 159.552 212.568 139.487 209.052 138.916C205.535 138.346 199.236 140.899 199.236 140.899C197.846 138.962 196.9 136.752 196.464 134.423C196.027 132.093 196.11 129.698 196.707 127.403C196.782 127.105 196.871 126.796 196.972 126.473C199.565 117.996 212.265 133.823 213.416 136.388C214.134 138.374 214.427 140.483 214.276 142.585L216.009 158.424C216.009 158.424 220.916 161.25 218.614 161.535C216.312 161.82 207.066 161.535 209.381 159.267C211.695 156.999 212.846 159.552 212.846 159.552Z" fill="#263238" stroke="#263238" stroke-miterlimit="10"/>
<path d="M229.492 183.744L199.034 170.111C199.287 173.048 201.311 174.994 204.195 177.547C207.989 180.943 218.045 191.676 218.045 191.676L229.492 183.744Z" fill="#263238" stroke="#263238" stroke-miterlimit="10"/>
<path d="M84.3983 196.113H4.31897V198.12H84.3983V196.113Z" fill="#263238" stroke="#263238" stroke-miterlimit="10"/>
<path d="M177.556 285.284C179.998 285.024 181.693 284.813 181.693 284.813C181.693 284.813 164.667 256.779 164.667 255.379C164.667 253.978 179.96 234.471 179.96 234.471L177.367 229.947L134.665 234.471C134.665 234.471 159.19 262.455 166.982 271.503C170.76 275.905 174.29 280.506 177.556 285.284Z" fill="#6E6E6E" stroke="#263238" stroke-miterlimit="10"/>
<path d="M289.296 232.079L294.292 233.355" stroke="#263238" stroke-miterlimit="10"/>
<path d="M254.613 223.217L285.109 231.013" stroke="#263238" stroke-miterlimit="10"/>
<path d="M272.561 225.238L253.234 209.014L264.618 212.051L284.641 228.286L272.561 225.238Z" fill="white" stroke="#263238" stroke-miterlimit="10"/>
<path d="M144.113 259.667C148.793 260.076 152.132 260.398 152.132 260.398" stroke="#263238" stroke-miterlimit="10"/>
<path d="M409.543 292.519C409.543 292.519 414.433 293.429 417.163 297.059C419.893 300.689 425.893 311.519 427.093 312.739C426.376 313.899 425.401 314.878 424.243 315.599L420.993 311.759C420.183 311.059 418.863 309.329 418.843 311.549C418.823 313.769 419.063 315.839 419.303 320.139C419.443 322.749 420.303 327.919 415.713 332.839C411.413 337.439 406.293 340.509 403.163 340.889C401.293 341.109 397.103 340.629 397.383 336.889C397.543 334.889 400.053 327.499 400.443 323.889C400.833 320.279 409.543 292.519 409.543 292.519Z" fill="#263238"/>
<path d="M410.283 293.559C409.673 292.749 407.773 289.359 406.853 287.789C405.933 286.219 402.143 277.929 397.473 265.209C391.473 248.829 381.123 236.619 377.973 230.449C374.434 223.722 371.499 216.694 369.203 209.449L355.793 217.989L338.443 217.289C338.213 219.859 339.193 223.289 341.043 227.359L341.093 227.459C341.263 227.829 341.443 228.209 341.623 228.579C345.323 236.269 351.723 245.579 358.883 255.049L359.063 255.279L359.313 255.609C366.213 264.749 373.813 274.049 380.453 282.109V281.919C387.583 290.549 393.343 297.559 395.383 301.049C401.333 311.279 400.383 321.149 400.333 326.539C400.283 329.899 402.903 330.599 406.483 327.739C408.882 325.798 410.838 323.366 412.218 320.606C413.598 317.846 414.37 314.822 414.483 311.739C414.793 298.769 413.793 298.249 410.283 293.559Z" fill="#FFBDA7"/>
<path d="M338.523 122.469C337.163 132.919 335.823 142.629 334.653 170.309C333.653 193.579 332.653 206.049 334.403 217.529C335.023 221.619 337.133 226.399 341.123 232.399C353.603 251.219 378.063 280.759 378.063 280.759C378.063 280.759 383.523 280.579 390.063 275.039C393.873 271.688 396.208 266.97 396.563 261.909C396.563 261.909 395.863 257.579 385.563 240.219C375.263 222.859 373.703 203.919 373.703 203.919L379.313 129.489C363.643 131.169 345.903 128.419 338.523 122.469Z" fill="#455A64"/>
<path d="M390.063 275.039C393.873 271.688 396.208 266.97 396.563 261.909C396.563 261.909 395.863 257.579 385.563 240.219C375.263 222.859 373.703 203.919 373.703 203.919L378.003 146.919C365.713 145.159 348.603 145.589 348.603 145.589C348.383 153.739 350.263 163.789 361.703 169.679C361.703 169.679 360.123 209.739 360.013 221.449C359.933 230.389 362.743 253.089 364.083 263.359C371.863 273.229 378.083 280.739 378.083 280.739C378.083 280.739 383.523 280.579 390.063 275.039Z" fill="#37474F"/>
<path d="M387.643 316.149C389.833 318.505 391.207 321.502 391.563 324.699C391.883 329.579 391.013 342.889 391.353 344.699C390.131 345.324 388.776 345.643 387.403 345.629L386.773 340.249C386.473 339.149 386.603 338.249 385.383 340.249C384.163 342.249 383.143 344.489 381.243 347.399C379.733 349.699 377.603 355.149 371.073 356.919C364.963 358.569 357.923 357.779 355.073 356.289C353.383 355.399 350.353 353.989 352.613 350.799C353.823 349.099 360.613 342.279 362.893 339.259C365.173 336.239 387.643 316.149 387.643 316.149Z" fill="#263238"/>
<path d="M371.153 315.629C371.733 302.899 361.013 244.409 364.833 217.119L399.033 217.459C397.016 225.363 395.658 233.421 394.973 241.549C394.253 248.969 396.273 266.049 392.393 284.379C389.393 298.619 388.063 308.379 387.973 310.299C387.883 312.219 387.633 316.429 387.703 317.519C388.113 323.819 387.073 327.379 379.953 337.199C378.573 339.099 375.233 345.259 365.953 346.259C361.393 346.759 359.573 344.609 361.453 341.589C364.433 336.759 370.573 328.359 371.153 315.629Z" fill="#FFBDA7"/>
<path d="M394.973 241.549C394.843 244.439 394.973 247.319 395.043 250.209C395.113 253.099 395.193 255.989 395.203 258.889C395.234 264.687 394.9 270.482 394.203 276.239C393.843 279.119 393.303 281.969 392.723 284.799L390.963 293.259C390.383 296.079 389.843 298.909 389.343 301.749C388.823 304.589 388.343 307.429 387.973 310.299C388.453 304.536 389.231 298.802 390.303 293.119C391.303 287.409 392.693 281.819 393.303 276.119C393.703 273.279 393.943 270.399 394.153 267.529C394.363 264.659 394.413 261.769 394.503 258.889C394.593 256.009 394.573 253.119 394.583 250.229C394.593 247.339 394.643 244.419 394.973 241.549Z" fill="#F0997A"/>
<path d="M338.523 122.469C338.523 122.469 342.473 135.949 346.883 148.149C350.713 158.749 357.883 164.649 365.363 167.029C365.363 167.029 363.513 214.939 362.933 221.609C362.353 228.279 364.223 252.409 365.823 268.279C367.423 284.149 367.933 289.579 367.933 289.579C367.933 289.579 371.263 293.109 380.473 293.149C389.683 293.189 392.553 289.219 392.553 289.219C392.553 289.219 398.143 270.759 398.193 256.329C398.193 248.069 396.413 243.989 397.833 235.779C399.253 227.569 410.023 190.919 411.703 173.599C413.383 156.279 410.333 141.129 398.183 123.599C385.473 132.459 350.303 130.769 338.523 122.469Z" fill="#455A64"/>
<path d="M392.963 126.379C399.543 135.469 409.093 154.289 402.843 181.559C401.063 189.319 399.306 196.812 397.573 204.039C393.573 220.989 390.373 234.379 389.993 239.479C389.865 242.349 390.039 245.225 390.513 248.059C391.518 254.749 391.605 261.545 390.773 268.259C389.773 276.969 388.173 286.139 387.043 292.339C387.423 292.229 387.793 292.119 388.133 291.989C389.263 285.789 390.763 276.869 391.783 268.379C392.629 261.582 392.538 254.701 391.513 247.929C391.059 245.163 390.888 242.359 391.003 239.559C391.383 234.559 394.553 221.179 398.563 204.279C400.283 197.029 402.053 189.549 403.833 181.789C410.123 154.319 400.603 135.279 393.923 125.969L392.963 126.379Z" fill="#37474F"/>
<path d="M338.273 119.569C348.313 123.753 359.04 126.045 369.913 126.329C389.213 126.539 398.373 120.509 398.373 120.509C398.472 122.688 399.112 124.808 400.233 126.679C400.233 126.679 389.153 133.329 369.973 132.759C350.793 132.189 338.053 125.629 338.053 125.629C338.318 123.62 338.392 121.591 338.273 119.569Z" fill="#37474F"/>
<path d="M357.273 60.0889C349.273 61.5289 345.453 64.0189 339.443 73.6589C333.433 83.2989 315.243 108.909 315.243 108.909C315.243 108.909 319.343 119.279 334.243 121.969C341.243 111.969 354.973 92.2889 354.973 92.2889L357.273 60.0889Z" fill="#EE2524"/>
<path opacity="0.3" d="M357.273 60.0889C349.273 61.5289 345.453 64.0189 339.443 73.6589C333.433 83.2989 315.243 108.909 315.243 108.909C315.243 108.909 319.343 119.279 334.243 121.969C341.243 111.969 354.973 92.2889 354.973 92.2889L357.273 60.0889Z" fill="black"/>
<path d="M400.893 117.149C400.893 119.219 406.153 129.619 409.033 140.839C391.773 163.089 340.673 150.949 336.933 138.429C337.733 123.549 338.423 85.9789 341.683 79.1789C345.292 71.7759 350.666 65.3744 357.333 60.5389C360.934 59.8384 364.574 59.3542 368.233 59.0889C373.675 58.5261 379.167 58.6673 384.573 59.5089C389.413 60.2489 397.363 62.3489 397.363 62.3489C400.363 64.9089 408.793 75.6989 406.843 88.6989C405.953 94.6689 400.873 102.459 400.893 117.149Z" fill="#FAFAFA"/>
<path d="M386.443 58.7488L386.373 60.5788C386.373 60.5788 379.153 78.9388 378.913 93.8288C378.673 108.719 383.483 166.919 383.483 166.919C383.483 166.919 395.683 165.349 402.483 162.179L402.953 148.099L406.113 160.849C406.113 160.849 410.223 159.559 412.333 156.509C412.333 150.999 410.923 139.509 406.113 127.319C401.303 115.129 401.113 112.899 404.473 100.819C407.833 88.7388 410.573 83.1188 406.583 74.4388C402.593 65.7588 397.923 61.8488 397.923 61.8488L386.443 58.7488Z" fill="#EE2524"/>
<path d="M366.083 58.7488L366.023 60.8988C361.519 65.6239 357.323 70.6343 353.463 75.8988C347.513 84.0888 347.633 87.3688 345.213 100.109C342.793 112.849 341.893 155.349 341.893 155.349C339.432 154.684 337.014 153.869 334.653 152.909C334.653 152.909 336.163 127.909 336.713 119.309C337.263 110.709 338.053 91.0688 339.323 85.4288C340.593 79.7888 340.233 78.5088 345.093 71.8888C348.582 67.4149 352.682 63.4529 357.273 60.1188L366.083 58.7488Z" fill="#EE2524"/>
<path d="M356.943 130.549C356.463 129.149 352.293 126.549 351.383 123.699C350.853 122.029 351.953 119.609 353.733 121.269C357.463 124.759 360.193 125.269 362.643 126.969" fill="#FFBDA7"/>
<path d="M262.793 104.369C261.873 107.509 264.383 114.049 268.473 115.259C267.019 117.113 265.933 119.227 265.273 121.489C263.933 126.039 266.993 131.889 273.273 133.739L321.353 147.849L328.243 149.969L344.243 95.4486L337.313 93.4486C337.313 93.4486 329.843 70.0886 329.513 66.5786C329.183 63.0686 334.513 49.5786 335.243 47.0986C335.973 44.6186 324.323 40.0986 317.873 48.0986C311.423 56.0986 308.873 63.5486 308.593 72.6786L279.533 64.1286C273.393 62.3286 269.223 67.2486 268.203 70.6986C267.686 72.3951 267.618 74.1969 268.007 75.9273C268.397 77.6576 269.229 79.2571 270.423 80.5686C268.527 80.5687 266.686 81.2055 265.196 82.3769C263.705 83.5484 262.651 85.1865 262.203 87.0286C261.622 89.0819 261.748 91.2706 262.561 93.2436C263.373 95.2166 264.825 96.8595 266.683 97.9086C266.683 97.9086 264.183 99.6586 262.793 104.369Z" fill="#FAFAFA"/>
<path d="M335.273 47.1687C336.013 44.6487 324.353 40.1687 317.903 48.1687C311.453 56.1687 308.903 63.6187 308.623 72.7487L308.983 73.2487L314.153 74.7087C318.533 46.6187 329.733 45.6887 335.273 47.1687Z" fill="#E0E0E0"/>
<path d="M326.091 157.249L347.043 163.412L365.65 100.151L344.697 93.9885L326.091 157.249Z" fill="#EE2524"/>
<path opacity="0.2" d="M326.091 157.249L347.043 163.412L365.65 100.151L344.697 93.9885L326.091 157.249Z" fill="black"/>
<path d="M266.713 98.0087C266.713 98.0087 264.183 99.6587 262.803 104.369C262.729 104.617 262.679 104.871 262.653 105.129C262.253 108.449 264.653 114.129 268.473 115.259C267.022 117.114 265.936 119.228 265.273 121.489C265.142 121.947 265.051 122.415 265.003 122.889C264.573 127.169 267.623 132.079 273.273 133.739L282.933 136.579C277.273 134.919 274.233 130.009 274.653 125.729C274.702 125.252 274.793 124.78 274.923 124.319C275.585 122.061 276.671 119.95 278.123 118.099C274.343 116.979 271.903 111.289 272.303 107.959C272.33 107.705 272.38 107.454 272.453 107.209C273.833 102.499 276.373 100.849 276.373 100.849C274.514 99.7998 273.062 98.1575 272.248 96.1847C271.433 94.212 271.305 92.0231 271.883 89.9687L271.943 89.8187C272.412 88.0119 273.468 86.412 274.945 85.27C276.422 84.128 278.236 83.5085 280.103 83.5087C278.912 82.1956 278.081 80.5962 277.692 78.8664C277.303 77.1366 277.369 75.3355 277.883 73.6387C277.943 73.4387 278.013 73.2387 278.093 73.0187C279.403 69.6387 283.443 65.3787 289.213 67.0687L279.563 64.2387C273.783 62.5387 269.743 66.7987 268.443 70.1787C268.363 70.3987 268.293 70.5987 268.233 70.7987C267.716 72.4952 267.648 74.297 268.038 76.0274C268.427 77.7577 269.259 79.3572 270.453 80.6688C268.585 80.6698 266.771 81.2895 265.292 82.4311C263.814 83.5728 262.756 85.1719 262.283 86.9787L262.233 87.1287C261.652 89.182 261.778 91.3707 262.591 93.3437C263.403 95.3167 264.855 96.9596 266.713 98.0087Z" fill="#E0E0E0"/>
<path d="M321.243 148.249L273.173 134.099C270.243 133.289 267.719 131.417 266.093 128.849C265.389 127.757 264.92 126.531 264.717 125.248C264.513 123.965 264.58 122.654 264.913 121.399C265.542 119.263 266.537 117.254 267.853 115.459C265.841 114.477 264.261 112.79 263.413 110.719C262.37 108.744 262.018 106.477 262.413 104.279C263.011 101.914 264.262 99.7658 266.023 98.0787C264.255 96.9211 262.899 95.233 262.149 93.2567C261.4 91.2805 261.296 89.1176 261.853 87.0787C262.294 85.2909 263.281 83.6849 264.678 82.4842C266.074 81.2834 267.809 80.5475 269.643 80.3787C268.589 79.0375 267.876 77.4609 267.564 75.7838C267.252 74.1067 267.351 72.3791 267.853 70.7487C268.547 68.5696 269.903 66.6611 271.733 65.2887C272.845 64.4427 274.144 63.8765 275.521 63.6381C276.897 63.3996 278.311 63.4959 279.643 63.9187L308.243 72.3287C308.633 62.9287 311.443 55.6287 317.583 48.0087C322.163 42.3187 329.703 42.6287 333.583 44.6587C335.133 45.4687 335.873 46.4387 335.583 47.3187C335.403 47.9387 334.953 49.1887 334.393 50.7687C332.723 55.4187 329.623 64.0787 329.873 66.6587C330.183 69.9187 336.873 91.0087 337.593 93.2587L344.693 95.2587L328.493 150.469L321.243 148.249ZM337.043 93.8487L336.983 93.6587C336.673 92.6587 329.493 70.2187 329.163 66.6587C328.903 63.9087 331.923 55.4787 333.723 50.4487C334.293 48.8687 334.723 47.6287 334.913 47.0387C335.103 46.4487 334.383 45.8487 333.253 45.2587C329.593 43.3487 322.513 43.0687 318.193 48.4187C312.053 56.0287 309.303 63.3187 309.003 72.7687V73.2587L279.473 64.5787C278.253 64.1918 276.957 64.1034 275.696 64.3209C274.434 64.5384 273.243 65.0555 272.223 65.8287C270.528 67.1038 269.267 68.8708 268.613 70.8887C268.115 72.5234 268.05 74.2595 268.426 75.9267C268.801 77.5938 269.603 79.1349 270.753 80.3987L271.373 81.0687H270.453C268.638 81.058 266.873 81.6649 265.448 82.7897C264.023 83.9146 263.024 85.4905 262.613 87.2587C262.064 89.2292 262.189 91.3266 262.968 93.218C263.747 95.1093 265.136 96.6863 266.913 97.6987L267.473 97.9987L266.943 98.3487C266.943 98.3487 264.503 99.9987 263.183 104.499C262.834 106.515 263.165 108.59 264.123 110.399C265.223 112.759 266.863 114.399 268.603 114.909L269.153 115.079L268.783 115.519C267.373 117.338 266.312 119.403 265.653 121.609C265.353 122.763 265.297 123.968 265.489 125.145C265.68 126.323 266.114 127.448 266.763 128.449C268.283 130.867 270.651 132.632 273.403 133.399L321.483 147.539L328.003 149.539L343.793 95.7487L337.043 93.8487Z" fill="#455A64"/>
<path opacity="0.2" d="M326.096 157.247L347.048 163.409L356.351 131.779L335.399 125.616L326.096 157.247Z" fill="black"/>
<path d="M342.023 153.049C342.199 152.449 342.193 151.811 342.007 151.215C341.82 150.619 341.461 150.092 340.975 149.7C340.489 149.307 339.897 149.068 339.275 149.012C338.653 148.956 338.028 149.085 337.48 149.384C336.931 149.683 336.483 150.137 336.193 150.69C335.903 151.243 335.783 151.87 335.848 152.491C335.914 153.112 336.162 153.7 336.562 154.18C336.961 154.66 337.494 155.011 338.093 155.189C338.898 155.425 339.763 155.332 340.5 154.931C341.237 154.53 341.784 153.853 342.023 153.049Z" fill="#F0F0F0"/>
<path d="M362.643 126.969C365.103 128.699 367.643 129.299 372.493 129.519C377.673 129.749 398.183 121.329 398.183 121.329L394.403 94.0388C394.403 94.0388 390.063 73.4188 398.033 62.4988C410.723 65.1988 411.723 68.9388 413.303 74.2188C414.513 78.2188 415.913 83.5288 417.743 101.219C419.393 117.039 419.563 121.219 419.393 129.169C419.233 136.069 413.733 138.279 404.183 140.499C394.633 142.719 388.493 143.499 374.923 145.499C368.403 146.499 364.703 146.019 359.043 145.889C356.898 145.914 354.762 145.603 352.713 144.969C350.836 144.412 349.12 143.41 347.713 142.049C347.487 141.771 347.221 141.528 346.923 141.329C346.599 141.164 346.265 141.02 345.923 140.899C345.275 140.701 344.659 140.411 344.093 140.039C343.564 139.555 343.082 139.023 342.653 138.449C342.456 138.189 342.242 137.941 342.013 137.709C341.752 137.483 341.471 137.282 341.173 137.109C340.369 136.716 339.641 136.185 339.023 135.539C338.873 135.356 338.773 135.137 338.733 134.904C338.692 134.671 338.713 134.431 338.793 134.209C338.793 134.209 337.723 133.779 337.363 133.609C336.867 133.373 336.398 133.084 335.963 132.749C335.867 132.696 335.784 132.621 335.722 132.531C335.659 132.441 335.619 132.337 335.603 132.229C335.603 132.099 335.645 131.973 335.723 131.869C336.723 130.109 338.823 130.119 340.613 130.279C345.263 130.689 348.103 131.919 352.803 131.819C355.363 131.759 356.053 131.699 356.753 131.209C356.861 131.142 356.941 131.038 356.978 130.917C357.015 130.795 357.006 130.664 356.953 130.549" fill="#FFBDA7"/>
<path d="M398.183 121.329C401.468 119.691 404.912 118.398 408.463 117.469C408.463 117.469 405.223 116.199 397.923 119.469L398.183 121.329Z" fill="#F0997A"/>
<path d="M338.953 134.399C340.013 134.879 341.123 135.259 342.223 135.639C343.323 136.019 344.443 136.349 345.543 136.709C346.093 136.889 346.643 137.089 347.213 137.249C347.783 137.409 348.353 137.539 348.923 137.639C350.067 137.872 351.221 138.045 352.383 138.159L350.693 137.739C350.123 137.609 349.563 137.469 349.003 137.319C348.443 137.169 347.873 137.029 347.323 136.849C346.773 136.669 346.233 136.479 345.673 136.299C344.563 135.939 343.443 135.619 342.323 135.299L338.953 134.399Z" fill="#F0997A"/>
<path d="M341.893 137.609C342.635 138.138 343.425 138.597 344.253 138.979C345.073 139.349 345.913 139.669 346.753 139.979C347.593 140.289 348.463 140.549 349.323 140.789C350.186 141.038 351.064 141.228 351.953 141.359C351.103 141.079 350.273 140.759 349.423 140.469L346.903 139.569L344.383 138.659C343.553 138.349 342.703 137.989 341.893 137.609Z" fill="#F0997A"/>
<path d="M397.923 61.8489C406.633 64.0889 410.513 65.6089 412.333 69.9089C414.153 74.2089 415.043 76.9089 417.013 88.5189C418.916 101.261 420.022 114.109 420.323 126.989C420.233 133.339 420.943 135.989 413.873 138.619C406.803 141.249 390.793 143.539 390.793 143.539C391.155 140.622 391.064 137.668 390.523 134.779C389.763 131.456 388.462 128.28 386.673 125.379L397.413 121.089C397.413 121.089 393.653 96.7489 393.123 92.4589C392.593 88.1689 391.103 70.9689 397.923 61.8489Z" fill="#EE2524"/>
<path opacity="0.3" d="M397.923 61.8489C406.633 64.0889 410.513 65.6089 412.333 69.9089C414.153 74.2089 415.043 76.9089 417.013 88.5189C418.916 101.261 420.022 114.109 420.323 126.989C420.233 133.339 420.943 135.989 413.873 138.619C406.803 141.249 390.793 143.539 390.793 143.539C391.155 140.622 391.064 137.668 390.523 134.779C389.763 131.456 388.462 128.28 386.673 125.379L397.413 121.089C397.413 121.089 393.653 96.7489 393.123 92.4589C392.593 88.1689 391.103 70.9689 397.923 61.8489Z" fill="black"/>
<path d="M353.203 33.8488L351.613 33.3588C344.483 29.5288 344.843 20.2388 346.613 15.3588C350.483 4.54883 362.173 0.498825 369.403 0.0988254C383.123 -0.651175 389.823 2.88883 391.233 9.99883C393.093 9.83883 395.653 11.3388 397.233 13.4388C400.603 18.0288 404.623 34.0288 386.833 50.9088L353.203 33.8488Z" fill="#37474F"/>
<path d="M390.063 45.5989C392.543 45.9589 394.463 44.6589 395.893 42.9589C399.073 39.1689 399.233 35.4389 397.593 33.0189C396.233 31.0189 393.043 29.8589 390.903 31.3189C388.613 32.8889 388.583 34.0889 387.763 35.7889C386.943 37.4889 383.493 37.4789 382.413 30.7889C381.413 24.5489 381.683 18.0089 378.513 15.2989C373.763 11.2989 367.833 12.6489 366.113 15.2189C365.211 13.8575 363.809 12.9063 362.21 12.5713C360.612 12.2363 358.946 12.5444 357.573 13.4289C354.573 15.1989 352.313 19.9889 351.703 31.9189C351.073 44.0789 354.213 51.5189 357.073 53.4489C359.243 54.9189 361.633 55.5189 366.183 55.5489L366.023 60.8889C366.023 60.8889 359.863 72.5289 360.283 82.8889C360.283 82.8889 362.793 81.1589 374.093 71.2789L386.373 60.5489L387.013 43.7789C387.341 44.3021 387.788 44.7399 388.319 45.0563C388.849 45.3727 389.447 45.5587 390.063 45.5989Z" fill="#FFBDA7"/>
<path d="M354.873 26.0688L359.343 24.3588C359.246 24.0639 359.09 23.7917 358.884 23.5587C358.679 23.3257 358.429 23.1367 358.148 23.0031C357.868 22.8695 357.564 22.794 357.253 22.7812C356.943 22.7685 356.633 22.8187 356.343 22.9288C355.741 23.1627 355.253 23.6194 354.979 24.2042C354.705 24.789 354.667 25.4568 354.873 26.0688Z" fill="#263238"/>
<path d="M371.463 24.3288L375.893 26.9088C376.074 26.6283 376.197 26.3139 376.253 25.9845C376.309 25.6552 376.297 25.3179 376.219 24.9932C376.14 24.6685 375.996 24.3633 375.796 24.096C375.595 23.8288 375.343 23.6051 375.053 23.4388C374.454 23.0999 373.748 23.0034 373.081 23.1689C372.413 23.3344 371.834 23.7495 371.463 24.3288Z" fill="#263238"/>
<path d="M377.413 16.1189C378.483 17.4789 379.273 18.8489 379.103 23.7289C379.043 25.7289 379.193 30.5089 380.553 33.3389C381.743 35.8189 382.983 37.3389 385.623 37.7489C387.225 37.9876 388.861 37.8226 390.383 37.2689C391.313 36.8389 393.943 34.9889 393.623 32.2689C393.082 32.8522 392.424 33.3155 391.693 33.6289C391.138 33.8587 390.551 34.0004 389.953 34.0489C389.055 34.0455 388.173 33.8155 387.388 33.3802C386.603 32.9449 385.941 32.3184 385.463 31.5589C383.693 28.9289 383.803 25.3889 383.263 22.3689C382.573 18.5489 381.913 14.1989 378.453 12.2989C374.373 10.0589 366.993 11.0589 366.113 15.2289C367.739 13.8697 369.832 13.2017 371.945 13.3681C374.057 13.5344 376.02 14.522 377.413 16.1189Z" fill="#37474F"/>
<path d="M371.273 42.2087L364.593 44.0587C364.724 44.5242 364.95 44.9572 365.258 45.3303C365.565 45.7034 365.947 46.0083 366.379 46.2256C366.811 46.4429 367.283 46.5679 367.766 46.5926C368.249 46.6172 368.731 46.541 369.183 46.3687C369.596 46.2365 369.978 46.0232 370.308 45.7415C370.637 45.4597 370.907 45.115 371.102 44.7276C371.296 44.3403 371.412 43.918 371.441 43.4855C371.47 43.0529 371.413 42.6189 371.273 42.2087Z" fill="#B16668"/>
<path d="M367.273 46.4888C367.408 45.5969 367.87 44.787 368.568 44.2161C369.266 43.6452 370.152 43.3539 371.053 43.3988C371.167 43.4131 371.281 43.4331 371.393 43.4588C371.383 44.1162 371.164 44.7533 370.766 45.2769C370.368 45.8005 369.814 46.1832 369.183 46.3688C368.565 46.5628 367.91 46.6039 367.273 46.4888Z" fill="#F0997A"/>
<path d="M366.103 27.6289L364.703 39.5289L358.243 37.0189L366.103 27.6289Z" fill="#F0997A"/>
<path d="M366.183 55.5588C370.587 55.2642 374.919 54.2858 379.023 52.6588C380.513 51.9988 382.503 49.2587 384.113 46.2188C384.113 46.2188 383.023 52.2187 379.813 54.2787C374.923 57.4587 366.113 58.2088 366.113 58.2088L366.183 55.5588Z" fill="#F0997A"/>
<path d="M355.993 29.6288C355.643 30.6288 356.313 30.9288 357.253 31.2688C358.193 31.6088 359.033 31.8088 359.383 30.8388C359.467 30.6152 359.506 30.377 359.497 30.1382C359.488 29.8994 359.432 29.6647 359.331 29.4479C359.231 29.2311 359.088 29.0364 358.912 28.8753C358.735 28.7142 358.528 28.5899 358.303 28.5095C358.078 28.4292 357.84 28.3945 357.601 28.4074C357.362 28.4204 357.129 28.4807 356.914 28.5849C356.698 28.689 356.506 28.835 356.348 29.0142C356.19 29.1935 356.069 29.4024 355.993 29.6288Z" fill="#263238"/>
<path d="M359.203 28.8489C358.786 28.612 358.333 28.4433 357.863 28.3489C357.406 28.2345 356.931 28.2041 356.463 28.2589C355.967 28.3079 355.483 28.4433 355.033 28.6589C355.033 28.6589 354.973 28.7789 355.033 28.7689C355.423 28.7689 355.753 28.6789 356.313 28.6589C356.84 28.6642 357.364 28.7347 357.873 28.8689C358.492 29.0117 359.088 29.2406 359.643 29.5489C359.823 29.6389 360.173 29.8389 360.213 29.8689C360.253 29.8989 360.313 29.7689 360.283 29.7289C359.997 29.3549 359.627 29.0534 359.203 28.8489Z" fill="#263238"/>
<path d="M374.163 30.2889C374.383 31.2889 373.663 31.5289 372.693 31.7289C371.723 31.9289 370.853 32.0389 370.633 31.0189C370.585 30.7871 370.583 30.5482 370.628 30.3157C370.672 30.0832 370.762 29.8617 370.892 29.664C371.022 29.4662 371.189 29.2959 371.385 29.1629C371.581 29.03 371.801 28.9368 372.033 28.8889C372.265 28.841 372.504 28.8392 372.736 28.8836C372.969 28.928 373.19 29.0178 373.388 29.1478C373.586 29.2778 373.756 29.4455 373.889 29.6413C374.022 29.8371 374.115 30.0571 374.163 30.2889Z" fill="#263238"/>
<path d="M371.083 29.0689C371.531 28.8931 372.003 28.7852 372.483 28.7489C372.952 28.7017 373.425 28.7356 373.883 28.8489C374.365 28.9722 374.824 29.1714 375.243 29.4389C375.243 29.4389 375.293 29.5689 375.243 29.5589C374.873 29.4689 374.543 29.3589 373.993 29.2689C373.472 29.2039 372.944 29.2039 372.423 29.2689C371.792 29.3227 371.172 29.4675 370.583 29.6989L369.973 29.9389C369.913 29.9389 369.883 29.8289 369.913 29.7889C370.246 29.4665 370.645 29.2208 371.083 29.0689Z" fill="#263238"/>
<path d="M294.433 142.559C291.633 142.559 291.483 142.239 291.063 140.849C290.704 139.769 290.608 138.618 290.781 137.493C290.955 136.368 291.395 135.301 292.063 134.379C293.283 132.799 294.433 131.149 295.473 130.629C296.513 130.109 297.743 132.089 296.683 134.539C295.023 138.399 295.943 139.029 295.943 139.029C296.643 137.378 297.43 135.766 298.303 134.199C299.123 132.919 301.303 131.109 302.573 129.869C303.843 128.629 305.813 129.659 304.713 132.489L306.983 130.219C308.573 128.629 309.983 128.719 310.063 130.929C310.113 131.664 309.912 132.393 309.493 132.999C309.493 132.999 310.883 131.089 311.543 131.509C313.453 132.719 313.073 134.249 311.383 138.929C309.953 142.929 310.503 144.929 312.083 145.549L313.083 145.849C313.083 145.849 311.143 146.709 309.263 147.369C307.893 147.849 306.543 148.119 305.353 146.589C305.353 146.589 303.863 148.729 302.473 147.909C301.492 147.244 300.663 146.379 300.043 145.369C299.557 145.594 299.016 145.676 298.485 145.605C297.953 145.535 297.453 145.314 297.043 144.969C296.213 144.373 295.604 143.518 295.313 142.539L294.433 142.559Z" fill="#FFBDA7"/>
<path d="M304.723 132.489C304.005 133.134 303.355 133.851 302.783 134.629C302.329 135.501 302.016 136.439 301.853 137.409C301.44 139.264 301.182 141.151 301.083 143.049C301.769 141.278 302.301 139.451 302.673 137.589C302.818 136.686 303.045 135.799 303.353 134.939C303.793 134.159 304.313 133.349 304.723 132.489Z" fill="#F0997A"/>
<path d="M309.503 132.999C308.671 133.651 308.015 134.5 307.593 135.469C307.167 136.418 306.832 137.406 306.593 138.419C306.098 140.413 305.816 142.455 305.753 144.509C306.406 142.576 306.957 140.61 307.403 138.619C307.745 136.63 308.457 134.724 309.503 132.999Z" fill="#F0997A"/>
</svg>
