<svg width="532" height="270" viewBox="0 0 532 270" fill="none" xmlns="http://www.w3.org/2000/svg">
<path d="M518.057 107.634C512.837 92.6624 504.311 78.8093 492.999 66.9176C454.297 26.7069 397.329 6.33817 339.779 1.32465C194.904 -11.2468 156.49 69.4278 129.854 84.27C77.8575 113.257 -18.1068 151.799 19.5379 222.603C40.3108 261.651 101.324 265.126 142.53 265.365C262.739 266.049 278.916 249.997 342.872 263.266C406.828 276.535 471.63 273.005 505.102 226.926C528.931 194.123 531.111 144.227 518.057 107.634Z" fill="#EE2524" fill-opacity="0.12"/>
<path d="M511.083 140.232V165.512H530.65" stroke="#263238" stroke-linecap="round" stroke-linejoin="round"/>
<path d="M464.851 87.6967V77.5649H479.348V109.225H488.271V142.646H497.195V96.9145H511.083V137.175" stroke="#263238" stroke-linecap="round" stroke-linejoin="round"/>
<path d="M29.9583 124.961V109.225H44.4549V130.33H58.9516V93.392H92.4067V126.813H122.512V82.8427H147.043V125.058H171.44V31.8331H186.079V70.5261H198.345V16H228.45V130.33H268.598V54.699H294.241V98.6697H316.542V40.6272H355.57V103.947H375.648V67.0096H391.256V91.6368H406.865V61.7319H415.788V31.8331H429.173V116.766H441.401V95.1533H444.781V142.646H464.851V90.4445" stroke="#263238" stroke-linecap="round" stroke-linejoin="round"/>
<path d="M11 165.512H29.9584V127.709" stroke="#263238" stroke-linecap="round" stroke-linejoin="round"/>
<path d="M470.815 151.979H460.074V160.634H470.815V151.979Z" stroke="#263238" stroke-linecap="round" stroke-linejoin="round"/>
<path d="M488.46 151.979H477.719V160.634H488.46V151.979Z" stroke="#263238" stroke-linecap="round" stroke-linejoin="round"/>
<path d="M45.1085 151.979H34.3674V160.634H45.1085V151.979Z" stroke="#263238" stroke-linecap="round" stroke-linejoin="round"/>
<path d="M28.2308 171.135H17.4897V179.79H28.2308V171.135Z" stroke="#263238" stroke-linecap="round" stroke-linejoin="round"/>
<path d="M470.815 166.19H460.074V174.845H470.815V166.19Z" stroke="#263238" stroke-linecap="round" stroke-linejoin="round"/>
<path d="M227.143 138.155C227.143 138.155 207.247 125.997 210.7 125.426C214.153 124.856 267.543 126.852 272.16 127.409C276.777 127.967 292.069 129.677 294.081 130.52C296.092 131.363 316.583 138.44 329.573 139.567C342.563 140.695 356.135 139.853 358.425 140.98C360.714 142.108 369.391 150.895 367.367 153.981C365.344 157.067 359.867 157.947 359.867 157.947L317.165 162.471C317.165 162.471 310.246 154.551 304.756 152.283C299.267 150.015 262.345 139.282 251.96 139.282C241.576 139.282 227.143 138.155 227.143 138.155Z" fill="#263238" stroke="#263238" stroke-miterlimit="10"/>
<path d="M222.248 160.773C222.248 160.773 203.465 195.822 183.872 208.822C183.872 208.822 180.697 209.963 186.465 209.963C192.233 209.963 210.131 191.013 215.898 184.234C221.666 177.454 227.725 173.203 235.226 173.203H246.192L222.248 160.773Z" fill="#263238" stroke="#263238" stroke-miterlimit="10"/>
<path d="M240.715 190.74C232.839 190.738 225.139 193.024 218.589 197.31C212.039 201.596 206.933 207.689 203.918 214.819C200.902 221.949 200.113 229.794 201.649 237.363C203.185 244.933 206.977 251.886 212.547 257.343C218.116 262.8 225.212 266.516 232.938 268.021C240.663 269.526 248.67 268.752 255.946 265.798C263.223 262.843 269.441 257.841 273.816 251.423C278.19 245.005 280.523 237.46 280.521 229.743C280.521 219.399 276.327 209.478 268.862 202.164C261.397 194.849 251.272 190.74 240.715 190.74ZM240.715 252.088C236.212 252.088 231.81 250.78 228.066 248.329C224.322 245.877 221.404 242.393 219.681 238.317C217.957 234.241 217.506 229.755 218.385 225.428C219.263 221.1 221.432 217.125 224.616 214.005C227.8 210.886 231.857 208.761 236.273 207.9C240.69 207.039 245.268 207.481 249.428 209.17C253.588 210.858 257.144 213.717 259.646 217.386C262.148 221.055 263.483 225.368 263.483 229.78C263.483 235.696 261.084 241.371 256.814 245.554C252.545 249.738 246.754 252.088 240.715 252.088Z" fill="#263238" stroke="#263238" stroke-miterlimit="10"/>
<path d="M240.715 213.631C237.463 213.631 234.284 214.576 231.58 216.347C228.876 218.117 226.768 220.633 225.524 223.577C224.279 226.521 223.953 229.761 224.588 232.886C225.222 236.011 226.788 238.882 229.088 241.135C231.388 243.389 234.318 244.923 237.507 245.545C240.697 246.167 244.003 245.847 247.008 244.628C250.013 243.409 252.581 241.343 254.388 238.694C256.194 236.044 257.159 232.929 257.159 229.743C257.159 225.47 255.426 221.372 252.343 218.35C249.259 215.329 245.076 213.631 240.715 213.631ZM240.715 238.976C238.851 238.978 237.028 238.439 235.477 237.426C233.925 236.413 232.715 234.972 232 233.285C231.285 231.598 231.097 229.741 231.459 227.949C231.821 226.157 232.718 224.511 234.035 223.218C235.352 221.926 237.031 221.045 238.86 220.688C240.688 220.331 242.583 220.513 244.306 221.211C246.029 221.91 247.501 223.093 248.537 224.612C249.573 226.13 250.126 227.916 250.126 229.743C250.126 232.189 249.135 234.536 247.37 236.267C245.606 237.998 243.212 238.973 240.715 238.976Z" fill="#263238" stroke="#263238" stroke-miterlimit="10"/>
<path d="M240.715 201.758C235.065 201.751 229.539 203.386 224.837 206.456C220.136 209.527 216.469 213.895 214.301 219.008C212.134 224.12 211.563 229.748 212.661 235.179C213.758 240.61 216.476 245.6 220.468 249.518C224.461 253.435 229.55 256.104 235.091 257.187C240.633 258.27 246.377 257.718 251.598 255.601C256.819 253.484 261.282 249.897 264.422 245.294C267.562 240.691 269.238 235.279 269.238 229.743C269.242 222.326 266.239 215.212 260.89 209.964C255.541 204.716 248.285 201.765 240.715 201.758ZM240.715 252.088C236.212 252.088 231.81 250.78 228.066 248.329C224.322 245.877 221.404 242.393 219.681 238.317C217.957 234.241 217.507 229.755 218.385 225.428C219.264 221.1 221.432 217.125 224.616 214.005C227.8 210.886 231.857 208.761 236.274 207.9C240.69 207.039 245.268 207.481 249.428 209.17C253.588 210.858 257.144 213.717 259.646 217.386C262.148 221.055 263.483 225.368 263.483 229.78C263.483 235.696 261.084 241.371 256.815 245.554C252.545 249.738 246.754 252.088 240.715 252.088Z" fill="white" stroke="#263238" stroke-miterlimit="10"/>
<path d="M258.6 175.471L247.343 205.439L252.542 207.41L264.077 177.442L258.6 175.471Z" fill="#263238" stroke="#263238" stroke-miterlimit="10"/>
<path d="M247.343 205.439C247.343 205.439 235.517 200.345 225.992 207.41C216.468 214.474 215.317 223.199 215.317 223.199C215.317 223.199 230.318 233.932 249.936 235.592C269.555 237.253 289.464 234.465 299.266 231.639C305.273 229.891 311.074 227.523 316.57 224.575L292.335 198.548C292.335 198.548 288.882 193.74 280.799 198.263C272.717 202.787 272.426 208.723 272.426 208.723L247.343 205.439Z" fill="#263238" stroke="#263238" stroke-miterlimit="10"/>
<path d="M264.078 177.442L255.717 207.695L279.952 218.44C279.691 214.984 280.493 211.531 282.254 208.525C285.138 204.001 288.895 204.274 289.755 204.807C290.615 205.34 295.813 207.918 295.813 207.918L293.511 190.108L264.078 177.442Z" fill="#263238" stroke="#263238" stroke-miterlimit="10"/>
<path d="M480.194 190.74C472.318 190.738 464.618 193.024 458.068 197.31C451.518 201.596 446.412 207.689 443.397 214.819C440.381 221.949 439.592 229.794 441.128 237.363C442.664 244.933 446.456 251.886 452.026 257.343C457.595 262.8 464.691 266.516 472.416 268.021C480.142 269.526 488.149 268.752 495.425 265.798C502.702 262.843 508.92 257.841 513.295 251.423C517.669 245.005 520.002 237.46 520 229.743C520 224.621 518.97 219.549 516.97 214.817C514.969 210.085 512.037 205.785 508.341 202.164C504.645 198.542 500.257 195.669 495.427 193.709C490.598 191.749 485.422 190.74 480.194 190.74ZM480.194 252.088C475.691 252.088 471.289 250.78 467.545 248.329C463.801 245.877 460.883 242.393 459.16 238.317C457.436 234.241 456.985 229.755 457.864 225.428C458.742 221.1 460.911 217.125 464.095 214.005C467.279 210.886 471.336 208.761 475.752 207.9C480.169 207.039 484.747 207.481 488.907 209.17C493.067 210.858 496.623 213.717 499.125 217.386C501.627 221.055 502.962 225.368 502.962 229.78C502.962 235.696 500.563 241.371 496.293 245.554C492.024 249.738 486.233 252.088 480.194 252.088Z" fill="#263238" stroke="#263238" stroke-miterlimit="10"/>
<path d="M480.194 213.631C476.942 213.631 473.763 214.576 471.059 216.347C468.355 218.117 466.247 220.633 465.003 223.577C463.758 226.521 463.432 229.761 464.067 232.886C464.701 236.011 466.267 238.882 468.567 241.135C470.867 243.389 473.797 244.923 476.986 245.545C480.176 246.167 483.482 245.847 486.487 244.628C489.492 243.409 492.06 241.343 493.867 238.694C495.673 236.044 496.638 232.929 496.638 229.743C496.638 225.47 494.905 221.372 491.822 218.35C488.738 215.329 484.555 213.631 480.194 213.631ZM480.194 238.976C478.33 238.978 476.507 238.439 474.956 237.426C473.404 236.413 472.194 234.972 471.479 233.285C470.764 231.598 470.576 229.741 470.938 227.949C471.3 226.157 472.197 224.511 473.514 223.218C474.831 221.926 476.51 221.045 478.339 220.688C480.167 220.331 482.062 220.513 483.785 221.211C485.508 221.91 486.98 223.093 488.016 224.612C489.052 226.13 489.605 227.916 489.605 229.743C489.605 232.189 488.614 234.536 486.85 236.267C485.085 237.998 482.691 238.973 480.194 238.976Z" fill="#263238" stroke="#263238" stroke-miterlimit="10"/>
<path d="M480.194 201.758C474.545 201.758 469.023 203.399 464.327 206.474C459.63 209.549 455.969 213.92 453.807 219.033C451.646 224.147 451.08 229.774 452.182 235.202C453.284 240.631 456.004 245.617 459.999 249.531C463.993 253.444 469.082 256.11 474.622 257.189C480.163 258.269 485.905 257.715 491.124 255.597C496.343 253.479 500.803 249.892 503.942 245.29C507.08 240.688 508.755 235.277 508.755 229.743C508.755 222.321 505.746 215.203 500.39 209.955C495.034 204.706 487.769 201.758 480.194 201.758ZM480.194 252.088C475.691 252.088 471.289 250.78 467.545 248.329C463.801 245.877 460.883 242.393 459.16 238.317C457.436 234.241 456.985 229.755 457.864 225.428C458.742 221.1 460.911 217.125 464.095 214.005C467.279 210.886 471.336 208.761 475.752 207.9C480.169 207.039 484.747 207.481 488.907 209.17C493.067 210.858 496.623 213.717 499.125 217.386C501.627 221.055 502.962 225.368 502.962 229.78C502.962 235.696 500.563 241.371 496.293 245.554C492.024 249.738 486.233 252.088 480.194 252.088Z" fill="white" stroke="#263238" stroke-miterlimit="10"/>
<path d="M443.664 193.455L475.071 202.923C475.071 202.923 491.983 190.406 511.297 194.805C511.297 194.805 504.404 175.533 460.917 172.15L443.664 193.455Z" fill="#EE2524" stroke="#263238" stroke-miterlimit="10"/>
<path d="M475.982 229.743L448.914 183.54L454.302 180.516L481.371 226.756C481.686 227.319 481.766 227.98 481.594 228.599C481.421 229.219 481.01 229.749 480.447 230.077L479.36 230.685C478.782 230.986 478.107 231.057 477.477 230.881C476.847 230.706 476.311 230.298 475.982 229.743Z" fill="#6E6E6E" stroke="#263238" stroke-miterlimit="10"/>
<path d="M415.837 109.042C415.837 109.042 441.223 120.915 448.155 125.997C455.087 131.078 469.215 142.108 471.517 145.219C473.819 148.33 480.46 158.505 478.158 161.901C475.856 165.296 474.363 167.267 472.959 168.097C471.555 168.928 464.889 170.068 461.714 173.749C458.54 177.43 431.99 218.7 431.99 218.7C431.99 218.7 422.478 233.684 421.023 233.684C419.569 233.684 402.847 239.62 381.509 238.765C360.17 237.91 334.481 232.271 329.864 231.986C325.247 231.701 320.048 229.16 318.025 228.02C316.001 226.88 310.246 223.224 301.872 214.734C293.499 206.245 288.022 203.431 288.604 192.686C288.604 192.686 222.83 164.417 219.643 161.306C216.455 158.195 208.967 143.781 212.142 141.241C215.317 138.7 228.585 135.862 245.319 137.845C262.054 139.828 298.697 148.02 305.907 152.829C310.068 155.544 313.852 158.777 317.164 162.446L359.867 157.922L362.46 162.471C362.46 162.471 347.167 181.966 347.167 183.379C347.167 184.791 364.193 212.788 364.193 212.788C364.193 212.788 355.25 213.916 348.9 214.201C342.55 214.486 337.074 215.329 337.074 215.329C337.074 215.329 393.626 218.44 402.569 217.87C411.511 217.3 417.279 207.955 418.721 204.299C420.163 200.643 416.407 182.821 419.581 172.076C422.756 161.331 426.804 154.266 422.478 146.917C418.152 139.568 403.138 123.171 403.138 118.412C403.138 113.653 415.837 109.042 415.837 109.042Z" fill="#EE2524" stroke="#263238" stroke-miterlimit="10"/>
<path d="M415.837 109.042C415.837 109.042 399.103 118.647 399.103 120.345C399.103 122.043 413.244 148.615 415.256 154.266C417.267 159.918 411.221 196.95 409.779 200.915C408.337 204.881 399.963 213.309 399.963 213.309L364.193 212.751L357.425 214.239L348.9 214.164C348.9 214.164 339.097 209.641 337.365 209.355C335.632 209.07 304.756 201.151 300.43 203.704C296.104 206.257 297.546 209.355 299.279 209.901C301.012 210.446 364.483 221.774 365.925 221.774C367.367 221.774 399.103 226.855 410.07 222.902C421.036 218.948 431.699 203.679 434.014 198.586L436.316 193.504L426.804 185.3C426.804 185.3 427.082 177.38 428.815 173.142C430.548 168.903 436.316 156.187 434.596 151.664C432.875 147.14 408.375 122.328 408.628 118.647C408.881 114.966 415.837 109.042 415.837 109.042Z" fill="#263238" stroke="#263238" stroke-miterlimit="10"/>
<path d="M419.303 192.996C416.179 193.851 413.055 196.243 410.285 199.019C410.082 199.899 409.905 200.543 409.779 200.915C408.337 204.869 399.963 213.309 399.963 213.309L364.193 212.751L357.425 214.238L348.9 214.164C345.616 214.93 342.4 215.958 339.287 217.238C353.087 219.716 365.306 221.798 365.925 221.798C367.367 221.798 399.103 226.88 410.07 222.926C421.036 218.973 431.699 203.704 434.014 198.61L436.316 193.529C430.832 191.663 424.898 191.477 419.303 192.996Z" fill="#263238" stroke="#263238" stroke-miterlimit="10"/>
<path d="M417.861 84.1558C417.861 84.1558 402.847 78.7894 397.37 81.045C391.893 83.3006 382.95 90.3774 381.787 95.186C380.623 99.9947 382.95 102.25 386.694 105.646C390.438 109.042 400.545 119.775 400.545 119.775L415.837 109.042L417.861 106.489C417.861 106.489 425.071 104.518 425.362 103.106C425.562 98.8151 425.076 94.5203 423.92 90.3773C423.526 88.9242 422.765 87.592 421.706 86.5043C420.646 85.4166 419.324 84.6088 417.861 84.1558Z" fill="#EE2524" stroke="#263238" stroke-miterlimit="10"/>
<path d="M417.228 85.2961C417.228 85.2961 414.699 90.0924 416.647 93.4882C418.595 96.8841 422.971 106.204 424.147 103.403C425.324 100.602 423.578 91.5301 421.618 88.9894C420.428 87.4773 418.934 86.2203 417.228 85.2961Z" fill="white" stroke="#263238" stroke-miterlimit="10"/>
<path d="M391.185 110.046C395.485 114.396 400.545 119.775 400.545 119.775L415.837 109.042L417.861 106.489C419.947 105.917 421.982 105.179 423.945 104.283C418.051 101.556 404.82 95.8306 401.696 98.0119C398.572 100.193 393.588 106.787 391.185 110.046Z" fill="#6E6E6E" stroke="#263238" stroke-miterlimit="10"/>
<path d="M395.346 87.5517C395.346 87.5517 395.068 67.4866 391.552 66.9165C388.035 66.3464 381.736 68.8995 381.736 68.8995C380.346 66.9617 379.4 64.7522 378.964 62.4225C378.527 60.0929 378.61 57.6982 379.207 55.4029C379.282 55.1054 379.371 54.7956 379.472 54.4734C382.065 45.9962 394.765 61.8227 395.916 64.3882C396.634 66.3739 396.927 68.4834 396.776 70.585L398.509 86.4239C398.509 86.4239 403.416 89.2496 401.114 89.5347C398.812 89.8197 389.566 89.5347 391.881 87.2667C394.195 84.9987 395.346 87.5517 395.346 87.5517Z" fill="#263238" stroke="#263238" stroke-miterlimit="10"/>
<path d="M411.992 111.744L381.534 98.111C381.787 101.048 383.811 102.994 386.695 105.547C390.489 108.943 400.545 119.676 400.545 119.676L411.992 111.744Z" fill="#263238" stroke="#263238" stroke-miterlimit="10"/>
<path d="M266.898 124.113H186.819V126.12H266.898V124.113Z" fill="#263238" stroke="#263238" stroke-miterlimit="10"/>
<path d="M360.056 213.284C362.498 213.024 364.193 212.813 364.193 212.813C364.193 212.813 347.167 184.779 347.167 183.379C347.167 181.978 362.46 162.471 362.46 162.471L359.867 157.947L317.165 162.471C317.165 162.471 341.69 190.455 349.482 199.503C353.26 203.905 356.79 208.506 360.056 213.284Z" fill="#6E6E6E" stroke="#263238" stroke-miterlimit="10"/>
<path d="M471.796 160.079L476.792 161.355" stroke="#263238" stroke-miterlimit="10"/>
<path d="M437.113 151.217L467.609 159.013" stroke="#263238" stroke-miterlimit="10"/>
<path d="M455.061 153.237L435.734 137.014L447.118 140.051L467.141 156.286L455.061 153.237Z" fill="white" stroke="#263238" stroke-miterlimit="10"/>
<path d="M326.613 187.667C331.293 188.076 334.632 188.398 334.632 188.398" stroke="#263238" stroke-miterlimit="10"/>
<g clip-path="url(#clip0_57_1090)">
<path d="M188.588 98.3296H187.397V65.8168C187.397 60.8262 185.408 56.0401 181.869 52.5113C178.33 48.9825 173.53 47 168.524 47H99.4374C94.4321 47 89.6317 48.9825 86.0924 52.5113C82.5531 56.0401 80.5647 60.8262 80.5647 65.8168V244.183C80.5647 249.173 82.5531 253.96 86.0924 257.488C89.6317 261.017 94.4321 263 99.4374 263H168.524C173.53 263 178.33 261.017 181.869 257.488C185.408 253.96 187.397 249.173 187.397 244.183V121.472H188.588L188.588 98.3296Z" fill="#090814"/>
<path d="M169.289 51.8956H160.27C160.685 52.9094 160.844 54.0092 160.732 55.0984C160.619 56.1875 160.241 57.2324 159.628 58.1411C159.016 59.0498 158.188 59.7944 157.219 60.3092C156.25 60.8241 155.169 61.0934 154.071 61.0935H114.49C113.392 61.0935 112.311 60.8242 111.342 60.3094C110.372 59.7945 109.545 59.05 108.933 58.1413C108.32 57.2326 107.941 56.1876 107.829 55.0984C107.717 54.0093 107.875 52.9094 108.29 51.8956H99.8674C96.1293 51.8956 92.5444 53.3762 89.9011 56.0116C87.2579 58.647 85.7729 62.2213 85.7729 65.9483V244.053C85.7729 247.78 87.2579 251.354 89.9011 253.99C92.5444 256.625 96.1293 258.105 99.8674 258.105H169.286C171.137 258.105 172.969 257.742 174.679 257.036C176.39 256.33 177.943 255.294 179.252 253.99C180.561 252.685 181.599 251.135 182.307 249.431C183.016 247.726 183.38 245.898 183.38 244.053V65.9483C183.38 62.2219 181.896 58.648 179.253 56.0127C176.611 53.3774 173.026 51.8964 169.289 51.8956Z" fill="#EE2524"/>
<path d="M167.103 195.924H102.05C100.307 195.922 98.6355 195.231 97.4027 194.001C96.1699 192.772 95.4765 191.106 95.4746 189.367V103.485C95.4765 101.746 96.1699 100.08 97.4027 98.8508C98.6355 97.6216 100.307 96.9302 102.05 96.9283H167.103C168.846 96.9302 170.517 97.6216 171.75 98.8508C172.983 100.08 173.676 101.746 173.678 103.485V189.366C173.677 191.104 172.984 192.771 171.751 194.001C170.518 195.23 168.846 195.922 167.103 195.924Z" fill="#E6E6E6"/>
<path d="M162.529 190.459H106.623C105.075 190.458 103.591 189.844 102.497 188.752C101.402 187.661 100.786 186.182 100.785 184.638V108.215C100.786 106.672 101.402 105.192 102.497 104.101C103.591 103.01 105.075 102.396 106.623 102.394H162.529C164.078 102.395 165.562 103.009 166.657 104.1C167.753 105.192 168.369 106.672 168.37 108.215V184.638C168.369 186.182 167.753 187.662 166.657 188.753C165.562 189.845 164.078 190.458 162.529 190.459Z" fill="#EE2524"/>
<path d="M156.953 116.917H112.2C111.813 116.917 111.441 116.764 111.167 116.491C110.894 116.218 110.74 115.848 110.74 115.462C110.74 115.075 110.894 114.705 111.167 114.432C111.441 114.159 111.813 114.006 112.2 114.006H156.953C157.34 114.006 157.711 114.159 157.985 114.432C158.259 114.705 158.413 115.075 158.413 115.462C158.413 115.848 158.259 116.218 157.985 116.491C157.711 116.764 157.34 116.917 156.953 116.917Z" fill="#E4E4E4"/>
<path d="M156.953 122.668H112.2C111.813 122.668 111.441 122.514 111.167 122.241C110.894 121.968 110.74 121.598 110.74 121.212C110.74 120.826 110.894 120.455 111.167 120.182C111.441 119.909 111.813 119.756 112.2 119.756H156.953C157.34 119.756 157.711 119.909 157.985 120.182C158.259 120.455 158.413 120.826 158.413 121.212C158.413 121.598 158.259 121.968 157.985 122.241C157.711 122.514 157.34 122.668 156.953 122.668Z" fill="#EE2524"/>
<path d="M131.599 128.418H112.2C111.813 128.418 111.441 128.265 111.167 127.991C110.894 127.718 110.74 127.348 110.74 126.962C110.74 126.576 110.894 126.206 111.167 125.933C111.441 125.659 111.813 125.506 112.2 125.506H131.599C131.987 125.506 132.358 125.659 132.632 125.933C132.906 126.206 133.06 126.576 133.06 126.962C133.06 127.348 132.906 127.718 132.632 127.991C132.358 128.265 131.987 128.418 131.599 128.418Z" fill="#E4E4E4"/>
<path d="M156.953 140.461H112.2C111.813 140.461 111.441 140.308 111.167 140.035C110.894 139.762 110.74 139.391 110.74 139.005C110.74 138.619 110.894 138.249 111.167 137.976C111.441 137.703 111.813 137.549 112.2 137.549H156.953C157.34 137.549 157.711 137.703 157.985 137.976C158.259 138.249 158.413 138.619 158.413 139.005C158.413 139.391 158.259 139.762 157.985 140.035C157.711 140.308 157.34 140.461 156.953 140.461Z" fill="#E4E4E4"/>
<path d="M156.953 146.211H112.2C111.813 146.211 111.441 146.057 111.167 145.784C110.894 145.511 110.74 145.141 110.74 144.755C110.74 144.369 110.894 143.999 111.167 143.725C111.441 143.452 111.813 143.299 112.2 143.299H156.953C157.34 143.299 157.711 143.452 157.985 143.725C158.259 143.999 158.413 144.369 158.413 144.755C158.413 145.141 158.259 145.511 157.985 145.784C157.711 146.057 157.34 146.211 156.953 146.211Z" fill="#E4E4E4"/>
<path d="M131.599 151.961H112.2C111.813 151.961 111.441 151.808 111.167 151.535C110.894 151.262 110.74 150.892 110.74 150.506C110.74 150.119 110.894 149.749 111.167 149.476C111.441 149.203 111.813 149.05 112.2 149.05H131.599C131.987 149.05 132.358 149.203 132.632 149.476C132.906 149.749 133.06 150.119 133.06 150.506C133.06 150.892 132.906 151.262 132.632 151.535C132.358 151.808 131.987 151.961 131.599 151.961Z" fill="#E4E4E4"/>
<path d="M156.953 164.005H112.2C111.813 164.005 111.441 163.851 111.167 163.578C110.894 163.305 110.74 162.935 110.74 162.549C110.74 162.163 110.894 161.792 111.167 161.519C111.441 161.246 111.813 161.093 112.2 161.093H156.953C157.34 161.093 157.711 161.246 157.985 161.519C158.259 161.792 158.413 162.163 158.413 162.549C158.413 162.935 158.259 163.305 157.985 163.578C157.711 163.851 157.34 164.005 156.953 164.005Z" fill="#EE2524"/>
<path d="M156.953 169.755H112.2C111.813 169.755 111.441 169.602 111.167 169.329C110.894 169.056 110.74 168.685 110.74 168.299C110.74 167.913 110.894 167.543 111.167 167.27C111.441 166.997 111.813 166.843 112.2 166.843H156.953C157.34 166.843 157.711 166.997 157.985 167.27C158.259 167.543 158.413 167.913 158.413 168.299C158.413 168.685 158.259 169.056 157.985 169.329C157.711 169.602 157.34 169.755 156.953 169.755Z" fill="#E4E4E4"/>
<path d="M131.599 175.505H112.2C111.813 175.505 111.441 175.351 111.167 175.078C110.894 174.805 110.74 174.435 110.74 174.049C110.74 173.663 110.894 173.292 111.167 173.019C111.441 172.746 111.813 172.593 112.2 172.593H131.599C131.987 172.593 132.358 172.746 132.632 173.019C132.906 173.292 133.06 173.663 133.06 174.049C133.06 174.435 132.906 174.805 132.632 175.078C132.358 175.351 131.987 175.505 131.599 175.505Z" fill="#E4E4E4"/>
<path d="M110.024 163.407L61.4025 121.943H28.7373V121.332H61.6286L110.422 162.943L110.024 163.407Z" fill="#2F2E41"/>
<path d="M28.7373 126.524C31.4443 126.524 33.6388 124.336 33.6388 121.637C33.6388 118.938 31.4443 116.75 28.7373 116.75C26.0302 116.75 23.8357 118.938 23.8357 121.637C23.8357 124.336 26.0302 126.524 28.7373 126.524Z" fill="#EE2524"/>
<path d="M46.2126 138.074H1.4595C1.07222 138.074 0.700806 137.921 0.426959 137.648C0.153113 137.375 -0.000732422 137.005 -0.000732422 136.618C-0.000732422 136.232 0.153113 135.862 0.426959 135.589C0.700806 135.316 1.07222 135.163 1.4595 135.163H46.2126C46.5999 135.163 46.9713 135.316 47.2452 135.589C47.519 135.862 47.6729 136.232 47.6729 136.618C47.6729 137.005 47.519 137.375 47.2452 137.648C46.9713 137.921 46.5999 138.074 46.2126 138.074Z" fill="#EE2524"/>
<path d="M46.2126 143.826H1.4595C1.07222 143.826 0.700806 143.673 0.426959 143.4C0.153113 143.127 -0.000732422 142.756 -0.000732422 142.37C-0.000732422 141.984 0.153113 141.614 0.426959 141.341C0.700806 141.068 1.07222 140.914 1.4595 140.914H46.2126C46.5999 140.914 46.9713 141.068 47.2452 141.341C47.519 141.614 47.6729 141.984 47.6729 142.37C47.6729 142.756 47.519 143.127 47.2452 143.4C46.9713 143.673 46.5999 143.826 46.2126 143.826Z" fill="#EE2524"/>
<path d="M20.8589 149.575H1.4595C1.07222 149.575 0.700806 149.422 0.426959 149.149C0.153113 148.876 -0.000732422 148.505 -0.000732422 148.119C-0.000732422 147.733 0.153113 147.363 0.426959 147.09C0.700806 146.817 1.07222 146.663 1.4595 146.663H20.8589C21.2462 146.663 21.6176 146.817 21.8915 147.09C22.1653 147.363 22.3192 147.733 22.3192 148.119C22.3192 148.505 22.1653 148.876 21.8915 149.149C21.6176 149.422 21.2462 149.575 20.8589 149.575Z" fill="#EE2524"/>
<path d="M159.529 122.279L208.322 80.6675H241.213V81.2783H208.548L159.927 122.743L159.529 122.279Z" fill="#2F2E41"/>
<path d="M241.213 85.86C243.92 85.86 246.115 83.672 246.115 80.973C246.115 78.2739 243.92 76.0859 241.213 76.0859C238.506 76.0859 236.312 78.2739 236.312 80.973C236.312 83.672 238.506 85.86 241.213 85.86Z" fill="#EE2524"/>
<path d="M274.54 97.2388H229.787C229.4 97.2388 229.029 97.0854 228.755 96.8124C228.481 96.5394 228.327 96.1691 228.327 95.7829C228.327 95.3968 228.481 95.0265 228.755 94.7535C229.029 94.4804 229.4 94.327 229.787 94.327H274.54C274.927 94.327 275.299 94.4804 275.573 94.7535C275.847 95.0265 276 95.3968 276 95.7829C276 96.1691 275.847 96.5394 275.573 96.8124C275.299 97.0854 274.927 97.2388 274.54 97.2388Z" fill="#EE2524"/>
<path d="M274.54 102.989H229.787C229.4 102.989 229.029 102.836 228.755 102.563C228.481 102.289 228.327 101.919 228.327 101.533C228.327 101.147 228.481 100.777 228.755 100.504C229.029 100.231 229.4 100.077 229.787 100.077H274.54C274.927 100.077 275.299 100.231 275.573 100.504C275.847 100.777 276 101.147 276 101.533C276 101.919 275.847 102.289 275.573 102.563C275.299 102.836 274.927 102.989 274.54 102.989Z" fill="#EE2524"/>
<path d="M249.187 108.739H229.787C229.4 108.739 229.029 108.586 228.755 108.313C228.481 108.04 228.327 107.669 228.327 107.283C228.327 106.897 228.481 106.527 228.755 106.254C229.029 105.981 229.4 105.827 229.787 105.827H249.187C249.574 105.827 249.945 105.981 250.219 106.254C250.493 106.527 250.647 106.897 250.647 107.283C250.647 107.669 250.493 108.04 250.219 108.313C249.945 108.586 249.574 108.739 249.187 108.739Z" fill="#EE2524"/>
</g>
<defs>
<clipPath id="clip0_57_1090">
<rect width="276" height="216" fill="white" transform="translate(0 47)"/>
</clipPath>
</defs>
</svg>
