<svg width="60" height="60" viewBox="0 0 60 60" fill="none" xmlns="http://www.w3.org/2000/svg">
<g clip-path="url(#clip0_3_72)">
<path d="M50.625 50.625H9.375" stroke="#2C67EF" stroke-width="2" stroke-linecap="round" stroke-linejoin="round"/>
<path d="M33.75 18.75V41.25C33.75 42.2855 34.5895 43.125 35.625 43.125H45C46.0355 43.125 46.875 42.2855 46.875 41.25V18.75C46.875 17.7145 46.0355 16.875 45 16.875H35.625C34.5895 16.875 33.75 17.7145 33.75 18.75Z" stroke="#2C67EF" stroke-width="2" stroke-linecap="round" stroke-linejoin="round"/>
<path d="M24.375 7.5H15C13.9645 7.5 13.125 8.33947 13.125 9.375V41.25C13.125 42.2855 13.9645 43.125 15 43.125H24.375C25.4105 43.125 26.25 42.2855 26.25 41.25V9.375C26.25 8.33947 25.4105 7.5 24.375 7.5Z" stroke="#2C67EF" stroke-width="2" stroke-linecap="round" stroke-linejoin="round"/>
</g>
<defs>
<clipPath id="clip0_3_72">
<rect width="60" height="60" fill="white"/>
</clipPath>
</defs>
</svg>
