<svg width="60" height="60" viewBox="0 0 60 60" fill="none" xmlns="http://www.w3.org/2000/svg">
<path d="M31.875 33.75C36.0171 33.75 39.375 30.3921 39.375 26.25C39.375 22.1079 36.0171 18.75 31.875 18.75C27.7329 18.75 24.375 22.1079 24.375 26.25C24.375 30.3921 27.7329 33.75 31.875 33.75Z" stroke="#09B778" stroke-width="2" stroke-linecap="round" stroke-linejoin="round"/>
<path d="M7.5 25.3125H13.125" stroke="#09B778" stroke-width="2" stroke-linecap="round" stroke-linejoin="round"/>
<path d="M7.5 15.9375H13.125" stroke="#09B778" stroke-width="2" stroke-linecap="round" stroke-linejoin="round"/>
<path d="M7.5 34.6875H13.125" stroke="#09B778" stroke-width="2" stroke-linecap="round" stroke-linejoin="round"/>
<path d="M7.5 44.0625H13.125" stroke="#09B778" stroke-width="2" stroke-linecap="round" stroke-linejoin="round"/>
<path d="M20.625 39.375C21.9349 37.6285 23.6334 36.2109 25.5861 35.2346C27.5387 34.2583 29.6919 33.75 31.875 33.75C34.0581 33.75 36.2113 34.2583 38.1639 35.2346C40.1166 36.2109 41.8151 37.6285 43.125 39.375" stroke="#09B778" stroke-width="2" stroke-linecap="round" stroke-linejoin="round"/>
<path d="M50.625 50.625V9.375C50.625 8.33947 49.7855 7.5 48.75 7.5L15 7.5C13.9645 7.5 13.125 8.33947 13.125 9.375V50.625C13.125 51.6605 13.9645 52.5 15 52.5H48.75C49.7855 52.5 50.625 51.6605 50.625 50.625Z" stroke="#09B778" stroke-width="2" stroke-linecap="round" stroke-linejoin="round"/>
</svg>
