<svg width="60" height="60" viewBox="0 0 60 60" fill="none" xmlns="http://www.w3.org/2000/svg">
<path d="M52.5 30H46.875" stroke="#09B778" stroke-width="2" stroke-linecap="round" stroke-linejoin="round"/>
<path d="M13.125 30H7.5" stroke="#09B778" stroke-width="2" stroke-linecap="round" stroke-linejoin="round"/>
<path d="M33.75 30H26.25" stroke="#09B778" stroke-width="2" stroke-linecap="round" stroke-linejoin="round"/>
<path d="M46.875 43.125V16.875C46.875 15.8395 46.0355 15 45 15H35.625C34.5895 15 33.75 15.8395 33.75 16.875V43.125C33.75 44.1605 34.5895 45 35.625 45H45C46.0355 45 46.875 44.1605 46.875 43.125Z" stroke="#09B778" stroke-width="2" stroke-linecap="round" stroke-linejoin="round"/>
<path d="M24.375 9.375H15C13.9645 9.375 13.125 10.2145 13.125 11.25V48.75C13.125 49.7855 13.9645 50.625 15 50.625H24.375C25.4105 50.625 26.25 49.7855 26.25 48.75V11.25C26.25 10.2145 25.4105 9.375 24.375 9.375Z" stroke="#09B778" stroke-width="2" stroke-linecap="round" stroke-linejoin="round"/>
</svg>
