<svg width="20" height="20" viewBox="0 0 20 20" fill="none" xmlns="http://www.w3.org/2000/svg">
<g clip-path="url(#clip0_1_617)">
<path d="M19.7559 0.244233C19.5996 0.088007 19.3877 0.000244141 19.1667 0.000244141C18.9458 0.000244141 18.7338 0.088007 18.5776 0.244233L10.0001 8.82173L1.42257 0.244233C1.26629 0.088007 1.05437 0.000244141 0.833399 0.000244141C0.612429 0.000244141 0.400506 0.088007 0.244233 0.244233C0.088007 0.400506 0.000244141 0.612429 0.000244141 0.833399C0.000244141 1.05437 0.088007 1.26629 0.244233 1.42257L8.82173 10.0001L0.244233 18.5776C0.088007 18.7338 0.000244141 18.9458 0.000244141 19.1667C0.000244141 19.3877 0.088007 19.5996 0.244233 19.7559C0.400506 19.9121 0.612429 19.9999 0.833399 19.9999C1.05437 19.9999 1.26629 19.9121 1.42257 19.7559L10.0001 11.1784L18.5776 19.7559C18.7338 19.9121 18.9458 19.9999 19.1667 19.9999C19.3877 19.9999 19.5996 19.9121 19.7559 19.7559C19.9121 19.5996 19.9999 19.3877 19.9999 19.1667C19.9999 18.9458 19.9121 18.7338 19.7559 18.5776L11.1784 10.0001L19.7559 1.42257C19.9121 1.26629 19.9999 1.05437 19.9999 0.833399C19.9999 0.612429 19.9121 0.400506 19.7559 0.244233Z" fill="#E90808"/>
</g>
<defs>
<clipPath id="clip0_1_617">
<rect width="20" height="20" fill="white"/>
</clipPath>
</defs>
</svg>
