<svg width="60" height="60" viewBox="0 0 60 60" fill="none" xmlns="http://www.w3.org/2000/svg">
<path d="M52.5 41.5547V18.4453C52.4982 18.1115 52.4084 17.7841 52.2397 17.496C52.071 17.208 51.8293 16.9695 51.5391 16.8047L30.9141 5.20311C30.6362 5.04266 30.3209 4.95819 30 4.95819C29.6791 4.95819 29.3638 5.04266 29.0859 5.20311L8.46094 16.8047C8.17067 16.9695 7.92899 17.208 7.76028 17.496C7.59157 17.7841 7.50179 18.1115 7.5 18.4453V41.5547C7.50179 41.8885 7.59157 42.2159 7.76028 42.504C7.92899 42.792 8.17067 43.0305 8.46094 43.1953L29.0859 54.7969C29.3638 54.9573 29.6791 55.0418 30 55.0418C30.3209 55.0418 30.6362 54.9573 30.9141 54.7969L51.5391 43.1953C51.8293 43.0305 52.071 42.792 52.2397 42.504C52.4084 42.2159 52.4982 41.8885 52.5 41.5547V41.5547Z" stroke="#09B778" stroke-width="2" stroke-linecap="round" stroke-linejoin="round"/>
<path d="M52.2422 17.4844L30.2109 30L7.75781 17.4844" stroke="#09B778" stroke-width="2" stroke-linecap="round" stroke-linejoin="round"/>
<path d="M30.2109 30L30 55.0313" stroke="#09B778" stroke-width="2" stroke-linecap="round" stroke-linejoin="round"/>
</svg>
