<svg width="60" height="60" viewBox="0 0 60 60" fill="none" xmlns="http://www.w3.org/2000/svg">
<path d="M7.5 24.375H18.75V48.75H7.5C7.00272 48.75 6.52581 48.5525 6.17417 48.2008C5.82254 47.8492 5.625 47.3723 5.625 46.875V26.25C5.625 25.7527 5.82254 25.2758 6.17417 24.9242C6.52581 24.5725 7.00272 24.375 7.5 24.375V24.375Z" stroke="#F73665" stroke-width="2" stroke-linecap="round" stroke-linejoin="round"/>
<path d="M18.75 24.375L28.125 5.625C30.1141 5.625 32.0218 6.41518 33.4283 7.8217C34.8348 9.22822 35.625 11.1359 35.625 13.125V18.75H50.1328C50.6645 18.7487 51.1904 18.8612 51.675 19.0799C52.1597 19.2987 52.5919 19.6186 52.9427 20.0182C53.2935 20.4178 53.5547 20.8879 53.7087 21.3968C53.8628 21.9057 53.9062 22.4417 53.8359 22.9688L51.0234 45.4688C50.9096 46.372 50.4712 47.203 49.7898 47.8067C49.1084 48.4105 48.2307 48.7458 47.3203 48.75H18.75" stroke="#F73665" stroke-width="2" stroke-linecap="round" stroke-linejoin="round"/>
</svg>
