<svg width="60" height="60" viewBox="0 0 60 60" fill="none" xmlns="http://www.w3.org/2000/svg">
<path d="M8.60159 40.5468L14.2735 8.41404C14.3131 8.17152 14.4006 7.93932 14.5309 7.73097C14.6612 7.52262 14.8317 7.34229 15.0324 7.2005C15.2331 7.0587 15.46 6.95827 15.6999 6.90507C15.9398 6.85186 16.1879 6.84694 16.4297 6.8906L29.3672 9.16403C29.856 9.25543 30.2895 9.53498 30.5743 9.94257C30.8592 10.3502 30.9728 10.8533 30.8907 11.3437L25.1953 43.664C24.8053 45.8403 23.5789 47.7775 21.7786 49.0609C19.9782 50.3444 17.7471 50.8721 15.5625 50.5312C10.8985 49.7812 7.78128 45.2109 8.60159 40.5468Z" stroke="#DD7719" stroke-width="2" stroke-linecap="round" stroke-linejoin="round"/>
<path d="M27.7266 29.25L44.8125 23.0391C45.0448 22.9533 45.2918 22.9144 45.5392 22.9246C45.7866 22.9348 46.0295 22.9939 46.254 23.0985C46.4784 23.2031 46.6799 23.3511 46.8469 23.534C47.0138 23.7169 47.1428 23.931 47.2266 24.1641L51.7266 36.4922C51.8925 36.9585 51.8674 37.4715 51.6567 37.9193C51.4459 38.3671 51.0666 38.7135 50.6016 38.8828L19.7578 50.1094" stroke="#DD7719" stroke-width="2" stroke-linecap="round" stroke-linejoin="round"/>
<path d="M51.5625 38.0859V48.75C51.5625 49.2473 51.365 49.7242 51.0133 50.0758C50.6617 50.4275 50.1848 50.625 49.6875 50.625H16.875" stroke="#DD7719" stroke-width="2" stroke-linecap="round" stroke-linejoin="round"/>
<path d="M16.875 45C18.4283 45 19.6875 43.7408 19.6875 42.1875C19.6875 40.6342 18.4283 39.375 16.875 39.375C15.3217 39.375 14.0625 40.6342 14.0625 42.1875C14.0625 43.7408 15.3217 45 16.875 45Z" fill="#DD7719"/>
</svg>
