<svg width="60" height="60" viewBox="0 0 60 60" fill="none" xmlns="http://www.w3.org/2000/svg">
<path d="M22.0547 43.2656C19.3828 51.2109 8.78906 51.2109 8.78906 51.2109C8.78906 51.2109 8.78906 40.6172 16.7344 37.9453" stroke="#0066FF" stroke-width="2" stroke-linecap="round" stroke-linejoin="round"/>
<path d="M45.9141 24.7031L30 40.6172L19.3828 30L35.2969 14.0859C41.3203 8.0625 47.3438 8.13281 49.9219 8.50781C50.3197 8.56088 50.689 8.7434 50.9728 9.0272C51.2566 9.311 51.4391 9.6803 51.4922 10.0781C51.8672 12.6562 51.9375 18.6797 45.9141 24.7031Z" stroke="#0066FF" stroke-width="2" stroke-linecap="round" stroke-linejoin="round"/>
<path d="M43.2656 27.3516V42.4922C43.2586 42.9868 43.0564 43.4585 42.7031 43.8047L35.1328 51.3984C34.8926 51.6383 34.5918 51.8085 34.2625 51.8909C33.9332 51.9732 33.5877 51.9646 33.2629 51.8659C32.9381 51.7673 32.6461 51.5823 32.4182 51.3307C32.1903 51.0792 32.0349 50.7704 31.9687 50.4375L30 40.6172" stroke="#0066FF" stroke-width="2" stroke-linecap="round" stroke-linejoin="round"/>
<path d="M32.6484 16.7344H17.5078C17.0133 16.7414 16.5415 16.9436 16.1953 17.2969L8.60157 24.8672C8.36168 25.1074 8.19148 25.4082 8.10915 25.7375C8.02681 26.0668 8.03543 26.4123 8.13408 26.7371C8.23272 27.0619 8.4177 27.3539 8.66927 27.5818C8.92084 27.8097 9.22957 27.965 9.56251 28.0312L19.3828 30" stroke="#0066FF" stroke-width="2" stroke-linecap="round" stroke-linejoin="round"/>
</svg>
