<svg width="1982" height="510" viewBox="0 0 1982 510" fill="none" xmlns="http://www.w3.org/2000/svg">
<path d="M27 33.5231C62.1701 216.172 211.121 350.803 387.023 235.728C562.924 120.652 551.417 71.3335 666.492 33.5231C781.568 -4.28726 871.985 63.113 957.47 184.766C1042.95 306.418 1194.2 347.514 1343.8 184.766C1493.39 22.0166 1624.91 77.9105 1721.9 150.244C1818.89 222.577 1814.54 361.81 1980 314.638" stroke="url(#paint0_linear_119_136)"/>
<path d="M20.2566 58.2041C59.8772 239.939 212.072 370.893 385.11 251.555C558.149 132.218 545.44 83.1951 659.558 42.5855C773.676 1.97582 865.712 67.1476 954.143 186.676C1042.57 306.205 1194.77 343.595 1340.35 177.241C1485.93 10.8866 1618.77 63.5518 1717.5 133.495C1816.23 203.438 1815.28 342.735 1979.54 291.536" stroke="url(#paint1_linear_119_136)"/>
<path d="M11.2566 71.2041C50.8772 252.939 203.072 383.893 376.11 264.555C549.149 145.218 536.44 96.1951 650.558 55.5855C764.676 14.9758 856.712 80.1476 945.143 199.676C1033.57 319.205 1185.77 356.595 1331.35 190.241C1476.93 23.8866 1609.77 76.5518 1708.5 146.495C1807.23 216.438 1806.28 355.735 1970.54 304.536" stroke="url(#paint2_linear_119_136)"/>
<path d="M27 56.5231C62.1701 239.172 211.121 373.803 387.023 258.728C562.924 143.652 551.417 94.3335 666.492 56.5231C781.568 18.7127 871.985 86.113 957.47 207.766C1042.95 329.418 1194.2 370.514 1343.8 207.766C1493.39 45.0166 1624.91 100.911 1721.9 173.244C1818.89 245.577 1814.54 384.81 1980 337.638" stroke="url(#paint3_linear_119_136)"/>
<path d="M20.2566 81.2041C59.8772 262.939 212.072 393.893 385.11 274.555C558.149 155.218 545.44 106.195 659.558 65.5855C773.676 24.9758 865.712 90.1476 954.143 209.676C1042.57 329.205 1194.77 366.595 1340.35 200.241C1485.93 33.8866 1618.77 86.5518 1717.5 156.495C1816.23 226.438 1815.28 365.735 1979.54 314.536" stroke="url(#paint4_linear_119_136)"/>
<path d="M11.2566 94.2041C50.8772 275.939 203.072 406.893 376.11 287.555C549.149 168.218 536.44 119.195 650.558 78.5855C764.676 37.9758 856.712 103.148 945.143 222.676C1033.57 342.205 1185.77 379.595 1331.35 213.241C1476.93 46.8866 1609.77 99.5518 1708.5 169.495C1807.23 239.438 1806.28 378.735 1970.54 327.536" stroke="url(#paint5_linear_119_136)"/>
<path d="M1960 356.255C1924.83 173.606 1775.88 38.9749 1599.98 154.051C1424.08 269.126 1435.58 318.445 1320.51 356.255C1205.43 394.066 1115.02 326.665 1029.53 205.013C944.045 83.3602 792.803 42.2638 643.205 205.013C493.606 367.762 362.091 311.868 265.099 239.534C168.106 167.201 172.462 27.9684 7.00002 75.1405" stroke="url(#paint6_linear_119_136)"/>
<path d="M1966.74 331.574C1927.12 149.839 1774.93 18.8855 1601.89 138.223C1428.85 257.561 1441.56 306.583 1327.44 347.193C1213.32 387.803 1121.29 322.631 1032.86 203.102C944.427 83.5738 792.226 46.1835 646.647 212.538C501.068 378.892 368.227 326.227 269.497 256.284C170.767 186.341 171.72 47.0432 7.46021 98.2424" stroke="url(#paint7_linear_119_136)"/>
<path d="M1975.74 318.574C1936.12 136.839 1783.93 5.88548 1610.89 125.223C1437.85 244.561 1450.56 293.583 1336.44 334.193C1222.32 374.803 1130.29 309.631 1041.86 190.102C953.427 70.5738 801.226 33.1835 655.647 199.538C510.068 365.892 377.227 313.227 278.497 243.284C179.767 173.341 180.72 34.0432 16.4602 85.2424" stroke="url(#paint8_linear_119_136)"/>
<path d="M1960 333.255C1924.83 150.606 1775.88 15.9749 1599.98 131.051C1424.08 246.126 1435.58 295.445 1320.51 333.255C1205.43 371.066 1115.02 303.665 1029.53 182.013C944.045 60.3602 792.803 19.2638 643.205 182.013C493.606 344.762 362.091 288.868 265.099 216.534C168.106 144.201 172.462 4.96839 7.00002 52.1405" stroke="url(#paint9_linear_119_136)"/>
<path d="M1966.74 308.574C1927.12 126.839 1774.93 -4.11452 1601.89 115.223C1428.85 234.561 1441.56 283.583 1327.44 324.193C1213.32 364.803 1121.29 299.631 1032.86 180.102C944.427 60.5738 792.226 23.1835 646.647 189.538C501.068 355.892 368.227 303.227 269.497 233.284C170.767 163.341 171.72 24.0432 7.46021 75.2424" stroke="url(#paint10_linear_119_136)"/>
<path d="M1975.74 295.574C1936.12 113.839 1783.93 -17.1145 1610.89 102.223C1437.85 221.561 1450.56 270.583 1336.44 311.193C1222.32 351.803 1130.29 286.631 1041.86 167.102C953.427 47.5738 801.226 10.1835 655.647 176.538C510.068 342.892 377.227 290.227 278.497 220.284C179.767 150.341 180.72 11.0432 16.4602 62.2424" stroke="url(#paint11_linear_119_136)"/>
<path d="M21 79.5231C56.1701 262.172 205.121 396.803 381.023 281.728C556.924 166.652 545.417 117.333 660.492 79.5231C775.568 41.7127 865.985 109.113 951.47 230.766C1036.95 352.418 1188.2 393.514 1337.8 230.766C1487.39 68.0166 1618.91 123.911 1715.9 196.244C1812.89 268.577 1808.54 407.81 1974 360.638" stroke="url(#paint12_linear_119_136)"/>
<path d="M14.2566 104.204C53.8772 285.939 206.072 416.893 379.11 297.555C552.149 178.218 539.44 129.195 653.558 88.5855C767.676 47.9758 859.712 113.148 948.143 232.676C1036.57 352.205 1188.77 389.595 1334.35 223.241C1479.93 56.8866 1612.77 109.552 1711.5 179.495C1810.23 249.438 1809.28 388.735 1973.54 337.536" stroke="url(#paint13_linear_119_136)"/>
<path d="M5.25664 117.204C44.8772 298.939 197.072 429.893 370.11 310.555C543.149 191.218 530.44 142.195 644.558 101.585C758.676 60.9758 850.712 126.148 939.143 245.676C1027.57 365.205 1179.77 402.595 1325.35 236.241C1470.93 69.8866 1603.77 122.552 1702.5 192.495C1801.23 262.438 1800.28 401.735 1964.54 350.536" stroke="url(#paint14_linear_119_136)"/>
<path d="M21 102.523C56.1701 285.172 205.121 419.803 381.023 304.728C556.924 189.652 545.417 140.333 660.492 102.523C775.568 64.7127 865.985 132.113 951.47 253.766C1036.95 375.418 1188.2 416.514 1337.8 253.766C1487.39 91.0166 1618.91 146.911 1715.9 219.244C1812.89 291.577 1808.54 430.81 1974 383.638" stroke="url(#paint15_linear_119_136)"/>
<path d="M14.2566 127.204C53.8772 308.939 206.072 439.893 379.11 320.555C552.149 201.218 539.44 152.195 653.558 111.585C767.676 70.9758 859.712 136.148 948.143 255.676C1036.57 375.205 1188.77 412.595 1334.35 246.241C1479.93 79.8866 1612.77 132.552 1711.5 202.495C1810.23 272.438 1809.28 411.735 1973.54 360.536" stroke="url(#paint16_linear_119_136)"/>
<path d="M5.25664 140.204C44.8772 321.939 197.072 452.893 370.11 333.555C543.149 214.218 530.44 165.195 644.558 124.585C758.676 83.9758 850.712 149.148 939.143 268.676C1027.57 388.205 1179.77 425.595 1325.35 259.241C1470.93 92.8866 1603.77 145.552 1702.5 215.495C1801.23 285.438 1800.28 424.735 1964.54 373.536" stroke="url(#paint17_linear_119_136)"/>
<path d="M1954 402.255C1918.83 219.606 1769.88 84.9749 1593.98 200.051C1418.08 315.126 1429.58 364.445 1314.51 402.255C1199.43 440.066 1109.02 372.665 1023.53 251.013C938.045 129.36 786.803 88.2638 637.205 251.013C487.606 413.762 356.091 357.868 259.099 285.534C162.106 213.201 166.462 73.9684 1.00002 121.141" stroke="url(#paint18_linear_119_136)"/>
<path d="M1960.74 377.574C1921.12 195.839 1768.93 64.8855 1595.89 184.223C1422.85 303.561 1435.56 352.583 1321.44 393.193C1207.32 433.803 1115.29 368.631 1026.86 249.102C938.427 129.574 786.226 92.1835 640.647 258.538C495.068 424.892 362.227 372.227 263.497 302.284C164.767 232.341 165.72 93.0432 1.46021 144.242" stroke="url(#paint19_linear_119_136)"/>
<path d="M1969.74 364.574C1930.12 182.839 1777.93 51.8855 1604.89 171.223C1431.85 290.561 1444.56 339.583 1330.44 380.193C1216.32 420.803 1124.29 355.631 1035.86 236.102C947.427 116.574 795.226 79.1835 649.647 245.538C504.068 411.892 371.227 359.227 272.497 289.284C173.767 219.341 174.72 80.0432 10.4602 131.242" stroke="url(#paint20_linear_119_136)"/>
<path d="M1954 379.255C1918.83 196.606 1769.88 61.9749 1593.98 177.051C1418.08 292.126 1429.58 341.445 1314.51 379.255C1199.43 417.066 1109.02 349.665 1023.53 228.013C938.045 106.36 786.803 65.2638 637.205 228.013C487.606 390.762 356.091 334.868 259.099 262.534C162.106 190.201 166.462 50.9684 1.00002 98.1405" stroke="url(#paint21_linear_119_136)"/>
<path d="M1960.74 354.574C1921.12 172.839 1768.93 41.8855 1595.89 161.223C1422.85 280.561 1435.56 329.583 1321.44 370.193C1207.32 410.803 1115.29 345.631 1026.86 226.102C938.427 106.574 786.226 69.1835 640.647 235.538C495.068 401.892 362.227 349.227 263.497 279.284C164.767 209.341 165.72 70.0432 1.46021 121.242" stroke="url(#paint22_linear_119_136)"/>
<path d="M1969.74 341.574C1930.12 159.839 1777.93 28.8855 1604.89 148.223C1431.85 267.561 1444.56 316.583 1330.44 357.193C1216.32 397.803 1124.29 332.631 1035.86 213.102C947.427 93.5738 795.226 56.1835 649.647 222.538C504.068 388.892 371.227 336.227 272.497 266.284C173.767 196.341 174.72 57.0432 10.4602 108.242" stroke="url(#paint23_linear_119_136)"/>
<path d="M28 107.523C63.1701 290.172 212.121 424.803 388.023 309.728C563.924 194.652 552.417 145.333 667.492 107.523C782.568 69.7127 872.985 137.113 958.47 258.766C1043.95 380.418 1195.2 421.514 1344.8 258.766C1494.39 96.0166 1625.91 151.911 1722.9 224.244C1819.89 296.577 1815.54 435.81 1981 388.638" stroke="url(#paint24_linear_119_136)"/>
<path d="M21.2566 132.204C60.8772 313.939 213.072 444.893 386.11 325.555C559.149 206.218 546.44 157.195 660.558 116.585C774.676 75.9758 866.712 141.148 955.143 260.676C1043.57 380.205 1195.77 417.595 1341.35 251.241C1486.93 84.8866 1619.77 137.552 1718.5 207.495C1817.23 277.438 1816.28 416.735 1980.54 365.536" stroke="url(#paint25_linear_119_136)"/>
<path d="M12.2566 145.204C51.8772 326.939 204.072 457.893 377.11 338.555C550.149 219.218 537.44 170.195 651.558 129.585C765.676 88.9758 857.712 154.148 946.143 273.676C1034.57 393.205 1186.77 430.595 1332.35 264.241C1477.93 97.8866 1610.77 150.552 1709.5 220.495C1808.23 290.438 1807.28 429.735 1971.54 378.536" stroke="url(#paint26_linear_119_136)"/>
<path d="M28 130.523C63.1701 313.172 212.121 447.803 388.023 332.728C563.924 217.652 552.417 168.333 667.492 130.523C782.568 92.7127 872.985 160.113 958.47 281.766C1043.95 403.418 1195.2 444.514 1344.8 281.766C1494.39 119.017 1625.91 174.911 1722.9 247.244C1819.89 319.577 1815.54 458.81 1981 411.638" stroke="url(#paint27_linear_119_136)"/>
<path d="M21.2566 155.204C60.8772 336.939 213.072 467.893 386.11 348.555C559.149 229.218 546.44 180.195 660.558 139.585C774.676 98.9758 866.712 164.148 955.143 283.676C1043.57 403.205 1195.77 440.595 1341.35 274.241C1486.93 107.887 1619.77 160.552 1718.5 230.495C1817.23 300.438 1816.28 439.735 1980.54 388.536" stroke="url(#paint28_linear_119_136)"/>
<path d="M12.2566 168.204C51.8772 349.939 204.072 480.893 377.11 361.555C550.149 242.218 537.44 193.195 651.558 152.585C765.676 111.976 857.712 177.148 946.143 296.676C1034.57 416.205 1186.77 453.595 1332.35 287.241C1477.93 120.887 1610.77 173.552 1709.5 243.495C1808.23 313.438 1807.28 452.735 1971.54 401.536" stroke="url(#paint29_linear_119_136)"/>
<path d="M1961 430.255C1925.83 247.606 1776.88 112.975 1600.98 228.051C1425.08 343.126 1436.58 392.445 1321.51 430.255C1206.43 468.066 1116.02 400.665 1030.53 279.013C945.045 157.36 793.803 116.264 644.205 279.013C494.606 441.762 363.091 385.868 266.099 313.534C169.106 241.201 173.462 101.968 8.00002 149.141" stroke="url(#paint30_linear_119_136)"/>
<path d="M1967.74 405.574C1928.12 223.839 1775.93 92.8855 1602.89 212.223C1429.85 331.561 1442.56 380.583 1328.44 421.193C1214.32 461.803 1122.29 396.631 1033.86 277.102C945.427 157.574 793.226 120.184 647.647 286.538C502.068 452.892 369.227 400.227 270.497 330.284C171.767 260.341 172.72 121.043 8.46021 172.242" stroke="url(#paint31_linear_119_136)"/>
<path d="M1976.74 392.574C1937.12 210.839 1784.93 79.8855 1611.89 199.223C1438.85 318.561 1451.56 367.583 1337.44 408.193C1223.32 448.803 1131.29 383.631 1042.86 264.102C954.427 144.574 802.226 107.184 656.647 273.538C511.068 439.892 378.227 387.227 279.497 317.284C180.767 247.341 181.72 108.043 17.4602 159.242" stroke="url(#paint32_linear_119_136)"/>
<path d="M1961 407.255C1925.83 224.606 1776.88 89.9749 1600.98 205.051C1425.08 320.126 1436.58 369.445 1321.51 407.255C1206.43 445.066 1116.02 377.665 1030.53 256.013C945.045 134.36 793.803 93.2638 644.205 256.013C494.606 418.762 363.091 362.868 266.099 290.534C169.106 218.201 173.462 78.9684 8.00002 126.141" stroke="url(#paint33_linear_119_136)"/>
<path d="M1967.74 382.574C1928.12 200.839 1775.93 69.8855 1602.89 189.223C1429.85 308.561 1442.56 357.583 1328.44 398.193C1214.32 438.803 1122.29 373.631 1033.86 254.102C945.427 134.574 793.226 97.1835 647.647 263.538C502.068 429.892 369.227 377.227 270.497 307.284C171.767 237.341 172.72 98.0432 8.46021 149.242" stroke="url(#paint34_linear_119_136)"/>
<path d="M1976.74 369.574C1937.12 187.839 1784.93 56.8855 1611.89 176.223C1438.85 295.561 1451.56 344.583 1337.44 385.193C1223.32 425.803 1131.29 360.631 1042.86 241.102C954.427 121.574 802.226 84.1835 656.647 250.538C511.068 416.892 378.227 364.227 279.497 294.284C180.767 224.341 181.72 85.0432 17.4602 136.242" stroke="url(#paint35_linear_119_136)"/>
<path d="M22 153.523C57.1701 336.172 206.121 470.803 382.023 355.728C557.924 240.652 546.417 191.333 661.492 153.523C776.568 115.713 866.985 183.113 952.47 304.766C1037.95 426.418 1189.2 467.514 1338.8 304.766C1488.39 142.017 1619.91 197.911 1716.9 270.244C1813.89 342.577 1809.54 481.81 1975 434.638" stroke="url(#paint36_linear_119_136)"/>
<path d="M15.2566 178.204C54.8772 359.939 207.072 490.893 380.11 371.555C553.149 252.218 540.44 203.195 654.558 162.585C768.676 121.976 860.712 187.148 949.143 306.676C1037.57 426.205 1189.77 463.595 1335.35 297.241C1480.93 130.887 1613.77 183.552 1712.5 253.495C1811.23 323.438 1810.28 462.735 1974.54 411.536" stroke="url(#paint37_linear_119_136)"/>
<path d="M6.25664 191.204C45.8772 372.939 198.072 503.893 371.11 384.555C544.149 265.218 531.44 216.195 645.558 175.585C759.676 134.976 851.712 200.148 940.143 319.676C1028.57 439.205 1180.77 476.595 1326.35 310.241C1471.93 143.887 1604.77 196.552 1703.5 266.495C1802.23 336.438 1801.28 475.735 1965.54 424.536" stroke="url(#paint38_linear_119_136)"/>
<path d="M22 176.523C57.1701 359.172 206.121 493.803 382.023 378.728C557.924 263.652 546.417 214.333 661.492 176.523C776.568 138.713 866.985 206.113 952.47 327.766C1037.95 449.418 1189.2 490.514 1338.8 327.766C1488.39 165.017 1619.91 220.911 1716.9 293.244C1813.89 365.577 1809.54 504.81 1975 457.638" stroke="url(#paint39_linear_119_136)"/>
<path d="M15.2566 201.204C54.8772 382.939 207.072 513.893 380.11 394.555C553.149 275.218 540.44 226.195 654.558 185.585C768.676 144.976 860.712 210.148 949.143 329.676C1037.57 449.205 1189.77 486.595 1335.35 320.241C1480.93 153.887 1613.77 206.552 1712.5 276.495C1811.23 346.438 1810.28 485.735 1974.54 434.536" stroke="url(#paint40_linear_119_136)"/>
<path d="M6.25664 214.204C45.8772 395.939 198.072 526.893 371.11 407.555C544.149 288.218 531.44 239.195 645.558 198.585C759.676 157.976 851.712 223.148 940.143 342.676C1028.57 462.205 1180.77 499.595 1326.35 333.241C1471.93 166.887 1604.77 219.552 1703.5 289.495C1802.23 359.438 1801.28 498.735 1965.54 447.536" stroke="url(#paint41_linear_119_136)"/>
<path d="M1955 476.255C1919.83 293.606 1770.88 158.975 1594.98 274.051C1419.08 389.126 1430.58 438.445 1315.51 476.255C1200.43 514.066 1110.02 446.665 1024.53 325.013C939.045 203.36 787.803 162.264 638.205 325.013C488.606 487.762 357.091 431.868 260.099 359.534C163.106 287.201 167.462 147.968 2.00002 195.141" stroke="url(#paint42_linear_119_136)"/>
<path d="M1961.74 451.574C1922.12 269.839 1769.93 138.885 1596.89 258.223C1423.85 377.561 1436.56 426.583 1322.44 467.193C1208.32 507.803 1116.29 442.631 1027.86 323.102C939.427 203.574 787.226 166.184 641.647 332.538C496.068 498.892 363.227 446.227 264.497 376.284C165.767 306.341 166.72 167.043 2.46021 218.242" stroke="url(#paint43_linear_119_136)"/>
<path d="M1970.74 438.574C1931.12 256.839 1778.93 125.885 1605.89 245.223C1432.85 364.561 1445.56 413.583 1331.44 454.193C1217.32 494.803 1125.29 429.631 1036.86 310.102C948.427 190.574 796.226 153.184 650.647 319.538C505.068 485.892 372.227 433.227 273.497 363.284C174.767 293.341 175.72 154.043 11.4602 205.242" stroke="url(#paint44_linear_119_136)"/>
<path d="M1955 453.255C1919.83 270.606 1770.88 135.975 1594.98 251.051C1419.08 366.126 1430.58 415.445 1315.51 453.255C1200.43 491.066 1110.02 423.665 1024.53 302.013C939.045 180.36 787.803 139.264 638.205 302.013C488.606 464.762 357.091 408.868 260.099 336.534C163.106 264.201 167.462 124.968 2.00002 172.141" stroke="url(#paint45_linear_119_136)"/>
<path d="M1961.74 428.574C1922.12 246.839 1769.93 115.885 1596.89 235.223C1423.85 354.561 1436.56 403.583 1322.44 444.193C1208.32 484.803 1116.29 419.631 1027.86 300.102C939.427 180.574 787.226 143.184 641.647 309.538C496.068 475.892 363.227 423.227 264.497 353.284C165.767 283.341 166.72 144.043 2.46021 195.242" stroke="url(#paint46_linear_119_136)"/>
<path d="M1970.74 415.574C1931.12 233.839 1778.93 102.885 1605.89 222.223C1432.85 341.561 1445.56 390.583 1331.44 431.193C1217.32 471.803 1125.29 406.631 1036.86 287.102C948.427 167.574 796.226 130.184 650.647 296.538C505.068 462.892 372.227 410.227 273.497 340.284C174.767 270.341 175.72 131.043 11.4602 182.242" stroke="url(#paint47_linear_119_136)"/>
<defs>
<linearGradient id="paint0_linear_119_136" x1="1003.5" y1="23.0151" x2="1003.5" y2="324.185" gradientUnits="userSpaceOnUse">
<stop stop-color="#D1E4FF"/>
<stop offset="1" stop-color="#C39EF3" stop-opacity="0.28"/>
</linearGradient>
<linearGradient id="paint1_linear_119_136" x1="996.209" y1="23.8497" x2="1003.56" y2="324.929" gradientUnits="userSpaceOnUse">
<stop stop-color="#D1E4FF"/>
<stop offset="1" stop-color="#C39EF3" stop-opacity="0.28"/>
</linearGradient>
<linearGradient id="paint2_linear_119_136" x1="987.209" y1="36.8497" x2="994.564" y2="337.929" gradientUnits="userSpaceOnUse">
<stop stop-color="#D1E4FF"/>
<stop offset="1" stop-color="#C39EF3" stop-opacity="0.28"/>
</linearGradient>
<linearGradient id="paint3_linear_119_136" x1="1003.5" y1="46.0151" x2="1003.5" y2="347.185" gradientUnits="userSpaceOnUse">
<stop stop-color="#D1E4FF"/>
<stop offset="1" stop-color="#C39EF3" stop-opacity="0.28"/>
</linearGradient>
<linearGradient id="paint4_linear_119_136" x1="996.209" y1="46.8497" x2="1003.56" y2="347.929" gradientUnits="userSpaceOnUse">
<stop stop-color="#D1E4FF"/>
<stop offset="1" stop-color="#C39EF3" stop-opacity="0.28"/>
</linearGradient>
<linearGradient id="paint5_linear_119_136" x1="987.209" y1="59.8497" x2="994.564" y2="360.929" gradientUnits="userSpaceOnUse">
<stop stop-color="#D1E4FF"/>
<stop offset="1" stop-color="#C39EF3" stop-opacity="0.28"/>
</linearGradient>
<linearGradient id="paint6_linear_119_136" x1="983.5" y1="366.763" x2="983.5" y2="65.5938" gradientUnits="userSpaceOnUse">
<stop stop-color="#D1E4FF"/>
<stop offset="1" stop-color="#C39EF3" stop-opacity="0.28"/>
</linearGradient>
<linearGradient id="paint7_linear_119_136" x1="990.791" y1="365.929" x2="983.436" y2="64.849" gradientUnits="userSpaceOnUse">
<stop stop-color="#D1E4FF"/>
<stop offset="1" stop-color="#C39EF3" stop-opacity="0.28"/>
</linearGradient>
<linearGradient id="paint8_linear_119_136" x1="999.791" y1="352.929" x2="992.436" y2="51.849" gradientUnits="userSpaceOnUse">
<stop stop-color="#D1E4FF"/>
<stop offset="1" stop-color="#C39EF3" stop-opacity="0.28"/>
</linearGradient>
<linearGradient id="paint9_linear_119_136" x1="983.5" y1="343.763" x2="983.5" y2="42.5938" gradientUnits="userSpaceOnUse">
<stop stop-color="#D1E4FF"/>
<stop offset="1" stop-color="#C39EF3" stop-opacity="0.28"/>
</linearGradient>
<linearGradient id="paint10_linear_119_136" x1="990.791" y1="342.929" x2="983.436" y2="41.849" gradientUnits="userSpaceOnUse">
<stop stop-color="#D1E4FF"/>
<stop offset="1" stop-color="#C39EF3" stop-opacity="0.28"/>
</linearGradient>
<linearGradient id="paint11_linear_119_136" x1="999.791" y1="329.929" x2="992.436" y2="28.849" gradientUnits="userSpaceOnUse">
<stop stop-color="#D1E4FF"/>
<stop offset="1" stop-color="#C39EF3" stop-opacity="0.28"/>
</linearGradient>
<linearGradient id="paint12_linear_119_136" x1="997.5" y1="69.0151" x2="997.5" y2="370.185" gradientUnits="userSpaceOnUse">
<stop stop-color="#D1E4FF"/>
<stop offset="1" stop-color="#C39EF3" stop-opacity="0.28"/>
</linearGradient>
<linearGradient id="paint13_linear_119_136" x1="990.209" y1="69.8497" x2="997.564" y2="370.929" gradientUnits="userSpaceOnUse">
<stop stop-color="#D1E4FF"/>
<stop offset="1" stop-color="#C39EF3" stop-opacity="0.28"/>
</linearGradient>
<linearGradient id="paint14_linear_119_136" x1="981.209" y1="82.8497" x2="988.564" y2="383.929" gradientUnits="userSpaceOnUse">
<stop stop-color="#D1E4FF"/>
<stop offset="1" stop-color="#C39EF3" stop-opacity="0.28"/>
</linearGradient>
<linearGradient id="paint15_linear_119_136" x1="997.5" y1="92.0151" x2="997.5" y2="393.185" gradientUnits="userSpaceOnUse">
<stop stop-color="#D1E4FF"/>
<stop offset="1" stop-color="#C39EF3" stop-opacity="0.28"/>
</linearGradient>
<linearGradient id="paint16_linear_119_136" x1="990.209" y1="92.8497" x2="997.564" y2="393.929" gradientUnits="userSpaceOnUse">
<stop stop-color="#D1E4FF"/>
<stop offset="1" stop-color="#C39EF3" stop-opacity="0.28"/>
</linearGradient>
<linearGradient id="paint17_linear_119_136" x1="981.209" y1="105.85" x2="988.564" y2="406.929" gradientUnits="userSpaceOnUse">
<stop stop-color="#D1E4FF"/>
<stop offset="1" stop-color="#C39EF3" stop-opacity="0.28"/>
</linearGradient>
<linearGradient id="paint18_linear_119_136" x1="977.5" y1="412.763" x2="977.5" y2="111.594" gradientUnits="userSpaceOnUse">
<stop stop-color="#D1E4FF"/>
<stop offset="1" stop-color="#C39EF3" stop-opacity="0.28"/>
</linearGradient>
<linearGradient id="paint19_linear_119_136" x1="984.791" y1="411.929" x2="977.436" y2="110.849" gradientUnits="userSpaceOnUse">
<stop stop-color="#D1E4FF"/>
<stop offset="1" stop-color="#C39EF3" stop-opacity="0.28"/>
</linearGradient>
<linearGradient id="paint20_linear_119_136" x1="993.791" y1="398.929" x2="986.436" y2="97.849" gradientUnits="userSpaceOnUse">
<stop stop-color="#D1E4FF"/>
<stop offset="1" stop-color="#C39EF3" stop-opacity="0.28"/>
</linearGradient>
<linearGradient id="paint21_linear_119_136" x1="977.5" y1="389.763" x2="977.5" y2="88.5938" gradientUnits="userSpaceOnUse">
<stop stop-color="#D1E4FF"/>
<stop offset="1" stop-color="#C39EF3" stop-opacity="0.28"/>
</linearGradient>
<linearGradient id="paint22_linear_119_136" x1="984.791" y1="388.929" x2="977.436" y2="87.849" gradientUnits="userSpaceOnUse">
<stop stop-color="#D1E4FF"/>
<stop offset="1" stop-color="#C39EF3" stop-opacity="0.28"/>
</linearGradient>
<linearGradient id="paint23_linear_119_136" x1="993.791" y1="375.929" x2="986.436" y2="74.849" gradientUnits="userSpaceOnUse">
<stop stop-color="#D1E4FF"/>
<stop offset="1" stop-color="#C39EF3" stop-opacity="0.28"/>
</linearGradient>
<linearGradient id="paint24_linear_119_136" x1="1004.5" y1="97.0151" x2="1004.5" y2="398.185" gradientUnits="userSpaceOnUse">
<stop stop-color="#D1E4FF"/>
<stop offset="1" stop-color="#C39EF3" stop-opacity="0.28"/>
</linearGradient>
<linearGradient id="paint25_linear_119_136" x1="997.209" y1="97.8497" x2="1004.56" y2="398.929" gradientUnits="userSpaceOnUse">
<stop stop-color="#D1E4FF"/>
<stop offset="1" stop-color="#C39EF3" stop-opacity="0.28"/>
</linearGradient>
<linearGradient id="paint26_linear_119_136" x1="988.209" y1="110.85" x2="995.564" y2="411.929" gradientUnits="userSpaceOnUse">
<stop stop-color="#D1E4FF"/>
<stop offset="1" stop-color="#C39EF3" stop-opacity="0.28"/>
</linearGradient>
<linearGradient id="paint27_linear_119_136" x1="1004.5" y1="120.015" x2="1004.5" y2="421.185" gradientUnits="userSpaceOnUse">
<stop stop-color="#D1E4FF"/>
<stop offset="1" stop-color="#C39EF3" stop-opacity="0.28"/>
</linearGradient>
<linearGradient id="paint28_linear_119_136" x1="997.209" y1="120.85" x2="1004.56" y2="421.929" gradientUnits="userSpaceOnUse">
<stop stop-color="#D1E4FF"/>
<stop offset="1" stop-color="#C39EF3" stop-opacity="0.28"/>
</linearGradient>
<linearGradient id="paint29_linear_119_136" x1="988.209" y1="133.85" x2="995.564" y2="434.929" gradientUnits="userSpaceOnUse">
<stop stop-color="#D1E4FF"/>
<stop offset="1" stop-color="#C39EF3" stop-opacity="0.28"/>
</linearGradient>
<linearGradient id="paint30_linear_119_136" x1="984.5" y1="440.763" x2="984.5" y2="139.594" gradientUnits="userSpaceOnUse">
<stop stop-color="#D1E4FF"/>
<stop offset="1" stop-color="#C39EF3" stop-opacity="0.28"/>
</linearGradient>
<linearGradient id="paint31_linear_119_136" x1="991.791" y1="439.929" x2="984.436" y2="138.849" gradientUnits="userSpaceOnUse">
<stop stop-color="#D1E4FF"/>
<stop offset="1" stop-color="#C39EF3" stop-opacity="0.28"/>
</linearGradient>
<linearGradient id="paint32_linear_119_136" x1="1000.79" y1="426.929" x2="993.436" y2="125.849" gradientUnits="userSpaceOnUse">
<stop stop-color="#D1E4FF"/>
<stop offset="1" stop-color="#C39EF3" stop-opacity="0.28"/>
</linearGradient>
<linearGradient id="paint33_linear_119_136" x1="984.5" y1="417.763" x2="984.5" y2="116.594" gradientUnits="userSpaceOnUse">
<stop stop-color="#D1E4FF"/>
<stop offset="1" stop-color="#C39EF3" stop-opacity="0.28"/>
</linearGradient>
<linearGradient id="paint34_linear_119_136" x1="991.791" y1="416.929" x2="984.436" y2="115.849" gradientUnits="userSpaceOnUse">
<stop stop-color="#D1E4FF"/>
<stop offset="1" stop-color="#C39EF3" stop-opacity="0.28"/>
</linearGradient>
<linearGradient id="paint35_linear_119_136" x1="1000.79" y1="403.929" x2="993.436" y2="102.849" gradientUnits="userSpaceOnUse">
<stop stop-color="#D1E4FF"/>
<stop offset="1" stop-color="#C39EF3" stop-opacity="0.28"/>
</linearGradient>
<linearGradient id="paint36_linear_119_136" x1="998.5" y1="143.015" x2="998.5" y2="444.185" gradientUnits="userSpaceOnUse">
<stop stop-color="#D1E4FF"/>
<stop offset="1" stop-color="#C39EF3" stop-opacity="0.28"/>
</linearGradient>
<linearGradient id="paint37_linear_119_136" x1="991.209" y1="143.85" x2="998.564" y2="444.929" gradientUnits="userSpaceOnUse">
<stop stop-color="#D1E4FF"/>
<stop offset="1" stop-color="#C39EF3" stop-opacity="0.28"/>
</linearGradient>
<linearGradient id="paint38_linear_119_136" x1="982.209" y1="156.85" x2="989.564" y2="457.929" gradientUnits="userSpaceOnUse">
<stop stop-color="#D1E4FF"/>
<stop offset="1" stop-color="#C39EF3" stop-opacity="0.28"/>
</linearGradient>
<linearGradient id="paint39_linear_119_136" x1="998.5" y1="166.015" x2="998.5" y2="467.185" gradientUnits="userSpaceOnUse">
<stop stop-color="#D1E4FF"/>
<stop offset="1" stop-color="#C39EF3" stop-opacity="0.28"/>
</linearGradient>
<linearGradient id="paint40_linear_119_136" x1="991.209" y1="166.85" x2="998.564" y2="467.929" gradientUnits="userSpaceOnUse">
<stop stop-color="#D1E4FF"/>
<stop offset="1" stop-color="#C39EF3" stop-opacity="0.28"/>
</linearGradient>
<linearGradient id="paint41_linear_119_136" x1="982.209" y1="179.85" x2="989.564" y2="480.929" gradientUnits="userSpaceOnUse">
<stop stop-color="#D1E4FF"/>
<stop offset="1" stop-color="#C39EF3" stop-opacity="0.28"/>
</linearGradient>
<linearGradient id="paint42_linear_119_136" x1="978.5" y1="486.763" x2="978.5" y2="185.594" gradientUnits="userSpaceOnUse">
<stop stop-color="#D1E4FF"/>
<stop offset="1" stop-color="#C39EF3" stop-opacity="0.28"/>
</linearGradient>
<linearGradient id="paint43_linear_119_136" x1="985.791" y1="485.929" x2="978.436" y2="184.849" gradientUnits="userSpaceOnUse">
<stop stop-color="#D1E4FF"/>
<stop offset="1" stop-color="#C39EF3" stop-opacity="0.28"/>
</linearGradient>
<linearGradient id="paint44_linear_119_136" x1="994.791" y1="472.929" x2="987.436" y2="171.849" gradientUnits="userSpaceOnUse">
<stop stop-color="#D1E4FF"/>
<stop offset="1" stop-color="#C39EF3" stop-opacity="0.28"/>
</linearGradient>
<linearGradient id="paint45_linear_119_136" x1="978.5" y1="463.763" x2="978.5" y2="162.594" gradientUnits="userSpaceOnUse">
<stop stop-color="#D1E4FF"/>
<stop offset="1" stop-color="#C39EF3" stop-opacity="0.28"/>
</linearGradient>
<linearGradient id="paint46_linear_119_136" x1="985.791" y1="462.929" x2="978.436" y2="161.849" gradientUnits="userSpaceOnUse">
<stop stop-color="#D1E4FF"/>
<stop offset="1" stop-color="#C39EF3" stop-opacity="0.28"/>
</linearGradient>
<linearGradient id="paint47_linear_119_136" x1="994.791" y1="449.929" x2="987.436" y2="148.849" gradientUnits="userSpaceOnUse">
<stop stop-color="#D1E4FF"/>
<stop offset="1" stop-color="#C39EF3" stop-opacity="0.28"/>
</linearGradient>
</defs>
</svg>
