<svg width="32" height="32" viewBox="0 0 32 32" fill="none" xmlns="http://www.w3.org/2000/svg">
<path d="M16 16V4" stroke="#2C67EF" stroke-width="2" stroke-linecap="round" stroke-linejoin="round"/>
<path d="M26.3876 10L5.61255 22" stroke="#2C67EF" stroke-width="2" stroke-linecap="round" stroke-linejoin="round"/>
<path d="M4.2 18.2C4.06358 17.4747 3.99661 16.738 4 16C3.99842 13.5182 4.76715 11.0972 6.20009 9.07089C7.63304 7.04461 9.65956 5.51303 12 4.6875V13.6875L4.2 18.2Z" stroke="#2C67EF" stroke-width="2" stroke-linecap="round" stroke-linejoin="round"/>
<path d="M16 4C18.1027 4.00024 20.1685 4.55298 21.9903 5.60287C23.8121 6.65275 25.3261 8.16292 26.3806 9.9821C27.4351 11.8013 27.9931 13.8656 27.9986 15.9683C28.0042 18.071 27.4571 20.1382 26.4123 21.963C25.3674 23.7877 23.8614 25.3058 22.0451 26.3653C20.2289 27.4248 18.1661 27.9885 16.0634 27.9998C13.9607 28.0112 11.892 27.4698 10.0644 26.43C8.2368 25.3901 6.71452 23.8883 5.65002 22.075" stroke="#2C67EF" stroke-width="2" stroke-linecap="round" stroke-linejoin="round"/>
</svg>
