<svg width="60" height="60" viewBox="0 0 60 60" fill="none" xmlns="http://www.w3.org/2000/svg">
<path d="M30 30L52.5 7.5" stroke="#F73665" stroke-width="2" stroke-linecap="round" stroke-linejoin="round"/>
<path d="M45.9141 14.0859C41.9252 10.085 36.5796 7.72747 30.9354 7.47983C25.2912 7.2322 19.7597 9.11254 15.4357 12.7487C11.1117 16.3849 8.31044 21.5119 7.58624 27.1149C6.86205 32.7179 8.26775 38.3887 11.5251 43.0047C14.7825 47.6208 19.6541 50.8457 25.1758 52.0413C30.6975 53.2368 36.4668 52.3159 41.3419 49.4607C46.2169 46.6054 49.8424 42.0241 51.5008 36.6233C53.1591 31.2225 52.7295 25.396 50.2969 20.2969" stroke="#F73665" stroke-width="2" stroke-linecap="round" stroke-linejoin="round"/>
<path d="M37.9453 22.0547C36.0872 20.2018 33.6388 19.0584 31.0254 18.8229C28.412 18.5875 25.7987 19.2749 23.6393 20.7658C21.48 22.2567 19.9112 24.4569 19.2053 26.9842C18.4995 29.5115 18.7012 32.2062 19.7754 34.6003C20.8497 36.9943 22.7286 38.9364 25.0858 40.0892C27.443 41.2421 30.1295 41.5328 32.6788 40.9109C35.2281 40.289 37.4789 38.7938 39.0404 36.685C40.602 34.5761 41.3754 31.987 41.2265 29.3672" stroke="#F73665" stroke-width="2" stroke-linecap="round" stroke-linejoin="round"/>
</svg>
