<?xml version="1.0" encoding="utf-8"?>
<!-- Generator: Adobe Illustrator 25.4.1, SVG Export Plug-In . SVG Version: 6.00 Build 0)  -->
<svg version="1.1" id="Layer_1" xmlns="http://www.w3.org/2000/svg" xmlns:xlink="http://www.w3.org/1999/xlink" x="0px" y="0px"
	 width="80px" height="80px" viewBox="0 0 80 80" style="enable-background:new 0 0 80 80;" xml:space="preserve">
<style type="text/css">
	.st0{fill:#FFFFFF;}
</style>
<g>
	<path class="st0" d="M9.1428576,0h11.0476179c5.0494614,0,9.1428585,4.0933967,9.1428585,9.1428576v61.714283
		C29.333334,75.906601,25.2399368,80,20.1904755,80H9.1428576C4.0933967,80,0,75.906601,0,70.8571396V9.1428576
		C0,4.0933967,4.0933967,0,9.1428576,0z"/>
	<path class="st0" d="M59.8095245,0h11.0476151C75.906601,0,80,4.0933967,80,9.1428576v61.714283
		C80,75.906601,75.906601,80,70.8571396,80H59.8095245c-5.0494614,0-9.1428566-4.093399-9.1428566-9.1428604V9.1428576
		C50.6666679,4.0933967,54.7600632,0,59.8095245,0z"/>
</g>
</svg>
