<svg width="50" height="50" viewBox="0 0 50 50" fill="none" xmlns="http://www.w3.org/2000/svg">
<path d="M42.6958 16.5993L22.8208 2.01592C21.2685 0.87922 19.4317 0.194656 17.5141 0.0381331C15.5965 -0.11839 13.673 0.259244 11.9569 1.12916C10.2408 1.99908 8.79912 3.32729 7.79179 4.96651C6.78446 6.60574 6.2508 8.49192 6.25 10.4159V39.5826C6.25034 41.5075 6.78403 43.3946 7.79182 45.0345C8.79962 46.6745 10.2421 48.0031 11.9592 48.873C13.6763 49.7429 15.6009 50.12 17.5193 49.9624C19.4377 49.8049 21.2749 49.1189 22.8271 47.9805L42.7021 33.3972C44.0214 32.4297 45.0943 31.165 45.8338 29.7056C46.5733 28.2463 46.9586 26.6332 46.9586 24.9972C46.9586 23.3611 46.5733 21.7481 45.8338 20.2887C45.0943 18.8293 44.0214 17.5647 42.7021 16.5972L42.6958 16.5993ZM40.2292 30.0368L20.3542 44.6201C19.423 45.3006 18.3216 45.7101 17.172 45.8034C16.0225 45.8966 14.8695 45.67 13.8408 45.1485C12.812 44.627 11.9477 43.831 11.3433 42.8487C10.739 41.8663 10.4183 40.7359 10.4167 39.5826V10.4159C10.4051 9.26039 10.7198 8.12505 11.3245 7.14034C11.9293 6.15564 12.7996 5.36152 13.8354 4.84925C14.7164 4.40111 15.6907 4.167 16.6792 4.16592C18.0039 4.17098 19.2921 4.6011 20.3542 5.393L40.2292 19.9763C41.0198 20.557 41.6626 21.3155 42.1057 22.1906C42.5488 23.0658 42.7797 24.0329 42.7797 25.0138C42.7797 25.9947 42.5488 26.9619 42.1057 27.837C41.6626 28.7122 41.0198 29.4707 40.2292 30.0513V30.0368Z" fill="#EE2524"/>
</svg>
