<svg width="88" height="88" viewBox="0 0 88 88" fill="none" xmlns="http://www.w3.org/2000/svg">
<g filter="url(#filter0_f_389_145)">
<circle cx="44" cy="44" r="40" fill="white" fill-opacity="0.72"/>
</g>
<g clip-path="url(#clip0_389_145)">
<path d="M55.1765 38.9586L42.0618 29.3418C41.0374 28.5917 39.8254 28.1399 38.56 28.0365C37.2946 27.9331 36.0253 28.1821 34.8928 28.7559C33.7602 29.3297 32.8087 30.2059 32.1437 31.2874C31.4786 32.3689 31.126 33.6134 31.125 34.8831V54.1262C31.123 55.397 31.4738 56.6435 32.1382 57.7268C32.8026 58.8102 33.7546 59.6879 34.8882 60.2622C36.0219 60.8366 37.2927 61.0851 38.5592 60.9801C39.8257 60.8751 41.0382 60.4207 42.0618 59.6674L55.1765 50.0507C56.0467 49.4121 56.7543 48.5775 57.2421 47.6146C57.7298 46.6517 57.984 45.5874 57.984 44.5081C57.984 43.4287 57.7298 42.3644 57.2421 41.4015C56.7543 40.4386 56.0467 39.604 55.1765 38.9654V38.9586Z" fill="#587AE8"/>
</g>
<defs>
<filter id="filter0_f_389_145" x="0" y="0" width="88" height="88" filterUnits="userSpaceOnUse" color-interpolation-filters="sRGB">
<feFlood flood-opacity="0" result="BackgroundImageFix"/>
<feBlend mode="normal" in="SourceGraphic" in2="BackgroundImageFix" result="shape"/>
<feGaussianBlur stdDeviation="2" result="effect1_foregroundBlur_389_145"/>
</filter>
<clipPath id="clip0_389_145">
<rect width="33" height="33" fill="white" transform="translate(27 28)"/>
</clipPath>
</defs>
</svg>
