<svg width="83" height="83" viewBox="0 0 83 83" fill="none" xmlns="http://www.w3.org/2000/svg">
<path d="M55.3333 69.166H69.1667C72.8355 69.166 76.3541 67.7086 78.9483 65.1143C81.5426 62.5201 83 59.0015 83 55.3327V41.4993C83 39.6649 82.2713 37.9057 80.9742 36.6085C79.677 35.3114 77.9177 34.5827 76.0833 34.5827H55.6446C56.4651 29.753 58.9664 25.3687 62.7064 22.2046C66.4464 19.0405 71.1844 17.3001 76.0833 17.291C77.0005 17.291 77.8802 16.9267 78.5287 16.2781C79.1773 15.6295 79.5417 14.7499 79.5417 13.8327C79.5417 12.9155 79.1773 12.0358 78.5287 11.3873C77.8802 10.7387 77.0005 10.3744 76.0833 10.3744C68.7482 10.3826 61.7159 13.3001 56.5291 18.4868C51.3424 23.6736 48.4249 30.7059 48.4167 38.041V62.2493C48.4167 64.0838 49.1454 65.843 50.4425 67.1402C51.7396 68.4373 53.4989 69.166 55.3333 69.166Z" fill="url(#paint0_linear_387_149)" fill-opacity="0.92"/>
<path d="M6.91667 69.166H20.75C24.4188 69.166 27.9373 67.7086 30.5316 65.1143C33.1258 62.5201 34.5833 59.0015 34.5833 55.3327V41.4993C34.5833 39.6649 33.8545 37.9057 32.5574 36.6085C31.2603 35.3114 29.501 34.5827 27.6666 34.5827H7.22791C8.04847 29.753 10.5497 25.3687 14.2897 22.2046C18.0297 19.0405 22.7677 17.3001 27.6666 17.291C28.5838 17.291 29.4634 16.9267 30.112 16.2781C30.7606 15.6295 31.1249 14.7499 31.1249 13.8327C31.1249 12.9155 30.7606 12.0358 30.112 11.3873C29.4634 10.7387 28.5838 10.3744 27.6666 10.3744C20.3315 10.3826 13.2992 13.3001 8.11248 18.4868C2.92577 23.6736 0.00825882 30.7059 1.90735e-05 38.041V62.2493C1.90735e-05 64.0838 0.728737 65.843 2.02586 67.1402C3.32298 68.4373 5.08226 69.166 6.91667 69.166Z" fill="url(#paint1_linear_387_149)" fill-opacity="0.92"/>
<defs>
<linearGradient id="paint0_linear_387_149" x1="65.7083" y1="10.3744" x2="65.7083" y2="69.166" gradientUnits="userSpaceOnUse">
<stop stop-color="#570993"/>
<stop offset="1" stop-color="#4877ED"/>
</linearGradient>
<linearGradient id="paint1_linear_387_149" x1="17.2916" y1="10.3744" x2="17.2916" y2="69.166" gradientUnits="userSpaceOnUse">
<stop stop-color="#570993"/>
<stop offset="1" stop-color="#4877ED"/>
</linearGradient>
</defs>
</svg>
