<svg width="25" height="25" viewBox="0 0 25 25" fill="none" xmlns="http://www.w3.org/2000/svg">
<g clip-path="url(#clip0_113_45)">
<mask id="mask0_113_45" style="mask-type:luminance" maskUnits="userSpaceOnUse" x="0" y="0" width="25" height="25">
<path d="M25 0H0V25H25V0Z" fill="white"/>
</mask>
<g mask="url(#mask0_113_45)">
<path d="M9.18945 18.0269C8.07617 21.3375 3.66211 21.3375 3.66211 21.3375C3.66211 21.3375 3.66211 16.9234 6.97266 15.8101" stroke="#2C67EF" stroke-width="2" stroke-linecap="round" stroke-linejoin="round"/>
<path d="M19.1309 10.2928L12.5 16.9236L8.07617 12.4998L14.707 5.86889C17.2168 3.35913 19.7266 3.38842 20.8008 3.54467C20.9665 3.56679 21.1204 3.64284 21.2387 3.76109C21.3569 3.87933 21.433 4.03321 21.4551 4.19897C21.6113 5.27319 21.6406 7.78295 19.1309 10.2928Z" stroke="#2C67EF" stroke-width="2" stroke-linecap="round" stroke-linejoin="round"/>
<path d="M18.0273 11.3965V17.7051C18.0244 17.9111 17.9402 18.1077 17.793 18.252L14.6387 21.416C14.5386 21.516 14.4133 21.5869 14.276 21.6212C14.1388 21.6555 13.9949 21.6519 13.8595 21.6108C13.7242 21.5697 13.6026 21.4926 13.5076 21.3878C13.4126 21.283 13.3479 21.1544 13.3203 21.0156L12.5 16.9238" stroke="#2C67EF" stroke-width="2" stroke-linecap="round" stroke-linejoin="round"/>
<path d="M13.6035 6.97266H7.29491C7.08884 6.97559 6.89228 7.05983 6.74804 7.20703L3.58397 10.3613C3.48402 10.4614 3.4131 10.5867 3.3788 10.724C3.34449 10.8612 3.34808 11.0051 3.38918 11.1405C3.43029 11.2758 3.50736 11.3974 3.61218 11.4924C3.717 11.5874 3.84564 11.6521 3.98436 11.6797L8.07616 12.5" stroke="#2C67EF" stroke-width="2" stroke-linecap="round" stroke-linejoin="round"/>
</g>
</g>
<defs>
<clipPath id="clip0_113_45">
<rect width="25" height="25" fill="white"/>
</clipPath>
</defs>
</svg>
