<svg width="60" height="60" viewBox="0 0 60 60" fill="none" xmlns="http://www.w3.org/2000/svg">
<g clip-path="url(#clip0_5_178)">
<path d="M3.75 18.75H24.375" stroke="#F73665" stroke-width="2" stroke-linecap="round" stroke-linejoin="round"/>
<path d="M35.625 18.75H56.25" stroke="#F73665" stroke-width="2" stroke-linecap="round" stroke-linejoin="round"/>
<path d="M30 24.375C33.1066 24.375 35.625 21.8566 35.625 18.75C35.625 15.6434 33.1066 13.125 30 13.125C26.8934 13.125 24.375 15.6434 24.375 18.75C24.375 21.8566 26.8934 24.375 30 24.375Z" stroke="#F73665" stroke-width="2" stroke-linecap="round" stroke-linejoin="round"/>
<path d="M9.375 46.875C12.4816 46.875 15 44.3566 15 41.25C15 38.1434 12.4816 35.625 9.375 35.625C6.2684 35.625 3.75 38.1434 3.75 41.25C3.75 44.3566 6.2684 46.875 9.375 46.875Z" stroke="#F73665" stroke-width="2" stroke-linecap="round" stroke-linejoin="round"/>
<path d="M50.625 46.875C53.7316 46.875 56.25 44.3566 56.25 41.25C56.25 38.1434 53.7316 35.625 50.625 35.625C47.5184 35.625 45 38.1434 45 41.25C45 44.3566 47.5184 46.875 50.625 46.875Z" stroke="#F73665" stroke-width="2" stroke-linecap="round" stroke-linejoin="round"/>
<path d="M35.5781 19.5234C39.2901 20.5655 42.6362 22.6261 45.2375 25.4718C47.8388 28.3175 49.5914 31.8346 50.2969 35.625" stroke="#F73665" stroke-width="2" stroke-linecap="round" stroke-linejoin="round"/>
<path d="M9.70312 35.625C10.4086 31.8346 12.1612 28.3175 14.7625 25.4718C17.3638 22.6261 20.7099 20.5655 24.4219 19.5234" stroke="#F73665" stroke-width="2" stroke-linecap="round" stroke-linejoin="round"/>
</g>
<defs>
<clipPath id="clip0_5_178">
<rect width="60" height="60" fill="white"/>
</clipPath>
</defs>
</svg>
