<svg width="512" height="512" viewBox="0 0 512 512" fill="none" xmlns="http://www.w3.org/2000/svg">
<g clip-path="url(#clip0_92_59)">
<path d="M405.333 0H298.667C293.009 0 287.583 2.24761 283.582 6.24839C279.581 10.2492 277.333 15.6754 277.333 21.3333C277.333 26.9913 279.581 32.4175 283.582 36.4183C287.583 40.4191 293.009 42.6667 298.667 42.6667H405.333C414.837 42.7035 424.209 44.8915 432.747 49.0667L6.25065 475.584C4.2131 477.552 2.58788 479.906 1.46982 482.509C0.351765 485.112 -0.236741 487.911 -0.261356 490.744C-0.285971 493.576 0.253799 496.385 1.32646 499.007C2.39912 501.629 3.98318 504.011 5.98623 506.014C7.98927 508.017 10.3712 509.601 12.993 510.674C15.6148 511.746 18.4239 512.286 21.2565 512.261C24.0892 512.237 26.8885 511.648 29.4913 510.53C32.094 509.412 34.4481 507.787 36.416 505.749L462.933 79.2533C467.109 87.7909 469.297 97.163 469.333 106.667V213.333C469.333 218.991 471.581 224.418 475.582 228.418C479.583 232.419 485.009 234.667 490.667 234.667C496.325 234.667 501.751 232.419 505.752 228.418C509.752 224.418 512 218.991 512 213.333V106.667C511.966 78.3873 500.717 51.2759 480.721 31.2794C460.724 11.2828 433.613 0.0338743 405.333 0Z" fill="#0F6FFF"/>
<path d="M128 213.333C144.877 213.333 161.376 208.329 175.409 198.952C189.442 189.576 200.379 176.248 206.838 160.656C213.296 145.063 214.986 127.905 211.694 111.352C208.401 94.7992 200.274 79.5943 188.34 67.6602C176.406 55.7261 161.201 47.5989 144.648 44.3063C128.095 41.0137 110.937 42.7036 95.3443 49.1623C79.7517 55.621 66.4245 66.5583 57.0479 80.5913C47.6714 94.6243 42.6667 111.123 42.6667 128C42.6667 150.632 51.6571 172.337 67.6602 188.34C83.6633 204.343 105.368 213.333 128 213.333ZM128 85.3333C136.439 85.3333 144.688 87.8357 151.704 92.524C158.721 97.2122 164.19 103.876 167.419 111.672C170.648 119.468 171.493 128.047 169.847 136.324C168.201 144.6 164.137 152.203 158.17 158.17C152.203 164.137 144.6 168.201 136.324 169.847C128.047 171.493 119.468 170.648 111.672 167.419C103.876 164.19 97.2122 158.721 92.524 151.704C87.8357 144.688 85.3333 136.439 85.3333 128C85.3333 116.684 89.8285 105.832 97.8301 97.8301C105.832 89.8286 116.684 85.3333 128 85.3333Z" fill="#0F6FFF"/>
<path d="M384 298.667C367.123 298.667 350.624 303.671 336.591 313.048C322.558 322.424 311.621 335.752 305.162 351.344C298.704 366.937 297.014 384.095 300.306 400.648C303.599 417.201 311.726 432.406 323.66 444.34C335.594 456.274 350.799 464.401 367.352 467.694C383.905 470.986 401.063 469.296 416.656 462.838C432.248 456.379 445.576 445.442 454.952 431.409C464.329 417.376 469.333 400.877 469.333 384C469.333 361.368 460.343 339.663 444.34 323.66C428.337 307.657 406.632 298.667 384 298.667ZM384 426.667C375.561 426.667 367.312 424.164 360.296 419.476C353.279 414.788 347.81 408.124 344.581 400.328C341.352 392.531 340.507 383.953 342.153 375.676C343.799 367.4 347.863 359.797 353.83 353.83C359.797 347.863 367.4 343.799 375.676 342.153C383.953 340.507 392.532 341.352 400.328 344.581C408.124 347.81 414.788 353.279 419.476 360.296C424.164 367.312 426.667 375.561 426.667 384C426.667 395.316 422.171 406.168 414.17 414.17C406.168 422.171 395.316 426.667 384 426.667Z" fill="#0F6FFF"/>
</g>
<defs>
<clipPath id="clip0_92_59">
<rect width="512" height="512" fill="white"/>
</clipPath>
</defs>
</svg>
