<svg width="565" height="807" viewBox="0 0 565 807" fill="none" xmlns="http://www.w3.org/2000/svg">
<path fill-rule="evenodd" clip-rule="evenodd" d="M319.234 143.222C401.393 112.052 502.511 175.293 558.931 235.925C611.059 291.945 582.435 373.393 599.128 444.015C613.195 503.527 671.393 558.963 648.882 616.474C626.407 673.894 550.608 698.517 488.653 726.258C435.506 750.055 378.667 769.529 319.234 764.076C263.412 758.955 217.364 728.32 173.91 697.38C132.851 668.146 100.725 633.069 77.1403 591.702C49.7323 543.63 1.30335 489.24 27.5562 440.681C54.3224 391.173 153.996 415.685 194.801 374.07C259.78 307.804 227.495 178.026 319.234 143.222Z" fill="url(#paint0_linear_30_41)" fill-opacity="0.1"/>
<path fill-rule="evenodd" clip-rule="evenodd" d="M669.057 267.223C728.858 328.462 758.242 465.687 725.737 539.673C695.704 608.033 564.663 591.872 507.799 634.27C459.881 669.998 432.725 743.551 372.423 745.835C312.216 748.115 245.299 718.84 196.405 674.31C154.462 636.11 154.7 553.558 136.552 498.359C119.507 446.513 92.817 394.995 103.72 344.145C114.022 296.097 170.521 282.87 198.476 245.705C230.964 202.516 235.506 117.987 289.23 122.53C344.005 127.161 388.267 251.09 441.404 271.332C526.02 303.567 602.284 198.844 669.057 267.223Z" fill="url(#paint1_linear_30_41)" fill-opacity="0.1"/>
<defs>
<linearGradient id="paint0_linear_30_41" x1="337" y1="135" x2="337" y2="765" gradientUnits="userSpaceOnUse">
<stop stop-color="#2C67EF"/>
<stop offset="1" stop-color="#B68AFF" stop-opacity="0.52"/>
</linearGradient>
<linearGradient id="paint1_linear_30_41" x1="269.896" y1="148.62" x2="574.396" y2="701.62" gradientUnits="userSpaceOnUse">
<stop stop-color="#B68AFF" stop-opacity="0.52"/>
<stop offset="1" stop-color="#2C67EF"/>
</linearGradient>
</defs>
</svg>
