<svg width="25" height="25" viewBox="0 0 25 25" fill="none" xmlns="http://www.w3.org/2000/svg">
<g clip-path="url(#clip0_1_59)">
<path d="M16.8633 2.0835H8.13411C4.34245 2.0835 2.08203 4.34391 2.08203 8.13558V16.8543C2.08203 20.6564 4.34245 22.9168 8.13411 22.9168H16.8529C20.6445 22.9168 22.9049 20.6564 22.9049 16.8647V8.13558C22.9154 4.34391 20.6549 2.0835 16.8633 2.0835ZM12.4987 16.5418C11.6993 16.5418 10.9179 16.3048 10.2533 15.8607C9.58862 15.4166 9.07059 14.7854 8.76468 14.0468C8.45878 13.3083 8.37874 12.4957 8.53469 11.7117C8.69064 10.9277 9.07557 10.2075 9.64081 9.64227C10.206 9.07704 10.9262 8.6921 11.7102 8.53616C12.4942 8.38021 13.3069 8.46025 14.0454 8.76615C14.7839 9.07205 15.4151 9.59008 15.8592 10.2547C16.3033 10.9194 16.5404 11.7008 16.5404 12.5002C16.5393 13.5717 16.1131 14.5991 15.3554 15.3568C14.5976 16.1146 13.5703 16.5407 12.4987 16.5418ZM18.6654 7.16683C18.6125 7.29302 18.5385 7.40927 18.4466 7.51058C18.3453 7.60251 18.2291 7.67649 18.1029 7.72933C17.9134 7.8105 17.704 7.83305 17.5016 7.79406C17.2992 7.75507 17.1132 7.65633 16.9674 7.51058C16.8755 7.40927 16.8015 7.29302 16.7487 7.16683C16.6938 7.04209 16.6654 6.90729 16.6654 6.771C16.6654 6.6347 16.6938 6.4999 16.7487 6.37516C16.799 6.24768 16.8733 6.131 16.9674 6.03141C17.0887 5.91132 17.2376 5.82286 17.4011 5.77382C17.5646 5.72478 17.7376 5.71665 17.9049 5.75016C17.9739 5.75982 18.0408 5.78094 18.1029 5.81266C18.1693 5.83543 18.2323 5.86696 18.2904 5.90641C18.3449 5.94486 18.3971 5.98661 18.4466 6.03141C18.5408 6.131 18.615 6.24768 18.6654 6.37516C18.7203 6.4999 18.7486 6.6347 18.7486 6.771C18.7486 6.90729 18.7203 7.04209 18.6654 7.16683Z" fill="white"/>
</g>
<defs>
<clipPath id="clip0_1_59">
<rect width="25" height="25" fill="white"/>
</clipPath>
</defs>
</svg>
