<svg width="25" height="25" viewBox="0 0 25 25" fill="none" xmlns="http://www.w3.org/2000/svg">
<g clip-path="url(#clip0_1_69)">
<path d="M16.8518 22.9169H8.13418C4.34459 22.9169 2.08203 20.6503 2.08203 16.8545V8.13576C2.08203 4.34618 4.34459 2.08362 8.13418 2.08362H16.8632C17.6743 2.04225 18.4855 2.16297 19.2494 2.43876C20.0133 2.71456 20.7146 3.13989 21.3122 3.68986C21.8598 4.28785 22.2828 4.98897 22.5563 5.75234C22.8297 6.5157 22.9483 7.32605 22.9049 8.13576V16.8648C22.9049 20.6544 20.6424 22.9169 16.8518 22.9169ZM6.24971 16.8826C7.49289 17.6807 8.93906 18.1051 10.4164 18.1055H10.4362C11.5233 18.1305 12.6025 17.917 13.5981 17.4799C14.5937 17.0427 15.4815 16.3926 16.1987 15.5753C17.4728 14.1255 18.1829 12.2658 18.1996 10.3357C18.1996 10.2201 18.1998 10.0992 18.1915 9.9836C18.727 9.59735 19.1884 9.11781 19.5539 8.56796C19.0557 8.78985 18.5269 8.93486 17.9852 8.99814C18.555 8.65689 18.9816 8.12065 19.1861 7.48879C18.6495 7.80654 18.0626 8.03057 17.4507 8.15127C17.1959 7.87832 16.8876 7.66101 16.5448 7.51295C16.2021 7.36488 15.8325 7.28932 15.4592 7.29093C14.7621 7.28939 14.091 7.55522 13.5841 8.03365C13.2372 8.36146 12.9817 8.774 12.843 9.2307C12.7044 9.68741 12.6873 10.1725 12.7934 10.6378C11.7084 10.5824 10.6471 10.2999 9.67811 9.80838C8.70915 9.3169 7.85422 8.62746 7.16855 7.78468C6.82102 8.38628 6.71493 9.09734 6.87177 9.77417C7.0286 10.451 7.43667 11.0431 8.01338 11.4305C7.57912 11.4166 7.15427 11.2991 6.77462 11.0878V11.1222C6.77626 11.7518 6.99473 12.3615 7.39311 12.8491C7.79148 13.3366 8.34557 13.6721 8.96222 13.7992C8.72864 13.8628 8.48765 13.8951 8.24556 13.8951C8.07248 13.895 7.89994 13.8783 7.73007 13.8451C7.90441 14.3878 8.24387 14.8624 8.70129 15.2025C9.15871 15.5426 9.71117 15.7313 10.2811 15.742C9.31502 16.4995 8.1233 16.912 6.89567 16.9139H6.88931C6.67535 16.9158 6.46248 16.9053 6.24971 16.8826Z" fill="white"/>
</g>
<defs>
<clipPath id="clip0_1_69">
<rect width="25" height="25" fill="white"/>
</clipPath>
</defs>
</svg>
