<svg width="25" height="25" viewBox="0 0 25 25" fill="none" xmlns="http://www.w3.org/2000/svg">
<g clip-path="url(#clip0_1_64)">
<path d="M16.8528 22.9165H8.13519C4.34561 22.9165 2.08203 20.6498 2.08203 16.854V8.13523C2.08203 4.34564 4.34457 2.08315 8.13519 2.08315H16.8642C17.6753 2.04173 18.4866 2.16243 19.2505 2.43823C20.0144 2.71403 20.7156 3.13938 21.3132 3.68939C21.8608 4.28722 22.2838 4.98824 22.5573 5.75142C22.8308 6.51461 22.9492 7.32467 22.906 8.13421V16.8634C22.9049 20.654 20.6424 22.9165 16.8528 22.9165ZM15.0935 11.6352C15.8789 11.6352 16.6704 12.2435 16.6704 13.6019V18.1311H19.3601V12.6675C19.4091 12.2282 19.3633 11.7834 19.2258 11.3633C19.0882 10.9432 18.8622 10.5575 18.5628 10.2322C18.2634 9.90698 17.8977 9.64975 17.4904 9.47794C17.083 9.30612 16.6436 9.22371 16.2017 9.23628C15.6539 9.21285 15.1094 9.33217 14.6214 9.58253C14.1335 9.83288 13.719 10.2056 13.4185 10.6644V9.50191H10.7404V18.1301H13.4196V13.6009C13.3927 13.3604 13.4154 13.1171 13.4862 12.8857C13.557 12.6544 13.6744 12.44 13.8313 12.2559C13.9882 12.0717 14.1811 11.9216 14.3982 11.8148C14.6153 11.7081 14.8518 11.6469 15.0935 11.6352ZM6.41858 9.50293V18.1311H9.11531V9.50293H6.41858ZM7.76746 5.72898C7.41152 5.73091 7.07085 5.87387 6.82014 6.12654C6.56943 6.3792 6.42919 6.72096 6.43002 7.0769C6.42919 7.43285 6.56943 7.77461 6.82014 8.02727C7.07085 8.27994 7.41152 8.4229 7.76746 8.42483C8.1233 8.4229 8.46372 8.2799 8.71426 8.02721C8.96481 7.77452 9.10498 7.43275 9.10387 7.0769C9.10498 6.72106 8.96481 6.37929 8.71426 6.1266C8.46372 5.87391 8.1233 5.73091 7.76746 5.72898Z" fill="white"/>
</g>
<defs>
<clipPath id="clip0_1_64">
<rect width="25" height="25" fill="white"/>
</clipPath>
</defs>
</svg>
