<?xml version="1.0" encoding="utf-8"?>
<!-- Generator: Adobe Illustrator 25.4.1, SVG Export Plug-In . SVG Version: 6.00 Build 0)  -->
<svg version="1.1" id="Layer_1" xmlns="http://www.w3.org/2000/svg" xmlns:xlink="http://www.w3.org/1999/xlink" x="0px" y="0px"
	 width="100px" height="100px" viewBox="0 0 100 100" style="enable-background:new 0 0 100 100;" xml:space="preserve">
<style type="text/css">
	.st0{fill:#0098db;}
</style>
<path class="st0" d="M75,0H25C11.1928711,0,0,11.1928711,0,25v50c0,13.8071289,11.1928711,25,25,25h50
	c13.8071289,0,25-11.1928711,25-25V25C100,11.1928711,88.8071289,0,75,0z M50,70.0714111
	c-11.085144,0-20.0714111-8.9862671-20.0714111-20.0714111S38.914856,29.9285889,50,29.9285889S70.0714111,38.914856,70.0714111,50
	S61.085144,70.0714111,50,70.0714111z M77.2407227,26.2857056c-2.8549194,0-5.1693115-2.3143921-5.1693115-5.1693115
	s2.3143921-5.1693115,5.1693115-5.1693115s5.1693115,2.3143921,5.1693115,5.1693115S80.0956421,26.2857056,77.2407227,26.2857056z"
	/>
</svg>
