<?xml version="1.0" encoding="utf-8"?>
<!-- Generator: Adobe Illustrator 25.4.1, SVG Export Plug-In . SVG Version: 6.00 Build 0)  -->
<svg version="1.1" id="Layer_1" xmlns="http://www.w3.org/2000/svg" xmlns:xlink="http://www.w3.org/1999/xlink" x="0px" y="0px"
	 width="100px" height="100px" viewBox="0 0 100 100" style="enable-background:new 0 0 100 100;" xml:space="preserve">
<style type="text/css">
	.st0{fill:#0098db;}
</style>
<path class="st0" d="M75,0H25C11.1928711,0,0,11.1928711,0,25v50c0,13.8071289,11.1928711,25,25,25h16.3684692V68.140625H28.760437
	V54.9616699h12.6080322V44.9174805c0-11.4267578,7.4139404-17.7388916,18.7563477-17.7388916
	c5.4326782,0,11.1147461,0.8903198,11.1147461,0.8903198v11.220459h-6.2614136c-6.168457,0-8.0924683,3.5145264-8.0924683,7.1199951
	v8.5523071h13.7729492L68.4558716,68.140625H56.8856812V100H75c13.8071289,0,25-11.1928711,25-25V25
	C100,11.1928711,88.8071289,0,75,0z"/>
</svg>
