<?xml version="1.0" encoding="utf-8"?>
<!-- Generator: Adobe Illustrator 25.4.1, SVG Export Plug-In . SVG Version: 6.00 Build 0)  -->
<svg version="1.1" id="Layer_1" xmlns="http://www.w3.org/2000/svg" xmlns:xlink="http://www.w3.org/1999/xlink" x="0px" y="0px"
	 width="100px" height="100px" viewBox="0 0 100 100" style="enable-background:new 0 0 100 100;" xml:space="preserve">
<style type="text/css">
	.st0{fill:#0098db;}
</style>
<path class="st0" d="M75,0H25C11.1928711,0,0,11.1928711,0,25v50c0,13.8071289,11.1928711,25,25,25h50
	c13.8071289,0,25-11.1928711,25-25V25C100,11.1928711,88.8071289,0,75,0z M21.0479736,79.8928833
	c0.015686-0.2703247,0.0450439-0.5406494,0.045105-0.8109741c0.0022583-12.7432251,0.0019531-25.4864502,0.0019531-38.2296753
	c0-0.2678833,0-0.5357666,0-0.8384399c4.1433105,0,8.2202759,0,12.4061279,0c0,0.2556763,0,0.5169067,0,0.7780762
	c0,12.7626953-0.0002441,25.5253296,0.0015869,38.2880249c0.000061,0.2709961,0.0238647,0.5419922,0.0366211,0.8129883
	C29.3756104,79.8928833,25.211792,79.8928833,21.0479736,79.8928833z M28.152832,34.4838257
	c-3.8297729,0.3624268-7.189209-2.1035156-7.9116821-5.805542c-0.0330811-0.1695557-0.0842896-0.3356323-0.1270752-0.5033569
	c0-0.5837402,0-1.1674805,0-1.7511597c0.0425415-0.1676025,0.0931396-0.3336182,0.1264038-0.5030518
	c0.7044067-3.5895996,4.1251831-6.1506958,7.7193604-5.7774658c3.7084961,0.3851318,6.5136108,3.4732056,6.5098877,7.1665649
	C34.4660645,30.9294434,31.6257324,34.1551514,28.152832,34.4838257z M67.5112915,79.8928833
	c-0.0038452-6.9433594,0.0095825-13.8867798-0.0269165-20.8299561c-0.0067749-1.2963867-0.1399536-2.6033325-0.3425903-3.8851929
	c-0.5010376-3.1705933-2.2182617-4.9446411-5.211792-5.222229c-4.0734863-0.3776855-7.0012207,1.2458496-7.8427734,5.527832
	c-0.3087769,1.571106-0.4277344,3.2007446-0.4400024,4.8051147c-0.0501709,6.5344849-0.0253906,13.0695801-0.0282593,19.6044312
	c-4.1248779,0-8.2497559,0-12.3746338,0c0.0021362-13.0321655,0.0042725-26.0643311,0.0063477-39.0964966
	c0.000061-0.2492065,0-0.4984741,0-0.7836914c3.9691162,0,7.8882446,0,11.8887939,0c0,1.7866211,0,3.5770874,0,5.5314331
	c0.1850586-0.211792,0.2667236-0.2816162,0.319397-0.3689575c2.1015625-3.4858398,5.272522-5.3860474,9.2088013-5.9945679
	c3.0151367-0.4661255,6.0197754-0.2171631,8.9130249,0.821228c3.8034058,1.3650513,6.0036011,4.1972656,7.1449585,7.96521
	c0.8363647,2.7611694,1.1196899,5.6052246,1.1340942,8.4680176c0.0391846,7.8190918,0.0213623,15.6384888,0.0261841,23.4578247
	C75.7610474,79.8928833,71.6361694,79.8928833,67.5112915,79.8928833z"/>
</svg>
