<svg width="25" height="25" viewBox="0 0 25 25" fill="none" xmlns="http://www.w3.org/2000/svg">
<g clip-path="url(#clip0_1_54)">
<path d="M22.9154 16.8647C22.9154 20.6564 20.6549 22.9168 16.8633 22.9168H15.6237C15.3474 22.9168 15.0825 22.8071 14.8871 22.6117C14.6918 22.4164 14.582 22.1514 14.582 21.8752V15.8647C14.582 15.7284 14.6354 15.5975 14.7309 15.5001C14.8263 15.4027 14.9561 15.3466 15.0924 15.3439L16.9258 15.3127C16.9975 15.3078 17.0658 15.2798 17.1202 15.2328C17.1747 15.1859 17.2125 15.1225 17.2279 15.0522L17.5924 13.0627C17.6001 13.0175 17.5977 12.9712 17.5855 12.927C17.5732 12.8829 17.5514 12.842 17.5216 12.8072C17.4918 12.7724 17.4547 12.7446 17.4129 12.7257C17.3712 12.7069 17.3258 12.6974 17.2799 12.6981L15.0612 12.7293C14.9237 12.73 14.7913 12.677 14.6922 12.5818C14.593 12.4865 14.5348 12.3563 14.5299 12.2189L14.4883 9.66683C14.4883 9.58395 14.5212 9.50446 14.5798 9.44586C14.6384 9.38725 14.7179 9.35433 14.8008 9.35433L17.3008 9.31266C17.3837 9.31266 17.4631 9.27974 17.5217 9.22113C17.5804 9.16253 17.6133 9.08304 17.6133 9.00016L17.5716 6.50016C17.5716 6.41728 17.5387 6.3378 17.4801 6.27919C17.4215 6.22059 17.342 6.18766 17.2591 6.18766L14.4466 6.22933C14.0362 6.23611 13.6312 6.32368 13.2546 6.48702C12.8781 6.65037 12.5374 6.88629 12.252 7.18132C11.9667 7.47635 11.7422 7.82471 11.5915 8.2065C11.4408 8.58828 11.3668 8.99602 11.3737 9.40641L11.4258 12.271C11.4272 12.3394 11.4151 12.4074 11.3901 12.4711C11.3652 12.5348 11.328 12.593 11.2806 12.6424C11.2332 12.6917 11.1766 12.7312 11.1139 12.7586C11.0512 12.7861 10.9838 12.8009 10.9154 12.8022L9.66536 12.8231C9.58248 12.8231 9.503 12.856 9.44439 12.9146C9.38579 12.9732 9.35286 13.0527 9.35286 13.1356L9.38411 15.1147C9.38411 15.1976 9.41704 15.2771 9.47564 15.3357C9.53425 15.3943 9.61373 15.4272 9.69661 15.4272L10.9466 15.4064C11.0841 15.4058 11.2165 15.4587 11.3156 15.554C11.4148 15.6493 11.473 15.7794 11.4779 15.9168L11.5716 21.8543C11.5744 21.9929 11.5495 22.1306 11.4984 22.2594C11.4473 22.3882 11.371 22.5055 11.274 22.6044C11.177 22.7033 11.0612 22.7819 10.9334 22.8356C10.8057 22.8892 10.6685 22.9169 10.5299 22.9168H8.13411C4.34245 22.9168 2.08203 20.6564 2.08203 16.8543V8.13558C2.08203 4.34391 4.34245 2.0835 8.13411 2.0835H16.8633C20.6549 2.0835 22.9154 4.34391 22.9154 8.13558V16.8647Z" fill="white"/>
</g>
<defs>
<clipPath id="clip0_1_54">
<rect width="25" height="25" fill="white"/>
</clipPath>
</defs>
</svg>
