<svg width="75" height="75" viewBox="0 0 75 75" fill="none" xmlns="http://www.w3.org/2000/svg">
<rect width="75" height="75" rx="5" fill="#E6FFF6"/>
<path d="M16.6016 48.5468L22.2735 16.414C22.3131 16.1715 22.4006 15.9393 22.5309 15.731C22.6612 15.5226 22.8317 15.3423 23.0324 15.2005C23.2331 15.0587 23.46 14.9583 23.6999 14.9051C23.9398 14.8519 24.1879 14.8469 24.4297 14.8906L37.3672 17.164C37.856 17.2554 38.2895 17.535 38.5743 17.9426C38.8592 18.3502 38.9728 18.8533 38.8907 19.3437L33.1953 51.664C32.8053 53.8403 31.5789 55.7775 29.7786 57.0609C27.9782 58.3444 25.7471 58.8721 23.5625 58.5312C18.8985 57.7812 15.7813 53.2109 16.6016 48.5468Z" stroke="#09B778" stroke-width="2" stroke-linecap="round" stroke-linejoin="round"/>
<path d="M35.7266 37.25L52.8125 31.0391C53.0448 30.9533 53.2918 30.9144 53.5392 30.9246C53.7866 30.9348 54.0295 30.9939 54.254 31.0985C54.4784 31.2031 54.6799 31.3511 54.8469 31.534C55.0138 31.7169 55.1428 31.931 55.2266 32.1641L59.7266 44.4922C59.8925 44.9585 59.8674 45.4715 59.6567 45.9193C59.4459 46.3671 59.0666 46.7135 58.6016 46.8828L27.7578 58.1094" stroke="#09B778" stroke-width="2" stroke-linecap="round" stroke-linejoin="round"/>
<path d="M59.5625 46.0859V56.75C59.5625 57.2473 59.365 57.7242 59.0133 58.0758C58.6617 58.4275 58.1848 58.625 57.6875 58.625H24.875" stroke="#09B778" stroke-width="2" stroke-linecap="round" stroke-linejoin="round"/>
<path d="M24.875 53C26.4283 53 27.6875 51.7408 27.6875 50.1875C27.6875 48.6342 26.4283 47.375 24.875 47.375C23.3217 47.375 22.0625 48.6342 22.0625 50.1875C22.0625 51.7408 23.3217 53 24.875 53Z" fill="#09B778"/>
</svg>
