<svg width="75" height="75" viewBox="0 0 75 75" fill="none" xmlns="http://www.w3.org/2000/svg">
<rect width="75" height="75" rx="5" fill="#FEE8ED"/>
<path d="M41.75 60.5H34.25" stroke="#F73665" stroke-width="2" stroke-linecap="round" stroke-linejoin="round"/>
<path d="M36.8281 12.6406C32.375 16.2031 17.4922 30.4531 30.5 53H45.5C58.25 30.4531 43.5781 16.2266 39.1719 12.6406C38.8431 12.366 38.4283 12.2156 38 12.2156C37.5716 12.2156 37.1569 12.366 36.8281 12.6406Z" stroke="#F73665" stroke-width="2" stroke-linecap="round" stroke-linejoin="round"/>
<path d="M25.3203 34.1094L17.9609 42.9219C17.7755 43.1382 17.6447 43.3958 17.5795 43.6731C17.5142 43.9504 17.5164 44.2393 17.5859 44.5156L20.4687 57.5703C20.5383 57.8806 20.6856 58.1681 20.8969 58.4058C21.1082 58.6435 21.3764 58.8236 21.6765 58.929C21.9765 59.0345 22.2984 59.0619 22.6119 59.0087C22.9254 58.9556 23.2203 58.8235 23.4687 58.625L30.5 53" stroke="#F73665" stroke-width="2" stroke-linecap="round" stroke-linejoin="round"/>
<path d="M50.5391 33.9219L58.0391 42.9219C58.2245 43.1382 58.3553 43.3958 58.4205 43.6731C58.4858 43.9504 58.4836 44.2393 58.4141 44.5156L55.5313 57.5703C55.4617 57.8806 55.3143 58.1681 55.1031 58.4058C54.8918 58.6435 54.6235 58.8236 54.3235 58.929C54.0235 59.0345 53.7016 59.0619 53.3881 59.0087C53.0745 58.9556 52.7797 58.8235 52.5312 58.625L45.5 53" stroke="#F73665" stroke-width="2" stroke-linecap="round" stroke-linejoin="round"/>
<path d="M38 33.3125C39.5533 33.3125 40.8125 32.0533 40.8125 30.5C40.8125 28.9467 39.5533 27.6875 38 27.6875C36.4467 27.6875 35.1875 28.9467 35.1875 30.5C35.1875 32.0533 36.4467 33.3125 38 33.3125Z" fill="#F73665"/>
</svg>
