<svg width="75" height="75" viewBox="0 0 75 75" fill="none" xmlns="http://www.w3.org/2000/svg">
<rect width="75" height="75" rx="5" fill="#E2EDFE"/>
<path d="M30.0547 50.2656C27.3828 58.2109 16.7891 58.2109 16.7891 58.2109C16.7891 58.2109 16.7891 47.6172 24.7344 44.9453" stroke="#0066FF" stroke-width="2" stroke-linecap="round" stroke-linejoin="round"/>
<path d="M53.9141 31.7031L38 47.6172L27.3828 37L43.2969 21.0859C49.3203 15.0625 55.3438 15.1328 57.9219 15.5078C58.3197 15.5609 58.689 15.7434 58.9728 16.0272C59.2566 16.311 59.4391 16.6803 59.4922 17.0781C59.8672 19.6563 59.9375 25.6797 53.9141 31.7031Z" stroke="#0066FF" stroke-width="2" stroke-linecap="round" stroke-linejoin="round"/>
<path d="M51.2656 34.3516V49.4922C51.2586 49.9868 51.0564 50.4585 50.7031 50.8047L43.1328 58.3984C42.8926 58.6383 42.5918 58.8085 42.2625 58.8909C41.9332 58.9732 41.5877 58.9646 41.2629 58.8659C40.9381 58.7673 40.6461 58.5823 40.4182 58.3307C40.1903 58.0792 40.0349 57.7704 39.9687 57.4375L38 47.6172" stroke="#0066FF" stroke-width="2" stroke-linecap="round" stroke-linejoin="round"/>
<path d="M40.6484 23.7344H25.5078C25.0132 23.7414 24.5415 23.9436 24.1953 24.2969L16.6016 31.8672C16.3617 32.1074 16.1915 32.4082 16.1091 32.7375C16.0268 33.0668 16.0354 33.4123 16.1341 33.7371C16.2327 34.0619 16.4177 34.3539 16.6693 34.5818C16.9208 34.8097 17.2296 34.965 17.5625 35.0312L27.3828 37" stroke="#0066FF" stroke-width="2" stroke-linecap="round" stroke-linejoin="round"/>
</svg>
