<svg width="75" height="75" viewBox="0 0 75 75" fill="none" xmlns="http://www.w3.org/2000/svg">
<rect width="75" height="75" rx="5" fill="#EFEECA"/>
<path d="M53 58.625V17.375C53 15.3039 51.3211 13.625 49.25 13.625L26.75 13.625C24.6789 13.625 23 15.3039 23 17.375L23 58.625C23 60.6961 24.6789 62.375 26.75 62.375H49.25C51.3211 62.375 53 60.6961 53 58.625Z" stroke="#DD7719" stroke-width="2" stroke-linecap="round" stroke-linejoin="round"/>
<path d="M38 24.875C39.5533 24.875 40.8125 23.6158 40.8125 22.0625C40.8125 20.5092 39.5533 19.25 38 19.25C36.4467 19.25 35.1875 20.5092 35.1875 22.0625C35.1875 23.6158 36.4467 24.875 38 24.875Z" fill="#DD7719"/>
</svg>
