<svg width="215" height="169" viewBox="0 0 215 169" fill="none" xmlns="http://www.w3.org/2000/svg">
<g clip-path="url(#clip0_1_223)">
<path d="M146.712 40.0506H145.786V14.682C145.786 10.7881 144.239 7.05369 141.485 4.30027C138.732 1.54685 134.998 0 131.104 0H77.3576C73.4637 0 69.7292 1.54685 66.9758 4.30027C64.2224 7.05369 62.6755 10.7881 62.6755 14.682V153.855C62.6755 157.749 64.2224 161.483 66.9758 164.236C69.7292 166.99 73.4637 168.537 77.3576 168.537H131.104C134.998 168.537 138.732 166.99 141.485 164.236C144.239 161.483 145.786 157.749 145.786 153.855V58.108H146.712L146.712 40.0506Z" fill="#090814"/>
<path d="M131.698 3.81982H124.682C125.005 4.61081 125.128 5.469 125.041 6.3188C124.954 7.1686 124.659 7.98393 124.183 8.69295C123.706 9.40198 123.063 9.98294 122.309 10.3847C121.555 10.7864 120.714 10.9965 119.859 10.9966H89.0675C88.2132 10.9966 87.3721 10.7865 86.6181 10.3848C85.8642 9.98306 85.2206 9.4021 84.7441 8.69307C84.2676 7.98403 83.9727 7.16869 83.8856 6.31887C83.7984 5.46905 83.9216 4.61083 84.2442 3.81982H77.6919C74.7838 3.81982 71.9949 4.97504 69.9386 7.03135C67.8823 9.08765 66.7271 11.8766 66.7271 14.7846V153.753C66.7271 156.661 67.8823 159.45 69.9386 161.506C71.9949 163.563 74.7838 164.718 77.6919 164.718H131.696C133.136 164.718 134.562 164.434 135.892 163.883C137.222 163.332 138.431 162.525 139.449 161.506C140.467 160.488 141.275 159.279 141.826 157.949C142.377 156.619 142.661 155.193 142.661 153.753V14.7846C142.661 11.877 141.506 9.08843 139.45 7.0322C137.394 4.97596 134.606 3.82046 131.698 3.81982Z" fill="white"/>
<path d="M129.998 116.2H79.3903C78.034 116.198 76.7337 115.659 75.7746 114.7C74.8156 113.741 74.2761 112.441 74.2747 111.084V44.073C74.2761 42.7167 74.8156 41.4163 75.7746 40.4573C76.7337 39.4982 78.034 38.9588 79.3903 38.9573H129.998C131.354 38.9588 132.654 39.4982 133.613 40.4573C134.572 41.4163 135.112 42.7167 135.113 44.073V111.083C135.112 112.439 134.573 113.74 133.614 114.699C132.655 115.659 131.354 116.198 129.998 116.2Z" fill="#E6E6E6"/>
<path d="M126.44 111.936H82.9478C81.7436 111.935 80.5892 111.456 79.7377 110.604C78.8862 109.753 78.4072 108.598 78.4058 107.394V47.7642C78.4071 46.56 78.8861 45.4055 79.7376 44.554C80.5891 43.7025 81.7436 43.2235 82.9478 43.2222H126.44C127.645 43.223 128.8 43.7018 129.652 44.5533C130.504 45.4049 130.983 46.5597 130.984 47.7642V107.394C130.983 108.599 130.504 109.754 129.652 110.605C128.8 111.457 127.645 111.935 126.44 111.936Z" fill="white"/>
<path d="M122.102 54.554H87.2861C86.9849 54.554 86.6959 54.4343 86.4829 54.2212C86.2698 54.0082 86.1501 53.7193 86.1501 53.418C86.1501 53.1167 86.2698 52.8277 86.4829 52.6147C86.6959 52.4017 86.9849 52.282 87.2861 52.282H122.102C122.403 52.282 122.692 52.4017 122.905 52.6147C123.118 52.8277 123.238 53.1167 123.238 53.418C123.238 53.7193 123.118 54.0082 122.905 54.2212C122.692 54.4343 122.403 54.554 122.102 54.554Z" fill="#E4E4E4"/>
<path d="M122.102 59.0405H87.2861C86.9849 59.0405 86.6959 58.9208 86.4829 58.7078C86.2698 58.4948 86.1501 58.2058 86.1501 57.9045C86.1501 57.6033 86.2698 57.3143 86.4829 57.1013C86.6959 56.8882 86.9849 56.7686 87.2861 56.7686H122.102C122.403 56.7686 122.692 56.8882 122.905 57.1013C123.118 57.3143 123.238 57.6033 123.238 57.9045C123.238 58.2058 123.118 58.4948 122.905 58.7078C122.692 58.9208 122.403 59.0405 122.102 59.0405Z" fill="white"/>
<path d="M102.378 63.5276H87.2861C86.9849 63.5276 86.6959 63.4079 86.4829 63.1949C86.2698 62.9818 86.1501 62.6929 86.1501 62.3916C86.1501 62.0903 86.2698 61.8014 86.4829 61.5883C86.6959 61.3753 86.9849 61.2556 87.2861 61.2556H102.378C102.679 61.2556 102.968 61.3753 103.181 61.5883C103.394 61.8014 103.514 62.0903 103.514 62.3916C103.514 62.6929 103.394 62.9818 103.181 63.1949C102.968 63.4079 102.679 63.5276 102.378 63.5276Z" fill="#E4E4E4"/>
<path d="M122.102 72.9241H87.2861C86.9849 72.9241 86.6959 72.8044 86.4829 72.5914C86.2698 72.3783 86.1501 72.0894 86.1501 71.7881C86.1501 71.4868 86.2698 71.1979 86.4829 70.9848C86.6959 70.7718 86.9849 70.6521 87.2861 70.6521H122.102C122.403 70.6521 122.692 70.7718 122.905 70.9848C123.118 71.1979 123.238 71.4868 123.238 71.7881C123.238 72.0894 123.118 72.3783 122.905 72.5914C122.692 72.8044 122.403 72.9241 122.102 72.9241Z" fill="#E4E4E4"/>
<path d="M122.102 77.4106H87.2861C86.9849 77.4106 86.6959 77.291 86.4829 77.0779C86.2698 76.8649 86.1501 76.5759 86.1501 76.2747C86.1501 75.9734 86.2698 75.6844 86.4829 75.4714C86.6959 75.2584 86.9849 75.1387 87.2861 75.1387H122.102C122.403 75.1387 122.692 75.2584 122.905 75.4714C123.118 75.6844 123.238 75.9734 123.238 76.2747C123.238 76.5759 123.118 76.8649 122.905 77.0779C122.692 77.291 122.403 77.4106 122.102 77.4106Z" fill="#E4E4E4"/>
<path d="M102.378 81.8977H87.2861C86.9849 81.8977 86.6959 81.778 86.4829 81.565C86.2698 81.3519 86.1501 81.063 86.1501 80.7617C86.1501 80.4604 86.2698 80.1715 86.4829 79.9585C86.6959 79.7454 86.9849 79.6257 87.2861 79.6257H102.378C102.679 79.6257 102.968 79.7454 103.181 79.9585C103.394 80.1715 103.514 80.4604 103.514 80.7617C103.514 81.063 103.394 81.3519 103.181 81.565C102.968 81.778 102.679 81.8977 102.378 81.8977Z" fill="#E4E4E4"/>
<path d="M122.102 91.2944H87.2861C86.9849 91.2944 86.6959 91.1747 86.4829 90.9617C86.2698 90.7487 86.1501 90.4597 86.1501 90.1584C86.1501 89.8572 86.2698 89.5682 86.4829 89.3552C86.6959 89.1421 86.9849 89.0225 87.2861 89.0225H122.102C122.403 89.0225 122.692 89.1421 122.905 89.3552C123.118 89.5682 123.238 89.8572 123.238 90.1584C123.238 90.4597 123.118 90.7487 122.905 90.9617C122.692 91.1747 122.403 91.2944 122.102 91.2944Z" fill="white"/>
<path d="M122.102 95.7815H87.2861C86.9849 95.7815 86.6959 95.6618 86.4829 95.4488C86.2698 95.2357 86.1501 94.9468 86.1501 94.6455C86.1501 94.3442 86.2698 94.0553 86.4829 93.8422C86.6959 93.6292 86.9849 93.5095 87.2861 93.5095H122.102C122.403 93.5095 122.692 93.6292 122.905 93.8422C123.118 94.0553 123.238 94.3442 123.238 94.6455C123.238 94.9468 123.118 95.2357 122.905 95.4488C122.692 95.6618 122.403 95.7815 122.102 95.7815Z" fill="#E4E4E4"/>
<path d="M102.378 100.267H87.2861C86.9849 100.267 86.6959 100.148 86.4829 99.9346C86.2698 99.7216 86.1501 99.4326 86.1501 99.1313C86.1501 98.8301 86.2698 98.5411 86.4829 98.3281C86.6959 98.115 86.9849 97.9954 87.2861 97.9954H102.378C102.679 97.9954 102.968 98.115 103.181 98.3281C103.394 98.5411 103.514 98.8301 103.514 99.1313C103.514 99.4326 103.394 99.7216 103.181 99.9346C102.968 100.148 102.679 100.267 102.378 100.267Z" fill="#E4E4E4"/>
<path d="M85.593 90.8286L47.7681 58.4751H22.3562V57.9985H47.944L85.9028 90.4664L85.593 90.8286Z" fill="#2F2E41"/>
<path d="M22.3561 62.0499C24.4621 62.0499 26.1693 60.3427 26.1693 58.2368C26.1693 56.1308 24.4621 54.4236 22.3561 54.4236C20.2502 54.4236 18.543 56.1308 18.543 58.2368C18.543 60.3427 20.2502 62.0499 22.3561 62.0499Z" fill="white"/>
<path d="M35.9512 71.062H1.1355C0.834217 71.062 0.545274 70.9423 0.332235 70.7293C0.119196 70.5162 -0.000488281 70.2273 -0.000488281 69.926C-0.000488281 69.6247 0.119196 69.3358 0.332235 69.1228C0.545274 68.9097 0.834217 68.79 1.1355 68.79H35.9512C36.2525 68.79 36.5415 68.9097 36.7545 69.1228C36.9675 69.3358 37.0872 69.6247 37.0872 69.926C37.0872 70.2273 36.9675 70.5162 36.7545 70.7293C36.5415 70.9423 36.2525 71.062 35.9512 71.062Z" fill="white"/>
<path d="M35.9512 75.5498H1.1355C0.834217 75.5498 0.545274 75.4301 0.332235 75.2171C0.119196 75.004 -0.000488281 74.7151 -0.000488281 74.4138C-0.000488281 74.1125 0.119196 73.8236 0.332235 73.6106C0.545274 73.3975 0.834217 73.2778 1.1355 73.2778H35.9512C36.2525 73.2778 36.5415 73.3975 36.7545 73.6106C36.9675 73.8236 37.0872 74.1125 37.0872 74.4138C37.0872 74.7151 36.9675 75.004 36.7545 75.2171C36.5415 75.4301 36.2525 75.5498 35.9512 75.5498Z" fill="white"/>
<path d="M16.2273 80.0356H1.1355C0.834217 80.0356 0.545274 79.916 0.332235 79.7029C0.119196 79.4899 -0.000488281 79.2009 -0.000488281 78.8997C-0.000488281 78.5984 0.119196 78.3094 0.332235 78.0964C0.545274 77.8834 0.834217 77.7637 1.1355 77.7637H16.2273C16.5286 77.7637 16.8175 77.8834 17.0306 78.0964C17.2436 78.3094 17.3633 78.5984 17.3633 78.8997C17.3633 79.2009 17.2436 79.4899 17.0306 79.7029C16.8175 79.916 16.5286 80.0356 16.2273 80.0356Z" fill="white"/>
<path d="M124.105 58.7374L162.064 26.2695H187.652V26.7461H162.24L124.415 59.0998L124.105 58.7374Z" fill="#2F2E41"/>
<path d="M187.652 30.3209C189.758 30.3209 191.465 28.6137 191.465 26.5078C191.465 24.4018 189.758 22.6946 187.652 22.6946C185.546 22.6946 183.839 24.4018 183.839 26.5078C183.839 28.6137 185.546 30.3209 187.652 30.3209Z" fill="white"/>
<path d="M213.579 39.1995H178.763C178.462 39.1995 178.173 39.0798 177.96 38.8667C177.747 38.6537 177.627 38.3648 177.627 38.0635C177.627 37.7622 177.747 37.4733 177.96 37.2602C178.173 37.0472 178.462 36.9275 178.763 36.9275H213.579C213.88 36.9275 214.169 37.0472 214.382 37.2602C214.595 37.4733 214.715 37.7622 214.715 38.0635C214.715 38.3648 214.595 38.6537 214.382 38.8667C214.169 39.0798 213.88 39.1995 213.579 39.1995Z" fill="white"/>
<path d="M213.579 43.686H178.763C178.462 43.686 178.173 43.5664 177.96 43.3533C177.747 43.1403 177.627 42.8513 177.627 42.5501C177.627 42.2488 177.747 41.9598 177.96 41.7468C178.173 41.5337 178.462 41.4141 178.763 41.4141H213.579C213.88 41.4141 214.169 41.5337 214.382 41.7468C214.595 41.9598 214.715 42.2488 214.715 42.5501C214.715 42.8513 214.595 43.1403 214.382 43.3533C214.169 43.5664 213.88 43.686 213.579 43.686Z" fill="white"/>
<path d="M193.855 48.1729H178.763C178.462 48.1729 178.173 48.0532 177.96 47.8401C177.747 47.6271 177.627 47.3381 177.627 47.0369C177.627 46.7356 177.747 46.4466 177.96 46.2336C178.173 46.0206 178.462 45.9009 178.763 45.9009H193.855C194.156 45.9009 194.445 46.0206 194.658 46.2336C194.871 46.4466 194.991 46.7356 194.991 47.0369C194.991 47.3381 194.871 47.6271 194.658 47.8401C194.445 48.0532 194.156 48.1729 193.855 48.1729Z" fill="white"/>
</g>
<defs>
<clipPath id="clip0_1_223">
<rect width="214.714" height="168.537" fill="white"/>
</clipPath>
</defs>
</svg>
