<svg width="242" height="168" viewBox="0 0 242 168" fill="none" xmlns="http://www.w3.org/2000/svg">
<g clip-path="url(#clip0_1_198)">
<path d="M237.699 -0.000488281H4.11731C3.0163 0.0102518 1.9645 0.457238 1.19261 1.24243C0.42073 2.02762 -0.00821275 3.08692 -0.000132004 4.18795V162.884C-0.00604779 163.983 0.423924 165.04 1.19564 165.824C1.96735 166.607 3.01792 167.052 4.11731 167.062H237.699C238.799 167.052 239.849 166.606 240.621 165.823C241.393 165.04 241.823 163.983 241.817 162.884V4.18831C241.825 3.08735 241.396 2.02812 240.624 1.24293C239.852 0.45775 238.801 0.0107158 237.7 -0.000121564L237.699 -0.000488281Z" fill="#090814"/>
<path d="M203.437 0.82959H4.33918C3.40773 0.831646 2.51513 1.20308 1.85719 1.86241C1.19925 2.52174 0.829685 3.41512 0.82959 4.34657V137.594C0.831154 138.524 1.20143 139.416 1.85927 140.074C2.5171 140.731 3.40886 141.102 4.33918 141.103H203.436C204.367 141.102 205.258 140.731 205.916 140.074C206.574 139.416 206.944 138.524 206.946 137.594V4.34805C206.946 3.41666 206.576 2.52333 205.918 1.86402C205.261 1.2047 204.368 0.833222 203.437 0.831068V0.82959Z" fill="#090814"/>
<path d="M230.796 0.829108H4.36408C3.30443 0.830969 2.28881 1.25319 1.54015 2.0031C0.791488 2.75301 0.370946 3.76932 0.37085 4.82897V156.37C0.372219 157.429 0.793379 158.444 1.54195 159.192C2.29053 159.941 3.30543 160.362 4.36408 160.363H230.796C231.855 160.362 232.87 159.941 233.619 159.192C234.367 158.444 234.788 157.429 234.79 156.37V4.82823C234.79 3.76894 234.369 2.7529 233.621 2.00303C232.873 1.25317 231.858 0.830719 230.799 0.828369L230.796 0.829108Z" fill="white"/>
<path d="M223.943 21.7094H12.0709C11.8474 21.7094 11.6331 21.6207 11.4751 21.4627C11.317 21.3046 11.2283 21.0903 11.2283 20.8668C11.2283 20.6433 11.317 20.429 11.4751 20.271C11.6331 20.113 11.8474 20.0242 12.0709 20.0242H223.943C224.166 20.0242 224.381 20.113 224.539 20.271C224.697 20.429 224.786 20.6433 224.786 20.8668C224.786 21.0903 224.697 21.3046 224.539 21.4627C224.381 21.6207 224.166 21.7094 223.943 21.7094Z" fill="#CACACA"/>
<path d="M16.185 15.7219C18.9121 15.7219 21.1229 13.462 21.1229 10.6742C21.1229 7.8864 18.9121 5.62646 16.185 5.62646C13.4578 5.62646 11.2471 7.8864 11.2471 10.6742C11.2471 13.462 13.4578 15.7219 16.185 15.7219Z" fill="#3F3D56"/>
<path d="M33.2423 15.7219C35.9695 15.7219 38.1802 13.462 38.1802 10.6742C38.1802 7.8864 35.9695 5.62646 33.2423 5.62646C30.5152 5.62646 28.3044 7.8864 28.3044 10.6742C28.3044 13.462 30.5152 15.7219 33.2423 15.7219Z" fill="#3F3D56"/>
<path d="M50.3 15.7219C53.0271 15.7219 55.2379 13.462 55.2379 10.6742C55.2379 7.8864 53.0271 5.62646 50.3 5.62646C47.5728 5.62646 45.3621 7.8864 45.3621 10.6742C45.3621 13.462 47.5728 15.7219 50.3 15.7219Z" fill="#EE2524"/>
<path d="M219.829 15.7219C222.556 15.7219 224.767 13.462 224.767 10.6742C224.767 7.8864 222.556 5.62646 219.829 5.62646C217.102 5.62646 214.891 7.8864 214.891 10.6742C214.891 13.462 217.102 15.7219 219.829 15.7219Z" fill="#E6E6E6"/>
<path d="M178.062 60.2578H129.424C124.523 60.2578 120.55 64.2307 120.55 69.1316V80.4276C120.55 85.3285 124.523 89.3014 129.424 89.3014H178.062C182.963 89.3014 186.936 85.3285 186.936 80.4276V69.1316C186.936 64.2307 182.963 60.2578 178.062 60.2578Z" fill="#EE2524"/>
<path d="M105.581 60.2578H56.9431C52.0423 60.2578 48.0693 64.2307 48.0693 69.1316V80.4276C48.0693 85.3285 52.0423 89.3014 56.9431 89.3014H105.581C110.482 89.3014 114.455 85.3285 114.455 80.4276V69.1316C114.455 64.2307 110.482 60.2578 105.581 60.2578Z" fill="#E6E6E6"/>
<path d="M56.5602 72.1647V73.8877H58.4385V74.4424H56.5602V76.2171H58.6603V76.7717H55.8873V71.6101H58.6603V72.1647H56.5602ZM61.653 72.6454C62.146 72.6454 62.5453 72.7958 62.8509 73.0965C63.1566 73.3923 63.3094 73.8212 63.3094 74.3832V76.7717H62.6439V74.4793C62.6439 74.0751 62.5428 73.767 62.3407 73.555C62.1386 73.3381 61.8625 73.2296 61.5125 73.2296C61.1575 73.2296 60.8741 73.3405 60.6621 73.5624C60.455 73.7842 60.3515 74.1071 60.3515 74.5311V76.7717H59.6786V72.7194H60.3515V73.2962C60.4846 73.0891 60.6645 72.9289 60.8913 72.8155C61.123 72.7021 61.3769 72.6454 61.653 72.6454ZM65.2295 73.274V75.6625C65.2295 75.8597 65.2714 76.0002 65.3552 76.084C65.439 76.1629 65.5844 76.2023 65.7915 76.2023H66.2869V76.7717H65.6806C65.3059 76.7717 65.0249 76.6855 64.8376 76.5129C64.6502 76.3404 64.5566 76.0569 64.5566 75.6625V73.274H64.0315V72.7194H64.5566V71.6989H65.2295V72.7194H66.2869V73.274H65.2295ZM70.7997 74.5903C70.7997 74.7184 70.7923 74.854 70.7775 74.997H67.5386C67.5632 75.3963 67.6988 75.7093 67.9453 75.9361C68.1967 76.158 68.4999 76.2689 68.8549 76.2689C69.1457 76.2689 69.3873 76.2023 69.5796 76.0692C69.7767 75.9312 69.9148 75.7488 69.9937 75.522H70.7184C70.6099 75.9115 70.393 76.2294 70.0676 76.4759C69.7422 76.7175 69.338 76.8383 68.8549 76.8383C68.4703 76.8383 68.1252 76.752 67.8196 76.5795C67.5189 76.4069 67.2822 76.1629 67.1097 75.8474C66.9371 75.5269 66.8509 75.1572 66.8509 74.7381C66.8509 74.3191 66.9347 73.9518 67.1023 73.6363C67.2699 73.3208 67.5041 73.0792 67.8048 72.9116C68.1104 72.7391 68.4605 72.6528 68.8549 72.6528C69.2394 72.6528 69.5796 72.7366 69.8753 72.9042C70.1711 73.0718 70.3979 73.3036 70.5557 73.5993C70.7184 73.8902 70.7997 74.2205 70.7997 74.5903ZM70.1046 74.4498C70.1046 74.1934 70.0479 73.974 69.9345 73.7916C69.8211 73.6043 69.6658 73.4638 69.4686 73.3701C69.2764 73.2715 69.0619 73.2222 68.8253 73.2222C68.4851 73.2222 68.1943 73.3307 67.9527 73.5476C67.7161 73.7645 67.5805 74.0652 67.546 74.4498H70.1046ZM72.3609 73.3775C72.4792 73.1458 72.6468 72.9659 72.8637 72.8377C73.0856 72.7095 73.3542 72.6454 73.6698 72.6454V73.3405H73.4923C72.738 73.3405 72.3609 73.7497 72.3609 74.5681V76.7717H71.6879V72.7194H72.3609V73.3775ZM80.6775 71.6175L78.7326 76.7717H77.9562L76.0113 71.6175H76.7286L78.3481 76.0618L79.9676 71.6175H80.6775ZM82.0883 71.6175V76.7717H81.4153V71.6175H82.0883ZM87.2875 76.7717H86.6146L83.9081 72.6676V76.7717H83.2352V71.6101H83.9081L86.6146 75.7069V71.6101H87.2875V76.7717Z" fill="black"/>
<path d="M152.913 82.6639C152.71 82.6639 152.514 82.5895 152.362 82.4546C152.21 82.3198 152.113 82.1339 152.089 81.9322C151.933 80.638 151.349 79.4333 150.428 78.5102C149.509 77.594 148.311 77.0103 147.023 76.8515C146.884 76.8379 146.75 76.789 146.634 76.7094C146.518 76.6298 146.425 76.5222 146.362 76.3966C146.299 76.271 146.269 76.1316 146.275 75.9913C146.281 75.851 146.322 75.7144 146.395 75.5944C146.842 74.8247 147.46 74.168 148.201 73.675C148.942 73.182 149.786 72.8659 150.669 72.7511C151.277 71.3272 152.272 70.1019 153.541 69.214C154.81 68.326 156.301 67.8107 157.848 67.7263C157.863 67.7263 157.878 67.7263 157.893 67.7263C158.773 67.7272 159.617 68.0772 160.239 68.6994C160.861 69.3217 161.211 70.1654 161.212 71.0455C161.212 71.0605 161.212 71.0756 161.212 71.0906C161.128 72.6369 160.612 74.1286 159.724 75.3972C158.836 76.6658 157.611 77.6606 156.187 78.2691C156.072 79.1549 155.754 80.0023 155.258 80.7453C154.762 81.4882 154.102 82.1068 153.328 82.553C153.202 82.6256 153.059 82.6639 152.913 82.6639ZM148.567 75.4946C149.712 75.8564 150.753 76.4877 151.603 77.3355C152.451 78.1858 153.081 79.2269 153.443 80.3715C154.141 79.6361 154.543 78.6694 154.573 77.6561C154.579 77.489 154.635 77.3274 154.734 77.1926C154.833 77.0578 154.97 76.9561 155.128 76.9007C156.364 76.4687 157.444 75.6797 158.231 74.6337C159.019 73.5877 159.478 72.3316 159.552 71.0244C159.546 70.5918 159.371 70.1786 159.065 69.8726C158.759 69.5667 158.346 69.3921 157.913 69.3861C156.606 69.4594 155.35 69.919 154.304 70.7065C153.257 71.4941 152.468 72.5743 152.036 73.8104C151.981 73.9682 151.879 74.1056 151.744 74.2046C151.61 74.3036 151.448 74.3595 151.281 74.365C150.268 74.3954 149.302 74.7975 148.567 75.4946Z" fill="white"/>
<path d="M147.073 83.072C146.787 83.072 146.502 83.0547 146.218 83.0203C146.019 83.0009 145.832 82.9165 145.686 82.78C145.539 82.6435 145.442 82.4626 145.409 82.2652C145.24 81.05 145.463 79.8123 146.048 78.7335C146.651 77.6228 147.573 76.7186 148.696 76.1379C148.912 76.0229 149.163 75.9933 149.4 76.0549C149.637 76.1165 149.842 76.2649 149.975 76.4706C150.035 76.5711 150.074 76.683 150.088 76.7991C150.103 76.9153 150.093 77.0332 150.059 77.1453C150.026 77.2575 149.969 77.3615 149.894 77.4507C149.818 77.5398 149.724 77.6123 149.619 77.6634C148.933 78.0068 148.351 78.5263 147.932 79.1689C147.512 79.8115 147.272 80.5539 147.234 81.3202C148.021 81.3056 148.793 81.0946 149.478 80.7063C150.163 80.3181 150.74 79.7649 151.157 79.0969C151.29 78.8912 151.495 78.7428 151.732 78.6812C151.969 78.6195 152.22 78.6492 152.436 78.7642C152.541 78.8153 152.635 78.8877 152.711 78.9769C152.787 79.0661 152.843 79.1701 152.876 79.2823C152.91 79.3944 152.92 79.5123 152.905 79.6285C152.891 79.7446 152.852 79.8565 152.792 79.9569C152.13 81.0382 151.161 81.8975 150.008 82.4253C149.089 82.8527 148.087 83.0735 147.073 83.072Z" fill="white"/>
<path d="M156.246 73.9949C155.988 73.9949 155.736 73.9184 155.522 73.7753C155.307 73.6321 155.14 73.4286 155.042 73.1905C154.943 72.9524 154.917 72.6904 154.968 72.4377C155.018 72.1849 155.142 71.9528 155.324 71.7705C155.506 71.5883 155.739 71.4642 155.991 71.414C156.244 71.3637 156.506 71.3895 156.744 71.4881C156.982 71.5867 157.186 71.7537 157.329 71.968C157.472 72.1823 157.549 72.4342 157.549 72.6919C157.548 73.0373 157.411 73.3685 157.167 73.6128C156.922 73.8571 156.591 73.9945 156.246 73.9949Z" fill="white"/>
<path d="M88.6655 120.942H147.078C147.584 120.942 148.068 120.741 148.426 120.384C148.783 120.026 148.984 119.542 148.984 119.036C148.984 118.531 148.783 118.046 148.426 117.689C148.068 117.332 147.584 117.131 147.078 117.131H88.6655C88.1602 117.131 87.6756 117.332 87.3183 117.689C86.961 118.046 86.7603 118.531 86.7603 119.036C86.7603 119.542 86.961 120.026 87.3183 120.384C87.6756 120.741 88.1602 120.942 88.6655 120.942Z" fill="#E4E4E4"/>
<path d="M88.666 130.551H113.986C114.492 130.551 114.976 130.35 115.333 129.993C115.691 129.635 115.892 129.151 115.892 128.645C115.892 128.14 115.691 127.655 115.333 127.298C114.976 126.941 114.492 126.74 113.986 126.74H88.666C88.1606 126.74 87.6759 126.941 87.3186 127.298C86.9612 127.655 86.7605 128.14 86.7605 128.645C86.7605 129.151 86.9612 129.635 87.3186 129.993C87.6759 130.35 88.1606 130.551 88.666 130.551V130.551Z" fill="#E4E4E4"/>
</g>
<defs>
<clipPath id="clip0_1_198">
<rect width="241.817" height="167.064" fill="white"/>
</clipPath>
</defs>
</svg>
