<svg width="246" height="150" viewBox="0 0 246 150" fill="none" xmlns="http://www.w3.org/2000/svg">
<g clip-path="url(#clip0_1_253)">
<path d="M126.037 121.3L40.1481 143.417C37.2347 144.164 34.144 143.725 31.5542 142.195C28.9643 140.666 27.0868 138.172 26.3334 135.26L0.360011 34.3915C-0.386691 31.4781 0.0527421 28.3874 1.58191 25.7976C3.11107 23.2077 5.60508 21.3302 8.51681 20.5768L88.422 0.000488281L108.872 9.15581L134.193 107.485C134.94 110.399 134.501 113.489 132.972 116.079C131.442 118.669 128.948 120.547 126.037 121.3Z" fill="#F2F2F2"/>
<path d="M9.32956 23.7394C7.25605 24.2758 5.47998 25.6128 4.39101 27.4571C3.30203 29.3014 2.98908 31.5023 3.5208 33.577L29.4959 134.446C30.0323 136.52 31.3693 138.296 33.2136 139.385C35.0578 140.474 37.2588 140.787 39.3335 140.255L125.222 118.138C127.295 117.602 129.072 116.265 130.161 114.421C131.249 112.576 131.562 110.375 131.031 108.301L106.102 11.494L88.1286 3.44775L9.32956 23.7394Z" fill="white"/>
<path d="M108.654 9.67715L95.3618 13.1001C94.3914 13.35 93.3615 13.2041 92.4987 12.6946C91.6358 12.1851 91.0107 11.3538 90.7609 10.3834L88.2327 0.565781C88.2217 0.522822 88.223 0.477634 88.2365 0.435387C88.25 0.39314 88.2751 0.355539 88.309 0.326891C88.3428 0.298243 88.384 0.279708 88.4279 0.273399C88.4718 0.26709 88.5166 0.273263 88.5572 0.291218L108.691 9.23267C108.736 9.2526 108.774 9.28596 108.799 9.32815C108.824 9.37033 108.835 9.41923 108.831 9.46807C108.827 9.51692 108.807 9.56328 108.776 9.60075C108.744 9.63821 108.702 9.66491 108.654 9.67715Z" fill="#F2F2F2"/>
<path d="M101.661 95.8159L62.5574 105.886C62.0733 106.008 61.5607 105.933 61.1315 105.678C60.7024 105.423 60.3917 105.009 60.2672 104.525C60.1427 104.042 60.2146 103.529 60.4672 103.098C60.7198 102.668 61.1326 102.355 61.6153 102.228L100.719 92.1571C100.96 92.0936 101.211 92.0784 101.457 92.1123C101.704 92.1462 101.942 92.2284 102.156 92.3544C102.371 92.4804 102.559 92.6476 102.709 92.8464C102.859 93.0452 102.968 93.2717 103.03 93.5128C103.092 93.7539 103.106 94.0049 103.071 94.2514C103.035 94.4979 102.952 94.7349 102.824 94.949C102.697 95.163 102.529 95.3498 102.329 95.4986C102.13 95.6474 101.903 95.7552 101.661 95.8159Z" fill="#CCCCCC"/>
<path d="M110.797 100.047L64.1471 112.06C63.9063 112.124 63.6554 112.139 63.4088 112.105C63.1621 112.071 62.9245 111.989 62.7098 111.863C62.495 111.737 62.3073 111.57 62.1574 111.371C62.0075 111.172 61.8984 110.945 61.8363 110.704C61.7742 110.463 61.7604 110.212 61.7957 109.966C61.8309 109.719 61.9145 109.482 62.0417 109.268C62.1689 109.054 62.3372 108.867 62.5368 108.719C62.7365 108.57 62.9635 108.462 63.205 108.401L109.855 96.3881C110.339 96.2664 110.852 96.3412 111.281 96.5962C111.71 96.8512 112.021 97.2657 112.145 97.7491C112.27 98.2325 112.198 98.7456 111.945 99.1761C111.693 99.6067 111.28 99.9198 110.797 100.047Z" fill="#CCCCCC"/>
<path d="M46.5975 118.014C50.2851 118.014 53.2745 115.024 53.2745 111.337C53.2745 107.649 50.2851 104.66 46.5975 104.66C42.9098 104.66 39.9204 107.649 39.9204 111.337C39.9204 115.024 42.9098 118.014 46.5975 118.014Z" fill="#EE2524"/>
<path d="M97.5032 78.3423L45.5691 91.7108C44.0682 92.0954 42.476 91.8689 41.1419 91.081C39.8078 90.2931 38.8407 89.0082 38.4528 87.5081L27.5698 45.2286C27.1856 43.7279 27.4123 42.1361 28.2001 40.8023C28.988 39.4684 30.2727 38.5016 31.7725 38.1137L83.7062 24.7451C85.2071 24.3605 86.7993 24.587 88.1334 25.3749C89.4675 26.1628 90.4346 27.4478 90.8225 28.9478L101.706 71.2273C102.09 72.7281 101.863 74.3199 101.076 75.6537C100.288 76.9875 99.0029 77.9544 97.5032 78.3423Z" fill="white"/>
<path d="M97.5032 78.3423L45.5691 91.7108C44.0682 92.0954 42.476 91.8689 41.1419 91.081C39.8078 90.2931 38.8407 89.0082 38.4528 87.5081L27.5698 45.2286C27.1856 43.7279 27.4123 42.1361 28.2001 40.8023C28.988 39.4684 30.2727 38.5016 31.7725 38.1137L83.7062 24.7451C85.2071 24.3605 86.7993 24.587 88.1334 25.3749C89.4675 26.1628 90.4346 27.4478 90.8225 28.9478L101.706 71.2273C102.09 72.7281 101.863 74.3199 101.076 75.6537C100.288 76.9875 99.0029 77.9544 97.5032 78.3423ZM31.9437 38.7782C30.6204 39.1208 29.487 39.9743 28.7921 41.1514C28.0972 42.3286 27.8976 43.7333 28.237 45.0574L39.1204 87.3369C39.463 88.6602 40.3164 89.7936 41.4935 90.4885C42.6707 91.1834 44.0754 91.383 45.3995 91.0436L97.3323 77.6764C98.6556 77.3338 99.789 76.4803 100.484 75.3032C101.179 74.1261 101.378 72.7214 101.039 71.3972L90.1566 29.1178C89.814 27.7945 88.9605 26.6611 87.7834 25.9662C86.6063 25.2713 85.2016 25.0716 83.8774 25.411L31.9437 38.7782Z" fill="#E6E6E6"/>
<path d="M81.0715 38.9597L54.8619 45.7066C54.6328 45.7706 54.3879 45.7452 54.1768 45.6356C53.9657 45.526 53.8041 45.3404 53.7246 45.1162C53.6876 44.999 53.6749 44.8755 53.6872 44.7533C53.6995 44.631 53.7366 44.5126 53.7962 44.4051C53.8558 44.2977 53.9367 44.2035 54.0339 44.1284C54.1311 44.0532 54.2426 43.9987 54.3616 43.9681L81.0419 37.1001C82.1198 37.6463 81.8361 38.7632 81.0718 38.96L81.0715 38.9597Z" fill="#F2F2F2"/>
<path d="M82.2541 43.5559L56.0445 50.3028C55.8154 50.3668 55.5705 50.3414 55.3594 50.2318C55.1483 50.1222 54.9867 49.9365 54.9072 49.7124C54.8702 49.5952 54.8575 49.4717 54.8698 49.3495C54.8821 49.2272 54.9192 49.1088 54.9788 49.0013C55.0384 48.8939 55.1193 48.7997 55.2165 48.7246C55.3137 48.6494 55.4252 48.5949 55.5442 48.5643L82.2246 41.6963C83.3025 42.2425 83.0187 43.3594 82.2544 43.5562L82.2541 43.5559Z" fill="#F2F2F2"/>
<path d="M51.0524 54.38L43.0534 56.4384C42.924 56.4717 42.7894 56.4792 42.6571 56.4605C42.5248 56.4418 42.3975 56.3972 42.2825 56.3293C42.1675 56.2613 42.067 56.1714 41.9867 56.0646C41.9065 55.9578 41.848 55.8363 41.8148 55.7069L39.3847 46.2695C39.3514 46.1401 39.3439 46.0054 39.3626 45.8732C39.3813 45.7409 39.4259 45.6136 39.4938 45.4986C39.5618 45.3835 39.6517 45.283 39.7585 45.2028C39.8653 45.1225 39.9868 45.0641 40.1162 45.0308L48.1152 42.9718C48.3765 42.9049 48.6536 42.9443 48.8858 43.0815C49.118 43.2186 49.2863 43.4422 49.3539 43.7033L51.7839 53.143C51.8173 53.2724 51.8248 53.407 51.8061 53.5393C51.7873 53.6716 51.7427 53.7988 51.6748 53.9139C51.6069 54.0289 51.5169 54.1294 51.4101 54.2097C51.3034 54.2899 51.1818 54.3484 51.0524 54.3816V54.38Z" fill="#EE2524"/>
<path d="M84.6018 52.9903L44.6001 63.2872C44.371 63.3511 44.1262 63.3257 43.9151 63.2161C43.704 63.1065 43.5424 62.9209 43.4629 62.6967C43.4259 62.5795 43.4131 62.4561 43.4255 62.3338C43.4378 62.2116 43.4749 62.0931 43.5345 61.9857C43.5941 61.8782 43.675 61.7841 43.7722 61.7089C43.8694 61.6338 43.9809 61.5792 44.0999 61.5486L84.5722 51.1304C85.6502 51.6765 85.3661 52.7935 84.6018 52.9903Z" fill="#F2F2F2"/>
<path d="M85.7863 57.5886L45.784 67.8858C45.5549 67.9498 45.31 67.9244 45.0989 67.8148C44.8878 67.7052 44.7262 67.5195 44.6467 67.2953C44.6097 67.1782 44.597 67.0547 44.6093 66.9324C44.6216 66.8102 44.6587 66.6917 44.7183 66.5843C44.7779 66.4769 44.8588 66.3827 44.956 66.3075C45.0532 66.2324 45.1647 66.1779 45.2837 66.1472L85.7561 55.729C86.834 56.2752 86.5503 57.3921 85.7859 57.5889L85.7863 57.5886Z" fill="#F2F2F2"/>
<path d="M86.9685 62.1851L46.9668 72.482C46.7377 72.546 46.4929 72.5206 46.2818 72.411C46.0707 72.3014 45.9091 72.1157 45.8296 71.8915C45.7926 71.7744 45.7798 71.6509 45.7922 71.5286C45.8045 71.4064 45.8416 71.2879 45.9012 71.1805C45.9608 71.0731 46.0417 70.9789 46.1389 70.9037C46.2361 70.8286 46.3476 70.7741 46.4666 70.7434L86.9386 60.3252C88.0165 60.8714 87.7328 61.9883 86.9685 62.1851Z" fill="#F2F2F2"/>
<path d="M88.1526 66.7833L48.1507 77.0801C47.9216 77.1441 47.6767 77.1187 47.4656 77.0091C47.2545 76.8995 47.0929 76.7139 47.0134 76.4897C46.9764 76.3725 46.9637 76.249 46.976 76.1268C46.9883 76.0045 47.0254 75.8861 47.085 75.7786C47.1446 75.6712 47.2255 75.577 47.3227 75.5019C47.4199 75.4267 47.5314 75.3722 47.6504 75.3416L88.1228 64.9233C89.2004 65.4695 88.9169 66.5865 88.1526 66.7833Z" fill="#F2F2F2"/>
<path d="M89.3354 71.3795L49.3338 81.6763C49.1047 81.7403 48.8598 81.7149 48.6487 81.6053C48.4376 81.4957 48.276 81.3101 48.1965 81.0859C48.1595 80.9687 48.1468 80.8452 48.1591 80.723C48.1714 80.6007 48.2085 80.4823 48.2681 80.3748C48.3277 80.2674 48.4086 80.1732 48.5058 80.0981C48.603 80.0229 48.7145 79.9684 48.8335 79.9378L89.3059 69.5195C90.3835 70.0657 90.0997 71.1826 89.3354 71.3795Z" fill="#F2F2F2"/>
<path d="M47.0903 113.677C46.9449 113.715 46.7912 113.704 46.6523 113.647L46.6438 113.643L44.8249 112.872C44.7406 112.836 44.6642 112.784 44.6001 112.719C44.5359 112.653 44.4853 112.576 44.451 112.491C44.4168 112.406 44.3996 112.315 44.4004 112.224C44.4013 112.132 44.4202 112.042 44.456 111.957C44.4919 111.873 44.5439 111.797 44.6093 111.733C44.6747 111.668 44.752 111.618 44.837 111.584C44.9219 111.549 45.0128 111.532 45.1044 111.533C45.1959 111.534 45.2864 111.553 45.3707 111.589L46.5493 112.09L48.0937 108.457C48.166 108.286 48.303 108.152 48.4745 108.083C48.6459 108.014 48.8378 108.015 49.0079 108.088L48.9987 108.111L49.0083 108.087C49.1783 108.16 49.3127 108.297 49.3818 108.468C49.451 108.64 49.4492 108.832 49.377 109.002L47.56 113.274C47.5179 113.372 47.4536 113.46 47.3722 113.53C47.2908 113.599 47.1944 113.649 47.0906 113.675L47.0903 113.677Z" fill="white"/>
<path d="M210.347 147.837L123.286 130.914C120.334 130.337 117.732 128.612 116.05 126.118C114.368 123.625 113.744 120.566 114.315 117.612L134.189 15.3663C134.767 12.4146 136.491 9.81232 138.985 8.13046C141.478 6.4486 144.537 5.82449 147.49 6.39506L228.486 22.1391L243.022 39.1925L223.647 138.864C223.071 141.816 221.346 144.419 218.853 146.101C216.359 147.783 213.3 148.407 210.347 147.837Z" fill="#E6E6E6"/>
<path d="M146.867 9.601C144.764 9.19472 142.586 9.63916 140.81 10.8368C139.034 12.0345 137.806 13.8876 137.395 15.9895L117.521 118.236C117.114 120.338 117.559 122.517 118.757 124.292C119.954 126.068 121.807 127.296 123.909 127.707L210.97 144.63C213.073 145.036 215.251 144.592 217.027 143.394C218.803 142.196 220.031 140.343 220.442 138.241L239.516 40.1141L226.742 25.1271L146.867 9.601Z" fill="white"/>
<path d="M211.215 52.9626L171.578 45.2578C171.086 45.1622 170.652 44.8751 170.372 44.4597C170.092 44.0444 169.988 43.5347 170.084 43.0429C170.179 42.5511 170.466 42.1174 170.882 41.8372C171.297 41.557 171.807 41.4533 172.299 41.5489L211.937 49.2539C212.429 49.3495 212.863 49.6366 213.143 50.0519C213.423 50.4673 213.527 50.977 213.431 51.4688C213.335 51.9606 213.048 52.3943 212.633 52.6745C212.218 52.9546 211.708 53.0583 211.216 52.9627L211.215 52.9626Z" fill="#EE2524"/>
<path d="M217.648 60.7083L170.361 51.5166C169.869 51.421 169.436 51.1339 169.155 50.7185C168.875 50.3032 168.771 49.7935 168.867 49.3017C168.963 48.8099 169.25 48.3762 169.665 48.096C170.08 47.8158 170.59 47.7121 171.082 47.8077L218.369 56.9994C218.861 57.095 219.295 57.3821 219.575 57.7975C219.855 58.2128 219.959 58.7225 219.863 59.2143C219.767 59.7061 219.48 60.1398 219.065 60.42C218.65 60.7002 218.14 60.8039 217.648 60.7083Z" fill="#EE2524"/>
<path d="M206.485 77.3004L166.848 69.5958C166.356 69.5002 165.847 69.6039 165.431 69.884C165.016 70.1642 164.729 70.5978 164.633 71.0896C164.538 71.5814 164.642 72.091 164.922 72.5063C165.202 72.9217 165.636 73.2087 166.127 73.3043L205.764 81.0089C206.253 81.0972 206.757 80.9895 207.167 80.709C207.577 80.4286 207.86 79.9979 207.954 79.5103C208.049 79.0228 207.948 78.5175 207.673 78.1038C207.398 77.6902 206.971 77.4016 206.485 77.3004Z" fill="#CCCCCC"/>
<path d="M212.918 85.0472L165.631 75.8556C165.386 75.8046 165.134 75.8028 164.888 75.8503C164.642 75.8977 164.409 75.9935 164.2 76.132C163.992 76.2706 163.813 76.4491 163.675 76.6573C163.536 76.8654 163.44 77.0991 163.392 77.3447C163.344 77.5902 163.346 77.8429 163.396 78.0878C163.447 78.3328 163.546 78.5653 163.687 78.7718C163.828 78.9783 164.009 79.1546 164.219 79.2907C164.429 79.4267 164.664 79.5196 164.91 79.5641L212.197 88.7556C212.442 88.8066 212.694 88.8084 212.94 88.761C213.185 88.7135 213.419 88.6177 213.628 88.4792C213.836 88.3407 214.015 88.1621 214.153 87.954C214.292 87.7458 214.388 87.5122 214.436 87.2666C214.484 87.021 214.482 86.7684 214.431 86.5234C214.381 86.2784 214.282 86.0459 214.141 85.8394C213.999 85.633 213.818 85.4566 213.609 85.3206C213.399 85.1846 213.164 85.0917 212.918 85.0472Z" fill="#CCCCCC"/>
<path d="M200.311 109.058L160.674 101.353C160.182 101.258 159.748 100.971 159.468 100.555C159.188 100.14 159.084 99.6304 159.18 99.1386C159.275 98.6468 159.562 98.2131 159.978 97.9329C160.393 97.6527 160.903 97.549 161.394 97.6446L201.033 105.35C201.525 105.445 201.959 105.732 202.239 106.148C202.519 106.563 202.623 107.073 202.527 107.564C202.431 108.056 202.144 108.49 201.729 108.77C201.314 109.05 200.804 109.154 200.312 109.058L200.311 109.058Z" fill="#CCCCCC"/>
<path d="M206.744 116.803L159.457 107.612C158.965 107.516 158.532 107.229 158.252 106.814C157.971 106.398 157.868 105.889 157.963 105.397C158.059 104.905 158.346 104.471 158.761 104.191C159.177 103.911 159.686 103.807 160.178 103.903L207.465 113.095C207.957 113.19 208.391 113.477 208.671 113.893C208.951 114.308 209.055 114.818 208.959 115.31C208.864 115.801 208.577 116.235 208.161 116.515C207.746 116.795 207.236 116.899 206.744 116.803Z" fill="#CCCCCC"/>
<path d="M153.55 49.8789C157.169 50.5825 160.674 48.2184 161.378 44.5986C162.082 40.9787 159.717 37.4738 156.098 36.7701C152.478 36.0665 148.973 38.4306 148.269 42.0505C147.566 45.6704 149.93 49.1753 153.55 49.8789Z" fill="#EE2524"/>
<path d="M153.688 45.6983C153.541 45.6699 153.407 45.5943 153.306 45.4829L153.299 45.476L151.988 43.998C151.868 43.8592 151.808 43.6787 151.82 43.4957C151.833 43.3127 151.917 43.142 152.054 43.0204C152.191 42.8989 152.371 42.8363 152.554 42.8462C152.737 42.8561 152.909 42.9378 153.032 43.0735L153.882 44.0326L156.837 41.415C156.905 41.3543 156.985 41.3077 157.072 41.2779C157.158 41.248 157.25 41.2356 157.341 41.2411C157.433 41.2467 157.522 41.2702 157.604 41.3103C157.687 41.3505 157.76 41.4064 157.821 41.475L157.803 41.4918L157.822 41.4745C157.944 41.613 158.006 41.7944 157.995 41.979C157.984 42.1635 157.9 42.336 157.762 42.4586L154.285 45.5362C154.205 45.6071 154.109 45.6585 154.005 45.6864C153.902 45.7144 153.794 45.7181 153.688 45.6973L153.688 45.6983Z" fill="white"/>
<path d="M156.6 72.7761C156.433 73.637 156.098 74.4566 155.614 75.188C155.13 75.9194 154.507 76.5484 153.78 77.039C153.053 77.5295 152.237 77.8721 151.378 78.0471C150.518 78.2221 149.633 78.2262 148.772 78.059C148.716 78.0491 148.66 78.0359 148.605 78.0194C147.323 77.7359 146.152 77.0804 145.241 76.1352C144.329 75.1899 143.717 73.9967 143.48 72.705C143.243 71.4133 143.392 70.0805 143.909 68.8732C144.426 67.6659 145.287 66.6378 146.385 65.9176C147.483 65.1974 148.769 64.8171 150.083 64.8242C151.396 64.8313 152.678 65.2256 153.768 65.9576C154.858 66.6897 155.709 67.727 156.212 68.9398C156.716 70.1526 156.851 71.4871 156.6 72.7761Z" fill="#EE2524"/>
<path d="M142.646 105.974C146.266 106.678 149.77 104.314 150.474 100.694C151.178 97.0739 148.814 93.569 145.194 92.8654C141.574 92.1617 138.069 94.5258 137.365 98.1457C136.662 101.766 139.026 105.27 142.646 105.974Z" fill="#EE2524"/>
<path d="M242.601 39.569L229.127 36.9499C228.144 36.7587 227.276 36.1846 226.716 35.3538C226.155 34.5231 225.948 33.5038 226.139 32.5201L228.074 22.5686C228.082 22.5251 228.103 22.4848 228.133 22.4524C228.163 22.42 228.202 22.3968 228.245 22.3855C228.288 22.3741 228.333 22.3751 228.376 22.3883C228.418 22.4015 228.456 22.4264 228.485 22.46L242.826 39.1825C242.857 39.2197 242.877 39.266 242.881 39.3148C242.886 39.3636 242.875 39.4125 242.85 39.4549C242.826 39.4972 242.788 39.5309 242.744 39.5512C242.699 39.5714 242.649 39.5773 242.601 39.568L242.601 39.569Z" fill="#CCCCCC"/>
<path d="M162.734 139.07C162.319 139.75 161.651 140.237 160.877 140.425C160.103 140.613 159.286 140.485 158.605 140.07L123.554 118.69C122.874 118.276 122.387 117.607 122.199 116.833C122.011 116.059 122.139 115.242 122.554 114.561C122.969 113.881 123.637 113.394 124.411 113.206C125.186 113.018 126.003 113.146 126.683 113.561L161.734 134.941C162.414 135.356 162.901 136.024 163.089 136.798C163.276 137.572 163.149 138.389 162.734 139.07Z" fill="#3F3D56"/>
<path d="M127.683 117.691C125.208 121.749 121.585 124.982 117.273 126.981C112.96 128.98 108.152 129.655 103.456 128.922C98.7593 128.188 94.386 126.078 90.8888 122.859C87.3916 119.64 84.9276 115.456 83.8082 110.836C82.6889 106.217 82.9645 101.369 84.6003 96.9059C86.2361 92.443 89.1586 88.5653 92.9981 85.7633C96.8377 82.9613 101.422 81.3608 106.171 81.1641C110.92 80.9675 115.621 82.1835 119.679 84.6585C122.374 86.3019 124.718 88.4599 126.579 91.0094C128.439 93.5588 129.779 96.4498 130.523 99.5171C131.266 102.585 131.398 105.768 130.911 108.887C130.423 112.005 129.327 114.997 127.683 117.691ZM91.7777 95.7886C89.9214 98.8322 89.0093 102.358 89.1568 105.92C89.3042 109.482 90.5046 112.92 92.6061 115.8C94.7077 118.679 97.6159 120.871 100.963 122.098C104.31 123.325 107.946 123.532 111.411 122.692C114.876 121.853 118.014 120.005 120.428 117.382C122.843 114.759 124.425 111.479 124.975 107.956C125.525 104.434 125.019 100.828 123.52 97.5934C122.02 94.3591 119.595 91.6419 116.552 89.7856C112.471 87.2964 107.568 86.5305 102.922 87.6562C98.2755 88.782 94.2669 91.7073 91.7777 95.7886Z" fill="#3F3D56"/>
<path d="M100.811 122.606C110.576 125.969 121.218 120.778 124.58 111.013C127.942 101.248 122.752 90.6063 112.987 87.2439C103.222 83.8815 92.5799 89.0719 89.2175 98.837C85.8552 108.602 91.0456 119.244 100.811 122.606Z" fill="#EE2524"/>
</g>
<defs>
<clipPath id="clip0_1_253">
<rect width="245.686" height="150" fill="white"/>
</clipPath>
</defs>
</svg>
