<svg width="228" height="142" viewBox="0 0 228 142" fill="none" xmlns="http://www.w3.org/2000/svg">
<g clip-path="url(#clip0_1_295)">
<path d="M186.861 135.197L184.49 134.642L185.924 123.716L189.422 124.536L186.861 135.197Z" fill="#FFB6B6"/>
<path d="M177.502 138.015C177.399 138.413 177.598 138.809 177.946 138.899L182.622 140.113C182.622 140.113 183.563 138.382 185.646 138.073L185.088 140.753L187.501 141.379L188.313 137.048C188.313 137.048 189.549 134.94 188.51 133.428C187.472 131.917 188.516 132.361 188.516 132.361L188.672 129.591L184.915 129.073L183.816 133.2L180.982 136.844L178.054 137.452C177.794 137.506 177.577 137.727 177.502 138.015Z" fill="#2F2E41"/>
<path d="M209.585 132.619L207.423 133.739L201.405 124.509L204.595 122.856L209.585 132.619Z" fill="#FFB6B6"/>
<path d="M204.309 140.847C204.489 141.217 204.898 141.388 205.221 141.23L209.563 139.11C209.563 139.11 209.151 137.184 210.532 135.594L211.852 137.992L214.091 136.898L211.891 133.081C211.891 133.081 211.458 130.676 209.687 130.203C207.915 129.73 208.996 129.389 208.996 129.389L207.313 127.183L204.123 129.234L205.972 133.083L206.19 137.694L204.362 140.061C204.2 140.271 204.179 140.58 204.309 140.847Z" fill="#2F2E41"/>
<path d="M82.7966 92.0412H145.627C146.418 92.0412 147.06 91.4 147.06 90.6089V1.70036C147.06 0.909326 146.418 0.268066 145.627 0.268066H82.7966C82.0055 0.268066 81.3643 0.909326 81.3643 1.70036V90.6089C81.3643 91.4 82.0055 92.0412 82.7966 92.0412Z" fill="white"/>
<path d="M147.328 92.3091H81.0964V0H147.328V92.3091ZM81.6323 91.7732H146.792V0.535819H81.6323V91.7732Z" fill="#E6E6E6"/>
<path d="M132.444 14.7876C132.699 14.7876 132.905 14.9943 132.905 15.2492V16.1724C132.905 16.4274 132.699 16.634 132.444 16.634H95.9811C95.7262 16.634 95.5195 16.4274 95.5195 16.1724V15.2492C95.5195 14.9943 95.7262 14.7876 95.9811 14.7876H132.444Z" fill="#E6E6E6"/>
<path d="M132.444 19.1719C132.699 19.1719 132.905 19.3785 132.905 19.6335V20.5567C132.905 20.8116 132.699 21.0183 132.444 21.0183H95.9811C95.7262 21.0183 95.5195 20.8116 95.5195 20.5567V19.6335C95.5195 19.3785 95.7262 19.1719 95.9811 19.1719H132.444Z" fill="#E6E6E6"/>
<path d="M132.444 23.5571C132.699 23.5571 132.905 23.7638 132.905 24.0187V24.942C132.905 25.1969 132.699 25.4036 132.444 25.4036H95.9811C95.7262 25.4036 95.5195 25.1969 95.5195 24.942V24.019C95.5195 23.7641 95.7262 23.5574 95.9811 23.5574L132.444 23.5571Z" fill="#EE2524"/>
<path d="M199.557 35.0605H211.669C211.651 34.4914 211.772 33.9265 212.021 33.4146C212.028 33.9827 212.153 34.5431 212.388 35.0605H212.938C213.779 35.0596 214.461 34.3776 214.462 33.5362V25.6656C214.462 21.812 211.167 16.0351 207.587 18.4525C207.471 18.4464 205.656 17.6426 205.541 17.6426C202.391 17.6451 201.308 20.4874 200.357 23.4901C199.273 22.9906 198.526 25.0754 197.986 28.7448C197.828 29.8156 197.688 31.0213 197.563 32.3372C197.215 33.4413 197.829 34.6178 198.933 34.965C199.135 35.0285 199.346 35.0611 199.558 35.0615L199.557 35.0605Z" fill="#2F2E41"/>
<path d="M175.789 80.0569C175.189 81.4803 175.436 82.9439 176.342 83.326C177.248 83.7082 178.469 82.864 179.069 81.44C179.317 80.8745 179.426 80.2578 179.386 79.6417L181.855 73.5783L178.985 72.4805L176.855 78.5748C176.386 78.9765 176.021 79.4846 175.788 80.0566L175.789 80.0569Z" fill="#FFB6B6"/>
<path d="M202.327 32.3965L208.117 33.6075L207.229 36.2713L209.005 56.6456L206.045 63.2059L187.99 61.7259L192.429 52.8457C192.429 52.8457 190.653 45.4461 193.021 43.9656C195.389 42.485 199.237 35.0854 199.237 35.0854L202.327 32.3965Z" fill="#EE2524"/>
<path d="M207.724 34.786L212.852 36.8625L211.076 62.9093L214.924 85.4044L202.493 87.4765C202.493 87.4765 203.973 37.7505 204.86 36.8625C205.748 35.9745 207.724 34.7847 207.724 34.7847V34.786Z" fill="#2F2E41"/>
<path d="M197.679 38.0342C197.679 38.0342 194.342 35.9229 192.539 37.4862C190.736 39.0495 176.855 76.8394 176.855 76.8394L180.599 78.4662L189.186 60.4622L197.679 38.0342Z" fill="#2F2E41"/>
<path d="M188.12 101.706L184.734 127.732L189.47 128.028C189.47 128.028 191.932 121.309 194.741 113.394C195.339 111.716 195.952 109.984 196.559 108.25C197.216 106.367 197.87 104.485 198.492 102.668C200.028 98.1864 201.375 94.1075 202.144 91.4437C202.277 90.9761 202.395 90.5531 202.493 90.1798C204.564 82.2236 205.749 61.4317 205.749 61.4317L188.581 59.9517L188.398 60.1796L184.734 64.7585L184.906 65.7264L189.47 91.3264L188.12 101.707L188.12 101.706Z" fill="#2F2E41"/>
<path d="M189.469 91.326L188.12 101.706L194.19 112.394L194.741 113.394L203.099 128.584L207.228 126.243C207.228 126.243 201.856 113.897 198.491 102.667C198.118 101.433 197.771 100.211 197.461 99.0209C196.546 95.5369 198.044 89.1793 197.458 87.4269C195.478 81.5131 189.025 69.6823 186.03 64.3228L184.905 65.7258L189.469 91.326Z" fill="#2F2E41"/>
<path d="M199.312 34.8628L193.318 37.1598L177.631 83.038L187.102 84.5181L191.542 57.8792L199.312 34.8628Z" fill="#2F2E41"/>
<path d="M214.3 84.3843C214.453 85.9217 215.37 87.0892 216.348 86.992C217.326 86.8949 217.996 85.5699 217.843 84.032C217.79 83.4168 217.591 82.8232 217.262 82.3008L216.534 75.7949L213.488 76.2017L214.53 82.5721C214.31 83.1492 214.231 83.7706 214.3 84.3843Z" fill="#FFB6B6"/>
<path d="M210.78 36.8635C210.78 36.8635 214.628 35.9755 215.812 38.0475C216.996 40.1195 217.588 80.3739 217.588 80.3739L213.516 80.6699L211.372 60.8394L210.78 36.8643L210.78 36.8635Z" fill="#2F2E41"/>
<path d="M205.87 31.6785C209.268 31.6785 212.022 28.9238 212.022 25.5258C212.022 22.1277 209.268 19.373 205.87 19.373C202.471 19.373 199.717 22.1277 199.717 25.5258C199.717 28.9238 202.471 31.6785 205.87 31.6785Z" fill="#FFB6B6"/>
<path d="M208.34 35.0603H211.378C211.533 35.0603 211.664 34.9413 211.671 34.7871L211.672 34.7701C211.688 34.4486 212.139 34.3945 212.244 34.6989C212.286 34.8214 212.334 34.942 212.388 35.0603H212.687V25.5748C212.687 23.9478 211.368 22.6289 209.741 22.6289C208.352 22.6289 207.152 23.5993 206.861 24.9575C206.861 24.9575 204.796 27.4903 206.013 28.9142C207.23 30.3382 205.459 31.4972 205.459 31.4972C205.066 33.331 206.464 35.0603 208.34 35.0603Z" fill="#2F2E41"/>
<path d="M107.595 46.1095C108.277 45.6698 108.421 44.7287 107.944 44.0724L105.71 40.9981C105.188 40.2793 104.182 40.1196 103.463 40.6414C103.4 40.6876 103.339 40.7385 103.283 40.7935C99.4998 42.816 97.4635 45.7696 99.7277 49.2611C99.7276 49.8442 99.7702 50.4265 99.8549 51.0034C99.8916 51.2537 99.9759 51.4985 100.119 51.7073C100.543 52.3275 101.291 52.5551 101.949 52.3405L105.604 51.1532C106.38 50.901 106.8 50.0534 106.513 49.2891C106.143 48.3015 106.296 46.9478 107.595 46.1095Z" fill="#F2F2F2"/>
<path d="M116.268 55.1781C115.217 55.0743 114.319 55.9407 114.319 56.9971V60.1493C114.319 60.231 114.325 60.3125 114.338 60.3933C114.473 61.2716 115.294 61.8742 116.173 61.7391C121.294 62.3702 124.793 60.1433 125.004 55.2573C125.038 55.1888 125.066 55.1179 125.09 55.0453C125.363 54.201 124.899 53.2953 124.055 53.0224L120.996 52.0284C119.94 51.6854 118.843 52.3707 118.659 53.465C118.492 54.4535 117.839 55.3332 116.268 55.1781Z" fill="#E6E6E6"/>
<path d="M97.3527 58.2606C98.4147 64.5637 103.945 66.9549 109.713 67.3329C109.826 67.3502 109.94 67.359 110.054 67.359C111.299 67.3597 112.308 66.3517 112.308 65.1076V59.8368C112.308 58.3624 111.1 57.2142 109.626 57.1994C108.2 57.185 107.272 56.5105 106.89 55.2723C106.454 53.8578 104.9 53.112 103.492 53.5694L98.681 55.1328C98.0578 55.3352 97.5534 55.7986 97.2991 56.4024C97.0462 57.0002 97.0658 57.6784 97.3527 58.2606Z" fill="#3F3D56"/>
<path d="M126.993 36.466C126.105 35.5963 124.68 35.611 123.81 36.4989C123.733 36.578 123.661 36.6626 123.596 36.7521L119.321 42.6362C118.775 43.3886 119.087 44.4368 119.942 44.8041C121.943 45.6647 121.733 47.5963 121.081 48.7785C120.762 49.3578 121.025 50.0828 121.654 50.2872L128.858 52.6279C130.043 53.0105 131.314 52.36 131.697 51.1748C131.735 51.0555 131.764 50.9331 131.782 50.8091C131.906 49.9843 131.968 49.1515 131.968 48.3175C133.186 43.7733 131.5 39.4896 126.993 36.466Z" fill="#EE2524"/>
<path d="M114.621 43.2882C115.42 43.7376 116.427 43.5202 116.965 42.7792L118.397 40.8081C118.675 40.4259 118.772 39.941 118.661 39.4815C118.555 39.0304 118.255 38.6488 117.843 38.4375C114.473 35.3924 110.484 35.2056 107.102 38.4219C106.676 38.6364 106.367 39.0269 106.255 39.4898C106.145 39.9462 106.24 40.4279 106.517 40.8075L108.19 43.111C108.765 43.9021 109.879 44.1091 110.671 43.5357C111.822 42.7024 113.494 42.6534 114.621 43.2882Z" fill="#E6E6E6"/>
<path d="M95.7533 82.9962C95.8819 82.4518 96.4858 82.2728 96.9795 82.2935C97.2914 82.3145 97.6009 82.3635 97.9041 82.4397C98.2213 82.5107 98.5355 82.5949 98.8482 82.6838C99.4215 82.8472 99.9887 83.045 100.571 83.1728C101.06 83.3066 101.575 83.3141 102.067 83.1947C102.541 83.0646 102.914 82.6988 103.053 82.2276C103.195 81.7774 102.991 81.2907 102.571 81.0756C102.182 80.8613 101.693 81.0028 101.479 81.3915C101.476 81.3973 101.473 81.403 101.47 81.4088C101.29 81.8883 101.431 82.4293 101.823 82.7594C102.024 82.9479 102.243 83.1149 102.479 83.2577C102.718 83.4205 102.984 83.5396 103.264 83.6094C103.742 83.7359 104.246 83.539 104.511 83.1226C104.564 83.023 104.596 82.9136 104.604 82.8012C104.618 82.6482 104.379 82.649 104.366 82.8012C104.325 83.2395 103.812 83.4441 103.428 83.3964C103.169 83.3535 102.921 83.2574 102.701 83.1143C102.489 82.9904 102.287 82.8484 102.099 82.6897C101.774 82.4079 101.469 81.9444 101.687 81.5047C101.857 81.2222 102.224 81.1311 102.507 81.3013C102.545 81.324 102.58 81.3508 102.611 81.3812C102.953 81.6609 102.892 82.1681 102.667 82.5003C102.396 82.8471 101.978 83.0464 101.538 83.0385C101.074 83.0393 100.613 82.967 100.172 82.8242C99.6214 82.668 99.0764 82.4931 98.5235 82.3457C98.2095 82.2621 97.8931 82.1868 97.5735 82.1282C97.2712 82.0615 96.9607 82.0401 96.6521 82.0644C96.1312 82.089 95.6805 82.435 95.5221 82.9319C95.4875 83.0822 95.7179 83.1459 95.7533 82.9962Z" fill="#3F3D56"/>
<path d="M105.215 76.7671C105.287 76.7671 105.346 76.9736 105.346 77.2287V78.1519C105.346 78.4067 105.287 78.6135 105.215 78.6135H94.9093C94.8372 78.6135 94.7788 78.407 94.7788 78.1519V77.2287C94.7788 76.9736 94.8372 76.7671 94.9093 76.7671H105.215Z" fill="#E6E6E6"/>
<path d="M132.775 76.7671C132.847 76.7671 132.905 76.9736 132.905 77.2287V78.1519C132.905 78.4067 132.847 78.6135 132.775 78.6135H122.469C122.397 78.6135 122.338 78.407 122.338 78.1519V77.2287C122.338 76.9736 122.397 76.7671 122.469 76.7671H132.775Z" fill="#E6E6E6"/>
<path d="M128.186 81.9671L126.14 82.6433L125.117 82.9814C124.803 83.1155 124.463 83.178 124.122 83.1644C123.869 83.1476 123.648 82.9907 123.549 82.7585C123.505 82.5257 123.605 82.2894 123.803 82.1586C124.291 81.7873 124.908 82.1653 125.254 82.5498C125.677 83.0202 125.917 83.6276 126.314 84.12C126.667 84.562 127.115 84.9191 127.624 85.1649C128.642 85.6699 129.857 85.5661 130.775 84.8956C131.853 84.0638 131.963 82.6219 131.969 81.364C131.965 81.2432 131.863 81.1487 131.742 81.153C131.628 81.157 131.535 81.2492 131.531 81.364C131.526 82.504 131.461 83.9014 130.422 84.6148C129.426 85.2983 128.118 85.1169 127.201 84.3887C126.728 83.9681 126.335 83.4659 126.04 82.9061C125.713 82.3703 125.307 81.853 124.69 81.6451C124.146 81.4472 123.537 81.66 123.234 82.1541C122.973 82.5936 123.117 83.1616 123.557 83.4226C123.591 83.4428 123.626 83.4608 123.662 83.4765C124.377 83.817 125.194 83.4181 125.882 83.1906L128.303 82.3907C128.569 82.3028 128.455 81.88 128.187 81.9687L128.186 81.9671Z" fill="#EE2524"/>
<path d="M37.279 132.883C37.2523 132.86 37.2317 132.848 37.2178 132.848C36.8841 132.851 36.5867 133.026 36.4228 133.315L32.8292 139.989C32.747 140.135 32.7067 140.293 32.708 140.452C32.7094 140.611 32.7525 140.769 32.8372 140.913C33.0066 141.2 40.9431 141.303 40.9431 141.303C41.2768 141.3 42.1928 137.195 37.279 132.883Z" fill="#E6E6E6"/>
<path d="M23.5438 139.686L26.2714 139.662L27.4771 129.13L23.4514 129.165L23.5438 139.686Z" fill="#FFB6B6"/>
<path d="M32.8883 139.543C32.9744 139.685 33.0233 140.146 33.0247 140.312C33.0292 140.824 32.6183 141.242 32.107 141.246L23.6599 141.32C23.3111 141.323 23.0259 141.043 23.0229 140.694L23.0198 140.342C23.0198 140.342 22.5927 139.289 23.4416 137.979C23.4416 137.979 24.5198 138.989 26.1036 137.378L26.5673 136.52L29.9997 138.985L31.8921 139.201C32.3062 139.248 32.6724 139.186 32.8883 139.543Z" fill="#2F2E41"/>
<path d="M33.9209 130.593L36.5125 131.444L41.0279 121.853L37.2029 120.597L33.9209 130.593Z" fill="#FFB6B6"/>
<path d="M42.8192 133.451C42.8553 133.613 42.7538 134.066 42.7019 134.224C42.5424 134.71 42.0193 134.974 41.5335 134.814L33.5077 132.179C33.1763 132.07 32.9959 131.713 33.1047 131.382L33.2144 131.048C33.2144 131.048 33.1472 129.913 34.3711 128.944C34.3711 128.944 35.0687 130.247 37.0853 129.227L37.7993 128.563L40.2615 131.997L41.985 132.808C42.3621 132.985 42.7289 133.044 42.8192 133.451Z" fill="#2F2E41"/>
<path d="M37.5801 69.5243L43.0297 86.9977L49.4184 102.701L39.7346 125.298L34.3465 123.199L39.1689 103.642L30.9254 89.0388L27.0297 132.875L22.2906 132.308L16.1287 79.7976L17.0951 68.3789L37.5801 69.5243Z" fill="#2F2E41"/>
<path d="M32.0045 29.7391L26.1164 28.3179L24.4921 32.1758C24.4921 32.1758 16.5354 33.5199 16.1288 39.6111C16.1288 39.6111 14.543 47.6068 15.5581 49.8404C16.5732 52.0739 19.0758 59.9722 19.0758 59.9722C19.0758 59.9722 15.1134 69.8125 16.1288 70.4207C17.1441 71.0288 38.9011 73.2463 38.9011 72.0281C38.9011 70.8099 39.1494 56.3366 39.1494 56.3366L38.2975 34.4083L32.8168 32.3788L32.0045 29.7391Z" fill="#E6E6E6"/>
<path d="M31.008 28.7581C34.285 28.7581 36.9415 26.1016 36.9415 22.8246C36.9415 19.5476 34.285 16.8911 31.008 16.8911C27.731 16.8911 25.0745 19.5476 25.0745 22.8246C25.0745 26.1016 27.731 28.7581 31.008 28.7581Z" fill="#FFB6B6"/>
<path d="M27.0791 23.7065C27.5527 23.9656 27.1039 25.2033 27.3999 25.3102C27.742 25.4337 28.9886 24.0137 29.0035 22.4236C29.008 21.9423 28.8972 21.7113 29.0035 21.1407C29.1426 20.3943 29.5699 19.5138 29.9657 19.537C30.2003 19.5508 30.4296 19.8824 30.4468 20.1785C30.4709 20.5934 30.0679 20.7568 30.1261 20.9803C30.2368 21.406 31.9293 21.6993 32.5315 20.9803C33.0037 20.4166 32.6411 19.4274 32.8523 19.3767C33.0079 19.3393 33.1752 19.8839 33.8145 20.4992C34.0553 20.731 34.4135 21.0758 34.6163 20.9803C34.9094 20.8423 34.6961 19.8707 34.7766 19.8578C34.8434 19.8471 34.8855 20.5301 35.2577 21.1407C35.736 21.9252 36.7222 22.5296 37.1821 22.2632C37.4639 22.1 37.4861 21.6459 37.5029 21.301C37.5382 20.5745 38.5936 18.9028 38.3201 18.1256C37.7636 16.5439 36.8113 17.6593 36.3803 17.1316C35.7968 16.417 35.2736 16.8015 34.2956 16.009C33.3401 15.2348 33.3315 14.4564 32.6919 14.4053C32.1159 14.3594 31.9112 14.9739 31.2486 14.8864C30.6873 14.8123 30.565 14.3358 30.1261 14.4053C29.7242 14.469 29.6979 14.8888 29.1639 15.0468C28.823 15.1477 28.748 15.0019 28.3621 15.0468C27.5589 15.1403 27.0198 15.8719 26.9188 16.009C26.5294 16.5374 26.6806 16.7601 26.2773 17.2919C25.9295 17.7506 25.1584 17.5561 24.8685 17.7852C23.9215 18.5339 23.5149 19.914 23.5072 21.4869C23.5019 22.5871 23.6455 23.1429 23.966 24.5314C24.2095 25.5857 25.3357 26.9479 25.9566 27.5553C26.1232 27.7183 26.5904 28.1754 26.9188 28.0364C27.2299 27.9046 27.2391 27.3127 27.2395 27.2345C27.2408 26.9657 27.1691 26.6332 26.598 25.7913C25.9982 24.9069 25.76 24.806 25.7962 24.5083C25.8603 23.9821 26.7017 23.5 27.0791 23.7065Z" fill="#2F2E41"/>
<path d="M10.2997 82.8903C10.093 84.6156 10.8156 86.1209 11.9135 86.2524C13.0115 86.3839 14.0691 85.0918 14.2757 83.3664C14.3662 82.6112 14.2785 81.8981 14.0593 81.324L14.8432 74.0022L11.3994 73.7075L10.9922 80.9567C10.6436 81.4628 10.3901 82.135 10.2997 82.8903Z" fill="#FFB6B6"/>
<path d="M20.216 34.2661C20.216 34.2661 18.4318 34.2909 17.2496 36.5977C16.6214 37.8235 12.5382 59.7946 12.5382 59.7946L11.391 66.7434L11.9806 67.8927C11.0434 69.3261 10.7854 71.0996 11.2753 72.7406L10.1545 79.5298L15.4248 79.5582L19.5377 61.773L22.9959 51.4584L20.216 34.2661Z" fill="#E6E6E6"/>
<path d="M47.1412 82.6222C47.3478 84.3476 46.6252 85.8528 45.5273 85.9843C44.4293 86.1158 43.3718 84.8237 43.1651 83.0984C43.0747 82.3431 43.1623 81.6301 43.3815 81.0559L42.5977 73.7341L46.0414 73.4395L46.4486 80.6886C46.7972 81.1948 47.0507 81.8669 47.1412 82.6222Z" fill="#FFB6B6"/>
<path d="M37.225 33.998C37.225 33.998 39.0092 34.0228 40.1914 36.3296C40.8195 37.5555 44.9028 59.5265 44.9028 59.5265L46.05 66.4753L45.4604 67.6246C46.3976 69.058 46.6556 70.8315 46.1657 72.4725L47.2864 79.2617L42.0162 79.2901L37.9033 61.505L34.4451 51.1903L37.225 33.998Z" fill="#E6E6E6"/>
<path d="M198.474 24.6122C198.693 24.9705 199.854 23.6597 201.637 23.5151C202.091 23.4774 203.115 25.2156 204.289 25.2408C205.067 25.2565 205.546 25.2502 206.504 25.2408C207.636 25.2282 207.946 25.2031 208.165 24.9265C208.589 24.389 208.24 23.4336 208.442 23.355C208.611 23.289 209.048 23.8799 209.273 24.6122C209.743 26.1491 208.054 28.2894 207.888 30.2694C207.711 32.4034 209.455 28.3145 209.273 30.2694C209.068 32.4694 208.334 32.3028 208.342 33.098C208.345 33.2174 208.376 33.3211 208.442 33.4123C208.5 33.494 208.558 33.5254 209.55 33.7266C210.735 33.9686 211.33 34.088 211.488 34.0409C211.895 33.9214 212.307 33.2583 212.595 32.7837C213.072 32.0074 212.734 32.79 212.595 31.8409C212.462 30.9231 212.047 30.8037 212.042 29.9551C212.036 28.8865 212.692 28.5628 213.149 27.4408C213.994 25.3665 213.168 22.9653 212.872 22.0979C212.73 21.6819 212.472 21.1554 212.019 20.2855C211.656 19.5872 211.174 18.972 210.587 18.5111C209.706 17.8202 208.683 17.3469 207.576 17.1593C206.97 17.0566 206.352 17.1105 205.757 17.273L204.213 17.6939C203.565 17.8708 202.953 18.1914 202.414 18.6373C201.912 18.6392 201.476 19.0079 201.304 19.5437C201.286 19.5998 201.269 19.6325 201.256 19.6277C198.474 18.6407 198.476 21.564 198.506 23.3901C198.509 23.577 198.504 23.7424 198.482 23.8767V23.8862C198.427 24.2476 198.413 24.5116 198.474 24.6122Z" fill="#2F2E41"/>
<path d="M162.314 40.7568H133.03V41.2927H162.314V40.7568Z" fill="#3F3D56"/>
<path d="M168.208 44.4995C166.14 44.4995 164.458 42.817 164.458 40.7488C164.458 38.6806 166.14 36.998 168.208 36.998C170.277 36.998 171.959 38.6806 171.959 40.7488C171.959 42.817 170.277 44.4995 168.208 44.4995ZM168.208 37.5339C166.436 37.5339 164.994 38.9761 164.994 40.7488C164.994 42.5215 166.436 43.9637 168.208 43.9637C169.981 43.9637 171.423 42.5215 171.423 40.7488C171.423 38.9761 169.981 37.5339 168.208 37.5339Z" fill="#3F3D56"/>
<path d="M168.208 42.6243C169.244 42.6243 170.084 41.7846 170.084 40.7489C170.084 39.7132 169.244 38.8735 168.208 38.8735C167.173 38.8735 166.333 39.7132 166.333 40.7489C166.333 41.7846 167.173 42.6243 168.208 42.6243Z" fill="#EE2524"/>
<path d="M95.4194 60.582H66.135V61.1179H95.4194V60.582Z" fill="#3F3D56"/>
<path d="M56.4902 60.5745C56.4902 58.5063 58.1728 56.8237 60.241 56.8237C62.3092 56.8237 63.9917 58.5063 63.9917 60.5745C63.9917 62.6426 62.3092 64.3252 60.241 64.3252C58.1728 64.3252 56.4902 62.6426 56.4902 60.5745ZM57.0261 60.5745C57.0261 62.3471 58.4683 63.7894 60.241 63.7894C62.0136 63.7894 63.4559 62.3471 63.4559 60.5745C63.4559 58.8018 62.0136 57.3595 60.241 57.3595C58.4683 57.3595 57.0261 58.8018 57.0261 60.5745Z" fill="#3F3D56"/>
<path d="M60.2408 62.4495C61.2766 62.4495 62.1162 61.6098 62.1162 60.5741C62.1162 59.5384 61.2766 58.6987 60.2408 58.6987C59.2051 58.6987 58.3655 59.5384 58.3655 60.5741C58.3655 61.6098 59.2051 62.4495 60.2408 62.4495Z" fill="#EE2524"/>
</g>
<defs>
<clipPath id="clip0_1_295">
<rect width="228" height="141.379" fill="white"/>
</clipPath>
</defs>
</svg>
